<svg width="41" height="22" viewBox="0 0 41 22" fill="none" xmlns="http://www.w3.org/2000/svg">
<path d="M8.2073 0.292893C7.81677 -0.0976311 7.18361 -0.0976311 6.79308 0.292893L0.429124 6.65685C0.0385994 7.04738 0.0385994 7.68054 0.429124 8.07107C0.819648 8.46159 1.45281 8.46159 1.84334 8.07107L6.50019 3.41421V7C6.50019 10.7647 7.8385 13.6445 9.99807 15.8013C12.1309 17.9315 15.014 19.308 18.0531 20.2088C24.0965 22.0001 31.0873 22 34.9592 22H40C40.5523 22 41 21.5523 41 21C41 20.4477 40.5523 20 40 20H35.0002C31.0958 20 24.3648 19.9936 18.6215 18.2912C15.7565 17.442 13.221 16.1935 11.4114 14.3862C9.62842 12.6055 8.50019 10.2353 8.50019 7V3.41421L13.157 8.07107C13.5476 8.46159 14.1807 8.46159 14.5713 8.07107C14.9618 7.68054 14.9618 7.04738 14.5713 6.65685L8.2073 0.292893Z" fill="#F95C3A"/>
</svg>
