<svg width="18" height="18" viewBox="0 0 18 18" fill="none" xmlns="http://www.w3.org/2000/svg">
<path d="M12 9C12 10.6569 10.6569 12 9 12C7.34315 12 6 10.6569 6 9C6 7.34315 7.34315 6 9 6C9.30747 6 9.60413 6.04625 9.88341 6.13218C9.36251 6.36736 9 6.89135 9 7.5C9 8.32843 9.67157 9 10.5 9C11.1087 9 11.6326 8.63749 11.8678 8.11659C11.9537 8.39587 12 8.69253 12 9Z" fill="#74C733"/>
<path fill-rule="evenodd" clip-rule="evenodd" d="M9 14C5.53498 14 2.94819 11.4646 1.74589 10.0047C1.25852 9.41293 1.25852 8.58707 1.7459 7.99527C2.94819 6.53536 5.53498 4 9 4C12.465 4 15.0518 6.53536 16.2541 7.99527C16.7415 8.58707 16.7415 9.41293 16.2541 10.0047C15.0518 11.4646 12.465 14 9 14ZM8.47253 12.9771C3.98843 12.5888 3.98843 5.41115 8.47252 5.02285C8.64677 5.00776 8.82263 5 9 5C9.17736 5 9.35322 5.00776 9.52745 5.02285C14.0116 5.41113 14.0116 12.5889 9.52745 12.9771C9.35322 12.9922 9.17736 13 9 13C8.82263 13 8.64677 12.9922 8.47253 12.9771Z" fill="#74C733"/>
</svg>
