<svg width="342" height="48" viewBox="0 0 342 48" fill="none" xmlns="http://www.w3.org/2000/svg">
<path d="M50.3375 24.8983V21.9063L46.2752 21.9063C45.8574 17.3036 44.1812 4.01422 38.478 0.762921C37.2346 0.0498297 35.196 -0.523636 32.5734 0.772894C32.0851 1.01724 30.575 1.85001 28.0833 3.25126L32.4995 5.67042C32.6738 5.76589 32.8273 5.89466 32.951 6.04928C33.0747 6.20389 33.1663 6.38127 33.2203 6.57117C33.2744 6.76106 33.2899 6.95969 33.266 7.15556C33.2421 7.35143 33.1791 7.54065 33.0809 7.71228C32.8849 8.05534 32.5597 8.30754 32.1765 8.41372C31.7932 8.51989 31.3832 8.4714 31.0359 8.27886C27.4712 6.30156 17.8158 0.947567 17.4671 0.772859C14.8445 -0.52367 12.8059 0.0497947 11.5625 0.762886C5.85929 4.01418 4.18309 17.3036 3.76525 21.9063H0V24.8983H50.3375Z" fill="#343439"/>
<path d="M31.6216 30.4873C33.3408 29.1815 35.4459 28.4722 37.6123 28.4688C39.5275 28.4681 41.4013 29.0202 43.0049 30.0574C44.6085 31.0946 45.8724 32.5722 46.6422 34.3094C47.4119 36.0467 47.6542 37.9684 47.3393 39.8399C47.0245 41.7113 46.1662 43.4513 44.8693 44.8474C43.5724 46.2434 41.8931 47.235 40.0366 47.7009C38.1801 48.1669 36.2268 48.087 34.4153 47.4711C32.6039 46.8551 31.0128 45.7298 29.8365 44.2327C28.6601 42.7355 27.9495 40.9313 27.7914 39.0405C27.0415 38.3696 26.0615 38.0073 25.0512 38.0277C24.041 38.0481 23.0766 38.4496 22.355 39.1502C22.1289 41.5724 20.9954 43.8229 19.1777 45.4584C17.3601 47.0939 14.9901 47.9958 12.5347 47.9865C10.0792 47.9773 7.71627 47.0574 5.91132 45.4082C4.10636 43.759 2.99025 41.5 2.78284 39.0761C2.57543 36.6523 3.29176 34.2394 4.79073 32.3128C6.28969 30.3861 8.46261 29.0853 10.8815 28.6667C13.3003 28.2481 15.7897 28.7419 17.8593 30.051C19.9289 31.3601 21.4286 33.3894 22.0631 35.7393C23.0021 35.2867 24.0314 35.0477 25.0757 35.04C26.12 35.0322 27.1528 35.2558 28.0986 35.6945C28.6644 33.6228 29.9023 31.7931 31.6216 30.4873Z" fill="#343439"/>
<path d="M70.1539 42.5214H67.2176L66.6387 43.8621H65.5145L68.1572 38.069H69.2311L71.8822 43.8621H70.7412L70.1539 42.5214ZM69.7932 41.6772L68.6857 39.1448L67.5867 41.6772H69.7932Z" fill="#74C733"/>
<path d="M80.5179 38.069V43.8621H79.4273V41.3793H76.3903V43.8621H75.2996V38.069H76.3903V40.4607H79.4273V38.069H80.5179Z" fill="#74C733"/>
<path d="M87.4004 43.9448C86.8019 43.9448 86.2622 43.8179 85.7812 43.5641C85.3002 43.3048 84.9227 42.949 84.6486 42.4966C84.3746 42.0386 84.2375 41.5283 84.2375 40.9655C84.2375 40.4028 84.3746 39.8952 84.6486 39.4428C84.9227 38.9848 85.3002 38.629 85.7812 38.3752C86.2622 38.1159 86.8019 37.9862 87.4004 37.9862C87.9989 37.9862 88.5386 38.1159 89.0196 38.3752C89.5006 38.629 89.8781 38.9821 90.1522 39.4345C90.4262 39.8869 90.5633 40.3972 90.5633 40.9655C90.5633 41.5338 90.4262 42.0441 90.1522 42.4966C89.8781 42.949 89.5006 43.3048 89.0196 43.5641C88.5386 43.8179 87.9989 43.9448 87.4004 43.9448ZM87.4004 43.0014C87.7919 43.0014 88.1443 42.9159 88.4575 42.7448C88.7707 42.5683 89.0168 42.3255 89.1958 42.0166C89.3748 41.7021 89.4642 41.3517 89.4642 40.9655C89.4642 40.5793 89.3748 40.2317 89.1958 39.9228C89.0168 39.6083 88.7707 39.3655 88.4575 39.1945C88.1443 39.0179 87.7919 38.9297 87.4004 38.9297C87.0089 38.9297 86.6565 39.0179 86.3433 39.1945C86.0301 39.3655 85.784 39.6083 85.605 39.9228C85.4261 40.2317 85.3366 40.5793 85.3366 40.9655C85.3366 41.3517 85.4261 41.7021 85.605 42.0166C85.784 42.3255 86.0301 42.5683 86.3433 42.7448C86.6565 42.9159 87.0089 43.0014 87.4004 43.0014Z" fill="#74C733"/>
<path d="M99.5043 38.069V43.8621H98.4136V41.3793H95.3766V43.8621H94.286V38.069H95.3766V40.4607H98.4136V38.069H99.5043Z" fill="#74C733"/>
<path d="M103.677 38.069H104.751V42.1821L107.905 38.069H108.92V43.8621H107.847V39.7572L104.692 43.8621H103.677V38.069Z" fill="#74C733"/>
<path d="M118.478 43.8621L118.47 40.0221L116.54 43.2H116.054L114.124 40.0717V43.8621H113.092V38.069H113.99L116.314 41.9007L118.613 38.069H119.502L119.519 43.8621H118.478Z" fill="#74C733"/>
<path d="M128.897 38.069V43.8621H127.807V41.3793H124.77V43.8621H123.679V38.069H124.77V40.4607H127.807V38.069H128.897Z" fill="#74C733"/>
<path d="M135.78 43.9448C135.181 43.9448 134.642 43.8179 134.161 43.5641C133.68 43.3048 133.302 42.949 133.028 42.4966C132.754 42.0386 132.617 41.5283 132.617 40.9655C132.617 40.4028 132.754 39.8952 133.028 39.4428C133.302 38.9848 133.68 38.629 134.161 38.3752C134.642 38.1159 135.181 37.9862 135.78 37.9862C136.378 37.9862 136.918 38.1159 137.399 38.3752C137.88 38.629 138.258 38.9821 138.532 39.4345C138.806 39.8869 138.943 40.3972 138.943 40.9655C138.943 41.5338 138.806 42.0441 138.532 42.4966C138.258 42.949 137.88 43.3048 137.399 43.5641C136.918 43.8179 136.378 43.9448 135.78 43.9448ZM135.78 43.0014C136.171 43.0014 136.524 42.9159 136.837 42.7448C137.15 42.5683 137.396 42.3255 137.575 42.0166C137.754 41.7021 137.844 41.3517 137.844 40.9655C137.844 40.5793 137.754 40.2317 137.575 39.9228C137.396 39.6083 137.15 39.3655 136.837 39.1945C136.524 39.0179 136.171 38.9297 135.78 38.9297C135.388 38.9297 135.036 39.0179 134.723 39.1945C134.41 39.3655 134.163 39.6083 133.984 39.9228C133.805 40.2317 133.716 40.5793 133.716 40.9655C133.716 41.3517 133.805 41.7021 133.984 42.0166C134.163 42.3255 134.41 42.5683 134.723 42.7448C135.036 42.9159 135.388 43.0014 135.78 43.0014Z" fill="#74C733"/>
<path d="M147.07 42.96V43.8621H142.665V38.069H146.952V38.971H143.756V40.4772H146.592V41.3628H143.756V42.96H147.07Z" fill="#74C733"/>
<path d="M160.856 38.069V43.8621H159.766V41.3793H156.729V43.8621H155.638V38.069H156.729V40.4607H159.766V38.069H160.856Z" fill="#74C733"/>
<path d="M168.913 42.5214H165.977L165.398 43.8621H164.274L166.917 38.069H167.991L170.642 43.8621H169.501L168.913 42.5214ZM168.553 41.6772L167.445 39.1448L166.346 41.6772H168.553Z" fill="#74C733"/>
<path d="M174.068 38.069H178.64V38.9545H175.141V40.3779H176.878C177.583 40.3779 178.117 40.5241 178.48 40.8166C178.85 41.1034 179.034 41.52 179.034 42.0662C179.034 42.64 178.833 43.0841 178.43 43.3986C178.027 43.7076 177.454 43.8621 176.71 43.8621H174.068V38.069ZM176.652 43.0345C177.071 43.0345 177.39 42.9545 177.608 42.7945C177.826 42.6345 177.935 42.4028 177.935 42.0993C177.935 41.5034 177.507 41.2055 176.652 41.2055H175.141V43.0345H176.652Z" fill="#74C733"/>
<path d="M187.615 38.069V43.8621H186.541V38.9793H184.225L184.175 40.4276C184.147 41.2386 184.08 41.8979 183.974 42.4055C183.867 42.9076 183.697 43.291 183.462 43.5559C183.227 43.8152 182.903 43.9448 182.489 43.9448C182.343 43.9448 182.145 43.9172 181.893 43.8621L181.969 42.9269C182.041 42.949 182.125 42.96 182.22 42.96C182.561 42.96 182.802 42.7614 182.942 42.3641C183.087 41.9614 183.177 41.3297 183.21 40.469L183.294 38.069H187.615Z" fill="#74C733"/>
<path d="M196.809 37.9862C197.385 37.9862 197.903 38.1159 198.361 38.3752C198.825 38.629 199.189 38.9821 199.452 39.4345C199.715 39.8869 199.846 40.3972 199.846 40.9655C199.846 41.5338 199.715 42.0441 199.452 42.4966C199.189 42.949 198.825 43.3048 198.361 43.5641C197.903 43.8179 197.385 43.9448 196.809 43.9448C196.283 43.9448 195.802 43.8372 195.366 43.6221C194.935 43.4069 194.58 43.1062 194.301 42.72C194.027 42.3338 193.856 41.8952 193.789 41.4041H192.866V43.8621H191.792V38.069H192.866V40.4441H193.806C193.884 39.9641 194.06 39.5393 194.334 39.1697C194.614 38.7945 194.966 38.5048 195.391 38.3007C195.822 38.091 196.295 37.9862 196.809 37.9862ZM196.809 43.0014C197.173 43.0014 197.503 42.9159 197.799 42.7448C198.096 42.5738 198.328 42.3338 198.495 42.0248C198.663 41.7159 198.747 41.3628 198.747 40.9655C198.747 40.5683 198.663 40.2152 198.495 39.9062C198.328 39.5972 198.096 39.3572 197.799 39.1862C197.503 39.0152 197.173 38.9297 196.809 38.9297C196.446 38.9297 196.116 39.0152 195.819 39.1862C195.528 39.3572 195.296 39.5972 195.123 39.9062C194.955 40.2152 194.871 40.5683 194.871 40.9655C194.871 41.3628 194.955 41.7159 195.123 42.0248C195.296 42.3338 195.528 42.5738 195.819 42.7448C196.116 42.9159 196.446 43.0014 196.809 43.0014Z" fill="#74C733"/>
<path d="M209.242 42.9517V45.0952H208.235V43.8621H203.73V45.0952H202.715L202.723 42.9517H202.975C203.344 42.9352 203.601 42.6676 203.747 42.149C203.898 41.6248 203.99 40.8772 204.023 39.9062L204.091 38.069H208.394V42.9517H209.242ZM204.98 40.0055C204.952 40.7559 204.89 41.3821 204.795 41.8841C204.7 42.3807 204.549 42.7366 204.342 42.9517H207.321V38.9793H205.022L204.98 40.0055Z" fill="#74C733"/>
<path d="M217.19 42.96V43.8621H212.786V38.069H217.073V38.971H213.876V40.4772H216.712V41.3628H213.876V42.96H217.19Z" fill="#74C733"/>
<path d="M226.141 38.069V43.8621H225.051V41.3793H222.013V43.8621H220.923V38.069H222.013V40.4607H225.051V38.069H226.141Z" fill="#74C733"/>
<path d="M230.314 38.069H231.388V42.1821L234.542 38.069H235.557V43.8621H234.483V39.7572L231.329 43.8621H230.314V38.069Z" fill="#74C733"/>
<path d="M244.125 42.96V43.8621H239.721V38.069H244.008V38.971H240.811V40.4772H243.647V41.3628H240.811V42.96H244.125Z" fill="#74C733"/>
<path d="M256.561 40.8497C256.936 40.949 257.221 41.12 257.417 41.3628C257.613 41.6 257.71 41.8979 257.71 42.2566C257.71 42.7641 257.52 43.1586 257.14 43.44C256.76 43.7214 256.209 43.8621 255.487 43.8621H252.702V38.069H255.328C255.988 38.069 256.502 38.1986 256.871 38.4579C257.241 38.7172 257.425 39.0841 257.425 39.5586C257.425 39.8621 257.35 40.1241 257.199 40.3448C257.053 40.5655 256.841 40.7338 256.561 40.8497ZM253.776 40.5434H255.236C255.588 40.5434 255.856 40.4745 256.041 40.3366C256.225 40.1986 256.318 39.9945 256.318 39.7241C256.318 39.4538 256.225 39.2497 256.041 39.1117C255.856 38.9683 255.588 38.8966 255.236 38.8966H253.776V40.5434ZM255.454 43.0345C256.225 43.0345 256.611 42.7476 256.611 42.1738C256.611 41.611 256.225 41.3297 255.454 41.3297H253.776V43.0345H255.454Z" fill="#74C733"/>
<path d="M266.314 38.069H267.388V42.1821L270.542 38.069H271.557V43.8621H270.483V39.7572L267.329 43.8621H266.314V38.069Z" fill="#74C733"/>
<path d="M280.939 38.069V43.8621H279.848V41.3793H276.811V43.8621H275.721V38.069H276.811V40.4607H279.848V38.069H280.939Z" fill="#74C733"/>
<path d="M287.805 43.9448C287.212 43.9448 286.675 43.8179 286.194 43.5641C285.718 43.3048 285.344 42.949 285.07 42.4966C284.801 42.0441 284.667 41.5338 284.667 40.9655C284.667 40.3972 284.804 39.8869 285.078 39.4345C285.352 38.9821 285.727 38.629 286.202 38.3752C286.683 38.1159 287.22 37.9862 287.813 37.9862C288.294 37.9862 288.733 38.069 289.13 38.2345C289.527 38.4 289.863 38.64 290.137 38.9545L289.432 39.6083C289.007 39.1559 288.484 38.9297 287.863 38.9297C287.461 38.9297 287.1 39.0179 286.781 39.1945C286.462 39.3655 286.213 39.6055 286.034 39.9145C285.855 40.2234 285.766 40.5738 285.766 40.9655C285.766 41.3572 285.855 41.7076 286.034 42.0166C286.213 42.3255 286.462 42.5683 286.781 42.7448C287.1 42.9159 287.461 43.0014 287.863 43.0014C288.484 43.0014 289.007 42.7724 289.432 42.3145L290.137 42.9766C289.863 43.291 289.524 43.531 289.122 43.6966C288.725 43.8621 288.286 43.9448 287.805 43.9448Z" fill="#74C733"/>
<path d="M297.863 38.9793H295.916V43.8621H294.834V38.9793H292.896V38.069H297.863V38.9793Z" fill="#74C733"/>
<path d="M304.918 42.5214H301.982L301.403 43.8621H300.279L302.921 38.069H303.995L306.646 43.8621H305.505L304.918 42.5214ZM304.557 41.6772L303.45 39.1448L302.351 41.6772H304.557Z" fill="#74C733"/>
<path d="M314.049 38.9793H311.138L311.146 43.8621H310.072V38.069H314.057L314.049 38.9793Z" fill="#74C733"/>
<path d="M319.904 38.069C320.413 38.069 320.855 38.1517 321.23 38.3172C321.61 38.4828 321.901 38.72 322.103 39.029C322.304 39.3379 322.405 39.7048 322.405 40.1297C322.405 40.549 322.304 40.9159 322.103 41.2303C321.901 41.5393 321.61 41.7766 321.23 41.9421C320.855 42.1076 320.413 42.1903 319.904 42.1903H318.579V43.8621H317.488V38.069H319.904ZM319.854 41.28C320.33 41.28 320.69 41.1807 320.936 40.9821C321.182 40.7834 321.306 40.4993 321.306 40.1297C321.306 39.76 321.182 39.4759 320.936 39.2772C320.69 39.0786 320.33 38.9793 319.854 38.9793H318.579V41.28H319.854Z" fill="#74C733"/>
<path d="M329.551 42.5214H326.615L326.036 43.8621H324.912L327.554 38.069H328.628L331.279 43.8621H330.138L329.551 42.5214ZM329.19 41.6772L328.083 39.1448L326.984 41.6772H329.19Z" fill="#74C733"/>
<path d="M340.091 43.8621L340.083 40.0221L338.153 43.2H337.667L335.737 40.0717V43.8621H334.705V38.069H335.603L337.927 41.9007L340.226 38.069H341.115L341.132 43.8621H340.091Z" fill="#74C733"/>
<path d="M66.139 5.35385H72.6146V19.0117L82.2117 5.35385H88.3883V28.6154H81.9128V14.9908L72.3489 28.6154H66.139V5.35385Z" fill="#343439"/>
<path d="M116.493 5.35385V28.6154H109.917V19.5434H100.951V28.6154H94.3761V5.35385H100.951V14.0935H109.917V5.35385H116.493Z" fill="#343439"/>
<path d="M133.807 29.0806C131.372 29.0806 129.18 28.5711 127.232 27.552C125.306 26.5108 123.79 25.0708 122.683 23.232C121.576 21.3932 121.022 19.3108 121.022 16.9846C121.022 14.6585 121.576 12.576 122.683 10.7372C123.79 8.89846 125.306 7.46954 127.232 6.45046C129.18 5.40923 131.372 4.88861 133.807 4.88861C135.933 4.88861 137.848 5.26523 139.552 6.01846C141.257 6.77169 142.674 7.85723 143.803 9.27508L139.619 13.0634C138.113 11.2468 136.287 10.3385 134.139 10.3385C132.878 10.3385 131.748 10.6154 130.752 11.1692C129.778 11.7231 129.014 12.5095 128.461 13.5286C127.93 14.5255 127.664 15.6775 127.664 16.9846C127.664 18.2917 127.93 19.4548 128.461 20.4738C129.014 21.4708 129.778 22.2462 130.752 22.8C131.748 23.3538 132.878 23.6308 134.139 23.6308C136.287 23.6308 138.113 22.7225 139.619 20.9058L143.803 24.6942C142.674 26.112 141.257 27.1975 139.552 27.9508C137.848 28.704 135.933 29.0806 133.807 29.0806Z" fill="#343439"/>
<path d="M166.304 10.5711H159.198V28.6154H152.722V10.5711H145.582V5.35385H166.304V10.5711Z" fill="#343439"/>
<path d="M185.203 24.096H175.374L173.547 28.6154H166.839L177.101 5.35385H183.576L193.871 28.6154H187.03L185.203 24.096ZM183.277 19.2443L180.289 11.8006L177.3 19.2443H183.277Z" fill="#343439"/>
<path d="M229.045 5.35385V28.6154H197.531V5.35385H204.006V23.3982H210.083V5.35385H216.559V23.3982H222.569V5.35385H229.045Z" fill="#343439"/>
<path d="M256.828 5.35385V28.6154H250.319V10.5711H241.486V28.6154H235.01V5.35385H256.828Z" fill="#343439"/>
<path d="M262.793 5.35385H269.269V19.0117L278.866 5.35385H285.043V28.6154H278.567V14.9908L269.003 28.6154H262.793V5.35385Z" fill="#343439"/>
<path d="M302.454 29.0806C299.996 29.0806 297.783 28.56 295.812 27.5188C293.864 26.4775 292.325 25.0375 291.196 23.1988C290.089 21.36 289.536 19.2886 289.536 16.9846C289.536 14.6806 290.089 12.6092 291.196 10.7705C292.325 8.93169 293.864 7.49169 295.812 6.45046C297.783 5.40923 299.996 4.88861 302.454 4.88861C304.911 4.88861 307.114 5.40923 309.062 6.45046C311.033 7.49169 312.571 8.93169 313.678 10.7705C314.807 12.6092 315.372 14.6806 315.372 16.9846C315.372 19.2886 314.807 21.36 313.678 23.1988C312.571 25.0375 311.033 26.4775 309.062 27.5188C307.114 28.56 304.911 29.0806 302.454 29.0806ZM302.454 23.6308C303.627 23.6308 304.69 23.3538 305.642 22.8C306.594 22.2462 307.346 21.4708 307.9 20.4738C308.453 19.4548 308.73 18.2917 308.73 16.9846C308.73 15.6775 308.453 14.5255 307.9 13.5286C307.346 12.5095 306.594 11.7231 305.642 11.1692C304.69 10.6154 303.627 10.3385 302.454 10.3385C301.28 10.3385 300.218 10.6154 299.266 11.1692C298.314 11.7231 297.561 12.5095 297.008 13.5286C296.454 14.5255 296.178 15.6775 296.178 16.9846C296.178 18.2917 296.454 19.4548 297.008 20.4738C297.561 21.4708 298.314 22.2462 299.266 22.8C300.218 23.3538 301.28 23.6308 302.454 23.6308Z" fill="#343439"/>
<path d="M342 5.35385V28.6154H335.425V19.5434H326.459V28.6154H319.884V5.35385H326.459V14.0935H335.425V5.35385H342Z" fill="#343439"/>
</svg>
