<svg width="51" height="48" viewBox="0 0 51 48" fill="none" xmlns="http://www.w3.org/2000/svg">
<path d="M50.3375 24.8983V21.9063L46.2752 21.9063C45.8574 17.3036 44.1812 4.01422 38.478 0.762921C37.2346 0.0498297 35.196 -0.523636 32.5734 0.772894C32.0851 1.01724 30.575 1.85001 28.0833 3.25126L32.4995 5.67042C32.6738 5.76589 32.8273 5.89466 32.951 6.04928C33.0747 6.20389 33.1663 6.38127 33.2203 6.57117C33.2744 6.76106 33.2899 6.95969 33.266 7.15556C33.2421 7.35143 33.1791 7.54065 33.0809 7.71228C32.8849 8.05534 32.5597 8.30754 32.1765 8.41372C31.7932 8.51989 31.3832 8.4714 31.0359 8.27886C27.4712 6.30156 17.8158 0.947567 17.4671 0.772859C14.8445 -0.52367 12.8059 0.0497947 11.5625 0.762886C5.85929 4.01418 4.18309 17.3036 3.76525 21.9063H0V24.8983H50.3375Z" fill="#343439"/>
<path d="M31.6216 30.4873C33.3408 29.1815 35.4459 28.4722 37.6123 28.4688C39.5275 28.4681 41.4013 29.0202 43.0049 30.0574C44.6085 31.0946 45.8724 32.5721 46.6422 34.3094C47.4119 36.0467 47.6542 37.9684 47.3393 39.8398C47.0245 41.7113 46.1662 43.4513 44.8693 44.8474C43.5724 46.2434 41.8931 47.235 40.0366 47.7009C38.1801 48.1668 36.2268 48.087 34.4153 47.471C32.6039 46.8551 31.0128 45.7298 29.8365 44.2326C28.6601 42.7355 27.9495 40.9313 27.7914 39.0405C27.0415 38.3695 26.0615 38.0073 25.0512 38.0277C24.041 38.0481 23.0766 38.4496 22.355 39.1502C22.1289 41.5724 20.9954 43.8229 19.1777 45.4584C17.3601 47.0939 14.9901 47.9958 12.5347 47.9865C10.0792 47.9772 7.71627 47.0574 5.91132 45.4082C4.10636 43.759 2.99025 41.4999 2.78284 39.0761C2.57543 36.6523 3.29176 34.2394 4.79073 32.3127C6.28969 30.3861 8.46261 29.0853 10.8815 28.6667C13.3003 28.2481 15.7897 28.7419 17.8593 30.051C19.9289 31.3601 21.4286 33.3894 22.0631 35.7393C23.0021 35.2867 24.0314 35.0477 25.0757 35.04C26.12 35.0322 27.1528 35.2558 28.0986 35.6945C28.6644 33.6228 29.9023 31.7931 31.6216 30.4873Z" fill="#343439"/>
</svg>
