<svg width="28" height="44" viewBox="0 0 28 44" fill="none" xmlns="http://www.w3.org/2000/svg">
<path d="M24.1706 24.8478L18.9412 23.2455L18.1176 21.5851L17.5247 21.8259L17.5165 21.8093C17.1788 21.0953 16.8824 19.7919 16.8824 19.1444C18.6118 18.1399 19.7647 16.2636 19.7647 14.1135H21.4118C21.8647 14.1135 22.2353 13.7399 22.2353 13.2833V10.7927V8.30213C22.2353 6.01081 21.3129 3.93534 19.8224 2.4327C18.3318 0.930056 16.2729 0.000244141 14 0.000244141C9.45412 0.000244141 5.76471 3.71949 5.76471 8.30213V10.7927V13.2833C5.76471 13.7399 6.13529 14.1135 6.58824 14.1135H8.23529C8.23529 15.724 8.87765 17.1685 9.92353 18.2229C10.2776 18.5799 10.6812 18.8953 11.1176 19.1444C11.1176 19.7919 10.8212 21.0953 10.4835 21.8093L10.4753 21.8259L9.88235 21.5851L9.05882 23.2455L3.82941 24.8478C1.58941 25.3625 0 27.3799 0 29.6961V44.0002H28V29.6961C28 27.3799 26.4106 25.3625 24.1706 24.8478Z" fill="#FFD5C2"/>
<path d="M22.2352 8.30237V10.7929C22.2352 10.3363 21.8646 9.96275 21.4117 9.96275H19.7646V9.13256C13.9999 9.96275 11.5294 5.81181 11.5294 5.81181C10.9282 7.62162 8.23524 9.13256 8.23524 9.13256V9.96275H6.58818C6.13524 9.96275 5.76465 10.3363 5.76465 10.7929V8.30237C5.76465 3.71973 9.45406 0.000488281 13.9999 0.000488281C16.2729 0.000488281 18.3317 0.9303 19.8223 2.43294C21.3129 3.93558 22.2352 6.01105 22.2352 8.30237Z" fill="#563D35"/>
<path d="M14 23.2456L12.353 24.906L9.05884 23.2456L9.88237 21.5852L10.4753 21.826L14 23.2456Z" fill="#F4F4F4"/>
<path d="M18.1177 21.5852L18.9412 23.2456L15.6471 24.906L14.0001 23.2456L17.5248 21.826L18.1177 21.5852Z" fill="#E2E2E2"/>
<path d="M18.9413 23.2456L15.6472 33.7641V24.906L18.9413 23.2456Z" fill="#F4F4F4"/>
<path d="M12.353 24.906V33.7641L9.05884 23.2456L12.353 24.906Z" fill="#E2E2E2"/>
<path d="M15.6471 24.906V33.7641L14 39.0192L12.353 33.7641V24.906L14 23.2456L15.6471 24.906Z" fill="#C93329"/>
<path d="M12.353 33.7292V33.7641L14 39.0192L15.6471 33.7641V24.906L15.5219 24.7798C15.2106 27.8814 14.2594 31.2362 12.353 33.7292Z" fill="#96221B"/>
<path d="M12.353 33.7641L14.0001 39.0192L6.20126 30.5928L7.98832 28.783L5.00714 25.7777L9.05891 23.2456L12.353 33.7641Z" fill="#88879B"/>
<path d="M22.993 25.7777L20.0118 28.783L21.7989 30.5928L14.0001 39.0192L15.6471 33.7641L18.9412 23.2456L22.993 25.7777Z" fill="#88879B"/>
<path d="M14 39.0192L21.7988 30.5928L20.0118 28.783L22.9929 25.7777L18.9412 23.2456L24.1706 24.8479C26.4106 25.3626 28 27.3799 28 29.6962V44.0003H0V29.6962C0 27.3799 1.58941 25.3626 3.82941 24.8479L9.05882 23.2456L5.00706 25.7777L7.98824 28.783L6.20118 30.5928L14 39.0192Z" fill="#595866"/>
<path d="M28 29.6961V44.0003H0V41.5097H20.5882C23.3141 41.5097 25.5294 39.2765 25.5294 36.5286V25.3875C27.0282 26.2591 28 27.8863 28 29.6961Z" fill="#343439"/>
<path d="M17.5163 21.8092L17.5245 21.8258L13.9998 23.2454L10.4751 21.8258L10.4833 21.8092C10.821 21.0952 11.1175 19.7918 11.1175 19.1443C11.9657 19.6424 12.9457 19.9247 13.9998 19.9247C15.0539 19.9247 16.0339 19.6424 16.8822 19.1443C16.8822 19.7918 17.1786 21.0952 17.5163 21.8092Z" fill="#F9B9A5"/>
<path d="M5.76461 34.0382V44.0005H4.11755V34.0382C4.11755 33.5816 4.48814 33.208 4.94108 33.208C5.39402 33.208 5.76461 33.5816 5.76461 34.0382Z" fill="#161516"/>
<path d="M23.8822 34.0382V44.0005H22.2351V34.0382C22.2351 33.5816 22.6057 33.208 23.0586 33.208C23.5116 33.208 23.8822 33.5816 23.8822 34.0382Z" fill="#161516"/>
<path d="M19.8224 2.43296C19.4123 2.01953 18.956 1.65424 18.4669 1.33545C19.6396 4.01945 20.1312 6.93507 18.8967 9.2156C19.1792 9.19817 19.465 9.17575 19.7647 9.13258V9.96277H21.4118C21.8647 9.96277 22.2353 10.3364 22.2353 10.793V8.30239C22.2353 6.01107 21.313 3.9356 19.8224 2.43296Z" fill="#382621"/>
<path d="M9.86597 5.13068C9.62714 5.13898 9.38832 5.14728 9.13303 5.14728C8.1942 5.14728 7.30479 5.07256 6.48126 4.93143C6.5142 4.84011 6.55538 4.75709 6.59656 4.67407C7.59303 4.94803 8.69656 5.10577 9.86597 5.13068Z" fill="#91675A"/>
<path d="M18.7255 3.53809C17.4292 4.05114 15.8934 4.3691 14.2323 4.41144C14.4744 4.41809 14.7165 4.42473 14.9644 4.42473C16.3554 4.42473 17.6549 4.26201 18.779 3.98224C18.7691 3.83197 18.7494 3.6842 18.7255 3.53809Z" fill="#91675A"/>
<path d="M20.6129 3.34626C20.267 3.5206 19.8717 3.66173 19.4517 3.79456C19.427 3.61192 19.3941 3.43758 19.3694 3.26324C19.6576 3.12211 19.9211 2.97268 20.1764 2.81494C20.3247 2.98098 20.4729 3.16362 20.6129 3.34626Z" fill="#6A4134"/>
<path d="M19.7645 9.13232V14.1135C19.7645 16.2636 18.6115 18.1399 16.8821 19.1444C16.0339 19.6425 15.0539 19.9248 13.9998 19.9248C12.9457 19.9248 11.9657 19.6425 11.1174 19.1444C10.9527 19.0531 10.7962 18.9535 10.648 18.8372C11.1833 19.0033 11.7598 19.0946 12.3527 19.0946C13.4068 19.0946 14.3868 18.8123 15.2351 18.3142C16.9645 17.3097 18.1174 15.4335 18.1174 13.2833V9.24025C18.6362 9.24855 19.1798 9.21534 19.7645 9.13232Z" fill="#FCAD95"/>
<path d="M11.4512 12.4249C10.8681 12.4249 10.3592 12.2115 10.066 12.0139C9.68801 11.7582 9.58672 11.2427 9.84037 10.8616C10.0915 10.4839 10.5955 10.3818 10.9735 10.6284C11.0271 10.6616 11.4504 10.9081 11.8506 10.6367C12.2261 10.3793 12.7392 10.4806 12.9937 10.8591C13.249 11.2394 13.1493 11.7549 12.773 12.0123C12.3282 12.3145 11.8704 12.4249 11.4512 12.4249Z" fill="#7C4D4D"/>
<path d="M14.1581 17.2396C13.2687 17.2396 12.6008 16.9257 12.5588 16.9066C12.1478 16.7091 11.9741 16.2134 12.1692 15.8C12.3644 15.3874 12.8528 15.2131 13.2612 15.404C13.2884 15.4165 14.1449 15.7942 14.947 15.4065C15.3579 15.2114 15.8488 15.3857 16.0448 15.8C16.2399 16.2134 16.0662 16.7091 15.6552 16.9066C15.1339 17.1557 14.6168 17.2396 14.1581 17.2396Z" fill="#C95F5F"/>
<path d="M16.8255 12.4252C16.2408 12.4252 15.7327 12.2111 15.4412 12.0118C15.064 11.7544 14.9652 11.2389 15.2205 10.8587C15.4733 10.4834 15.979 10.3813 16.3545 10.6304C16.408 10.6636 16.8264 10.9068 17.2307 10.6345C17.6079 10.3788 18.1201 10.4809 18.373 10.862C18.6258 11.2431 18.5253 11.7586 18.1473 12.0143C17.701 12.3157 17.2431 12.4252 16.8255 12.4252Z" fill="#7C4D4D"/>
<path d="M22.2354 29.0568L24.7059 30.7172L14.0001 39.0191L21.7989 30.5927L20.0118 28.7829L22.993 25.7776L24.5462 26.6974L22.2354 29.0568Z" fill="#343439"/>
<path d="M14 42.3398C14.4549 42.3398 14.8236 41.9681 14.8236 41.5096C14.8236 41.0511 14.4549 40.6794 14 40.6794C13.5452 40.6794 13.1765 41.0511 13.1765 41.5096C13.1765 41.9681 13.5452 42.3398 14 42.3398Z" fill="#161516"/>
</svg>
