<svg width="44" height="44" viewBox="0 0 44 44" fill="none" xmlns="http://www.w3.org/2000/svg">
<g clip-path="url(#clip0_113_1274)">
<path d="M33.7823 9.3481C33.4534 9.72929 33.0656 10.1018 32.6162 10.459L25.8056 14.61C22.5797 16.9922 18.5762 13.3234 18.5762 13.3234C18.5762 13.3234 22.9319 14.7806 22.9319 9.62037C22.9319 3.08646 26.3394 1.77804 30.8592 1.86371C35.0275 1.94363 36.6931 5.98058 33.7823 9.3481Z" fill="#161516"/>
<path d="M41.3564 32.464L41.3599 44.0001H23.8525V33.0181C23.8525 30.5658 25.1868 28.4259 27.1704 27.2846C27.7083 26.9748 28.2938 26.7387 28.9134 26.5905C29.2402 26.5115 29.577 26.4576 29.9218 26.4298C30.1005 26.4154 30.281 26.4082 30.4633 26.4082H34.7681C35.2772 26.4082 35.772 26.4648 36.2479 26.5734C36.2722 26.5797 36.2955 26.5842 36.3188 26.5905C36.9384 26.7387 37.5239 26.9748 38.0618 27.2846C39.8936 28.3397 41.1723 30.247 41.3564 32.464Z" fill="#F95C3A"/>
<path d="M41.3564 32.464L41.3601 44.0001H27.2288V33.0181C27.2288 29.367 30.1885 26.4082 33.8405 26.4082H34.7681C38.2333 26.4082 41.0753 29.0724 41.3564 32.464Z" fill="#FF9559"/>
<path d="M35.5931 29.098C35.5931 30.6409 34.4191 31.91 32.9154 32.0604C32.8174 32.0698 32.7172 32.0749 32.6163 32.0749C32.5161 32.0749 32.4166 32.0699 32.3186 32.0604C30.8142 31.9109 29.6394 30.6416 29.6394 29.098C29.6394 27.4542 30.9725 26.1211 32.6163 26.1211C34.26 26.1211 35.5931 27.4542 35.5931 29.098Z" fill="#F2EFEA"/>
<path d="M32.6154 29.1141L29.6393 30.7681L28.7339 26.5569L30.5832 25.4678" fill="#D8D4CE"/>
<path d="M32.6154 29.1141L35.5916 30.7681L36.4969 26.5569L34.6477 25.4678" fill="#D8D4CE"/>
<path d="M34.9743 23.8613V26.7558C34.9743 27.8155 34.2756 28.7112 33.3131 29.0087C33.0929 29.077 32.8581 29.114 32.6152 29.114C31.3128 29.114 30.257 28.0584 30.257 26.7558V23.8613H34.9743Z" fill="#EA9D88"/>
<path d="M34.9743 26.5723V26.7556C34.9743 27.8153 34.2756 28.711 33.3131 29.0085C32.4448 28.7415 31.7919 27.9866 31.6713 27.0628C31.8289 27.0724 31.9873 27.0773 32.1465 27.0773C32.5927 27.0773 33.0301 27.0419 33.4563 26.9719C33.9813 26.8874 34.4887 26.7524 34.9743 26.5723Z" fill="#F6C2AA"/>
<path d="M26.0392 19.1177C26.0392 20.2095 25.2416 21.1148 24.1972 21.2829C24.0831 21.3014 23.9656 21.311 23.8458 21.311C22.6341 21.311 21.6525 20.3293 21.6525 19.1177C21.6525 17.9061 22.6342 16.9243 23.8458 16.9243C23.9656 16.9243 24.083 16.9339 24.1972 16.9524C25.2415 17.1205 26.0392 18.0258 26.0392 19.1177Z" fill="#F6C2AA"/>
<path d="M26.0392 19.1179C26.0392 20.2097 25.2416 21.115 24.1972 21.2831C24.0075 20.5933 23.9062 19.8672 23.9062 19.1179C23.9062 18.3685 24.0075 17.6425 24.1972 16.9526C25.2415 17.1207 26.0392 18.0261 26.0392 19.1179Z" fill="#EA9D88"/>
<path d="M23.8457 19.9018C24.2787 19.9018 24.6297 19.5509 24.6297 19.1179C24.6297 18.685 24.2787 18.334 23.8457 18.334C23.4128 18.334 23.0618 18.685 23.0618 19.1179C23.0618 19.5509 23.4128 19.9018 23.8457 19.9018Z" fill="#EA9D88"/>
<path d="M39.192 19.1177C39.192 20.2095 39.9896 21.1148 41.034 21.2829C41.1481 21.3014 41.2656 21.311 41.3854 21.311C42.5971 21.311 43.5787 20.3293 43.5787 19.1177C43.5787 17.9061 42.597 16.9243 41.3854 16.9243C41.2656 16.9243 41.1482 16.9339 41.034 16.9524C39.9896 17.1205 39.192 18.0258 39.192 19.1177Z" fill="#F6C2AA"/>
<path d="M39.192 19.1179C39.192 20.2097 39.9896 21.115 41.034 21.2831C41.2237 20.5933 41.325 19.8672 41.325 19.1179C41.325 18.3685 41.2237 17.6425 41.034 16.9526C39.9896 17.1207 39.192 18.0261 39.192 19.1179Z" fill="#EA9D88"/>
<path d="M41.3854 19.9018C41.8183 19.9018 42.1693 19.5509 42.1693 19.1179C42.1693 18.685 41.8183 18.334 41.3854 18.334C40.9524 18.334 40.6014 18.685 40.6014 19.1179C40.6014 19.5509 40.9524 19.9018 41.3854 19.9018Z" fill="#EA9D88"/>
<path d="M40.7765 14.8445V17.9521C40.7765 22.013 37.8097 25.382 33.9252 26.0071C33.9121 26.0093 33.8984 26.0115 33.8853 26.0137C33.4721 26.0798 33.0481 26.1125 32.6154 26.1125C28.1086 26.1125 24.4551 22.4588 24.4551 17.9522V14.8446C24.4551 13.8956 24.617 12.9837 24.9162 12.1364C26.0322 8.96046 29.0585 6.68359 32.6155 6.68359H32.6162C33.0482 6.68359 33.4729 6.717 33.8868 6.78237C37.7901 7.39208 40.7765 10.7698 40.7765 14.8445Z" fill="#EA9D88"/>
<path d="M40.7763 14.8446V17.9521C40.7763 22.0131 37.8096 25.382 33.9251 26.0072C33.912 26.0093 33.8982 26.0116 33.8851 26.0137C29.9818 25.4038 26.9962 22.0262 26.9962 17.9521V14.8446C26.9962 10.7699 29.9825 7.39212 33.8866 6.78223C37.79 7.39221 40.7763 10.7699 40.7763 14.8446Z" fill="#F6C2AA"/>
<path d="M37.1536 21.1111C37.715 21.1111 38.1701 20.656 38.1701 20.0946C38.1701 19.5332 37.715 19.0781 37.1536 19.0781C36.5922 19.0781 36.1371 19.5332 36.1371 20.0946C36.1371 20.656 36.5922 21.1111 37.1536 21.1111Z" fill="#EA9D88"/>
<path d="M28.0777 21.1111C28.639 21.1111 29.0941 20.656 29.0941 20.0946C29.0941 19.5332 28.639 19.0781 28.0777 19.0781C27.5163 19.0781 27.0612 19.5332 27.0612 20.0946C27.0612 20.656 27.5163 21.1111 28.0777 21.1111Z" fill="#EA9D88"/>
<path d="M36.9981 17.2631C36.9981 16.5146 36.3912 15.9077 35.6427 15.9077C34.8941 15.9077 34.2873 16.5146 34.2873 17.2631" fill="#EA9D88"/>
<path d="M30.9445 17.2631C30.9445 16.5146 30.3376 15.9077 29.5891 15.9077C28.8405 15.9077 28.2337 16.5146 28.2337 17.2631" fill="#EA9D88"/>
<path d="M31.7122 17.8397C31.7122 19.3288 30.5054 20.5356 29.017 20.5356C28.7918 20.5356 28.5727 20.508 28.3635 20.4557C27.1902 20.1638 26.3211 19.1037 26.3211 17.8397C26.3211 16.5763 27.1902 15.5162 28.3635 15.2244C28.5727 15.1721 28.7919 15.1445 29.017 15.1445C30.5055 15.1444 31.7122 16.3512 31.7122 17.8397Z" fill="white"/>
<path d="M38.917 17.8397C38.917 19.3288 37.7103 20.5356 36.2218 20.5356C35.9967 20.5356 35.7774 20.508 35.5684 20.4557C34.3957 20.1638 33.5267 19.1037 33.5267 17.8397C33.5267 16.5763 34.3958 15.5162 35.5684 15.2244C35.7775 15.1721 35.9968 15.1445 36.2218 15.1445C37.7103 15.1444 38.917 16.3512 38.917 17.8397Z" fill="white"/>
<path d="M30.4053 17.8394C30.4053 19.1036 29.5362 20.1636 28.3636 20.4555C27.1903 20.1635 26.3212 19.1035 26.3212 17.8394C26.3212 16.5761 27.1904 15.516 28.3636 15.2241C29.5362 15.516 30.4053 16.576 30.4053 17.8394Z" fill="#C1DCE5"/>
<path d="M37.6101 17.8394C37.6101 19.1036 36.741 20.1636 35.5684 20.4555C34.3958 20.1635 33.5267 19.1035 33.5267 17.8394C33.5267 16.5761 34.3959 15.516 35.5684 15.2241C36.741 15.516 37.6101 16.576 37.6101 17.8394Z" fill="#C1DCE5"/>
<path d="M29.0167 20.9646C27.2937 20.9646 25.8918 19.5628 25.8918 17.8397C25.8918 16.1166 27.2937 14.7148 29.0167 14.7148C30.7397 14.7148 32.1416 16.1166 32.1416 17.8397C32.1416 19.5628 30.7397 20.9646 29.0167 20.9646ZM29.0167 15.574C27.7674 15.574 26.751 16.5904 26.751 17.8397C26.751 19.0891 27.7674 20.1055 29.0167 20.1055C30.2661 20.1055 31.2825 19.0891 31.2825 17.8397C31.2825 16.5904 30.2661 15.574 29.0167 15.574Z" fill="#C93329"/>
<path d="M36.2217 20.9646C34.4987 20.9646 33.0968 19.5628 33.0968 17.8397C33.0968 16.1166 34.4987 14.7148 36.2217 14.7148C37.9447 14.7148 39.3466 16.1166 39.3466 17.8397C39.3466 19.5628 37.9447 20.9646 36.2217 20.9646ZM36.2217 15.574C34.9724 15.574 33.956 16.5904 33.956 17.8397C33.956 19.0891 34.9724 20.1055 36.2217 20.1055C37.471 20.1055 38.4874 19.0891 38.4874 17.8397C38.4874 16.5904 37.471 15.574 36.2217 15.574Z" fill="#C93329"/>
<path d="M33.5264 17.4102H31.712V18.2693H33.5264V17.4102Z" fill="#C93329"/>
<path d="M40.7765 16.0054V16.9384L39.0267 17.679L38.692 16.8875L40.7765 16.0054Z" fill="#C93329"/>
<path d="M26.5077 16.8874L26.1731 17.6788L24.4551 16.9513V16.019L26.5077 16.8874Z" fill="#C93329"/>
<path d="M29.5891 18.7655C30.1003 18.7655 30.5148 18.351 30.5148 17.8398C30.5148 17.3285 30.1003 16.9141 29.5891 16.9141C29.0778 16.9141 28.6634 17.3285 28.6634 17.8398C28.6634 18.351 29.0778 18.7655 29.5891 18.7655Z" fill="#233559"/>
<path d="M35.6427 18.7655C36.1539 18.7655 36.5684 18.351 36.5684 17.8398C36.5684 17.3285 36.1539 16.9141 35.6427 16.9141C35.1314 16.9141 34.717 17.3285 34.717 17.8398C34.717 18.351 35.1314 18.7655 35.6427 18.7655Z" fill="#233559"/>
<path d="M33.5417 20.534H31.6902C31.4696 20.534 31.2908 20.3552 31.2908 20.1347C31.2908 19.9141 31.4696 19.7354 31.6902 19.7354H33.5417C33.7622 19.7354 33.941 19.9141 33.941 20.1347C33.9411 20.3552 33.7622 20.534 33.5417 20.534Z" fill="#EA9D88"/>
<path d="M32.6159 23.0606C31.9326 23.0606 31.2492 22.8893 30.6263 22.5469C30.4506 22.4503 30.3865 22.2296 30.4831 22.0539C30.5797 21.8782 30.8004 21.8142 30.9761 21.9107C32.0029 22.4752 33.229 22.4752 34.2557 21.9107C34.4314 21.8141 34.6521 21.8782 34.7487 22.0539C34.8453 22.2297 34.7812 22.4504 34.6055 22.5469C33.9826 22.8893 33.2993 23.0606 32.6159 23.0606Z" fill="#EA9D88"/>
<path d="M29.9294 18.0732C30.1485 18.0732 30.3261 17.8956 30.3261 17.6765C30.3261 17.4574 30.1485 17.2798 29.9294 17.2798C29.7103 17.2798 29.5327 17.4574 29.5327 17.6765C29.5327 17.8956 29.7103 18.0732 29.9294 18.0732Z" fill="white"/>
<path d="M36.0286 18.0732C36.2477 18.0732 36.4253 17.8956 36.4253 17.6765C36.4253 17.4574 36.2477 17.2798 36.0286 17.2798C35.8095 17.2798 35.6318 17.4574 35.6318 17.6765C35.6318 17.8956 35.8095 18.0732 36.0286 18.0732Z" fill="white"/>
<path d="M41.6256 13.1641C41.6256 17.4371 40.7769 17.9519 40.7769 17.9519C40.7769 17.9519 39.2296 10.4588 32.6166 10.4588H32.6151C30.5269 10.4588 28.9441 11.2059 27.7556 12.2282C25.1795 14.4435 24.4548 17.9518 24.4548 17.9518C24.4548 17.9518 23.6061 17.437 23.6061 13.164C23.6061 8.89111 27.4412 6.6657 31.3446 6.05581C31.7085 5.99834 32.0812 5.96718 32.4595 5.96008C32.5111 5.95811 32.563 5.95703 32.6152 5.95703H32.6167C33.0487 5.95703 33.4734 5.99044 33.8873 6.05581C37.7905 6.66579 41.6256 8.8912 41.6256 13.1641Z" fill="#343439"/>
<path d="M35.2453 5.75562C34.7973 5.64014 34.3428 5.54648 33.8868 5.47536C33.4729 5.40999 33.0482 5.37659 32.6162 5.37659H32.6148C32.5625 5.37659 32.511 5.37731 32.4594 5.37946C32.0811 5.38673 31.7086 5.41789 31.3442 5.47527C29.8324 5.71126 28.331 6.18978 27.0582 6.93616C26.2907 4.50961 28.2141 2.07587 30.8592 1.86377C33.5645 1.91549 35.2162 3.63482 35.2453 5.75562Z" fill="#343439"/>
<path d="M34.6899 8.90967C33.3998 9.79685 33.0733 11.5618 33.9605 12.8518C34.8477 14.1418 36.6127 14.4683 37.9027 13.5811" fill="#343439"/>
<path d="M27.7555 12.2281C25.1794 14.4433 24.4548 17.9517 24.4548 17.9517C24.4548 17.9517 23.606 17.4369 23.606 13.1639C23.606 8.89099 27.4411 6.66558 31.3445 6.05568C31.7085 5.99821 32.0811 5.96705 32.4595 5.95996C29.3352 6.07723 27.5384 9.70948 27.7555 12.2281Z" fill="#161516"/>
<path d="M11.8981 28.5601L3.43085 33.0762L3.45105 16.9565" fill="#91231C"/>
<path d="M20.3636 16.9565V31.3929L11.9165 28.5601H12.3876" fill="#C93329"/>
<path d="M20.6916 33.0762V43.9612H20.6907C19.5665 43.8957 18.4665 43.7448 17.3934 43.5167C13.1901 42.6215 9.43212 40.5256 6.4931 37.6046L6.4922 37.6037C6.46257 37.574 6.43294 37.5444 6.40331 37.5139C5.13898 36.2442 4.03 34.8209 3.1051 33.2737V33.0762C3.1051 31.6071 3.58282 30.2485 4.39188 29.1494C4.93694 28.4077 5.63286 27.7845 6.43474 27.3238C6.97441 27.0132 7.56167 26.7761 8.18306 26.627C8.51171 26.548 8.84935 26.4932 9.19596 26.4654C9.37465 26.451 9.55514 26.4438 9.73833 26.4438H14.0575C14.5684 26.4438 15.065 26.5004 15.5427 26.61C15.5661 26.6154 15.5903 26.6207 15.6137 26.627C16.2351 26.7761 16.8223 27.0132 17.362 27.3238C18.1639 27.7854 18.8589 28.4086 19.4031 29.1485C20.2139 30.2485 20.6916 31.6071 20.6916 33.0762Z" fill="#EA9D88"/>
<path d="M20.6908 33.0762V43.9612C19.5665 43.8957 18.4665 43.7448 17.3935 43.5167C13.1901 42.6215 9.43217 40.5256 6.49315 37.6046L6.49225 37.6037V33.0762C6.49225 29.4134 9.4627 26.4438 13.1264 26.4438H14.0576C17.7221 26.4438 20.6908 29.4134 20.6908 33.0762Z" fill="#F6C2AA"/>
<path d="M14.2642 23.8892V26.7933C14.2642 27.8566 13.5632 28.7553 12.5975 29.0538C12.3765 29.1224 12.1409 29.1595 11.8973 29.1595C10.5904 29.1595 9.53119 28.1002 9.53119 26.7933V23.8892H14.2642Z" fill="#EA9D88"/>
<path d="M14.2643 26.6094V26.7933C14.2643 27.8566 13.5632 28.7552 12.5976 29.0537C11.7263 28.7858 11.0712 28.0283 10.9503 27.1015C11.1084 27.1112 11.2673 27.116 11.427 27.116C11.8747 27.116 12.3135 27.0805 12.7411 27.0103C13.268 26.9255 13.777 26.79 14.2643 26.6094Z" fill="#F6C2AA"/>
<path d="M5.2992 19.1294C5.2992 20.2249 4.49894 21.1333 3.45102 21.3019C3.33644 21.3205 3.21872 21.3301 3.09848 21.3301C1.88274 21.3301 0.897766 20.3452 0.897766 19.1294C0.897766 17.9137 1.88274 16.9287 3.09848 16.9287C3.21872 16.9287 3.33644 16.9384 3.45102 16.9569C4.49894 17.1255 5.2992 18.0339 5.2992 19.1294Z" fill="#F6C2AA"/>
<path d="M5.29919 19.1295C5.29919 20.2251 4.49893 21.1334 3.45101 21.3021C3.26065 20.6099 3.159 19.8814 3.159 19.1295C3.159 18.3777 3.26065 17.6492 3.45101 16.957C4.49893 17.1257 5.29919 18.034 5.29919 19.1295Z" fill="#EA9D88"/>
<path d="M3.09847 19.9158C3.53286 19.9158 3.88499 19.5637 3.88499 19.1293C3.88499 18.6949 3.53286 18.3428 3.09847 18.3428C2.66409 18.3428 2.31195 18.6949 2.31195 19.1293C2.31195 19.5637 2.66409 19.9158 3.09847 19.9158Z" fill="#EA9D88"/>
<path d="M18.4962 19.1294C18.4962 20.2249 19.2965 21.1333 20.3444 21.3019C20.459 21.3205 20.5767 21.3301 20.6969 21.3301C21.9127 21.3301 22.8976 20.3452 22.8976 19.1294C22.8976 17.9137 21.9127 16.9287 20.6969 16.9287C20.5767 16.9287 20.459 16.9384 20.3444 16.9569C19.2965 17.1255 18.4962 18.0339 18.4962 19.1294Z" fill="#F6C2AA"/>
<path d="M18.4962 19.1295C18.4962 20.2251 19.2965 21.1334 20.3444 21.3021C20.5348 20.6099 20.6364 19.8814 20.6364 19.1295C20.6364 18.3777 20.5348 17.6492 20.3444 16.957C19.2965 17.1257 18.4962 18.034 18.4962 19.1295Z" fill="#EA9D88"/>
<path d="M20.697 19.9158C21.1314 19.9158 21.4835 19.5637 21.4835 19.1293C21.4835 18.6949 21.1314 18.3428 20.697 18.3428C20.2626 18.3428 19.9105 18.6949 19.9105 19.1293C19.9105 19.5637 20.2626 19.9158 20.697 19.9158Z" fill="#EA9D88"/>
<path d="M20.0858 14.8417V17.9597C20.0858 22.0343 17.1092 25.4146 13.2116 26.0418C13.1985 26.0439 13.1847 26.0462 13.1715 26.0483C12.757 26.1146 12.3316 26.1474 11.8973 26.1474C7.37548 26.1474 3.70966 22.4816 3.70966 17.9597V14.8417C3.70966 13.8895 3.8721 12.9746 4.17228 12.1244C5.29204 8.93791 8.3284 6.65332 11.8974 6.65332H11.8981C12.3316 6.65332 12.7578 6.68681 13.1731 6.75236C17.0894 7.36432 20.0858 10.7534 20.0858 14.8417Z" fill="#EA9D88"/>
<path d="M20.0858 14.8418V17.9598C20.0858 22.0344 17.1091 25.4146 13.2116 26.0419C13.1985 26.044 13.1846 26.0463 13.1715 26.0484C9.25508 25.4365 6.2594 22.0475 6.2594 17.9598V14.8418C6.2594 10.7534 9.2558 7.3644 13.173 6.75244C17.0894 7.3644 20.0858 10.7534 20.0858 14.8418Z" fill="#F6C2AA"/>
<path d="M16.2949 17.2686C16.2949 16.5175 15.6861 15.9087 14.935 15.9087C14.184 15.9087 13.5751 16.5175 13.5751 17.2686" fill="#EA9D88"/>
<path d="M10.221 17.2686C10.221 16.5175 9.6122 15.9087 8.86115 15.9087C8.1101 15.9087 7.50128 16.5175 7.50128 17.2686" fill="#EA9D88"/>
<path d="M8.86104 18.7762C9.37403 18.7762 9.78989 18.3603 9.78989 17.8473C9.78989 17.3343 9.37403 16.9185 8.86104 16.9185C8.34805 16.9185 7.93219 17.3343 7.93219 17.8473C7.93219 18.3603 8.34805 18.7762 8.86104 18.7762Z" fill="#233559"/>
<path d="M14.935 18.7762C15.448 18.7762 15.8639 18.3603 15.8639 17.8473C15.8639 17.3343 15.448 16.9185 14.935 16.9185C14.422 16.9185 14.0062 17.3343 14.0062 17.8473C14.0062 18.3603 14.422 18.7762 14.935 18.7762Z" fill="#233559"/>
<path d="M12.8269 20.1861H10.9692C10.748 20.1861 10.5685 20.0067 10.5685 19.7854C10.5685 19.5642 10.748 19.3848 10.9692 19.3848H12.8269C13.0482 19.3848 13.2276 19.5642 13.2276 19.7854C13.2276 20.0068 13.0482 20.1861 12.8269 20.1861Z" fill="#EA9D88"/>
<path d="M9.20254 18.0811C9.42234 18.0811 9.60052 17.9029 9.60052 17.6831C9.60052 17.4633 9.42234 17.2852 9.20254 17.2852C8.98275 17.2852 8.80457 17.4633 8.80457 17.6831C8.80457 17.9029 8.98275 18.0811 9.20254 18.0811Z" fill="white"/>
<path d="M15.322 18.0811C15.5418 18.0811 15.72 17.9029 15.72 17.6831C15.72 17.4633 15.5418 17.2852 15.322 17.2852C15.1023 17.2852 14.9241 17.4633 14.9241 17.6831C14.9241 17.9029 15.1023 18.0811 15.322 18.0811Z" fill="white"/>
<path d="M20.3637 11.4207V15.6657H3.43085V13.2288L3.50295 10.5334L4.6861 8.67206L8.4015 5.90374L10.3503 5.60651L12.6997 5.24805L17.5079 6.99646L20.3637 11.4207Z" fill="#F95C3A"/>
<path d="M8.19093 15.6657H4.6861V27.3102L3.43085 33.0764V13.2289L3.50295 10.5334L4.68601 8.67199L8.40141 5.90367L10.3502 5.60645C8.6769 7.32649 7.94839 11.8069 8.19093 15.6657Z" fill="#C93329"/>
<path d="M20.4459 12.0872C20.4459 12.4755 20.4182 12.8579 20.3636 13.2316C19.7858 9.24811 16.2162 6.18185 11.8975 6.18185C11.4299 6.18185 10.9715 6.21678 10.5257 6.28745C9.43225 6.45573 8.40867 6.8229 7.49652 7.34812C5.33433 8.59458 3.79424 10.7321 3.43075 13.2287C3.37687 12.8557 3.34912 12.4747 3.34912 12.0871C3.34912 9.10677 5.0116 6.49793 7.49652 5.06649C8.4093 4.54047 9.43288 4.17338 10.5257 4.00501C10.9715 3.93434 11.4298 3.89941 11.8975 3.89941C16.6191 3.8995 20.4459 7.56533 20.4459 12.0872Z" fill="#57A41B"/>
<path d="M20.6916 33.0761V43.9998H3.1051V33.0761C3.1051 31.607 3.58282 30.2484 4.39188 29.1493C5.06625 29.7932 5.91931 30.3472 6.90257 30.7773C8.33931 31.4059 10.0553 31.7723 11.8979 31.7723C12.3999 31.7723 12.892 31.7462 13.3706 31.6924C14.5451 31.5648 15.6442 31.2883 16.623 30.8914C17.7194 30.4469 18.6667 29.8515 19.4031 29.1484C20.2139 30.2484 20.6916 31.607 20.6916 33.0761Z" fill="#39710D"/>
<path d="M20.3637 31.8036L19.1084 28.0062V15.6655H20.3637V31.8036Z" fill="#F95C3A"/>
<path d="M17.4979 15.6655L16.3722 12.4365L16.2266 16.3212" fill="#F6C2AA"/>
<path d="M20.6916 33.0761V43.9998H6.49994L6.4931 33.0761C6.4931 32.2679 6.63678 31.4939 6.90257 30.7773C8.33931 31.4059 10.0553 31.7723 11.8979 31.7723C12.3999 31.7723 12.892 31.7462 13.3706 31.6924C14.5451 31.5648 15.6442 31.2883 16.623 30.8914C17.7194 30.4469 18.6667 29.8515 19.4031 29.1484C20.2139 30.2484 20.6916 31.607 20.6916 33.0761Z" fill="#57A41B"/>
<path d="M6.40331 33.0762V43.9998H3.1051V33.0762H6.40331Z" fill="#EA9D88"/>
<path d="M20.6916 33.0762V43.9998H17.3934V33.0762H20.6916Z" fill="#F6C2AA"/>
<path d="M16.4509 21.1296C17.0141 21.1296 17.4708 20.673 17.4708 20.1097C17.4708 19.5465 17.0141 19.0898 16.4509 19.0898C15.8876 19.0898 15.431 19.5465 15.431 20.1097C15.431 20.673 15.8876 21.1296 16.4509 21.1296Z" fill="#EA9D88"/>
<path d="M7.34455 21.1296C7.90782 21.1296 8.36445 20.673 8.36445 20.1097C8.36445 19.5465 7.90782 19.0898 7.34455 19.0898C6.78127 19.0898 6.32465 19.5465 6.32465 20.1097C6.32465 20.673 6.78127 21.1296 7.34455 21.1296Z" fill="#EA9D88"/>
<path d="M11.8977 23.0601C11.2144 23.0601 10.531 22.8888 9.90813 22.5464C9.7324 22.4498 9.66828 22.2291 9.7649 22.0535C9.86153 21.8777 10.0822 21.8137 10.2579 21.9102C11.2847 22.4747 12.5108 22.4747 13.5375 21.9102C13.7131 21.8136 13.9339 21.8777 14.0305 22.0535C14.1271 22.2292 14.063 22.4499 13.8873 22.5464C13.2643 22.8888 12.581 23.0601 11.8977 23.0601Z" fill="#EA9D88"/>
<path d="M22 39.9331V42.1574C22 42.8441 21.5785 43.4328 20.9799 43.6782C20.7879 43.7574 20.5772 43.8009 20.3566 43.8009C19.4483 43.8009 18.712 43.0647 18.712 42.1573V39.9331C18.712 39.0248 19.4482 38.2886 20.3566 38.2886C20.5772 38.2886 20.7879 38.3321 20.9799 38.4112C21.1828 38.4944 21.3658 38.617 21.5182 38.7704C21.816 39.0674 22 39.479 22 39.9331Z" fill="#EA9D88"/>
<path d="M22 39.9329V42.1572C22 42.8439 21.5785 43.4326 20.9799 43.678C20.3802 43.4326 19.9587 42.8439 19.9587 42.1572V39.9329C19.9587 39.2452 20.3802 38.6565 20.9799 38.4111C21.1827 38.4943 21.3658 38.6169 21.5181 38.7703C21.816 39.0672 22 39.4788 22 39.9329Z" fill="#F6C2AA"/>
<path d="M25.288 39.9331V42.1574C25.288 42.8441 24.8665 43.4328 24.2679 43.6782C24.0759 43.7574 23.8652 43.8009 23.6445 43.8009C22.7362 43.8009 22 43.0647 22 42.1573V39.9331C22 39.0248 22.7361 38.2886 23.6445 38.2886C23.8652 38.2886 24.0759 38.3321 24.2679 38.4112C24.4707 38.4944 24.6537 38.617 24.8061 38.7704C25.104 39.0674 25.288 39.479 25.288 39.9331Z" fill="#EA9D88"/>
<path d="M25.2879 39.9329V42.1572C25.2879 42.8439 24.8664 43.4326 24.2679 43.678C23.6682 43.4326 23.2467 42.8439 23.2467 42.1572V39.9329C23.2467 39.2452 23.6682 38.6565 24.2679 38.4111C24.4707 38.4943 24.6537 38.6169 24.8061 38.7703C25.1039 39.0672 25.2879 39.4788 25.2879 39.9329Z" fill="#F6C2AA"/>
</g>
<defs>
<clipPath id="clip0_113_1274">
<rect width="44" height="44" fill="white"/>
</clipPath>
</defs>
</svg>
