<svg width="44" height="44" viewBox="0 0 44 44" fill="none" xmlns="http://www.w3.org/2000/svg">
<path d="M39.1874 43.3125C39.1874 43.3125 43.9999 33 39.8749 27.5C36.3756 22.8319 31.3843 10.23 29.9543 6.53125H29.9406C30.1674 8.25 11.8903 10.2499 12.0793 9.45312C10.0237 14.9531 6.48307 23.8288 3.73307 27.5C-0.391932 33 4.12494 43.3125 4.12494 43.3125H39.1874Z" fill="#F5F4F8"/>
<path d="M9.625 32.8624V37.1249H13.75V34.3749L9.63188 32.8486L9.625 32.8624Z" fill="#FFD5C2"/>
<path d="M33.6875 29.5625C33.6875 27.5206 32.1956 25.8225 30.2431 25.4994C30.0231 25.4581 29.7962 25.4375 29.5625 25.4375H25.9669C25.8088 25.4375 25.6575 25.41 25.5131 25.3619C25.0319 25.19 24.6675 24.7638 24.5987 24.2275L24.1106 20.2056C24.7775 19.9237 25.3825 19.5112 25.8844 19.0094C26.8813 18.0125 27.5 16.6375 27.5 15.125V15.4688C27.5 16.038 27.962 16.5 28.5312 16.5C29.1005 16.5 29.5625 16.038 29.5625 15.4688V13.4062C29.5625 12.837 29.1005 12.375 28.5312 12.375C27.962 12.375 27.5 12.837 27.5 13.4062V10.3125C22.6875 11 20.625 6.1875 20.625 6.1875C20.625 6.1875 18.5625 6.875 18.5625 8.9375C18.5625 10.5875 16.3625 12.6775 16.5344 15.9156H16.555C16.7475 17.2425 17.4212 18.4181 18.3906 19.2638C18.8375 19.6488 19.3394 19.9719 19.8894 20.1987L19.4012 24.2275C19.3325 24.7638 18.9681 25.19 18.4869 25.3619C18.3425 25.41 18.1912 25.4375 18.0331 25.4375H16.8094C16.3075 26.3175 15.8125 26.8125 15.8125 26.8125C15.8125 26.8125 12.375 29.5625 12.375 30.9375V30.9788L16.5825 32.5944C17.3113 32.5256 18.1225 32.6012 18.9269 32.8556C20.3431 33.3094 21.4569 34.1481 22.0138 35.0625C22.5706 34.1481 23.6912 33.3162 25.1006 32.8625C25.8981 32.6081 26.6888 32.5256 27.4038 32.5944L33.6875 30.1813V29.5625Z" fill="#FFD5C2"/>
<path d="M34.3681 32.8486L30.25 34.3749V37.1249H34.375V32.8624L34.3681 32.8486Z" fill="#FFD5C2"/>
<path d="M9.625 37.125H13.75V43.3125H9.625V37.125Z" fill="white"/>
<path d="M9.6113 30.0645L9.5563 30.1401L8.6488 32.4845L9.63193 32.8488L13.7501 34.3751C14.0594 33.3988 15.1801 32.7251 16.5826 32.5945L12.3751 30.9788C12.3201 31.8863 10.5944 30.7795 9.6113 30.0645Z" fill="white"/>
<path d="M39.8751 27.5C36.3757 22.8319 31.3844 10.23 29.9544 6.53125H29.9407C30.1676 8.25 29.9407 10.2712 29.4182 12.8837C29.5076 13.035 29.5626 13.2137 29.5626 13.4062V14.3137C29.8169 15.4344 30.2913 16.2731 30.6076 16.7544C30.9376 17.2356 31.1644 17.7856 31.2744 18.3631C31.8863 21.6287 30.2501 25.4375 30.2501 25.4375L30.2432 25.4994C32.1957 25.8225 33.6876 27.5206 33.6876 29.5625V30.1813L27.4038 32.5944C28.8132 32.7181 29.9338 33.3988 30.2501 34.375L34.3682 32.8487L34.3751 32.8625V37.125H30.2501V34.375L28.1876 43.3125H30.2501H34.3751H39.1876C39.1876 43.3125 44.0001 33 39.8751 27.5Z" fill="#F5F4F8"/>
<path d="M29.9406 6.53125C29.8719 5.98125 29.755 5.46562 29.59 4.97062C29.3975 5.23875 29.15 5.39687 28.8819 5.39C28.3181 5.36938 27.8781 4.62687 27.9056 3.72625C27.9125 3.55438 27.9538 3.39625 28.0156 3.245V3.23813C27.8094 3.00437 27.5825 2.78437 27.3419 2.57812C25.9738 1.40937 24.0763 0.6875 22 0.6875C19.415 0.6875 16.7956 1.1 15.2144 2.3375C15.5306 2.60563 15.9981 3.12125 16.0187 3.72625C16.0462 4.62687 15.6131 5.36938 15.0425 5.39C14.4787 5.40375 13.9975 4.68187 13.97 3.78125C13.8256 4.2625 13.5644 5.19063 13.365 5.64437C13.0006 6.49687 12.4506 7.90625 12.0794 9.45312C11.8525 10.4087 11.6875 11.4125 11.6875 12.375C11.6875 15.8125 10.3125 20.625 10.3125 20.625C10.3125 20.625 8.9375 26.8125 8.9375 29.5625C8.9375 29.5625 9.2125 29.7825 9.61125 30.0644C10.5944 30.7794 12.32 31.8863 12.375 30.9788V30.9375C12.375 29.5625 15.8125 26.8125 15.8125 26.8125C15.8125 26.8125 16.3075 26.3175 16.8094 25.4375C17.6275 24.0075 18.4663 21.5462 17.1875 18.5625C16.775 17.6 16.5825 16.72 16.5344 15.9156C16.3625 12.6775 18.5625 10.5875 18.5625 8.9375C18.5625 6.875 20.625 6.1875 20.625 6.1875C20.625 6.1875 22.6875 11 27.5 10.3125V13.4062C27.5 12.8356 27.9606 12.375 28.5312 12.375L28.6756 12.3888C28.9919 12.43 29.26 12.6156 29.4112 12.8769C29.4112 12.8769 29.4181 12.8769 29.4181 12.8837C29.9406 10.2712 30.1675 8.25 29.9406 6.53125ZM16.3694 7.13625C15.675 7.74813 14.4169 7.52125 14.4169 7.52125C14.4169 7.52125 14.2863 6.30437 14.9806 5.6925C15.675 5.08063 16.5481 4.90188 16.9331 5.30062C17.3181 5.69938 17.0637 6.52437 16.3694 7.13625ZM29.5144 7.52125C29.5144 7.52125 28.2494 7.74813 27.555 7.13625C26.8606 6.52437 26.6062 5.69938 26.9912 5.30062C27.3762 4.90188 28.2494 5.08063 28.9437 5.6925C29.645 6.30437 29.5144 7.52125 29.5144 7.52125Z" fill="#9E7059"/>
<path d="M29.6313 7.0675C29.81 7.22563 29.9338 7.425 30.0231 7.63125C30.0163 7.29438 29.9956 6.97125 29.9544 6.66187C29.8306 6.73062 29.7069 6.77187 29.5694 6.765C29.535 6.765 29.5075 6.75812 29.4731 6.75125C29.4869 6.82687 29.5006 6.89563 29.5006 6.96438C29.5488 6.99188 29.59 7.03312 29.6313 7.0675ZM28.2425 8.51125C27.7406 8.06437 27.4656 7.5075 27.5069 7.08813C26.8469 6.48313 26.6131 5.6925 26.9913 5.30062C27.3144 4.96375 27.9881 5.03937 28.6069 5.43812C28.6 5.39687 28.6 5.35563 28.6 5.31437C28.1806 5.10813 27.885 4.46875 27.9056 3.72625C27.9125 3.55438 27.9538 3.39625 28.0156 3.245V3.23813C27.8094 3.00437 27.5825 2.78437 27.3419 2.57812C25.9738 1.40937 24.0763 0.6875 22 0.6875C19.415 0.6875 16.7956 1.1 15.2144 2.3375C15.5306 2.60563 15.9981 3.12125 16.0188 3.72625V3.81563C16.3212 4.10438 16.6856 4.565 16.7063 5.10125V5.15625C16.7956 5.18375 16.8713 5.23875 16.9331 5.30062C17.1875 5.56187 17.16 6.01562 16.9125 6.46937C17.2013 6.44187 17.4556 6.50375 17.6206 6.67562C18.0056 7.07438 17.7513 7.89937 17.0569 8.51125C16.3625 9.12313 15.1044 8.89625 15.1044 8.89625C15.1044 8.89625 15.0219 8.15375 15.3244 7.54188C14.8363 7.59688 14.4169 7.52125 14.4169 7.52125C14.4169 7.52125 14.3138 6.545 14.795 5.89875C14.7263 5.71312 14.685 5.50688 14.6644 5.28688C14.2794 5.05312 13.9906 4.46875 13.97 3.78125C13.8256 4.2625 13.5644 5.19063 13.365 5.64437C13.0006 6.49687 12.4506 7.90625 12.0794 9.45312C11.8525 10.4087 11.6875 11.4125 11.6875 12.375C11.6875 15.8125 10.3125 20.625 10.3125 20.625C10.3125 20.625 8.9375 26.8125 8.9375 29.5625C8.9375 29.5625 9.2125 29.7825 9.61125 30.0644C10.5944 30.7794 12.32 31.8863 12.375 30.9788V30.9375C12.375 29.5625 15.8125 26.8125 15.8125 26.8125C15.8125 26.8125 16.3075 26.3175 16.8094 25.4375C17.6275 24.0075 18.4663 21.5462 17.1875 18.5625C16.775 17.6 16.5825 16.72 16.5344 15.9156C16.3625 12.6775 18.5625 10.5875 18.5625 8.9375C18.5625 6.875 20.625 6.1875 20.625 6.1875C20.625 6.1875 22.6875 11 27.5 10.3125V13.4062C27.5 12.8356 27.9606 12.375 28.5313 12.375L28.6756 12.3888C28.9919 12.43 29.26 12.6156 29.4113 12.8769C29.4113 12.8769 29.4181 12.8769 29.4181 12.8837C29.7138 11.3919 29.92 10.0856 29.9956 8.92375C29.6106 8.95813 28.765 8.97188 28.2425 8.51125Z" fill="#D95336"/>
<path d="M13.475 9.17812C13.475 9.28812 13.475 9.39812 13.4681 9.50812C13.0006 9.4325 12.5606 9.33625 12.1412 9.22625C12.1756 9.06812 12.2169 8.91687 12.2581 8.76562C12.6431 8.91687 13.0487 9.06125 13.475 9.17812Z" fill="#BFA599"/>
<path d="M14.2244 9.36841C14.2216 9.4516 14.2195 9.5341 14.2168 9.61797C14.9194 9.70116 15.6585 9.74653 16.423 9.74653C16.6911 9.74653 16.9524 9.73966 17.2136 9.73278C16.1631 9.70666 15.1587 9.5781 14.2244 9.36841Z" fill="#BFA599"/>
<path d="M24.7748 3.71729C23.538 4.11329 22.1375 4.35666 20.6422 4.39378C20.9035 4.40066 21.1647 4.40753 21.4328 4.40753C22.627 4.40753 23.758 4.29616 24.7837 4.1016C24.781 3.97372 24.7789 3.84516 24.7748 3.71729Z" fill="#BFA599"/>
<path d="M27.8712 3.08683C27.2318 3.43058 26.4274 3.71933 25.5406 3.93933C25.5337 3.77433 25.5337 3.6162 25.5337 3.4512C26.1799 3.18995 26.7781 2.89433 27.3006 2.5437C27.3143 2.55745 27.3281 2.56433 27.3418 2.57808C27.5274 2.7362 27.7062 2.90808 27.8712 3.08683Z" fill="#BFA599"/>
<path d="M28.9781 2.11743C28.9781 2.11743 29.9819 2.87368 29.9544 3.78118C29.9406 4.25556 29.8031 4.67493 29.59 4.97056C29.3975 5.23868 29.15 5.39681 28.8819 5.38993C28.3181 5.36931 27.8781 4.62681 27.9056 3.72618C27.9125 3.55431 27.9538 3.39618 28.0156 3.24493V3.23806C28.2906 2.57806 28.9781 2.11743 28.9781 2.11743Z" fill="#57A41B"/>
<path d="M26.9913 5.3005C27.3763 4.90175 28.2494 5.0805 28.9438 5.69238C29.645 6.30425 29.5144 7.52113 29.5144 7.52113C29.5144 7.52113 28.2494 7.748 27.555 7.13613C26.8606 6.52425 26.6063 5.69925 26.9913 5.3005Z" fill="#3F7217"/>
<path d="M27.5001 10.3125V15.125C27.5001 16.6375 26.8813 18.0125 25.8844 19.0094C25.6507 19.2431 25.4032 19.4494 25.1282 19.635C25.7607 18.7481 26.1251 17.6619 26.1251 16.5V13.4613C26.1251 12.5813 25.4651 11.8112 24.5851 11.7219C21.9588 11.4538 20.0338 8.8 19.1332 7.26687C19.7451 6.48312 20.6251 6.1875 20.6251 6.1875C20.6251 6.1875 22.6876 11 27.5001 10.3125Z" fill="#FCAD95"/>
<path d="M16.0188 3.72618C16.0463 4.62681 15.6132 5.36931 15.0425 5.38993C14.4788 5.40368 13.9975 4.68181 13.97 3.78118C13.9425 2.87368 14.9463 2.11743 14.9463 2.11743C14.9463 2.11743 15.0632 2.19306 15.2144 2.33743C15.5307 2.60556 15.9982 3.12118 16.0188 3.72618Z" fill="#3F7217"/>
<path d="M14.9806 5.69238C15.675 5.0805 16.5481 4.90175 16.9331 5.3005C17.3181 5.69925 17.0637 6.52425 16.3694 7.13613C15.675 7.748 14.4169 7.52113 14.4169 7.52113C14.4169 7.52113 14.2862 6.30425 14.9806 5.69238Z" fill="#57A41B"/>
<path d="M29.9545 6.66195C29.8307 6.7307 29.707 6.77195 29.5695 6.76508C29.5351 6.76508 29.5076 6.7582 29.4732 6.75133C29.4113 6.39383 29.267 5.97445 28.9438 5.69258C28.8338 5.59633 28.7238 5.51383 28.607 5.4382C28.6001 5.39695 28.6001 5.3557 28.6001 5.31445C28.6895 5.36258 28.7857 5.3832 28.882 5.39008C29.1501 5.39695 29.3976 5.23883 29.5901 4.9707C29.7551 5.4657 29.872 5.98133 29.9407 6.53133C29.9476 6.57258 29.9545 6.61383 29.9545 6.66195Z" fill="#BE4125"/>
<path d="M29.9956 8.92373C29.6106 8.95811 28.765 8.97186 28.2425 8.51123C27.7406 8.06436 27.4656 7.50748 27.5069 7.08811C27.5206 7.10873 27.5344 7.12248 27.555 7.13623C28.2494 7.74811 29.5144 7.52123 29.5144 7.52123C29.5144 7.52123 29.5419 7.28748 29.5006 6.96436C29.5487 6.99186 29.59 7.03311 29.6312 7.06748C29.81 7.22561 29.9337 7.42498 30.0231 7.63123V7.63811C30.0369 8.05061 30.0231 8.46998 29.9956 8.92373Z" fill="#BE4125"/>
<path d="M16.7063 5.1013V5.1563C16.2663 4.97067 15.5651 5.17692 14.9807 5.69255C14.9119 5.75442 14.8501 5.82317 14.7951 5.8988C14.7263 5.71317 14.6851 5.50692 14.6644 5.28692C14.7813 5.35567 14.9119 5.39005 15.0426 5.39005C15.5926 5.36942 16.0188 4.67505 16.0188 3.81567C16.3213 4.10442 16.6857 4.56505 16.7063 5.1013Z" fill="#BE4125"/>
<path d="M17.0569 8.51128C16.3625 9.12316 15.1044 8.89628 15.1044 8.89628C15.1044 8.89628 15.0219 8.15378 15.3244 7.54191C15.6819 7.50066 16.0738 7.39753 16.3694 7.13628C16.6031 6.93003 16.7888 6.69628 16.9125 6.46941C17.2013 6.44191 17.4556 6.50378 17.6206 6.67566C18.0056 7.07441 17.7513 7.89941 17.0569 8.51128Z" fill="#BE4125"/>
<path d="M19.8894 20.1989L19.4013 24.2276C19.3325 24.7639 18.9682 25.1901 18.4869 25.362C18.3425 25.4101 18.1913 25.4376 18.0332 25.4376H16.8094C17.6276 24.0076 18.4663 21.5464 17.1875 18.5626C16.775 17.6001 16.5825 16.7201 16.5344 15.9158H16.555C16.7475 17.2426 17.4213 18.4183 18.3907 19.2639C18.8375 19.6489 19.3394 19.972 19.8894 20.1989Z" fill="#8F2C16"/>
<path d="M9.625 41.9059V43.3125H13.75V37.125H13.1787C12.9518 39.1916 12.9793 41.6192 9.625 41.9059Z" fill="#C6C5D2"/>
<path d="M30.25 34.375L28.1875 43.3126H15.8125L13.75 34.375C14.0594 33.3988 15.18 32.725 16.5825 32.5944C17.3113 32.5257 18.1225 32.6013 18.9269 32.8557C20.3431 33.3094 21.4569 34.1482 22.0138 35.0625C22.5706 34.1482 23.6912 33.3163 25.1006 32.8625C25.8981 32.6082 26.6888 32.5257 27.4038 32.5944C28.8131 32.7182 29.9338 33.3988 30.25 34.375Z" fill="white"/>
<path d="M28.6116 32.8679C27.4016 38.8712 22.0769 42.9845 15.6584 42.6462L15.8124 43.3124H28.1874L30.2499 34.3749C30.032 33.7019 29.4263 33.1745 28.6116 32.8679Z" fill="#C6C5D2"/>
<path d="M24.2687 21.505C24.2206 21.5325 24.1656 21.56 24.1106 21.5806C23.4575 21.8487 22.7493 22 22 22C21.2575 22 20.5425 21.8487 19.8893 21.5737C19.8343 21.5531 19.7793 21.5256 19.7312 21.4981L19.8893 20.1987C20.5425 20.4737 21.2575 20.625 22 20.625C22.7493 20.625 23.4575 20.4737 24.1106 20.2056L24.2687 21.505Z" fill="#FCAD95"/>
<path d="M29.5625 14.3137C29.8168 15.4343 30.2912 16.2731 30.6075 16.7543C30.9375 17.2356 31.1644 17.7856 31.2744 18.3631C31.8862 21.6287 30.25 25.4375 30.25 25.4375L30.2431 25.4993C30.0231 25.4581 29.7962 25.4375 29.5625 25.4375H25.9668C25.8087 25.4375 25.6575 25.41 25.5131 25.3618C25.0318 25.19 24.6675 24.7637 24.5987 24.2275L24.1106 20.2056C24.7775 19.9237 25.3825 19.5112 25.8843 19.0093C26.8812 18.0125 27.5 16.6375 27.5 15.125V15.4687C27.5 16.0393 27.9606 16.5 28.5312 16.5C29.1018 16.5 29.5625 16.0393 29.5625 15.4687V14.3137Z" fill="#BE4125"/>
<path d="M27.2593 19.6969C26.7575 20.1987 26.1525 20.6112 25.4856 20.8931L25.9737 24.915C26.0012 25.1075 26.0631 25.2794 26.1525 25.4375H25.9668C25.8087 25.4375 25.6575 25.41 25.5131 25.3619C25.0318 25.19 24.6675 24.7638 24.5987 24.2275L24.1106 20.2056C24.7775 19.9237 25.3825 19.5112 25.8843 19.0094C26.8812 18.0125 27.5 16.6375 27.5 15.125V15.4688C27.5 16.0394 27.9606 16.5 28.5312 16.5C28.6412 16.5 28.7443 16.4863 28.8406 16.445C28.6962 17.7031 28.1187 18.8375 27.2593 19.6969Z" fill="#8F2C16"/>
<path d="M30.6625 16.8506C30.4769 17.0568 30.2088 17.1875 29.9063 17.1875C29.425 17.1875 29.0263 16.8643 28.9163 16.4243C29.2944 16.2731 29.5625 15.9018 29.5625 15.4687V14.3137C29.8169 15.4343 30.2913 16.2731 30.6075 16.7543C30.6281 16.7887 30.6488 16.8162 30.6625 16.8506Z" fill="#8F2C16"/>
<path d="M30.25 41.9987V43.3125H34.375V37.8757C33.9371 40.1211 32.6177 42.044 30.25 41.9987Z" fill="#C6C5D2"/>
<path d="M13.75 34.3749V35.7499L9.63188 34.2236H9.625V32.8624L9.63188 32.8486L13.75 34.3749Z" fill="#FCAD95"/>
<path d="M34.375 32.8624V34.2236H34.3681L30.25 35.7499V34.3749L34.3681 32.8486L34.375 32.8624Z" fill="#FCAD95"/>
<path d="M31.8725 26.1525C31.3912 25.8225 30.8412 25.5956 30.2431 25.4994L30.25 25.4375C30.25 25.4375 31.8862 21.6287 31.2743 18.3631C31.1643 17.7856 30.9375 17.2356 30.6075 16.7544C30.2912 16.2731 29.8168 15.4344 29.5625 14.3137V13.4062C29.5625 13.2137 29.5075 13.035 29.4181 12.8837C29.9406 10.2712 30.1675 8.25 29.9406 6.53125H29.9543C30.2706 7.34938 30.7656 8.61437 31.3775 10.1269C31.3156 11.33 31.1093 12.6912 30.7931 14.2587C30.8825 14.41 30.9375 14.5887 30.9375 14.7812V15.6887C31.1918 16.8094 31.6662 17.6481 31.9825 18.1294C32.3125 18.6106 32.5393 19.1606 32.6493 19.7381C33.11 22.1787 32.3056 24.9288 31.8725 26.1525Z" fill="#C6C5D2"/>
<path d="M35.7431 34.2237L35.75 34.2375V43.3125H34.375V32.8625L34.3681 32.8487L35.3513 32.4844L34.3613 29.92L33.6875 30.1812V29.5625C33.6875 28.7787 33.4675 28.0431 33.0825 27.4175C34.2719 28.1462 35.0625 29.4525 35.0625 30.9375V31.5562L35.7363 31.295L36.7263 33.8594L35.7431 34.2237Z" fill="#C6C5D2"/>
<path d="M25.9998 25.8473C26.2686 25.5785 26.2686 25.144 25.9998 24.8752C25.731 24.6064 25.2965 24.6064 25.0277 24.8752L21.9999 27.9029L18.9722 24.8752C18.7034 24.6064 18.2689 24.6064 18.0001 24.8752C17.7313 25.144 17.7313 25.5785 18.0001 25.8473L21.3124 29.1597V29.5626H20.6249C20.2448 29.5626 19.9374 29.8699 19.9374 30.2501C19.9374 30.6303 20.2448 30.9376 20.6249 30.9376H21.3124V32.3126C21.3124 32.6928 21.6198 33.0001 21.9999 33.0001C22.3801 33.0001 22.6874 32.6928 22.6874 32.3126V30.9376H23.3749C23.7551 30.9376 24.0624 30.6303 24.0624 30.2501C24.0624 29.8699 23.7551 29.5626 23.3749 29.5626H22.6874V29.1597L25.9998 25.8473Z" fill="#88879B"/>
<path d="M19.6268 13.3691C19.017 13.3691 18.4869 13.1512 18.181 12.947C17.8647 12.7359 17.7795 12.3097 17.9905 11.9934C18.1995 11.6799 18.6237 11.5926 18.9386 11.7996C19.0115 11.8456 19.6323 12.2107 20.2435 11.803C20.5604 11.5926 20.9867 11.6779 21.197 11.9934C21.4081 12.3097 21.3228 12.7359 21.0066 12.947C20.5412 13.2571 20.0633 13.3691 19.6268 13.3691Z" fill="#7C4D4D"/>
<path d="M24.4393 13.3691C23.8295 13.3691 23.2994 13.1512 22.9935 12.947C22.6772 12.7359 22.592 12.3097 22.803 11.9934C23.0127 11.6799 23.4362 11.5926 23.7511 11.7996C23.824 11.8456 24.4448 12.2107 25.056 11.803C25.3722 11.5926 25.7985 11.6779 26.0095 11.9934C26.2206 12.3097 26.1353 12.7359 25.8191 12.947C25.3537 13.2571 24.8758 13.3691 24.4393 13.3691Z" fill="#7C4D4D"/>
<path d="M22.055 18.1803C21.096 18.1803 20.3768 17.849 20.3315 17.827C19.9877 17.6654 19.8413 17.255 20.0028 16.9119C20.1644 16.5702 20.5721 16.4238 20.9152 16.5826C20.9482 16.5977 22.0413 17.0742 23.0808 16.584C23.4245 16.4217 23.8336 16.5695 23.9958 16.9126C24.1574 17.2557 24.011 17.6661 23.6672 17.8276C23.1069 18.0923 22.5493 18.1803 22.055 18.1803Z" fill="#C95F5F"/>
</svg>
