<svg width="44" height="44" viewBox="0 0 44 44" fill="none" xmlns="http://www.w3.org/2000/svg">
<path d="M35.0625 39.6757V41.9375C33.2551 42.8432 31.261 43.3141 29.2394 43.3125H14.7606C12.739 43.3141 10.7449 42.8432 8.93751 41.9375V39.6757C8.93603 38.9927 9.1884 38.3336 9.64563 37.8263C9.93079 37.5208 10.2776 37.2794 10.6631 37.1182L18.3838 34.0313C18.601 33.9439 18.7926 33.8029 18.9405 33.6213C19.0884 33.4397 19.1878 33.2236 19.2294 32.9932L19.25 33C19.25 34.1413 20.35 35.0625 22 35.0625C23.65 35.0625 24.75 34.1413 24.75 33L24.7706 32.9932C24.8123 33.2236 24.9117 33.4397 25.0596 33.6213C25.2075 33.8029 25.399 33.9439 25.6163 34.0313L33.3369 37.1182C33.7224 37.2794 34.0692 37.5208 34.3544 37.8263C34.8116 38.3336 35.064 38.9927 35.0625 39.6757Z" fill="#FF9559"/>
<path d="M34.375 19.25V19.9375C34.375 21.835 32.835 24.0625 30.9375 24.0625H30.25L30.2294 24.0488C31.3353 22.1564 32.0222 20.0488 32.2437 17.8682L32.3125 17.875H33C33.3643 17.8761 33.7134 18.0213 33.9711 18.279C34.2287 18.5366 34.3739 18.8857 34.375 19.25Z" fill="#F6A96C"/>
<path d="M34.375 19.9375V37.8125L34.3544 37.8263C34.0692 37.5208 33.7224 37.2794 33.3369 37.1181L25.6163 34.0312C25.399 33.9439 25.2074 33.8028 25.0595 33.6213C24.9116 33.4397 24.8122 33.2236 24.7706 32.9931C24.7566 32.916 24.7497 32.8378 24.75 32.7594V29.0331C27.0829 28.0319 29.0124 26.2768 30.2294 24.0487L30.25 24.0625H30.9375C32.835 24.0625 34.375 21.835 34.375 19.9375Z" fill="#A65D4E"/>
<path d="M34.375 12.375V19.25C34.3739 18.8856 34.2287 18.5365 33.9711 18.2789C33.7134 18.0213 33.3643 17.8761 33 17.875H32.3125L32.2438 17.8681C32.2907 17.4136 32.3136 16.9569 32.3125 16.5C32.3125 11.9419 28.1875 12.375 26.8125 8.24998C26.8125 12.0519 18.9062 14.4375 11.6875 14.4375V16.5C11.6864 16.9569 11.7093 17.4136 11.7563 17.8681L11.6875 17.875H11C10.6357 17.8761 10.2866 18.0213 10.0289 18.2789C9.7713 18.5365 9.62609 18.8856 9.625 19.25V12.375C9.625 5.91935 15.1663 0.687476 22 0.687476C25.2476 0.668387 28.3793 1.8935 30.7519 4.11123C31.8887 5.16777 32.7967 6.44622 33.4199 7.86759C34.0431 9.28895 34.3682 10.823 34.375 12.375Z" fill="#A65D4E"/>
<path d="M24.7706 32.9932L24.75 33.0001C24.75 34.1413 23.65 35.0626 22 35.0626C20.35 35.0626 19.25 34.1413 19.25 33.0001L19.2294 32.9932C19.2434 32.9161 19.2503 32.8378 19.25 32.7595V29.0332C21.0154 29.739 22.9846 29.739 24.75 29.0332V32.7595C24.7497 32.8378 24.7566 32.9161 24.7706 32.9932Z" fill="#FED2A4"/>
<path d="M19.25 29.0331V32.7594C19.2503 32.8378 19.2434 32.916 19.2294 32.9931C19.1878 33.2236 19.0884 33.4397 18.9405 33.6213C18.7926 33.8028 18.601 33.9439 18.3837 34.0312L10.6631 37.1181C10.2776 37.2794 9.93078 37.5208 9.64562 37.8263L9.625 37.8125V19.9375C9.625 21.835 11.165 24.0625 13.0625 24.0625H13.75L13.7706 24.0487C14.9876 26.2768 16.9171 28.0319 19.25 29.0331Z" fill="#A65D4E"/>
<path d="M26.8126 8.25C26.8126 12.0519 18.9063 14.4375 11.6875 14.4375V16.5C11.6864 16.9569 11.7094 17.4136 11.7563 17.8681C11.9778 20.0487 12.6647 22.1564 13.7707 24.0488C14.9876 26.2768 16.9171 28.0319 19.25 29.0331C21.0155 29.7389 22.9846 29.7389 24.7501 29.0331C27.083 28.0319 29.0125 26.2768 30.2294 24.0488C31.3354 22.1564 32.0223 20.0487 32.2438 17.8681C32.2907 17.4136 32.3137 16.9569 32.3126 16.5C32.3126 11.9419 28.1876 12.375 26.8126 8.25Z" fill="#FED2A4"/>
<path d="M13.7706 24.0488L13.75 24.0625H13.0625C11.165 24.0625 9.625 21.835 9.625 19.9375V19.25C9.62609 18.8857 9.7713 18.5366 10.0289 18.279C10.2866 18.0213 10.6357 17.8761 11 17.875H11.6875L11.7563 17.8682C11.9778 20.0488 12.6647 22.1564 13.7706 24.0488Z" fill="#FFBD86"/>
<path d="M26.8125 8.25C26.8125 12.0519 18.9062 14.4375 11.6875 14.4375V16.5C18.9062 16.5 26.8125 14.1144 26.8125 10.3125C28.0954 14.1625 31.7673 14.0456 32.2554 17.7114C32.2926 17.3085 32.3125 16.9015 32.3125 16.5C32.3125 11.9419 28.1875 12.375 26.8125 8.25Z" fill="#F6A96C"/>
<path d="M33 17.875H32.3125C32.6768 17.8761 33.0259 18.0213 33.2836 18.2789C33.5412 18.5366 33.6864 18.8857 33.6875 19.25V19.9375C33.6875 21.835 32.1475 24.0625 30.25 24.0625H30.9375C32.835 24.0625 34.375 21.835 34.375 19.9375V19.25C34.3739 18.8857 34.2287 18.5366 33.9711 18.2789C33.7134 18.0213 33.3643 17.8761 33 17.875Z" fill="#FFBD86"/>
<path d="M10.3125 19.9375V19.25C10.3136 18.8857 10.4588 18.5366 10.7164 18.2789C10.9741 18.0213 11.3232 17.8761 11.6875 17.875H11C10.6357 17.8761 10.2866 18.0213 10.0289 18.2789C9.7713 18.5366 9.62609 18.8857 9.625 19.25V19.9375C9.625 21.835 11.165 24.0625 13.0625 24.0625H13.75C11.8525 24.0625 10.3125 21.835 10.3125 19.9375Z" fill="#FED2A4"/>
<path d="M21.3125 33.6876V32.3126C21.3125 31.9479 21.4574 31.5982 21.7152 31.3403C21.9731 31.0824 22.3228 30.9376 22.6875 30.9376H24.75V29.0332C22.9846 29.739 21.0154 29.739 19.25 29.0332V32.7595C19.2503 32.8378 19.2434 32.9161 19.2294 32.9932L19.25 33.0001C19.25 34.1413 20.35 35.0626 22 35.0626C22.1363 35.0598 22.2724 35.0501 22.4077 35.0337C22.0982 34.9694 21.8204 34.8004 21.6209 34.5552C21.4214 34.3101 21.3125 34.0037 21.3125 33.6876Z" fill="#FFBD86"/>
<path d="M13.7706 24.0488L13.75 24.0626H13.0625C12.5761 24.0563 12.1006 23.9172 11.6875 23.6604V36.7085L18.3837 34.0313C18.601 33.944 18.7926 33.8029 18.9405 33.6213C19.0884 33.4398 19.1878 33.2237 19.2294 32.9932C19.2434 32.9161 19.2503 32.8378 19.25 32.7595V29.0332C16.9171 28.032 14.9876 26.2768 13.7706 24.0488Z" fill="#784132"/>
<path d="M30.2294 24.0488L30.25 24.0626H30.9375C31.4239 24.0563 31.8994 23.9172 32.3125 23.6604V36.7085L25.6163 34.0313C25.399 33.944 25.2074 33.8029 25.0595 33.6213C24.9116 33.4398 24.8122 33.2237 24.7706 32.9932C24.7566 32.9161 24.7497 32.8378 24.75 32.7595V29.0332C27.0829 28.032 29.0124 26.2768 30.2294 24.0488Z" fill="#784132"/>
<path d="M19.6082 35.7157C20.304 36.2134 21.1449 36.4672 22 36.4375C22.8551 36.4672 23.696 36.2134 24.3918 35.7157C24.6729 35.4982 24.907 35.2261 25.08 34.9157C25.253 34.6053 25.3613 34.263 25.3983 33.9096C25.2359 33.8087 25.0962 33.6751 24.9881 33.5174C24.8801 33.3596 24.806 33.1811 24.7706 32.9932L24.75 33C24.75 34.1413 23.65 35.0625 22 35.0625C20.35 35.0625 19.25 34.1413 19.25 33L19.2294 32.9932C19.194 33.1811 19.1199 33.3596 19.0119 33.5174C18.9038 33.6751 18.7641 33.8087 18.6017 33.9096C18.6387 34.263 18.747 34.6053 18.92 34.9157C19.093 35.2261 19.3271 35.4982 19.6082 35.7157Z" fill="#F95C3A"/>
<path d="M33.3747 41.1564C33.1257 41.2184 32.8702 41.2498 32.6136 41.2499H16.7062C15.9222 41.2499 15.1703 40.9385 14.6159 40.3841C14.0615 39.8297 13.75 39.0777 13.75 38.2937V35.8875L10.6631 37.1249C10.1546 37.3305 9.71891 37.683 9.41156 38.1373C9.10422 38.5915 8.93918 39.1271 8.9375 39.6756V41.9374C10.7449 42.8431 12.739 43.314 14.7606 43.3124H29.2394C31.261 43.314 33.2551 42.8431 35.0625 41.9374V40.0688C34.6347 40.6069 34.0415 40.9892 33.3747 41.1564Z" fill="#F95C3A"/>
<path d="M19.5298 6.05346C20.2581 6.62886 21.0391 7.13413 21.8625 7.56252H22C26.8125 7.56252 30.0293 6.69902 31.8463 5.31784C31.5092 4.89138 31.1435 4.48827 30.7518 4.11127C30.6728 4.03634 30.5841 3.97034 30.5023 3.89746C28.6 5.29377 26.0005 6.18752 22 6.18752C21.1747 6.18865 20.3501 6.14389 19.5298 6.05346Z" fill="#C38778"/>
<path d="M19.5299 6.05333C20.3502 6.14376 21.1748 6.18852 22.0001 6.1874C26.0006 6.1874 28.6001 5.29365 30.5024 3.89733C28.1608 1.81592 25.133 0.672791 22.0001 0.687394C20.1494 0.687929 18.3206 1.08653 16.6376 1.85614C17.0968 3.54321 18.1169 5.02356 19.5299 6.05333Z" fill="#B46E5A"/>
<path d="M19.5298 6.05322C17.3622 5.88814 15.2789 5.1435 13.4977 3.89722C13.0113 4.33281 12.5616 4.80764 12.153 5.3169C13.9515 6.68503 17.127 7.54303 21.8625 7.56228C21.0391 7.13388 20.2581 6.62862 19.5298 6.05322Z" fill="#B46E5A"/>
<path d="M34.1688 10.3123C34.1276 10.095 34.0787 9.87986 34.0251 9.66742C34.0114 9.61242 33.9955 9.55811 33.9811 9.5038C33.8799 9.12555 33.759 8.75288 33.6188 8.3873C33.5996 8.33711 33.5803 8.28623 33.5604 8.23673C33.3101 7.61516 33.0053 7.01699 32.6494 6.44923L32.6446 6.44167C32.4007 6.05297 32.1345 5.6788 31.8471 5.32104C30.0294 6.69879 26.8125 7.56229 22 7.56229C21.9519 7.56229 21.9079 7.56229 21.8625 7.56229C23.3643 8.33338 24.9492 8.93055 26.5864 9.34223C26.7349 8.99714 26.8119 8.62549 26.8125 8.24979C26.964 8.70686 27.1672 9.14512 27.4182 9.55604C29.6345 10.051 31.8979 10.3046 34.1688 10.3123Z" fill="#B46E5A"/>
<path d="M24.0625 14.6664C24.0625 14.6664 24.0625 13.75 27.1157 13.75C28.7231 13.75 29.3157 14.1309 29.5151 14.4918C29.6828 14.7929 29.3831 15.125 28.9479 15.125H26.5052C26.5052 15.125 24.0625 15.125 24.0625 14.6664Z" fill="#784132"/>
<path d="M19.9375 14.6664C19.9375 14.6664 19.9375 13.75 16.8843 13.75C15.2769 13.75 14.6843 14.1309 14.4849 14.4918C14.3171 14.7929 14.6169 15.125 15.0521 15.125H17.4948C17.4948 15.125 19.9375 15.125 19.9375 14.6664Z" fill="#784132"/>
<path d="M21.4239 17.3497L20.6449 20.6862C20.6318 20.7437 20.6251 20.8025 20.625 20.8615C20.6021 21.2296 20.7255 21.5918 20.9684 21.8694C21.2112 22.147 21.5538 22.3175 21.9216 22.3437H22.0784C22.4462 22.3175 22.7888 22.147 23.0317 21.8694C23.2745 21.5918 23.3979 21.2296 23.375 20.8615C23.375 20.8025 23.3683 20.7437 23.3551 20.6862L22.5761 17.3497C22.551 17.2129 22.4804 17.0886 22.3759 16.9968C22.2714 16.9049 22.1389 16.851 22 16.8438C21.8611 16.851 21.7287 16.9049 21.6241 16.9968C21.5196 17.0886 21.449 17.2129 21.4239 17.3497Z" fill="#FFBD86"/>
<path d="M18.5625 23.375H25.4375C25.4375 23.375 24.75 26.125 22 26.125C19.25 26.125 18.5625 23.375 18.5625 23.375Z" fill="#FF808C"/>
<path d="M22 26.125C23.3555 26.125 24.4544 25.6633 24.4544 25.0938C24.4544 24.5242 23.3555 24.0625 22 24.0625C20.6445 24.0625 19.5457 24.5242 19.5457 25.0938C19.5457 25.6633 20.6445 26.125 22 26.125Z" fill="#F25A6B"/>
<path d="M19.9375 24.0625H24.0625C24.3029 24.0618 24.5389 23.998 24.7468 23.8773C24.9547 23.7566 25.1272 23.5834 25.2471 23.375H18.7529C18.8728 23.5834 19.0453 23.7566 19.2532 23.8773C19.4611 23.998 19.6971 24.0618 19.9375 24.0625Z" fill="#F5F5FC"/>
<path d="M28.875 19.9374C28.6927 19.9374 28.5178 19.865 28.3889 19.736C28.2599 19.6071 28.1875 19.4322 28.1875 19.2499C28.1875 18.2991 27.7633 17.8749 26.8125 17.8749C26.4478 17.8749 26.0981 18.0198 25.8402 18.2776C25.5824 18.5355 25.4375 18.8852 25.4375 19.2499C25.4375 19.4322 25.3651 19.6071 25.2361 19.736C25.1072 19.865 24.9323 19.9374 24.75 19.9374C24.5677 19.9374 24.3928 19.865 24.2639 19.736C24.1349 19.6071 24.0625 19.4322 24.0625 19.2499C24.0625 18.5206 24.3522 17.8211 24.868 17.3054C25.3837 16.7896 26.0832 16.4999 26.8125 16.4999C27.1822 16.4655 27.555 16.5129 27.9043 16.639C28.2536 16.765 28.5708 16.9665 28.8334 17.229C29.096 17.4916 29.2974 17.8088 29.4235 18.1581C29.5495 18.5074 29.597 18.8802 29.5625 19.2499C29.5625 19.4322 29.4901 19.6071 29.3612 19.736C29.2322 19.865 29.0574 19.9374 28.875 19.9374Z" fill="#784132"/>
<path d="M19.25 19.9374C19.0677 19.9374 18.8928 19.865 18.7639 19.736C18.635 19.6071 18.5625 19.4322 18.5625 19.2499C18.5625 18.8852 18.4177 18.5355 18.1598 18.2776C17.9019 18.0198 17.5522 17.8749 17.1875 17.8749C16.2367 17.8749 15.8125 18.2991 15.8125 19.2499C15.8125 19.4322 15.7401 19.6071 15.6112 19.736C15.4822 19.865 15.3074 19.9374 15.125 19.9374C14.9427 19.9374 14.7678 19.865 14.6389 19.736C14.51 19.6071 14.4375 19.4322 14.4375 19.2499C14.4031 18.8802 14.4506 18.5074 14.5766 18.1581C14.7026 17.8088 14.9041 17.4916 15.1666 17.229C15.4292 16.9665 15.7464 16.765 16.0957 16.639C16.445 16.5129 16.8178 16.4655 17.1875 16.4999C17.9169 16.4999 18.6163 16.7896 19.1321 17.3054C19.6478 17.8211 19.9375 18.5206 19.9375 19.2499C19.9375 19.4322 19.8651 19.6071 19.7362 19.736C19.6072 19.865 19.4324 19.9374 19.25 19.9374Z" fill="#784132"/>
</svg>
