<svg width="44" height="44" viewBox="0 0 44 44" fill="none" xmlns="http://www.w3.org/2000/svg">
<path d="M38.8591 7.22568C38.3937 6.37236 37.6732 5.68306 36.7974 5.25337C35.9216 4.82368 34.934 4.67489 33.9715 4.82765L32.336 6.58658L33.1685 7.94862L31.2737 9.4961L32.3834 11.4442L30.3014 12.504L30.0109 14.2089L29.2865 12.0091L30.3036 11.1922L29.8295 9.7034L30.9001 7.66277L29.9159 6.68092L31.6396 4.43564C30.8914 3.68663 29.9112 3.21003 28.8582 3.08327C27.8053 2.9565 26.7414 3.18702 25.8396 3.73738C23.6612 5.06467 23.0104 7.92231 24.2944 10.1276L28.2729 16.9593C28.4547 17.2715 28.7537 17.4997 29.104 17.5935C29.4543 17.6874 29.8273 17.6393 30.1409 17.4598L37.0021 13.5326C39.2168 12.2648 40.0819 9.46459 38.8591 7.22568Z" fill="#F95C3A"/>
<path d="M26.7065 3.32373C26.8939 3.67434 27 4.07482 27 4.50011V13.5001C27 13.837 26.9334 14.1584 26.8126 14.4517L24.2945 10.1277C23.0105 7.92242 23.6612 5.06478 25.8396 3.73749C26.1151 3.56937 26.4057 3.43109 26.7065 3.32373Z" fill="#C93329"/>
<path d="M26.5625 6.88875V12.2856C26.5625 13.3925 25.8544 14.8156 24.8988 16.1631V16.17C23.5856 18.0194 21.7981 19.7244 20.7463 20.24C20.21 20.5081 19.6119 20.6456 19 20.6456C18.3881 20.6456 17.79 20.5081 17.2537 20.24C16.2019 19.7244 14.4144 18.0194 13.1013 16.17V16.1631C12.1456 14.8156 11.4375 13.3925 11.4375 12.2856V6.88875C11.4375 3.47875 14.4487 0.6875 18.1269 0.6875H19.8731C23.5513 0.6875 26.5625 3.47875 26.5625 6.88875Z" fill="#9E7059"/>
<path d="M14.1648 17.5236C15.2682 18.8031 16.4665 19.8543 17.2537 20.2399C17.79 20.5081 18.3881 20.6456 19 20.6456C19.6119 20.6456 20.21 20.5081 20.7462 20.2399C21.7981 19.7243 23.5856 18.0193 24.8987 16.1699V16.1631C25.8544 14.8156 26.5625 13.3924 26.5625 12.2856V6.88869C26.5625 6.30981 26.4697 5.75087 26.3074 5.21875C24.8465 12.0889 21.5568 18.9701 14.1648 17.5236Z" fill="#995436"/>
<path d="M19.3506 22H20.0312C19.9212 22.0137 19.8043 22.0206 19.6875 22.0206C19.5706 22.0206 19.4606 22.0137 19.3506 22Z" fill="#9E7059"/>
<path d="M15.6862 3.6233C15.6656 4.04955 15.6449 4.48268 15.6381 4.90893C14.3799 4.73018 13.2181 4.41393 12.2212 3.99455C12.4274 3.63018 12.6681 3.2933 12.9499 2.97705C13.7818 3.2658 14.7031 3.4858 15.6862 3.6233Z" fill="#BFA599"/>
<path d="M22.0511 3.33984C20.85 3.62928 19.5252 3.79497 18.1275 3.79497C17.6504 3.79497 17.1843 3.77228 16.7264 3.73584C16.7195 3.88641 16.7126 4.03559 16.7058 4.18684C16.6941 4.46528 16.6913 4.74509 16.6831 5.02422C17.1554 5.06272 17.636 5.08747 18.1275 5.08747C19.6304 5.08747 21.048 4.89634 22.3185 4.56428C22.2312 4.15591 22.1425 3.74753 22.0511 3.33984Z" fill="#BFA599"/>
<path d="M25.3387 3.32764C24.7474 3.69201 24.0668 4.00826 23.3174 4.26264C23.2349 3.86389 23.1456 3.45826 23.0562 3.05951C23.5924 2.88764 24.0874 2.68826 24.5481 2.46826C24.8437 2.72951 25.1049 3.01826 25.3387 3.32764Z" fill="#BFA599"/>
<path d="M10.0625 43.3125H1.8125V35.0625C1.8125 30.1813 5.86875 26.125 10.75 26.125H27.25C29.6906 26.125 31.925 27.1425 33.5475 28.765C35.17 30.3875 36.1875 32.6219 36.1875 35.0625V43.3125H27.9375H10.0625Z" fill="#C6C5D2"/>
<path d="M36.1875 35.0622V43.3122H1.8125V39.8747H23.8125C28.7488 39.8747 32.75 35.8735 32.75 30.9372V28.0635C33.0319 28.2766 33.2931 28.5104 33.5475 28.7647C35.17 30.3872 36.1875 32.6216 36.1875 35.0622Z" fill="#88879B"/>
<path d="M25.875 24.0625L27.25 26.125H10.75L12.125 24.0625H12.8125H25.1875H25.875Z" fill="#C6C5D2"/>
<path d="M27.25 26.125H25.875L24.5 24.0625H25.875L27.25 26.125Z" fill="#88879B"/>
<path d="M25.1875 22V24.0625H12.8125V22H14.0431H23.9569H25.1875Z" fill="#F5F4F8"/>
<path d="M23.8125 22H25.1875V24.0625H23.8125V22Z" fill="#E1E1E7"/>
<path d="M19.0001 20.6455C19.6119 20.6455 20.2101 20.508 20.7463 20.2399C21.7982 19.7243 23.5857 18.0193 24.8988 16.1699C24.5619 17.4693 24.2319 18.8237 23.9363 19.9512C23.7988 20.4668 23.7713 21.0099 23.8744 21.5393L23.9569 21.9999H14.0432L14.1257 21.5393C14.2219 21.0099 14.2013 20.4668 14.0707 19.9512C13.7682 18.8237 13.4382 17.4693 13.1013 16.1699C14.4144 18.0193 16.2019 19.7243 17.2538 20.2399C17.7901 20.508 18.3882 20.6455 19.0001 20.6455Z" fill="#FFD5C2"/>
<path d="M24.8988 16.1699C24.6169 17.263 24.3351 18.3974 24.0807 19.3943C23.1044 20.4462 22.1144 21.278 21.4338 21.6149C21.0007 21.8349 20.5263 21.9655 20.0313 21.9999H19.3507C18.8557 21.9655 18.3813 21.8349 17.9413 21.6149C16.8894 21.0993 15.1019 19.3943 13.7888 17.5449V17.538C13.5894 17.263 13.4038 16.9812 13.2388 16.7062C13.1907 16.5274 13.1494 16.3487 13.1013 16.1699C14.4144 18.0193 16.2019 19.7243 17.2538 20.2399C17.7901 20.508 18.3882 20.6455 19.0001 20.6455C19.6119 20.6455 20.2101 20.508 20.7463 20.2399C21.7982 19.7243 23.5857 18.0193 24.8988 16.1699Z" fill="#FCAD95"/>
<path d="M10.75 35.75V43.3125H9.375V35.75C9.375 35.3719 9.68437 35.0625 10.0625 35.0625C10.4406 35.0625 10.75 35.3719 10.75 35.75Z" fill="#595866"/>
<path d="M28.625 35.75V43.3125H27.25V35.75C27.25 35.3719 27.5594 35.0625 27.9375 35.0625C28.3156 35.0625 28.625 35.3719 28.625 35.75Z" fill="#595866"/>
</svg>
