<svg width="44" height="44" viewBox="0 0 44 44" fill="none" xmlns="http://www.w3.org/2000/svg">
<g clip-path="url(#clip0_113_1430)">
<path d="M33.5121 41.892L32.7992 36.5456C32.647 35.4043 31.8753 34.4409 30.7946 34.0433L26.573 32.4899C26.0662 32.3209 25.7242 31.8466 25.7242 31.3122V29.3103L28.3979 28.1963C29.7858 27.6181 30.6897 26.2621 30.6897 24.7587V24.138C31.7182 24.138 32.5518 23.3043 32.5518 22.2759C32.5518 21.2475 31.7182 20.4138 30.6897 20.4138V19.1725C30.6897 17.4585 29.3003 14.8276 27.5863 14.8276H16.4139C14.6998 14.8276 13.3104 17.4585 13.3104 19.1725V20.4138C12.282 20.4138 11.4484 21.2475 11.4484 22.2759C11.4484 23.3043 12.282 24.138 13.3104 24.138V24.7587C13.3104 26.2621 14.2144 27.618 15.6022 28.1964L18.2759 29.3104V31.3122C18.2759 31.8466 17.934 32.3209 17.4272 32.4899L13.2055 34.0433C12.1248 34.4409 11.3532 35.4043 11.2009 36.5456L10.4881 41.892C10.3393 43.0082 11.2076 44.0001 12.3338 44.0001H31.6664C32.7926 44.0001 33.661 43.0082 33.5121 41.892Z" fill="#FFD5C2"/>
<path d="M31.3097 23.5171H30.0684C30.0684 23.5171 29.4772 25.1535 29.4477 27.2411C29.4311 28.4104 29.7341 29.7213 30.0684 30.9654H31.3097C31.644 29.7212 31.947 28.4104 31.9304 27.2411C31.901 25.1535 31.3097 23.5171 31.3097 23.5171Z" fill="#6E4439"/>
<path d="M13.9309 23.5171H12.6896C12.6896 23.5171 12.0984 25.1535 12.0689 27.2411C12.0524 28.4104 12.3553 29.7213 12.6896 30.9654H13.9309C14.2652 29.7212 14.5682 28.4104 14.5516 27.2411C14.5222 25.1535 13.9309 23.5171 13.9309 23.5171Z" fill="#5E342E"/>
<path d="M13.0148 19.5068H9.58677C9.14763 19.5068 8.84738 19.9503 9.01046 20.358L9.64069 21.9336C9.78268 22.2885 10.2085 22.432 10.5363 22.2353L13.0148 20.7482V19.5068Z" fill="#C93329"/>
<path d="M13.0148 19.5066H9.58677C9.14763 19.5066 8.84738 19.0631 9.01046 18.6554L9.64069 17.0799C9.78268 16.725 10.2085 16.5814 10.5363 16.7781L13.0148 18.2652V19.5066Z" fill="#F95C3A"/>
<path d="M30.9851 19.5068H34.4132C34.8523 19.5068 35.1526 19.9503 34.9895 20.358L34.3593 21.9336C34.2173 22.2885 33.7914 22.432 33.4636 22.2353L30.9851 20.7482V19.5068Z" fill="#C93329"/>
<path d="M30.9851 19.5066H34.4132C34.8523 19.5066 35.1526 19.0631 34.9895 18.6554L34.3593 17.0799C34.2173 16.725 33.7914 16.5814 33.4636 16.7781L30.9851 18.2652V19.5066Z" fill="#F95C3A"/>
<path d="M25.7241 29.3105L18.2758 27.6553V31.3123C18.2758 31.7591 18.0286 32.1526 17.6538 32.3721C22.8594 33.2832 25.7241 29.3105 25.7241 29.3105Z" fill="#FCAD95"/>
<path d="M13.3103 20.4138C12.2819 20.4138 11.4482 21.2476 11.4482 22.2759C11.4482 23.3043 12.2819 24.138 13.3103 24.138V24.7587C13.3103 26.2621 14.2143 27.6181 15.6021 28.1964L19.6126 29.8675C20.369 30.1826 21.1804 30.345 21.9999 30.345C22.8194 30.345 23.6307 30.1826 24.3871 29.8675L28.3979 28.1964C29.7857 27.6181 30.6896 26.2621 30.6896 24.7587V24.138C31.718 24.138 32.5517 23.3043 32.5517 22.2759C32.5517 21.2475 31.718 20.4138 30.6896 20.4138V18.3966C30.6896 16.4255 29.0917 14.8276 27.1207 14.8276H16.8793C14.9082 14.8276 13.3103 16.4255 13.3103 18.3966V20.4138Z" fill="#FFD5C2"/>
<path d="M17.6551 22.8967C17.3137 22.8967 17.0344 22.6174 17.0344 22.276V21.6554C17.0344 21.314 17.3137 21.0347 17.6551 21.0347C17.9965 21.0347 18.2758 21.314 18.2758 21.6554V22.276C18.2758 22.6174 17.9965 22.8967 17.6551 22.8967Z" fill="#623F33"/>
<path d="M26.3447 22.8967C26.0033 22.8967 25.724 22.6174 25.724 22.276V21.6554C25.724 21.314 26.0033 21.0347 26.3447 21.0347C26.6861 21.0347 26.9654 21.314 26.9654 21.6554V22.276C26.9654 22.6174 26.6861 22.8967 26.3447 22.8967Z" fill="#623F33"/>
<path d="M22 27.2586C20.8965 27.2586 19.8643 26.987 19.1681 26.5134C18.8848 26.3206 18.8111 25.9345 19.0042 25.6511C19.1966 25.3681 19.5831 25.2944 19.8664 25.4872C20.3543 25.819 21.152 26.0173 22 26.0173C22.848 26.0173 23.6457 25.819 24.1337 25.4872C24.4176 25.2939 24.8031 25.3678 24.9959 25.6511C25.1889 25.9345 25.1153 26.3206 24.8319 26.5134C24.1358 26.987 23.1035 27.2586 22 27.2586Z" fill="#C95F5F"/>
<path d="M13.3102 20.4137C12.2818 20.4137 11.4481 21.2474 11.4481 22.2758C11.4481 23.3042 12.2818 24.1379 13.3102 24.1379V24.7586C13.3102 26.262 14.2141 27.618 15.6019 28.1963L19.6124 29.8673C19.8087 29.9491 20.009 30.0195 20.2119 30.0806C18.4395 28.784 17.2597 27.6506 16.5684 26.9095C16.0655 26.3703 15.793 25.6587 15.793 24.9213V21.4524C17.5697 20.8322 22.5568 18.7952 22.6205 15.4482L21.8447 14.6724C21.8447 14.6724 21.5085 19.1206 13.3102 20.4137Z" fill="#FCAD95"/>
<path d="M29.1253 33.3446L26.8918 36.918C26.5515 37.4625 25.9548 37.7932 25.3128 37.7932H18.6872C18.0452 37.7932 17.4485 37.4625 17.1082 36.918L14.8748 33.3446C14.6954 33.0576 14.3193 32.9672 14.0291 33.1413L11.9903 34.3646C11.6926 34.5432 11.5992 34.9314 11.7833 35.2258L14.5517 39.6553H29.4483L32.2167 35.2257C32.4007 34.9313 32.3074 34.5432 32.0097 34.3645L29.9709 33.1412C29.6808 32.9672 29.3046 33.0576 29.1253 33.3446Z" fill="#C93329"/>
<path d="M29.4482 39.6553H14.5516V44.0001H29.4482V39.6553Z" fill="#F95C3A"/>
<path d="M25.1034 8C23.0862 8 22 8.62069 22 8.62069C22 8.62069 20.9138 8 18.8965 8C16.8793 8 9.2241 11.8836 12.069 20.8836C12.069 20.8836 22 19.1207 22 14.8276C22 19.1207 31.931 20.8836 31.931 20.8836C34.7759 11.8836 27.1207 8 25.1034 8Z" fill="#6E4439"/>
<path d="M22 8.621V8.62069C22 8.62069 20.9138 8 18.8965 8C16.8793 8 9.22415 11.8836 12.0689 20.8836C12.0689 20.8836 13.2711 20.6697 14.838 20.2109C13.0845 12.1406 20.0752 8.62721 22 8.621Z" fill="#5E342E"/>
<path d="M13.931 32.2067H12.6897C12.3469 32.2067 12.069 31.9288 12.069 31.586C12.069 31.2432 12.3469 30.9653 12.6897 30.9653H13.931C14.2738 30.9653 14.5517 31.2432 14.5517 31.586C14.5517 31.9289 14.2738 32.2067 13.931 32.2067Z" fill="#F95C3A"/>
<path d="M13.9311 32.207C13.9311 32.207 15.0173 34.0691 13.3104 36.5519C11.6035 34.0691 12.6898 32.207 12.6898 32.207" fill="#5E342E"/>
<path d="M30.0682 32.2067H31.3096C31.6524 32.2067 31.9303 31.9288 31.9303 31.586C31.9303 31.2432 31.6524 30.9653 31.3096 30.9653H30.0682C29.7254 30.9653 29.4475 31.2432 29.4475 31.586C29.4475 31.9289 29.7254 32.2067 30.0682 32.2067Z" fill="#F95C3A"/>
<path d="M30.0683 32.207C30.0683 32.207 28.9821 34.0691 30.689 36.5519C32.3959 34.0691 31.3097 32.207 31.3097 32.207" fill="#6E4439"/>
</g>
<defs>
<clipPath id="clip0_113_1430">
<rect width="44" height="44" fill="white"/>
</clipPath>
</defs>
</svg>
