<svg width="44" height="44" viewBox="0 0 44 44" fill="none" xmlns="http://www.w3.org/2000/svg">
<path d="M27.3101 0C26.121 0 25.1201 0.806609 24.825 1.90257L24.7981 2.00999L24.7711 1.90257C24.476 0.806609 23.4752 0 22.286 0C20.6983 0 19.4615 1.59191 19.6625 3.10827C19.7295 3.61324 19.9149 4.09535 20.1671 4.53604C21.2016 6.34348 24.7981 8.66104 24.7981 8.66104C26.406 7.4299 28.3945 6.34348 29.429 4.53604C29.6812 4.09535 29.8666 3.61324 29.9336 3.10827C30.1346 1.59191 28.8978 0 27.3101 0Z" fill="#F95C3A"/>
<path d="M29.9334 3.10826C29.867 3.61314 29.681 4.09499 29.4294 4.53603C28.3949 6.34381 26.4064 7.42971 24.7979 8.66086C24.7979 8.66086 24.2435 8.30387 23.5074 7.76006C24.9928 6.68833 26.658 5.65201 27.5747 4.05065C27.8271 3.61048 28.0123 3.12863 28.0796 2.62289C28.2106 1.63624 27.7324 0.617619 26.9449 0.0267988C27.0636 0.0090957 27.1858 0.000244141 27.3098 0.000244141C28.8979 0.000244141 30.1344 1.59189 29.9334 3.10826Z" fill="#C93329"/>
<path d="M19.5035 34.3412L15.1355 31.4486C14.5432 31.0564 14.6156 30.5739 14.1942 30.0259C13.3526 28.9312 12.8785 27.5753 12.8785 26.1565V24.7996H10.768H10.6582H8.5476V26.1565C8.5476 27.5755 8.07349 28.9314 7.23173 30.0261C6.81046 30.574 6.99652 31.0564 6.40441 31.4485L2.02065 34.3516C1.2106 34.888 0.723511 35.7949 0.723511 36.7664V43.9995H10.6581H10.7682H20.8165V36.7853C20.8164 35.802 20.3234 34.8842 19.5035 34.3412Z" fill="#FED2A4"/>
<path d="M21.402 36.7852V43.9994H19.6767V37.7187C19.6767 36.7356 19.4305 35.8118 18.3641 35.2741L13.9957 32.3814C12.2207 31.206 11.0037 28.4205 11.1525 26.1565V24.7996H12.8788V26.1565C12.8788 28.2858 13.9461 30.2725 15.7211 31.4487L20.0895 34.3415C20.9096 34.8844 21.402 35.8021 21.402 36.7852Z" fill="#FFBD86"/>
<path d="M42.48 12.597C40.612 10.3122 37.7712 8.85376 34.5898 8.85376C31.5458 8.85376 28.8136 10.1891 26.9469 12.3058C25.8671 13.5303 25.2847 15.115 25.2847 16.7477V16.8401V28.9557C25.2847 32.8496 28.4414 36.0062 32.3354 36.0062H36.9252C40.8191 36.0062 43.9758 32.8496 43.9758 28.9557V16.8402C43.9758 15.2966 43.457 13.7921 42.48 12.597Z" fill="#343439"/>
<path d="M43.9756 16.8397V28.9553C43.9756 32.8498 40.8189 36.0066 36.9253 36.0066H35.1476C39.0421 36.0066 42.1988 32.8498 42.1988 28.9553V16.8397C42.1988 16.0682 42.0687 15.3065 41.8171 14.5882C41.5656 13.869 41.1917 13.194 40.7028 12.5971C39.0102 10.5263 36.5196 9.13476 33.7003 8.89207C33.9935 8.86724 34.2902 8.854 34.5896 8.854C37.7711 8.854 40.6116 10.3119 42.4796 12.5971C42.9685 13.1941 43.3423 13.869 43.5939 14.5882C43.8463 15.3065 43.9756 16.0682 43.9756 16.8397Z" fill="#161516"/>
<path d="M40.9741 34.5811L39.6468 33.7208C38.7974 33.1583 38.3415 32.3244 37.7865 31.505C36.937 30.2507 36.464 28.754 36.464 27.1944V27.178H34.6285H34.5331H32.6976V27.1944C32.6976 28.7263 32.2412 30.1976 31.4199 31.438C30.8589 32.2854 30.8593 32.7989 29.9868 33.3767L28.168 34.5811C27.7995 34.8251 27.3433 34.9258 27.041 35.2354C25.927 36.3761 25.2849 37.919 25.2849 39.5473V43.9998H34.533H34.6288H43.8769V39.5473C43.8769 37.919 43.2347 36.376 42.1207 35.2352C41.8183 34.9257 41.3424 34.825 40.9741 34.5811Z" fill="#FED2A4"/>
<path d="M43.8764 39.5469V43.9994H42.1198V39.5469C42.1198 37.4769 40.8011 35.942 39.0749 34.7985L37.8685 34.0005C35.7189 32.5762 34.6303 29.904 34.4266 27.1946V27.1777H36.4638V27.1946C36.4638 29.7729 37.757 32.1794 39.9066 33.6028L41.113 34.4017C42.8392 35.5452 43.8764 37.477 43.8764 39.5469Z" fill="#FFBD86"/>
<path d="M40.8911 15.7163L41.6493 18.3435V21.9728C41.6493 22.212 41.6372 22.4487 41.6139 22.6815C41.4481 24.3367 40.7071 25.8224 39.5935 26.936C38.3236 28.2059 36.5691 28.9917 34.6304 28.9917C30.9928 28.9917 28.0019 26.2247 27.6469 22.6815C27.6236 22.4487 27.6115 22.212 27.6115 21.9728V18.3435L28.2843 15.7163H40.8911Z" fill="#FED2A4"/>
<path d="M41.6488 18.3437V21.9725C41.6488 22.2117 41.6373 22.4491 41.6134 22.6811C41.4478 24.3365 40.7073 25.8228 39.5931 26.9361C38.3239 28.2063 36.5692 28.9919 34.6304 28.9919C34.3301 28.9919 34.0343 28.9733 33.7446 28.9361C35.3292 28.7368 36.749 28.0096 37.8216 26.9362C38.9359 25.8229 39.6763 24.3366 39.8419 22.6812C39.8658 22.4491 39.8773 22.2118 39.8773 21.9726V18.3438L39.12 15.7168H40.8914L41.6488 18.3437Z" fill="#FFBD86"/>
<path d="M31.7614 22.8568C31.4053 22.8568 31.1168 22.5683 31.1168 22.2123V21.1091C31.1168 20.7531 31.4053 20.4646 31.7614 20.4646C32.1174 20.4646 32.4059 20.7531 32.4059 21.1091V22.2123C32.4059 22.5683 32.1173 22.8568 31.7614 22.8568Z" fill="#161516"/>
<path d="M37.4991 22.8568C37.1431 22.8568 36.8546 22.5683 36.8546 22.2123V21.1091C36.8546 20.7531 37.1431 20.4646 37.4991 20.4646C37.8552 20.4646 38.1437 20.7531 38.1437 21.1091V22.2123C38.1437 22.5683 37.8552 22.8568 37.4991 22.8568Z" fill="#161516"/>
<path d="M35.3041 15.5237H33.9566H27.6114V18.588C30.1637 18.5116 32.7008 17.978 34.0755 16.5975C34.2977 16.3742 34.4801 16.1674 34.6303 15.979C34.7805 16.1674 34.9628 16.3743 35.185 16.5975C36.5597 17.978 39.0972 18.5116 41.6494 18.588V15.5237H35.3041Z" fill="#343439"/>
<path d="M42.1198 35.2358L40.9483 37.558C40.39 38.6647 40.0991 39.8871 40.0991 41.1268V43.9997H29.0629V41.1275C29.0629 39.8874 28.7719 38.6646 28.2131 37.5575L27.0414 35.2359C27.3431 34.9255 27.6806 34.6457 28.0487 34.4018L29.2553 33.6035C30.1279 33.0248 30.8589 32.285 31.4194 31.4377L31.4203 31.4386C31.4203 31.4386 32.1556 33.9236 34.5811 33.9236C37.0066 33.9236 37.7419 31.4386 37.7419 31.4386C38.3033 32.2859 39.0342 33.0256 39.9069 33.6035L41.1126 34.4018C41.4806 34.6457 41.8181 34.9254 42.1198 35.2358Z" fill="#FF9559"/>
<path d="M42.12 35.2363L41.2866 36.8873C40.7393 36.0751 39.9607 35.3851 39.0749 34.7988L37.8685 34.0007C37.454 33.7262 37.0794 33.4064 36.7427 33.0477C37.4681 32.3418 37.7347 31.4614 37.7418 31.4392C37.7569 31.4614 37.7719 31.4835 37.7871 31.5048C37.8127 31.5437 37.8393 31.5819 37.8659 31.6199C37.9622 31.758 38.0712 31.9001 38.1794 32.0346C38.4685 32.3938 38.791 32.7237 39.1413 33.0248C39.3877 33.2366 39.6366 33.4256 39.9065 33.604C39.9065 33.604 41.1127 34.4019 41.1129 34.402C41.4261 34.6092 41.7264 34.8491 42.0049 35.1212C42.0439 35.1592 42.0819 35.1973 42.12 35.2363Z" fill="#F95C3A"/>
<path d="M21.402 36.7856V43.9998H0.024231V36.7661C0.024231 35.7945 0.511411 34.8884 1.32094 34.3516L5.7053 31.4482C6.29698 31.0558 6.81072 30.574 7.23138 30.0258C9.43413 31.0621 11.993 31.0621 14.1949 30.0249C14.6147 30.5732 15.1284 31.0559 15.721 31.4483L20.0893 34.341C20.9095 34.884 21.402 35.8016 21.402 36.7856Z" fill="#74C733"/>
<path d="M21.402 36.7854V43.9996H19.6767V37.7189C19.6767 36.7358 19.4305 35.8119 18.3641 35.2743L13.9957 32.3816C13.3704 31.968 12.815 31.3541 12.3633 30.634C12.9904 30.5056 13.6051 30.3028 14.1941 30.0247C14.2464 30.0938 14.3004 30.161 14.3571 30.2275C14.4983 30.393 14.6439 30.5541 14.8 30.7058C15.0819 30.9823 15.3915 31.2306 15.7211 31.4489C15.7211 31.449 20.0894 34.3416 20.0894 34.3416C20.2435 34.4435 20.3852 34.5586 20.5146 34.6844C21.077 35.2309 21.402 35.9865 21.402 36.7854Z" fill="#57A41B"/>
<path d="M5.4249 37.0405V43.9999H4.11676V37.0405C4.11676 36.6795 4.40981 36.3865 4.77083 36.3865C5.1328 36.3865 5.4249 36.6795 5.4249 37.0405Z" fill="#57A41B"/>
<path d="M17.309 37.0405V43.9999H16.0009V37.0405C16.0009 36.6795 16.2939 36.3865 16.655 36.3865C17.016 36.3865 17.309 36.6795 17.309 37.0405Z" fill="#57A41B"/>
<path d="M17.976 20.8845H19.1843C20.3954 20.8845 21.3772 19.9027 21.3772 18.6916C21.3772 17.4805 20.3953 16.4988 19.1843 16.4988H17.976V20.8845Z" fill="#F6A96C"/>
<path d="M3.56398 20.8845H2.35562C1.1445 20.8845 0.16275 19.9027 0.16275 18.6916C0.16275 17.4805 1.14459 16.4988 2.35562 16.4988H3.56398V20.8845Z" fill="#F6A96C"/>
<path d="M18.8138 11.6201L18.8407 14.641V18.8142C18.8407 19.0892 18.8269 19.3614 18.8 19.6291C18.6094 21.5323 17.7574 23.2407 16.4769 24.5212C15.0167 25.9814 12.9992 26.8849 10.77 26.8849C6.58726 26.8849 3.14813 23.7034 2.74001 19.629C2.71312 19.3613 2.69928 19.0891 2.69928 18.8141V14.6409V11.62L8.80626 9.80151L18.8138 11.6201Z" fill="#FED2A4"/>
<path d="M18.7998 19.6287C18.6094 21.5321 17.7573 23.2407 16.4766 24.5215C15.017 25.9811 12.9992 26.8846 10.7699 26.8846C10.4661 26.8846 10.1667 26.8677 9.8718 26.8341C11.7407 26.6278 13.4173 25.7819 14.6786 24.5215C15.9594 23.2408 16.8114 21.5321 17.0019 19.6287C17.0284 19.3612 17.0231 11.2949 17.0231 11.2949L18.814 11.62C18.814 11.62 18.8273 19.3613 18.7998 19.6287Z" fill="#FFBD86"/>
<path d="M7.47116 18.8303C7.11512 18.8303 6.82663 18.5418 6.82663 18.1858V16.9172C6.82663 16.5612 7.11512 16.2727 7.47116 16.2727C7.8272 16.2727 8.11569 16.5612 8.11569 16.9172V18.1858C8.11569 18.5418 7.8272 18.8303 7.47116 18.8303Z" fill="#161516"/>
<path d="M14.0688 18.8303C13.7128 18.8303 13.4243 18.5418 13.4243 18.1858V16.9172C13.4243 16.5612 13.7128 16.2727 14.0688 16.2727C14.4249 16.2727 14.7134 16.5612 14.7134 16.9172V18.1858C14.7134 18.5418 14.4248 18.8303 14.0688 18.8303Z" fill="#161516"/>
<path d="M2.69921 13.0308C2.69921 13.0308 6.26879 13.1449 8.54072 11.0512C8.47988 11.1288 10.5028 12.0589 10.6895 12.1475C11.9483 12.7442 13.3217 12.9506 14.701 13.0473C16.8068 13.1949 18.799 12.8516 20.3466 11.3152L20.9412 10.6689C21.3109 10.2672 21.2126 9.62597 20.7389 9.35467C19.9235 8.88768 18.7401 8.1732 17.884 7.50074C15.9748 6.00121 14.1212 4.89219 11.7478 5.36785C10.891 5.53956 10.1362 5.9646 9.52282 6.5849C9.15724 6.9546 8.56831 6.98056 8.17282 6.643C7.94672 6.45007 7.74769 6.27991 7.70876 6.24356C7.17372 5.7434 6.3983 5.40773 5.64729 5.40025C4.98171 5.39364 4.31767 5.61269 3.79818 6.03138C3.1081 6.58765 2.69904 7.44127 2.69904 8.3278V11.6202L2.69921 13.0308Z" fill="#343439"/>
<path d="M20.9415 10.669L20.3463 11.3156C19.1763 12.4768 17.7529 12.956 16.2179 13.0569C17.0301 12.7824 17.7857 12.3404 18.457 11.6743L19.0523 11.0277C19.4216 10.6265 19.3233 9.9852 18.8494 9.71329C18.0346 9.24648 16.8512 8.53174 15.9948 7.85945C14.3872 6.59642 12.8186 5.61063 10.9453 5.61502C11.2013 5.50699 11.4696 5.42372 11.7477 5.36786C14.1215 4.8922 15.9753 6.00113 17.884 7.50066C18.7405 8.17295 19.9238 8.88769 20.7387 9.3545C21.2125 9.62563 21.3109 10.2669 20.9415 10.669Z" fill="#161516"/>
</svg>
