<svg width="44" height="44" viewBox="0 0 44 44" fill="none" xmlns="http://www.w3.org/2000/svg">
<path d="M13.2499 11.5338C12.3469 11.5338 11.6149 12.2659 11.6149 13.1688V14.4293C11.6149 15.3323 12.3469 16.0643 13.2499 16.0643H14.0172L14.0149 11.5337L13.2499 11.5338Z" fill="#FFBD86"/>
<path d="M31.9525 14.4292V13.1687C31.9525 12.2657 31.2204 11.5337 30.3174 11.5337H29.6409L29.6387 16.0643H30.3174C31.2204 16.0642 31.9525 15.3321 31.9525 14.4292Z" fill="#F6A96C"/>
<path d="M33.4765 29.1906L27.1309 28.0119C26.3164 27.8482 25.7304 26.9033 25.7304 26.0725V22.3701H21.7836H21.7835H17.8367V26.0725C17.8367 26.9033 17.2507 27.8482 16.4362 28.0119L10.0906 29.1906C7.0723 30.0793 5 32.8499 5 35.9962V43.0612C5 43.5788 5.41955 43.9984 5.93715 43.9984H37.63C38.1476 43.9984 38.5671 43.5788 38.5671 43.0612V35.9962C38.5671 32.8499 36.4948 30.0793 33.4765 29.1906Z" fill="#FED2A4"/>
<path d="M33.4766 29.1906L27.1309 28.0119C26.3164 27.8482 25.7304 26.9033 25.7304 26.0725V22.3701H22.1598V28.2335C22.1598 29.0644 22.7458 30.0093 23.5603 30.173L29.9059 31.3517C32.9242 32.2404 34.9965 35.0108 34.9965 38.1573V43.9984H37.63C38.1476 43.9984 38.5671 43.5788 38.5671 43.0612V35.9962C38.5671 32.8498 36.4949 30.0793 33.4766 29.1906Z" fill="#FFBD86"/>
<path d="M29.9949 10.7879V9.21643C29.9949 6.99761 29.084 4.84754 27.4026 3.39975C26.0844 2.26468 24.2314 1.27391 21.7836 1.24658C19.3358 1.27391 17.4829 2.2646 16.1646 3.39975C14.4832 4.84754 13.5723 6.99752 13.5723 9.21643V10.7879V11.5338L13.5745 16.0644C13.5752 16.0985 13.5761 16.9346 13.5773 17.9034C13.5791 19.4286 14.2719 20.8713 15.4612 21.8261L19.2557 24.8724C19.6313 25.174 20.0986 25.3384 20.5804 25.3384H22.9868C23.4687 25.3384 23.9359 25.1741 24.3115 24.8724C25.0496 24.2796 26.3703 23.219 27.5519 22.2701C29.0905 21.0345 29.9869 19.1689 29.9902 17.1955C29.9912 16.5667 29.9923 16.0877 29.9928 16.0644L29.995 11.5337L29.9949 10.7879Z" fill="#FED2A4"/>
<path d="M27.4026 3.39975C26.0844 2.26468 24.2313 1.27391 21.7836 1.24658C21.1426 1.25371 20.5427 1.32745 19.9823 1.45206C21.562 1.8032 22.8268 2.56186 23.7998 3.39966C25.4811 4.84745 26.3921 6.99744 26.3921 9.21634V10.7878V11.5337L26.3898 16.0644C26.3893 16.0877 26.3884 16.5668 26.3873 17.1955C26.384 19.1689 25.4877 21.0345 23.949 22.2701C22.7674 23.219 21.4467 24.2796 20.7087 24.8724C20.492 25.0464 20.2444 25.173 19.9816 25.2504C20.1747 25.3077 20.376 25.3384 20.5803 25.3384H22.9867C23.4686 25.3384 23.9358 25.1741 24.3114 24.8724C25.0495 24.2796 26.3702 23.219 27.5518 22.2701C29.0904 21.0345 29.9868 19.1689 29.9901 17.1955C29.9911 16.5667 29.9922 16.0877 29.9926 16.0644L29.9948 11.5337V10.7878V9.21634C29.9949 6.99752 29.084 4.84745 27.4026 3.39975Z" fill="#FFBD86"/>
<path d="M27.3999 0.148825C26.8346 -0.14216 25.6814 0.0352151 24.5637 0.323879C22.7596 0.789832 20.8077 0.789832 19.0036 0.323879C17.8858 0.0352151 16.7328 -0.14216 16.1674 0.148825C13.8082 1.36295 12.3281 10.949 12.3281 10.949H31.2394C31.2393 10.949 29.7592 1.36295 27.3999 0.148825Z" fill="#595866"/>
<path d="M27.3999 0.148825C26.8346 -0.14216 25.6815 0.0352151 24.5638 0.323879C24.419 0.361262 24.2731 0.39452 24.1266 0.425887C26.2614 2.39686 27.5821 10.9489 27.5821 10.9489H31.2392C31.2393 10.949 29.7592 1.36295 27.3999 0.148825Z" fill="#343439"/>
<path d="M21.7837 9.44385C16.1065 9.44385 11.3167 10.5489 9.81928 12.0599C9.45052 12.432 9.71615 13.0646 10.24 13.0646H33.3274C33.8513 13.0646 34.1169 12.4319 33.7481 12.0599C32.2506 10.5489 27.4609 9.44385 21.7837 9.44385Z" fill="#161516"/>
<path d="M33.4765 29.1904L27.1309 28.0117L21.7836 40.458L16.4363 28.0117L10.0907 29.1904C7.07242 30.0791 5.00012 32.8497 5.00012 35.996V43.061C5.00012 43.5786 5.41967 43.9982 5.93727 43.9982H37.6301C38.1477 43.9982 38.5672 43.5786 38.5672 43.061V35.996C38.5671 32.8497 36.4948 30.0791 33.4765 29.1904Z" fill="#595866"/>
<path d="M33.4765 29.1904L27.1309 28.0117L26.8645 28.6317L29.8724 29.1904C32.8907 30.0791 34.963 32.8497 34.963 35.996V43.9981H37.6299C38.1475 43.9981 38.567 43.5785 38.567 43.0609V35.9959C38.5671 32.8496 36.4947 30.0791 33.4765 29.1904Z" fill="#343439"/>
<path d="M21.7837 40.4578L16.648 28.5042C16.5451 28.2648 16.6305 27.9812 16.8557 27.8503C17.4446 27.5082 17.8369 26.752 17.8369 26.0722V24.8022H15.9587C13.7218 24.8022 11.9083 26.6157 11.9083 28.8527L15.5243 32.3685C15.6872 32.5268 15.7386 32.7675 15.6549 32.9787L14.8914 34.9031C14.7969 35.1412 14.8754 35.413 15.0823 35.5641L21.7837 40.4578Z" fill="#161516"/>
<path d="M21.7837 40.4578L26.9194 28.5042C27.0223 28.2648 26.9368 27.9812 26.7116 27.8503C26.1228 27.5082 25.7305 26.752 25.7305 26.0722V24.8022H27.6086C29.8456 24.8022 31.659 26.6157 31.659 28.8527L28.043 32.3685C27.8802 32.5268 27.8287 32.7675 27.9124 32.9787L28.676 34.9031C28.7704 35.1412 28.692 35.413 28.485 35.5641L21.7837 40.4578Z" fill="#161516"/>
<path d="M17.3903 30.2319L21.7836 40.4578L26.177 30.2319C23.3633 31.3942 20.2039 31.3942 17.3903 30.2319Z" fill="#74C733"/>
<path d="M9.96522 37.27C9.59853 37.27 9.30127 37.5673 9.30127 37.934V43.9981H10.6292V37.934C10.6292 37.5673 10.3319 37.27 9.96522 37.27Z" fill="#343439"/>
<path d="M33.6019 37.27C33.2352 37.27 32.938 37.5673 32.938 37.934V43.9981H34.2659V37.934C34.2659 37.5673 33.9686 37.27 33.6019 37.27Z" fill="#343439"/>
</svg>
