<svg width="18" height="18" viewBox="0 0 18 18" fill="none" xmlns="http://www.w3.org/2000/svg">
<path fill-rule="evenodd" clip-rule="evenodd" d="M8.1 16C8.1 16 7 16 7 15C7 14 8.1 11 12.5 11C16.9 11 18 14 18 15C18 16 16.9 16 16.9 16H8.1Z" fill="#74C733"/>
<path fill-rule="evenodd" clip-rule="evenodd" d="M12.5 10C14.433 10 16 8.433 16 6.5C16 4.567 14.433 3 12.5 3C10.567 3 9 4.567 9 6.5C9 8.433 10.567 10 12.5 10Z" fill="#74C733"/>
<path fill-rule="evenodd" clip-rule="evenodd" d="M5.97507 16C5.81379 15.7238 5.72723 15.3964 5.72723 15.0278C5.72723 13.71 6.50506 12.3547 7.94477 11.4111C7.31496 11.2401 6.58074 11.1389 5.72728 11.1389C1.14546 11.1389 0 14.0555 0 15.0278C0 16 1.14546 16 1.14546 16H5.97507Z" fill="#74C733"/>
<path fill-rule="evenodd" clip-rule="evenodd" d="M5 10C6.65685 10 8 8.65685 8 7C8 5.34315 6.65685 4 5 4C3.34315 4 2 5.34315 2 7C2 8.65685 3.34315 10 5 10Z" fill="#74C733"/>
</svg>
