<svg width="530" height="530" viewBox="0 0 530 530" fill="none" xmlns="http://www.w3.org/2000/svg">
<path d="M450.585 89.4747L448.147 85.4573C427.615 51.6221 390.483 31.2171 351.326 33.6869C346.286 34.0051 341.276 34.696 336.338 35.7539C300.743 43.3647 269.77 70.2887 256.933 104.76C249.386 125.038 247.277 148.379 232.946 164.47C214.3 185.415 182.638 186.072 154.802 185.203C126.967 184.334 95.294 185.076 76.7334 206.106C65.0734 219.272 61.4164 238.002 62.3598 255.64C64.8402 302.333 97.3398 344.076 138.754 364.82C180.168 385.564 228.854 387.43 274.127 378.303C337.568 365.52 397.892 330.391 434.187 276.151C470.481 221.911 479.597 148.018 450.585 89.4747Z" fill="url(#paint0_linear_113_1135)"/>
<path d="M408.884 442.751C390.864 432.989 370.523 415.191 362.626 395.051C382.151 405.121 398.602 422.092 408.884 442.751Z" fill="#57A41B"/>
<path d="M407.708 412.478C389.688 402.705 369.346 384.918 361.439 364.778C380.975 374.848 397.426 391.818 407.708 412.478Z" fill="#57A41B"/>
<path d="M405.015 382.872C386.995 373.109 366.643 355.312 358.746 335.172C378.272 345.252 394.733 362.223 405.015 382.872Z" fill="#57A41B"/>
<path d="M401.062 351.782C384.303 339.571 366.272 319.113 360.782 297.987C378.961 310.707 393.271 329.84 401.062 351.782Z" fill="#57A41B"/>
<path d="M395.963 327.794C384.621 309.658 374.943 283.338 377.159 261.534C389.801 281.293 396.341 304.34 395.963 327.794Z" fill="#57A41B"/>
<path d="M398.56 339.2C403.33 316.569 414.948 288.638 431.674 272.907C426.77 297.571 415.334 320.465 398.56 339.2Z" fill="#57A41B"/>
<path d="M402.259 364.82C409.086 341.659 423.459 313.59 442.2 298.655C435.079 323.9 421.281 346.758 402.259 364.82Z" fill="#57A41B"/>
<path d="M406.362 395.994C413.199 372.844 427.562 344.765 446.313 329.84C439.191 355.084 425.388 377.939 406.362 395.994Z" fill="#57A41B"/>
<path d="M408.429 433.995C415.266 410.834 429.629 382.766 448.38 367.841C441.252 393.083 427.451 415.937 408.429 433.995Z" fill="#57A41B"/>
<path d="M395.507 323.236C395.507 323.236 395.56 323.353 395.624 323.597C395.687 323.841 395.772 324.243 395.878 324.657L396.8 328.897C397.595 332.543 398.645 337.854 399.821 344.426C400.998 350.998 402.281 358.863 403.521 367.619C404.761 376.374 405.874 386.02 406.817 396.175C407.761 406.33 408.365 416.039 408.778 424.859C409.192 433.678 409.351 441.649 409.372 448.337C409.393 455.026 409.372 460.422 409.234 464.163C409.181 465.987 409.139 467.428 409.096 468.467C409.096 468.923 409.096 469.283 409.043 469.58C409.062 469.706 409.062 469.835 409.043 469.961C409.029 469.835 409.029 469.707 409.043 469.58C409.043 469.283 409.043 468.912 409.043 468.456V464.163C409.043 460.422 409.043 455.015 408.948 448.337C408.853 441.66 408.609 433.72 408.195 424.901C407.782 416.082 407.135 406.393 406.181 396.281C405.227 386.169 404.061 376.501 402.938 367.746C401.814 358.99 400.542 351.146 399.408 344.564C398.274 337.981 397.288 332.66 396.61 328.992C396.281 327.201 396.016 325.812 395.836 324.752L395.645 323.692C395.585 323.545 395.539 323.392 395.507 323.236Z" fill="#161516"/>
<path d="M413.453 448.868C402.461 434.356 392.253 412.881 392.37 394.447C404.547 410.147 411.875 429.061 413.453 448.868Z" fill="#74C733"/>
<path d="M421.954 425.399C410.962 410.888 400.754 389.412 400.871 370.979C413.044 386.681 420.372 405.594 421.954 425.399Z" fill="#74C733"/>
<path d="M429.067 401.856C418.075 387.345 407.867 365.869 407.973 347.436C420.15 363.137 427.481 382.05 429.067 401.856Z" fill="#74C733"/>
<path d="M435.66 376.692C426.449 360.792 418.806 338.203 421.149 320.024C431.376 337.108 436.418 356.795 435.66 376.692Z" fill="#74C733"/>
<path d="M439.169 356.467C435.989 338.235 436.667 314.438 445.168 298.75C448.898 318.16 446.811 338.24 439.169 356.467Z" fill="#74C733"/>
<path d="M437.61 366.156C448.38 350.86 466.061 334.186 483.943 328.812C472.532 345.568 456.408 358.564 437.61 366.156Z" fill="#74C733"/>
<path d="M432.544 387.059C445.041 372.155 464.948 356.489 484.123 352.503C470.737 368.882 452.783 380.91 432.544 387.059Z" fill="#74C733"/>
<path d="M426.035 412.34C438.533 397.436 458.45 381.759 477.625 377.773C464.234 394.153 446.277 406.185 426.035 412.34Z" fill="#74C733"/>
<path d="M415.817 442.02C428.325 427.105 448.232 411.439 467.407 407.453C454.016 423.834 436.059 435.866 415.817 442.02Z" fill="#74C733"/>
<path d="M440.229 352.821C440.229 352.821 440.229 352.937 440.229 353.139C440.229 353.34 440.154 353.69 440.101 354.061C439.953 354.92 439.762 356.086 439.518 357.57C439.01 360.622 438.183 364.99 437.07 370.438C434.854 381.282 431.335 396.175 426.47 412.34C424.021 420.428 421.488 428.07 419.05 434.971C416.612 441.871 414.259 448.019 412.17 453.139C410.082 458.259 408.365 462.404 407.093 465.223L405.63 468.52L405.238 469.357C405.143 469.548 405.09 469.643 405.079 469.633C405.096 469.53 405.128 469.43 405.174 469.336C405.259 469.103 405.376 468.817 405.503 468.467C405.832 467.661 406.287 466.559 406.849 465.17C408.036 462.319 409.711 458.164 411.725 453.023C413.739 447.882 416.018 441.702 418.456 434.812C420.894 427.922 423.353 420.269 425.791 412.202C430.646 396.048 434.271 381.197 436.572 370.396C437.748 364.99 438.692 360.612 439.232 357.58C439.529 356.107 439.762 354.941 439.942 354.082C440.017 353.722 440.091 353.425 440.144 353.181C440.153 353.057 440.181 352.936 440.229 352.821Z" fill="#161516"/>
<path d="M430.689 507.963H392.062L384.854 454.729H438.098L430.689 507.963Z" fill="#595866"/>
<path d="M442.889 454.188H380.074V462.467H442.889V454.188Z" fill="#595866"/>
<path d="M442.879 462.605C442.879 462.754 428.982 462.881 411.831 462.881C394.68 462.881 380.784 462.754 380.784 462.605C380.784 462.457 394.691 462.33 411.831 462.33C428.971 462.33 442.879 462.446 442.879 462.605Z" fill="#161516"/>
<path d="M354.496 65.1265H184.938C170.104 65.1265 158.078 77.1523 158.078 91.9869V480.403C158.078 495.237 170.104 507.263 184.938 507.263H354.496C369.33 507.263 381.356 495.237 381.356 480.403V91.9869C381.356 77.1523 369.33 65.1265 354.496 65.1265Z" fill="#595866"/>
<path d="M377.826 480.19V92.2093C377.826 79.1954 367.277 68.6455 354.263 68.6455L185.15 68.6455C172.136 68.6455 161.586 79.1954 161.586 92.2093L161.586 480.19C161.586 493.204 172.136 503.754 185.15 503.754H354.263C367.277 503.754 377.826 493.204 377.826 480.19Z" fill="#161516"/>
<path d="M246.81 82.5741C246.153 82.5741 245.522 82.3128 245.057 81.8476C244.591 81.3824 244.33 80.7515 244.33 80.0937C244.33 79.4358 244.591 78.8049 245.057 78.3398C245.522 77.8746 246.153 77.6133 246.81 77.6133H278.738C279.396 77.6133 280.026 77.8746 280.492 78.3398C280.957 78.8049 281.218 79.4358 281.218 80.0937C281.218 80.7515 280.957 81.3824 280.492 81.8476C280.026 82.3128 279.396 82.5741 278.738 82.5741H246.81Z" fill="#595866"/>
<path d="M296.005 82.5741C295.514 82.5741 295.035 82.4286 294.627 82.1561C294.219 81.8835 293.901 81.4961 293.713 81.0429C293.526 80.5897 293.476 80.0909 293.572 79.6098C293.668 79.1286 293.904 78.6867 294.251 78.3398C294.598 77.9929 295.04 77.7566 295.521 77.6609C296.002 77.5652 296.501 77.6144 296.954 77.8021C297.407 77.9898 297.795 78.3077 298.067 78.7156C298.34 79.1235 298.485 79.6031 298.485 80.0937C298.483 80.7507 298.22 81.3799 297.756 81.8445C297.291 82.3091 296.662 82.5713 296.005 82.5741Z" fill="#595866"/>
<path d="M286.868 82.5741C286.377 82.5741 285.898 82.4286 285.49 82.1561C285.082 81.8835 284.764 81.4961 284.576 81.0429C284.389 80.5897 284.339 80.0909 284.435 79.6098C284.531 79.1286 284.767 78.6867 285.114 78.3398C285.461 77.9929 285.903 77.7566 286.384 77.6609C286.865 77.5652 287.364 77.6144 287.817 77.8021C288.27 77.9898 288.658 78.3077 288.93 78.7156C289.203 79.1235 289.348 79.6031 289.348 80.0937C289.346 80.7507 289.083 81.3799 288.619 81.8445C288.154 82.3091 287.525 82.5713 286.868 82.5741Z" fill="#595866"/>
<path d="M357.464 71.6241H318.806C317.391 71.6217 316.014 72.0781 314.88 72.9247C313.747 73.7714 312.919 74.9626 312.52 76.3199L310.061 84.7999C309.618 86.3273 308.691 87.6697 307.42 88.6254C306.149 89.5811 304.602 90.0985 303.012 90.0999H236.38C234.79 90.0985 233.243 89.5811 231.972 88.6254C230.701 87.6697 229.774 86.3273 229.331 84.7999L226.872 76.3199C226.475 74.9568 225.647 73.7591 224.512 72.9067C223.376 72.0543 221.995 71.593 220.575 71.5923H190.556C187.413 71.5923 184.301 72.2114 181.397 73.4142C178.493 74.617 175.854 76.3801 173.632 78.6026C171.409 80.8252 169.646 83.4637 168.443 86.3676C167.24 89.2715 166.621 92.3839 166.621 95.5271V481.706C166.621 485.996 168.326 490.111 171.359 493.144C174.393 496.178 178.507 497.882 182.797 497.882H358.598C362.365 497.882 365.978 496.385 368.642 493.722C371.306 491.058 372.802 487.445 372.802 483.678V86.9199C372.791 82.8593 371.17 78.9688 368.295 76.1015C365.419 73.2342 361.524 71.6241 357.464 71.6241Z" fill="white"/>
<path d="M381.674 212.042H381.346V161.268H381.674C381.975 161.268 382.263 161.388 382.476 161.601C382.689 161.813 382.808 162.102 382.808 162.403V210.908C382.808 211.209 382.689 211.498 382.476 211.71C382.263 211.923 381.975 212.042 381.674 212.042Z" fill="#595866"/>
<path d="M157.686 192.539H158.078V224.72H157.686C157.385 224.72 157.096 224.601 156.884 224.388C156.671 224.175 156.551 223.887 156.551 223.586V193.673C156.551 193.372 156.671 193.083 156.884 192.871C157.096 192.658 157.385 192.539 157.686 192.539Z" fill="#595866"/>
<path d="M157.686 150.52H158.078V182.691H157.686C157.385 182.691 157.096 182.572 156.884 182.359C156.671 182.146 156.551 181.858 156.551 181.557V151.644C156.554 151.345 156.675 151.059 156.887 150.848C157.1 150.638 157.387 150.52 157.686 150.52Z" fill="#595866"/>
<path d="M157.77 118.964H158.078V133.92H157.77C157.503 133.92 157.247 133.814 157.058 133.626C156.87 133.437 156.763 133.181 156.763 132.913V119.96C156.766 119.695 156.874 119.442 157.062 119.255C157.251 119.068 157.505 118.964 157.77 118.964Z" fill="#595866"/>
<path d="M324.286 86.0083H322.749V88.1601H324.286V86.0083Z" fill="#161516"/>
<path d="M326.787 85.0547H325.25V88.1605H326.787V85.0547Z" fill="#161516"/>
<path d="M329.278 84.3335H327.741V88.1601H329.278V84.3335Z" fill="#161516"/>
<path d="M331.78 82.9453H330.243V88.1605H331.78V82.9453Z" fill="#161516"/>
<path d="M354.411 88.2661H346.715C346.569 88.2661 346.429 88.208 346.326 88.1047C346.222 88.0013 346.164 87.8611 346.164 87.7149V83.8883C346.164 83.7439 346.221 83.6053 346.322 83.5022C346.423 83.3992 346.56 83.3399 346.705 83.3371H354.411C354.446 83.3271 354.482 83.3271 354.517 83.3371C354.528 83.3716 354.528 83.4086 354.517 83.4431V84.7999H355.344C355.363 84.7984 355.382 84.8009 355.4 84.8072C355.418 84.8135 355.434 84.8234 355.448 84.8363C355.462 84.8493 355.473 84.8649 355.481 84.8824C355.488 84.8998 355.492 84.9187 355.492 84.9377V86.7821C355.492 86.8011 355.488 86.82 355.481 86.8374C355.473 86.8549 355.462 86.8705 355.448 86.8835C355.434 86.8964 355.418 86.9063 355.4 86.9126C355.382 86.9189 355.363 86.9214 355.344 86.9199H354.517V88.1813C354.508 88.2034 354.494 88.2228 354.475 88.2377C354.457 88.2525 354.434 88.2623 354.411 88.2661ZM354.273 83.6233H346.705C346.67 83.6233 346.636 83.6302 346.605 83.6436C346.573 83.6571 346.545 83.6768 346.521 83.7015C346.497 83.7263 346.479 83.7556 346.467 83.7877C346.454 83.8198 346.449 83.854 346.45 83.8883V87.7149C346.45 87.7862 346.478 87.8547 346.527 87.9061C346.577 87.9575 346.644 87.9878 346.715 87.9905H354.273V86.7291C354.273 86.6926 354.288 86.6575 354.314 86.6317C354.339 86.6058 354.374 86.5913 354.411 86.5913H355.238V85.0225H354.411C354.374 85.0225 354.339 85.008 354.314 84.9821C354.288 84.9563 354.273 84.9212 354.273 84.8847V83.6233Z" fill="#161516"/>
<path d="M347.076 87.3654V84.249H353.648V85.6588V85.9556V87.3654H347.076Z" fill="#161516"/>
<path d="M339.115 87.9799C339.115 87.8309 339.056 87.688 338.951 87.5826C338.845 87.4773 338.702 87.4181 338.553 87.4181C338.479 87.4166 338.405 87.4302 338.337 87.4579C338.268 87.4856 338.205 87.527 338.153 87.5794C338.1 87.6319 338.059 87.6944 338.031 87.7632C338.004 87.832 337.99 87.9057 337.992 87.9799C337.992 88.1289 338.051 88.2718 338.156 88.3771C338.261 88.4825 338.404 88.5417 338.553 88.5417C338.702 88.5417 338.845 88.4825 338.951 88.3771C339.056 88.2718 339.115 88.1289 339.115 87.9799Z" fill="#161516"/>
<path d="M336.635 86.6232L337.345 87.3334C337.665 87.0156 338.097 86.8372 338.548 86.8372C338.999 86.8372 339.431 87.0156 339.751 87.3334L340.472 86.6232C340.22 86.3708 339.921 86.1705 339.592 86.0341C339.263 85.8977 338.91 85.8277 338.553 85.8282C338.197 85.8253 337.843 85.8942 337.513 86.0308C337.184 86.1674 336.885 86.3688 336.635 86.6232Z" fill="#161516"/>
<path d="M338.553 84.2277C337.986 84.223 337.423 84.3322 336.899 84.5489C336.375 84.7656 335.899 85.0853 335.501 85.4891L336.221 86.2099C336.525 85.9 336.888 85.6541 337.289 85.4866C337.689 85.3191 338.119 85.2335 338.553 85.2347C338.987 85.2358 339.416 85.3226 339.817 85.4899C340.217 85.6572 340.58 85.9019 340.885 86.2099L341.596 85.4891C341.198 85.0866 340.724 84.7676 340.202 84.5509C339.68 84.3343 339.119 84.2244 338.553 84.2277Z" fill="#161516"/>
<path d="M334.335 84.3228L335.045 85.0436C335.505 84.5831 336.051 84.2177 336.652 83.9684C337.253 83.7191 337.897 83.5908 338.548 83.5908C339.199 83.5908 339.843 83.7191 340.444 83.9684C341.046 84.2177 341.592 84.5831 342.051 85.0436L342.772 84.3228C342.217 83.7626 341.557 83.3179 340.829 83.0144C340.101 82.7109 339.321 82.5547 338.532 82.5547C337.744 82.5547 336.963 82.7109 336.235 83.0144C335.508 83.3179 334.847 83.7626 334.292 84.3228H334.335Z" fill="#161516"/>
<path d="M125.08 472.876L124.709 495.02C124.709 495.02 147.033 502.832 147.361 506.924L104.495 507.708L103.7 473.269L125.08 472.876Z" fill="#F95C3A"/>
<path d="M111.427 493.356C111.018 493.488 110.671 493.766 110.454 494.138C110.237 494.51 110.165 494.948 110.251 495.37C110.37 495.784 110.642 496.137 111.012 496.357C111.382 496.578 111.823 496.649 112.243 496.557C112.67 496.412 113.029 496.117 113.255 495.727C113.481 495.338 113.559 494.879 113.473 494.437C113.305 494.019 112.981 493.682 112.571 493.496C112.16 493.31 111.693 493.291 111.268 493.441" fill="#E1E1E7"/>
<path d="M104.495 507.656L104.558 504.179L145.623 504.73C145.623 504.73 147.552 505.525 147.361 506.85L104.495 507.656Z" fill="#343439"/>
<path d="M125.398 494.734C125.398 494.946 124.338 495.062 123.278 495.794C122.218 496.525 121.73 497.373 121.54 497.299C121.349 497.225 121.635 496.006 122.886 495.179C124.137 494.352 125.44 494.543 125.398 494.734Z" fill="#343439"/>
<path d="M129.935 496.515C129.935 496.716 129.076 497.087 128.387 497.988C127.698 498.889 127.507 499.822 127.327 499.822C127.147 499.822 126.967 498.634 127.847 497.532C128.726 496.43 129.924 496.313 129.935 496.515Z" fill="#343439"/>
<path d="M132.585 501.847C132.394 501.9 132.076 500.861 132.585 499.727C133.094 498.592 134.069 498.094 134.164 498.264C134.26 498.433 133.666 499.059 133.253 500.013C132.839 500.967 132.786 501.825 132.585 501.847Z" fill="#343439"/>
<path d="M124.932 489.72C124.847 489.911 123.872 489.636 122.695 489.72C121.518 489.805 120.575 490.208 120.49 490.028C120.405 489.848 121.253 489.095 122.61 488.968C123.967 488.841 125.08 489.53 124.932 489.72Z" fill="#343439"/>
<path d="M100.181 461.1L84.853 477C84.853 477 95.8664 497.924 93.333 501.147L61.427 472.527L84.3018 446.758L100.181 461.1Z" fill="#F95C3A"/>
<path d="M76.2246 466.771C75.8337 466.588 75.3892 466.557 74.9763 466.682C74.5635 466.807 74.2115 467.08 73.988 467.449C73.7941 467.834 73.7541 468.279 73.8762 468.692C73.9983 469.106 74.2732 469.457 74.6452 469.675C75.0605 469.863 75.5303 469.893 75.9658 469.758C76.4013 469.623 76.7724 469.334 77.009 468.944C77.1717 468.522 77.1644 468.052 76.9885 467.635C76.8125 467.218 76.4817 466.886 76.0656 466.707" fill="#E1E1E7"/>
<path d="M61.4164 472.527L63.8226 470.015L93.5026 498.401C93.5026 498.401 94.34 500.32 93.28 501.147L61.4164 472.527Z" fill="#343439"/>
<path d="M85.5102 477.307C85.3724 477.456 84.5244 476.83 83.316 476.64C82.1076 476.449 81.1006 476.746 81.0158 476.555C80.931 476.364 81.9592 475.675 83.4326 475.919C84.906 476.163 85.6798 477.191 85.5102 477.307Z" fill="#343439"/>
<path d="M87.6196 481.696C87.5242 481.876 86.5596 481.537 85.4996 481.696C84.4396 481.855 83.6022 482.438 83.4538 482.289C83.3054 482.141 83.9944 481.176 85.3936 480.975C86.7928 480.774 87.7468 481.537 87.6196 481.696Z" fill="#343439"/>
<path d="M85.9236 487.399C85.754 487.303 86.2416 486.339 87.4076 485.84C88.5736 485.342 89.6018 485.66 89.5276 485.84C89.4534 486.021 88.616 486.074 87.6726 486.498C86.7292 486.922 86.0932 487.526 85.9236 487.399Z" fill="#343439"/>
<path d="M88.6054 473.29C88.4146 473.375 87.8952 472.516 86.9624 471.785C86.0296 471.053 85.0862 470.725 85.1286 470.513C85.171 470.301 86.3264 470.343 87.4076 471.223C88.4888 472.103 88.7962 473.237 88.6054 473.29Z" fill="#343439"/>
<path d="M184.694 233.455L165.848 245.92L166.123 250.86L171.042 261.227C171.042 261.227 173.321 263.347 179.988 256.626C186.655 249.906 195.104 236.38 195.104 236.38L184.694 233.455Z" fill="#FFBE9D"/>
<path d="M216.42 207.527C216.309 207.283 216.138 207.072 215.923 206.912C215.708 206.753 215.456 206.651 215.191 206.615L205.958 205.375C205.556 205.329 205.149 205.366 204.762 205.485C204.376 205.604 204.018 205.801 203.711 206.064L177.274 228.759L178.472 229.925L188.394 232.32L216.6 207.94L216.42 207.527Z" fill="#343439"/>
<path d="M209.096 209.414C209.196 209.519 209.332 209.582 209.477 209.592C209.623 209.602 209.766 209.557 209.88 209.467C210.012 209.404 210.114 209.293 210.166 209.157C210.217 209.02 210.214 208.869 210.156 208.735C210.047 208.637 209.905 208.583 209.758 208.583C209.611 208.583 209.47 208.637 209.361 208.735C209.074 208.873 208.947 209.202 209.096 209.414Z" fill="white"/>
<path d="M216.6 207.94C215.994 207.948 215.387 207.906 214.788 207.813L209.88 207.23L206.488 206.806C206.207 206.754 205.918 206.764 205.642 206.835C205.365 206.906 205.108 207.038 204.887 207.22L203.382 208.534L196.619 214.353C191.818 218.466 187.45 222.176 184.27 224.837C182.723 226.109 181.44 227.158 180.476 227.964C180.024 228.35 179.546 228.704 179.045 229.024C179.436 228.568 179.869 228.149 180.338 227.773L184.005 224.508C187.122 221.773 191.425 218.032 196.259 213.908L203.043 208.121L204.58 206.827C204.851 206.607 205.167 206.448 205.506 206.362C205.844 206.276 206.198 206.265 206.541 206.329L209.933 206.817L214.83 207.569C215.428 207.653 216.019 207.777 216.6 207.94Z" fill="#595866"/>
<path d="M207.007 212.689C207.007 212.689 206.159 212.276 205.004 214.565C203.849 216.855 200.319 223.374 200.319 223.374L196.376 219.6L190.355 218.731C190.355 218.731 188.754 219.547 189.507 220.438C190.259 221.328 193.747 223.024 193.747 223.024L195.358 227.678L188.68 221.752C188.68 221.752 185.903 221.752 186.221 223.491C186.539 225.229 190.387 231.706 190.387 231.706L186.571 230.317L182.733 226.215C182.733 226.215 181.292 225.876 181.483 227.275C181.673 228.674 185.267 234.356 185.267 234.356L190.302 238.829C190.302 238.829 193.567 239.475 194.128 238.617C194.557 237.951 194.913 237.24 195.188 236.497C195.188 236.497 197.012 236.497 197.563 235.787C197.944 235.138 198.182 234.415 198.262 233.667C198.262 233.667 200.785 234.875 201.538 233.486C202.287 231.711 202.738 229.823 202.873 227.9C202.926 226.681 207.294 216.495 207.272 216.145C207.251 215.795 208.82 212.456 207.007 212.689Z" fill="#FFBE9D"/>
<path d="M194.287 238.648C193.745 238.785 193.176 238.785 192.634 238.648C189.942 238.296 187.486 236.931 185.765 234.832C185.118 234.027 184.864 233.444 184.928 233.401C186.19 234.727 187.614 235.888 189.168 236.857C191.765 238.383 194.309 238.5 194.287 238.648Z" fill="#EB996E"/>
<path d="M193.492 236.168C193.365 236.274 192.485 235.447 191.637 234.228C190.789 233.009 190.302 231.896 190.45 231.811C190.599 231.727 191.309 232.681 192.146 233.868C192.984 235.055 193.63 236.051 193.492 236.168Z" fill="#EB996E"/>
<path d="M197.976 231.991C197.849 232.097 196.916 231.281 196.206 230.03C195.496 228.78 195.146 227.635 195.263 227.571C195.379 227.508 195.994 228.504 196.736 229.691C197.478 230.878 198.114 231.875 197.976 231.991Z" fill="#EB996E"/>
<path d="M202.343 228.843C201.908 227.981 201.553 227.079 201.283 226.151C200.855 225.292 200.501 224.399 200.223 223.48C200.351 223.374 201.283 224.37 201.909 225.918C202.373 226.818 202.525 227.847 202.343 228.843Z" fill="#EB996E"/>
<path d="M156.785 208.513C149.63 208.258 134.525 187.493 134.652 180.327L135.214 137.217C134.991 125.631 141.574 115.847 153.138 115.953L154.198 116.028C159.392 116.374 164.265 118.664 167.846 122.441C171.427 126.219 173.454 131.207 173.522 136.411C173.66 146.46 173.681 157.558 173.257 162.911C172.367 173.999 161.162 174.974 161.162 174.974C161.162 174.974 161.056 177.55 160.982 180.815C160.802 188.139 163.664 208.725 156.339 208.47L156.785 208.513Z" fill="#FFBE9D"/>
<path d="M161.173 174.974C156.048 174.622 151.133 172.804 147.011 169.738C147.011 169.738 149.926 178.313 161.067 178.059L161.173 174.974Z" fill="#EB996E"/>
<path d="M169.78 145.517C169.758 145.93 169.575 146.319 169.27 146.598C168.964 146.878 168.561 147.026 168.148 147.012C167.945 147.012 167.744 146.972 167.557 146.894C167.37 146.816 167.2 146.702 167.057 146.558C166.914 146.414 166.801 146.243 166.725 146.055C166.648 145.868 166.609 145.667 166.611 145.464C166.635 145.052 166.82 144.665 167.124 144.386C167.429 144.107 167.83 143.958 168.243 143.969C168.447 143.967 168.649 144.005 168.837 144.082C169.026 144.158 169.197 144.272 169.34 144.417C169.484 144.561 169.597 144.733 169.672 144.922C169.748 145.111 169.784 145.313 169.78 145.517Z" fill="#343439"/>
<path d="M170.851 141.16C170.639 141.351 169.494 140.376 167.798 140.27C166.102 140.164 164.777 140.927 164.618 140.705C164.459 140.482 164.766 140.249 165.328 139.888C166.101 139.428 166.997 139.217 167.893 139.284C168.782 139.338 169.629 139.676 170.31 140.249C170.798 140.683 170.957 141.075 170.851 141.16Z" fill="#343439"/>
<path d="M154.177 145.22C154.155 145.633 153.972 146.022 153.666 146.301C153.361 146.581 152.958 146.729 152.545 146.715C152.342 146.716 152.142 146.677 151.955 146.6C151.768 146.524 151.598 146.411 151.455 146.268C151.312 146.125 151.198 145.955 151.122 145.767C151.045 145.58 151.006 145.38 151.008 145.178C151.013 144.969 151.06 144.763 151.145 144.572C151.23 144.381 151.352 144.209 151.503 144.066C151.655 143.922 151.833 143.809 152.028 143.735C152.223 143.66 152.431 143.624 152.64 143.63C152.847 143.627 153.053 143.666 153.244 143.746C153.436 143.825 153.609 143.943 153.753 144.092C153.897 144.241 154.009 144.418 154.082 144.612C154.155 144.806 154.187 145.013 154.177 145.22Z" fill="#343439"/>
<path d="M154.113 140.429C153.901 140.62 152.757 139.655 151.05 139.539C149.343 139.422 148.04 140.196 147.87 139.984C147.7 139.772 148.008 139.517 148.58 139.157C149.354 138.701 150.249 138.49 151.145 138.553C152.032 138.613 152.878 138.951 153.562 139.517C154.06 139.92 154.209 140.344 154.113 140.429Z" fill="#343439"/>
<path d="M159.35 153.944C160.264 153.715 161.205 153.608 162.148 153.626C162.583 153.626 163.007 153.552 163.102 153.255C163.164 152.809 163.09 152.355 162.89 151.951L161.83 148.549C160.357 143.704 159.329 139.74 159.519 139.687C159.71 139.634 161.067 143.503 162.54 148.337C162.89 149.534 163.229 150.669 163.547 151.76C163.782 152.307 163.819 152.917 163.653 153.488C163.582 153.637 163.477 153.768 163.346 153.869C163.216 153.97 163.063 154.039 162.901 154.071C162.653 154.119 162.4 154.137 162.148 154.124C161.212 154.181 160.271 154.121 159.35 153.944Z" fill="#343439"/>
<path d="M154.389 134.048C154.124 134.461 152.502 133.899 150.488 133.719C148.474 133.539 146.778 133.719 146.609 133.274C146.534 133.051 146.895 132.691 147.669 132.384C148.634 132.014 149.673 131.88 150.7 131.991C151.732 132.083 152.727 132.418 153.605 132.967C154.219 133.412 154.506 133.846 154.389 134.048Z" fill="#343439"/>
<path d="M170.713 137.143C170.342 137.514 168.975 137.037 167.3 136.931C165.625 136.825 164.205 137.026 163.897 136.602C163.77 136.401 164.003 136.03 164.65 135.691C165.526 135.282 166.496 135.114 167.459 135.203C168.419 135.265 169.345 135.584 170.141 136.125C170.713 136.549 170.883 136.963 170.713 137.143Z" fill="#343439"/>
<path d="M135.563 145.496C135.383 145.4 128.143 142.729 127.825 150.329C127.507 157.93 135.245 156.689 135.245 156.414C135.245 156.138 135.563 145.496 135.563 145.496Z" fill="#FFBE9D"/>
<path d="M133.041 153.456C133.041 153.456 132.903 153.541 132.68 153.636C132.364 153.764 132.011 153.764 131.694 153.636C131.213 153.307 130.827 152.856 130.578 152.329C130.328 151.802 130.223 151.217 130.274 150.636C130.282 149.986 130.434 149.345 130.719 148.76C130.801 148.521 130.941 148.307 131.126 148.135C131.311 147.963 131.535 147.839 131.779 147.774C131.932 147.742 132.092 147.763 132.231 147.835C132.37 147.906 132.48 148.023 132.542 148.167C132.638 148.379 132.542 148.538 132.627 148.548C132.712 148.559 132.797 148.421 132.744 148.114C132.714 147.92 132.612 147.746 132.458 147.626C132.359 147.542 132.244 147.479 132.12 147.44C131.996 147.402 131.866 147.39 131.737 147.403C131.423 147.455 131.127 147.586 130.878 147.785C130.629 147.983 130.436 148.243 130.316 148.538C129.963 149.188 129.777 149.917 129.776 150.658C129.776 152.195 130.507 153.647 131.599 154.007C131.801 154.073 132.016 154.093 132.226 154.065C132.437 154.038 132.639 153.964 132.818 153.848C133.019 153.636 133.072 153.467 133.041 153.456Z" fill="#EB996E"/>
<path d="M154.633 154.76C154.527 154.76 154.453 155.184 154.633 155.82C154.82 156.696 155.28 157.49 155.947 158.088C156.587 158.666 157.327 159.122 158.131 159.434C158.735 159.668 159.127 159.742 159.191 159.646C159.254 159.551 158.926 159.286 158.406 158.926C157.738 158.503 157.103 158.028 156.509 157.505C155.089 156.297 154.877 154.686 154.633 154.76Z" fill="#343439"/>
<path d="M99.4492 286.9L94.5308 317.491L98.1242 342.772L98.2726 348.263L101.908 375.24C101.908 375.24 100.562 400.68 99.8838 406.171C99.2054 411.662 101.601 489.37 101.601 489.37L126.32 488.31C126.32 488.31 135.68 373.025 135.68 371.753C135.68 370.481 148.538 285.532 148.538 285.532L99.4492 286.9Z" fill="#343439"/>
<path d="M161.936 291.617C161.936 291.617 161.438 395.147 159.127 401.136C156.816 407.125 91.8808 471.478 91.8808 471.478L71.3168 455.45L123.829 384.78L127.062 286.126L161.936 291.617Z" fill="#343439"/>
<path d="M144.701 318.689C144.838 318.689 141.764 344.85 137.832 377.074C133.899 409.298 130.603 435.374 130.412 435.374C130.221 435.374 133.348 409.224 137.281 376.989C141.213 344.754 144.552 318.668 144.701 318.689Z" fill="#595866"/>
<path d="M101.908 375.24C101.92 375.325 101.92 375.41 101.908 375.495C101.908 375.685 101.908 375.94 101.908 376.237C101.908 376.936 101.792 377.89 101.707 379.109C101.495 381.6 101.262 385.215 100.997 389.709C100.499 398.634 100.075 410.973 100.181 424.604C100.287 438.236 100.689 450.596 100.923 459.584C101.029 464.015 101.113 467.619 101.177 470.184C101.177 471.403 101.177 472.368 101.177 473.068C101.177 473.364 101.177 473.619 101.177 473.81C101.182 473.894 101.182 473.979 101.177 474.064C101.166 473.98 101.166 473.894 101.177 473.81C101.177 473.619 101.177 473.375 101.177 473.068C101.177 472.368 101.103 471.414 101.05 470.195C100.954 467.651 100.817 464.047 100.636 459.595C100.318 450.659 99.8308 438.31 99.746 424.668C99.6612 411.026 100.117 398.666 100.711 389.688C101.029 385.225 101.315 381.621 101.58 379.141C101.707 377.922 101.802 376.968 101.877 376.268C101.877 375.972 101.951 375.728 101.972 375.526C101.941 375.433 101.92 375.338 101.908 375.24Z" fill="#595866"/>
<path d="M126.903 316.495C126.967 316.622 122.462 318.996 116.854 321.795C111.247 324.593 106.636 326.756 106.572 326.628C106.509 326.501 111.014 324.137 116.621 321.328C122.229 318.519 126.84 316.367 126.903 316.495Z" fill="#595866"/>
<path d="M176.691 236.38L189.104 247.542C189.104 247.542 169.674 268.742 163.664 273.459C157.654 278.176 165.583 241.436 165.583 241.436L176.691 236.38Z" fill="#F95C3A"/>
<path d="M134.546 170.035L129.384 177.19L109.244 184.61L100.138 252.927L94.3824 313.919C94.3824 313.919 102.428 302.45 108.586 302.259C114.745 302.068 145.888 310.803 147.997 312.393L152.11 298.613L155.438 314.608C155.438 314.608 161.29 315.922 164.342 307.188L163.049 276.872C163.049 276.872 167.162 222.229 166.929 213.982C166.696 205.735 161.131 182.861 161.131 182.861L159.011 189.602L140.98 174.179L134.546 170.035Z" fill="#F95C3A"/>
<path d="M115.095 182.542C115.095 182.542 101.898 182.542 97.626 206.922C93.3542 231.302 87.2274 257.58 90.3862 267.438C93.545 277.296 106 305.502 106 305.502L122.96 299.376L115.985 254.993L124.052 211.533C124.052 211.533 125.08 184.323 115.095 182.542Z" fill="#F95C3A"/>
<path d="M130.274 309.181C130.274 309.181 122.165 299.641 121.55 299.874L108.12 304.729C107.827 308.19 107.859 311.672 108.215 315.127C108.735 320.099 109.593 325.431 109.593 325.431L127.306 315.986C127.698 317.952 128.276 319.875 129.034 321.731C130.02 323.851 133.433 321.615 133.433 321.615L130.274 309.181Z" fill="#FFBE9D"/>
<path d="M124.02 211.565C124.02 211.565 124.02 211.83 123.914 212.339C123.808 212.848 123.691 213.632 123.511 214.618C123.151 216.622 122.631 219.558 121.953 223.31C120.575 230.857 118.582 241.712 116.144 255.036V254.962C118.148 267.597 120.543 282.744 123.172 299.333V299.535L122.981 299.609L106.021 305.736L105.799 305.821L105.703 305.598L100.297 293.069C97.0536 285.384 93.9372 277.879 91.1706 270.48C90.8208 269.558 90.5134 268.625 90.206 267.703C90.047 267.237 89.9622 266.738 89.835 266.272C89.7058 265.796 89.6171 265.311 89.57 264.82C89.4274 263.861 89.3424 262.895 89.3156 261.926C89.3156 260.972 89.2414 260.007 89.3156 259.064C89.4266 255.354 89.7415 251.652 90.259 247.976C91.1918 240.8 92.4638 234.048 93.6192 227.72C94.7746 221.392 95.8982 215.519 96.8946 210.145C97.361 207.453 97.891 204.898 98.4316 202.492C98.7708 201.305 99.0994 200.149 99.428 199.036C99.7566 197.923 100.223 196.916 100.605 195.856C101.953 192.363 104.031 189.198 106.7 186.571C108.401 184.926 110.452 183.687 112.699 182.945C113.285 182.766 113.884 182.635 114.491 182.553H114.957H115.116L114.501 182.627C113.901 182.728 113.309 182.873 112.731 183.062C110.519 183.839 108.507 185.095 106.837 186.74C104.216 189.364 102.182 192.515 100.87 195.983C100.499 197.043 100.085 198.04 99.7142 199.163C99.3432 200.287 99.0782 201.421 98.739 202.598C98.2196 205.004 97.679 207.537 97.255 210.24C96.2692 215.625 95.135 221.508 94.075 227.836C93.015 234.165 91.6264 240.885 90.7042 248.04C90.1943 251.698 89.8865 255.382 89.782 259.075C89.782 260.018 89.782 260.961 89.782 261.905C89.8141 262.859 89.8991 263.811 90.0364 264.756C90.0826 265.23 90.1713 265.698 90.3014 266.155C90.418 266.622 90.5028 267.088 90.6512 267.544C90.9692 268.466 91.2766 269.388 91.6158 270.311C94.34 277.678 97.4988 285.151 100.753 292.867C102.597 297.107 104.421 301.347 106.148 305.397L105.83 305.259L122.79 299.143L122.631 299.408C120.045 282.808 117.681 267.671 115.71 255.025V254.962C118.211 241.659 120.257 230.804 121.688 223.268C122.398 219.526 122.96 216.6 123.352 214.597C123.543 213.611 123.691 212.859 123.797 212.329C123.903 211.799 124.02 211.565 124.02 211.565Z" fill="#343439"/>
<path d="M159.085 189.602C158.995 189.922 158.863 190.228 158.693 190.514L157.463 192.984L153.022 201.57L152.852 201.909L152.629 201.601C151.05 199.428 149.227 197.086 147.234 194.69C143.895 190.675 140.328 186.856 136.549 183.253C135.108 181.864 133.91 180.772 133.083 180.009C132.633 179.638 132.212 179.234 131.822 178.801C132.313 179.114 132.778 179.469 133.21 179.861C134.079 180.571 135.33 181.631 136.793 182.988C140.658 186.529 144.278 190.329 147.626 194.362C149.63 196.768 151.442 199.132 153 201.326H152.608C154.463 197.913 156.043 194.966 157.209 192.846L158.565 190.44C158.714 190.146 158.888 189.866 159.085 189.602Z" fill="#343439"/>
<path d="M163.537 193.248C163.717 193.185 164.597 196.291 163.961 200.425L163.844 201.156L163.494 200.488C163.304 200.128 163.113 199.757 162.933 199.365C161.968 197.245 161.459 195.125 160.929 193.757C160.399 192.39 159.996 191.489 160.071 191.457C160.582 192.092 160.983 192.809 161.258 193.577C161.883 194.987 162.456 197.022 163.378 199.11C163.558 199.492 163.738 199.852 163.918 200.17L163.452 200.234C163.72 198.577 163.801 196.895 163.696 195.22C163.664 193.98 163.484 193.27 163.537 193.248Z" fill="#343439"/>
<path d="M159.954 193.132C159.971 193.219 159.971 193.309 159.954 193.397C159.954 193.609 159.954 193.874 159.954 194.202C159.954 194.913 159.954 195.951 159.954 197.287C159.954 199.969 159.806 203.838 159.541 208.618C159.032 218.158 157.866 231.366 156.668 245.92C155.47 260.474 154.304 273.628 153.488 283.2C153.064 287.938 152.714 291.786 152.428 294.489C152.301 295.793 152.195 296.821 152.121 297.552C152.121 297.877 152.089 298.142 152.025 298.347C152.036 298.439 152.036 298.531 152.025 298.623C152.011 298.532 152.011 298.439 152.025 298.347C152.025 298.135 152.025 297.87 152.025 297.552C152.025 296.81 152.152 295.782 152.237 294.468C152.449 291.765 152.735 287.906 153.106 283.168C153.88 273.628 154.951 260.421 156.138 245.877C157.325 231.334 158.565 218.148 159.159 208.597C159.466 203.827 159.636 199.958 159.731 197.287C159.784 195.973 159.816 194.944 159.848 194.202C159.848 193.874 159.848 193.609 159.848 193.397C159.868 193.303 159.904 193.213 159.954 193.132Z" fill="#343439"/>
<path d="M167.077 216.876C167.215 216.876 166.462 230.402 165.381 247.044C164.3 263.686 163.261 277.19 163.176 277.179C163.092 277.169 163.791 263.664 164.872 247.012C165.954 230.359 166.939 216.865 167.077 216.876Z" fill="#343439"/>
<path d="M127.348 200.542C127.253 200.542 127.253 199.323 126.765 197.446C126.152 194.996 124.936 192.737 123.227 190.877C121.518 189.016 119.371 187.612 116.982 186.793C115.158 186.147 113.939 186.051 113.95 185.956C114.234 185.905 114.525 185.905 114.809 185.956C115.584 186.047 116.351 186.207 117.098 186.433C119.593 187.19 121.84 188.602 123.604 190.522C125.367 192.442 126.584 194.801 127.126 197.351C127.288 198.115 127.38 198.892 127.401 199.672C127.434 199.963 127.416 200.257 127.348 200.542Z" fill="#343439"/>
<g opacity="0.3">
<path opacity="0.3" d="M163.876 273.067C167.565 262.937 168.213 251.951 165.742 241.458C165.074 252.058 164.512 262.658 163.844 273.257" fill="#343439"/>
</g>
<g opacity="0.3">
<path opacity="0.3" d="M123.342 215.35C118.985 237.981 115.445 259.446 115.922 256.478L122.96 299.376L127.094 305.503C123.479 276.713 120.511 244.023 123.342 215.35Z" fill="#343439"/>
</g>
<path d="M181.451 123.469C181.401 122.735 181.168 122.026 180.774 121.406C180.38 120.786 179.836 120.274 179.193 119.918C179.231 119.495 179.231 119.069 179.193 118.646C179.007 117.367 178.39 116.19 177.443 115.311C176.496 114.432 175.277 113.903 173.988 113.812C173.848 112.822 173.44 111.889 172.808 111.114C172.176 110.339 171.344 109.751 170.403 109.414C169.461 109.077 168.446 109.003 167.465 109.201C166.485 109.399 165.578 109.861 164.841 110.537C163.941 109.653 162.806 109.046 161.571 108.791C160.336 108.535 159.053 108.641 157.876 109.095C157.575 109.193 157.31 109.377 157.113 109.625C157.055 109.712 157.015 109.808 156.995 109.91C156.975 110.012 156.976 110.117 156.997 110.219C156.676 109.636 156.22 109.138 155.666 108.769C155.113 108.4 154.478 108.17 153.817 108.099C153.366 108.051 152.91 108.083 152.47 108.194C151.273 108.23 150.135 108.723 149.29 109.572C147.785 108.973 146.113 108.947 144.589 109.498C143.066 110.049 141.797 111.138 141.022 112.561C139.773 112.57 138.553 112.947 137.517 113.644C136.48 114.342 135.671 115.329 135.192 116.483C134.387 116.505 133.601 116.733 132.909 117.145C132.217 117.557 131.642 118.139 131.239 118.837C130.853 119.542 130.656 120.336 130.667 121.14C130.678 121.944 130.897 122.732 131.302 123.426C131.302 123.426 125.886 124.264 126.935 129.119C127.476 131.599 130.762 131.408 130.762 131.408L133.772 147.064C133.708 147.128 134.609 149.004 135.553 148.676C136.449 148.227 137.188 147.517 137.673 146.64C138.42 145.775 139.028 144.799 139.475 143.747C139.685 143.214 139.717 142.628 139.566 142.076C139.415 141.523 139.089 141.035 138.637 140.683C139.298 140.463 139.888 140.072 140.349 139.551C140.811 139.03 141.127 138.397 141.266 137.715C141.533 136.348 141.551 134.944 141.319 133.571C141.107 131.535 140.888 129.5 140.662 127.465C142.049 127.511 143.422 127.177 144.633 126.498C145.843 125.82 146.845 124.824 147.531 123.617C148.009 124.004 148.563 124.285 149.158 124.442C149.753 124.6 150.374 124.629 150.98 124.529C151.587 124.429 152.166 124.201 152.679 123.862C153.191 123.522 153.626 123.077 153.954 122.557C154.354 123.94 155.263 125.12 156.499 125.86C157.734 126.599 159.203 126.843 160.611 126.543C160.198 128.101 162.922 129.723 164.438 130.285C165.634 130.527 166.876 130.374 167.978 129.85C168.89 130.469 169.906 130.918 170.978 131.175H171.148C173.268 131.535 175.515 129.733 176.691 127.91C177.237 128.022 177.799 128.022 178.345 127.91C179.284 127.623 180.1 127.03 180.663 126.225C181.226 125.42 181.503 124.45 181.451 123.469Z" fill="#161516"/>
<path d="M119.536 237.334C119.536 237.408 118.116 236.751 115.826 235.818C112.854 234.576 109.81 233.515 106.71 232.638C103.611 231.788 100.465 231.123 97.2868 230.645C94.8382 230.274 93.3118 230.126 93.3224 230.03C93.6744 229.987 94.0304 229.987 94.3824 230.03C95.082 230.03 96.0784 230.126 97.3186 230.264C103.764 231.007 110.054 232.748 115.964 235.426C117.088 235.945 117.989 236.39 118.603 236.73C119.218 237.069 119.557 237.291 119.536 237.334Z" fill="white"/>
<path d="M109.858 303.648C109.801 303.562 109.755 303.469 109.721 303.372L109.381 302.545L108.109 299.365C107.049 296.567 105.47 292.507 103.763 287.43C101.704 281.491 100.071 275.412 98.8768 269.24C98.1809 265.568 97.7276 261.853 97.52 258.121C97.325 254.129 97.4349 250.128 97.8486 246.153C98.7608 238.503 100.177 230.922 102.089 223.459C103.732 216.558 105.343 210.378 106.774 205.206C108.205 200.033 109.434 195.878 110.314 193.005C110.759 191.606 111.099 190.503 111.374 189.708L111.66 188.86C111.685 188.76 111.724 188.663 111.777 188.574C111.77 188.679 111.748 188.783 111.713 188.882L111.48 189.74C111.258 190.546 110.94 191.659 110.537 193.069C109.721 195.952 108.544 200.128 107.166 205.312C105.788 210.495 104.219 216.675 102.597 223.575C100.723 231.022 99.3282 238.581 98.421 246.206C98.0093 250.153 97.8959 254.125 98.0818 258.089C98.2833 261.781 98.7223 265.456 99.3962 269.092C100.554 275.25 102.137 281.321 104.134 287.26C105.799 292.348 107.314 296.419 108.311 299.238C108.809 300.627 109.201 301.708 109.487 302.492L109.774 303.34C109.815 303.439 109.843 303.542 109.858 303.648Z" fill="white"/>
<path d="M117.819 271.763C117.819 271.763 117.533 271.953 116.982 272.197C116.43 272.441 115.604 272.759 114.586 273.119C111.917 274.05 109.186 274.794 106.413 275.346C103.642 275.889 100.837 276.243 98.0182 276.406C96.9582 276.459 96.0572 276.469 95.453 276.458C95.1366 276.486 94.8178 276.461 94.5096 276.384C95.6599 276.19 96.821 276.066 97.9864 276.013C100.106 275.801 103.085 275.441 106.307 274.805C109.53 274.169 112.402 273.374 114.469 272.748C115.568 272.361 116.686 272.032 117.819 271.763Z" fill="white"/>
<path d="M126.84 204.58C126.755 204.644 125.896 203.308 124.137 201.485C123.109 200.426 121.996 199.455 120.808 198.58C119.343 197.519 117.781 196.596 116.144 195.824C114.498 195.082 112.788 194.489 111.035 194.054C109.597 193.711 108.132 193.491 106.657 193.397C104.134 193.238 102.566 193.45 102.555 193.333C102.899 193.225 103.255 193.158 103.615 193.132C104.043 193.069 104.475 193.034 104.908 193.026C105.487 192.993 106.068 192.993 106.647 193.026C108.152 193.07 109.649 193.255 111.12 193.577C112.917 193.99 114.668 194.583 116.346 195.347C118.013 196.138 119.6 197.09 121.084 198.188C122.275 199.105 123.382 200.126 124.391 201.241C124.787 201.665 125.158 202.111 125.504 202.577C125.777 202.914 126.028 203.268 126.257 203.637C126.489 203.926 126.684 204.243 126.84 204.58Z" fill="white"/>
<path d="M135.913 307.4C135.904 307.284 135.904 307.167 135.913 307.05V306.054C135.913 305.132 135.913 303.838 135.913 302.195C135.913 298.814 136.03 293.98 136.104 288.023C136.327 276.024 136.623 259.509 136.963 241.277C137.122 232.14 137.249 223.448 136.963 215.54C136.825 211.597 136.57 207.845 136.231 204.347C135.971 201.104 135.443 197.888 134.652 194.733C133.983 192.136 132.91 189.661 131.472 187.397C130.393 185.689 129.043 184.167 127.476 182.892C126.479 182.091 125.39 181.411 124.232 180.868C123.426 180.507 122.981 180.37 122.992 180.338C123.431 180.446 123.86 180.591 124.274 180.772C125.467 181.269 126.587 181.925 127.603 182.723C129.219 183.987 130.616 185.509 131.737 187.228C133.211 189.513 134.313 192.017 135.002 194.648C135.828 197.817 136.385 201.051 136.666 204.315C137.026 207.824 137.291 211.576 137.45 215.53C137.768 223.448 137.652 232.161 137.45 241.288C137.047 259.53 136.698 276.045 136.39 288.044C136.242 294.002 136.115 298.825 136.019 302.206C136.019 303.86 135.924 305.142 135.892 306.064C135.892 306.478 135.892 306.806 135.892 307.061C135.91 307.173 135.917 307.287 135.913 307.4Z" fill="white"/>
<path d="M153.032 284.812C152.58 284.82 152.129 284.777 151.686 284.684C150.838 284.557 149.566 284.366 148.071 284.101C145.019 283.582 140.821 282.798 136.199 281.844C131.578 280.89 127.401 279.946 124.402 279.215C122.896 278.844 121.688 278.536 120.851 278.314C120.409 278.225 119.978 278.086 119.568 277.9C120.019 277.921 120.467 277.988 120.904 278.102L124.486 278.833L136.305 281.303L148.146 283.72L151.728 284.472C152.173 284.541 152.61 284.655 153.032 284.812Z" fill="white"/>
<path d="M155.905 246.8C155.905 246.948 147.425 246.439 136.899 245.655C126.373 244.87 117.914 244.107 117.925 243.959C117.936 243.81 126.405 244.319 136.941 245.104C147.478 245.888 155.915 246.651 155.905 246.8Z" fill="white"/>
<path d="M158.682 213.346C158.233 213.447 157.775 213.503 157.315 213.516C156.435 213.59 155.195 213.675 153.573 213.76C150.393 213.919 146.036 214.046 141.213 214.014C136.39 213.982 132.002 213.802 128.843 213.611C127.264 213.505 125.992 213.41 125.101 213.325C124.643 213.315 124.188 213.251 123.744 213.134C124.202 213.084 124.664 213.084 125.122 213.134L128.864 213.24C132.044 213.336 136.39 213.452 141.213 213.484C146.036 213.516 150.403 213.484 153.562 213.389L157.304 213.325C157.763 213.28 158.225 213.287 158.682 213.346Z" fill="white"/>
<path d="M136.115 182.097C135.289 182.369 134.441 182.568 133.581 182.691C131.545 183.119 129.532 183.65 127.55 184.281C125.228 185.034 123.183 185.871 121.72 186.507C120.95 186.921 120.149 187.275 119.324 187.567C120.003 187.018 120.751 186.562 121.55 186.21C125.323 184.288 129.377 182.975 133.56 182.32C134.399 182.138 135.257 182.063 136.115 182.097Z" fill="white"/>
<path d="M157.336 194.075C156.98 193.838 156.652 193.561 156.361 193.248L153.817 190.842C151.697 188.818 148.697 186.04 145.337 183.072C141.976 180.104 138.828 177.486 136.539 175.652L133.846 173.437C133.497 173.184 133.177 172.892 132.892 172.568C133.269 172.763 133.624 172.998 133.952 173.267C134.631 173.734 135.595 174.444 136.761 175.387C139.114 177.179 142.294 179.744 145.676 182.733C149.057 185.722 152.036 188.542 154.082 190.641C155.142 191.701 155.947 192.559 156.509 193.164C156.815 193.438 157.093 193.744 157.336 194.075Z" fill="white"/>
<path d="M150.393 182.638C149.474 184.06 148.408 185.382 147.213 186.581C146.128 187.895 144.91 189.093 143.577 190.154C144.486 188.724 145.553 187.402 146.757 186.21C147.835 184.89 149.054 183.692 150.393 182.638Z" fill="white"/>
<path d="M167.056 213.961C165.755 214.024 164.45 213.985 163.155 213.844C161.854 213.875 160.553 213.797 159.265 213.611C160.538 213.246 161.872 213.138 163.187 213.293C164.508 213.254 165.824 213.481 167.056 213.961Z" fill="white"/>
<path d="M164.554 249.323C163.247 249.563 161.913 249.623 160.59 249.503C159.261 249.567 157.93 249.442 156.636 249.132C157.943 248.892 159.277 248.831 160.601 248.952C161.929 248.89 163.26 249.015 164.554 249.323Z" fill="white"/>
<path d="M163.844 201.156C163.858 201.251 163.858 201.348 163.844 201.442V202.29C163.844 203.075 163.844 204.167 163.844 205.555C163.844 206.944 163.844 208.735 163.844 210.717C163.844 212.7 163.781 215.021 163.696 217.554C163.41 227.688 162.54 241.669 161.449 257.092C160.357 272.515 159.424 286.486 159.032 296.609C158.915 299.143 158.841 301.432 158.799 303.446C158.756 305.46 158.682 307.188 158.682 308.598C158.682 310.008 158.682 311.078 158.618 311.863C158.618 312.212 158.618 312.488 158.618 312.711C158.631 312.809 158.631 312.909 158.618 313.007C158.605 312.909 158.605 312.809 158.618 312.711C158.618 312.488 158.618 312.212 158.618 311.863C158.618 311.078 158.618 309.986 158.565 308.598C158.512 307.209 158.565 305.418 158.565 303.436C158.565 301.453 158.629 299.132 158.714 296.599C159.011 286.465 159.89 272.484 160.972 257.061C162.053 241.638 162.986 227.667 163.378 217.544C163.494 215.01 163.558 212.721 163.611 210.717C163.664 208.714 163.717 206.965 163.728 205.555C163.738 204.145 163.728 203.075 163.781 202.29V201.442C163.834 201.252 163.844 201.156 163.844 201.156Z" fill="white"/>
<path d="M163.325 284.663C161.706 285.245 160.028 285.646 158.322 285.861C156.651 286.264 154.941 286.485 153.223 286.518C154.845 285.949 156.522 285.547 158.226 285.32C159.898 284.923 161.607 284.703 163.325 284.663Z" fill="white"/>
<path d="M183.285 242.804C182.404 243.478 181.476 244.087 180.507 244.627C178.769 245.687 176.384 247.224 173.819 249.005C171.254 250.786 168.996 252.482 167.374 253.732C166.529 254.449 165.636 255.107 164.703 255.704C165.43 254.861 166.244 254.098 167.13 253.425C168.699 252.1 170.925 250.34 173.49 248.549C176.055 246.758 178.493 245.284 180.285 244.309C181.235 243.714 182.239 243.21 183.285 242.804Z" fill="white"/>
<path d="M179.903 257.029C179.338 256.267 178.845 255.454 178.43 254.602C177.561 253.075 176.31 250.987 174.942 248.729C173.575 246.471 172.176 244.489 171.19 243.016C170.611 242.262 170.096 241.461 169.653 240.62C170.347 241.256 170.969 241.967 171.508 242.74C172.568 244.129 173.988 246.111 175.409 248.39C176.829 250.669 177.995 252.8 178.769 254.379C179.245 255.217 179.625 256.106 179.903 257.029Z" fill="white"/>
<path d="M490.282 507.316C490.282 507.601 389.412 507.846 265.011 507.846C140.609 507.846 39.7182 507.601 39.7182 507.316C39.7182 507.031 140.567 506.786 265.011 506.786C389.455 506.786 490.282 507.031 490.282 507.316Z" fill="#161516"/>
<defs>
<linearGradient id="paint0_linear_113_1135" x1="195" y1="19" x2="199.109" y2="383.954" gradientUnits="userSpaceOnUse">
<stop stop-color="#F5F4F8"/>
<stop offset="1" stop-color="#E1E1E7"/>
</linearGradient>
</defs>
</svg>
