<svg width="530" height="530" viewBox="0 0 530 530" fill="none" xmlns="http://www.w3.org/2000/svg">
<path d="M468.52 98.58L466.209 94.9442C446.705 64.3102 412.266 46.3326 376.406 49.3642C371.793 49.7529 367.216 50.4827 362.711 51.5478C330.211 59.2222 302.344 84.5138 291.246 116.377C284.716 135.118 283.232 156.562 270.417 171.603C253.722 191.171 224.709 192.39 199.163 192.136C173.617 191.881 144.595 193.196 127.984 212.827C117.586 225.133 114.565 242.38 115.773 258.534C118.953 301.294 149.608 338.946 187.949 357.114C226.289 375.282 271.01 376.077 312.35 366.824C370.279 353.86 424.912 320.48 457.104 270.035C489.296 219.59 496.228 151.697 468.52 98.58Z" fill="url(#paint0_linear_60_2834)"/>
<path d="M478.314 499.695C478.314 499.854 376.629 499.97 251.22 499.97C125.811 499.97 24.1044 499.854 24.1044 499.695C24.1044 499.536 125.769 499.419 251.22 499.419C376.671 499.419 478.314 499.546 478.314 499.695Z" fill="#161516"/>
<path d="M356.701 384.865L236.38 384.78C229.431 384.774 222.769 382.01 217.858 377.095C212.946 372.179 210.187 365.515 210.187 358.566V56.9326C210.19 53.4857 210.873 50.0732 212.196 46.8904C213.519 43.7076 215.457 40.817 217.899 38.3841C220.341 35.9512 223.238 34.0237 226.426 32.7121C229.613 31.4004 233.028 30.7302 236.475 30.74L356.796 30.8142C363.745 30.8198 370.407 33.5841 375.318 38.4995C380.23 43.415 382.989 50.0793 382.989 57.028L382.925 358.651C382.926 362.095 382.249 365.505 380.931 368.687C379.614 371.868 377.682 374.759 375.246 377.194C372.811 379.628 369.919 381.559 366.737 382.875C363.555 384.192 360.144 384.868 356.701 384.865V384.865Z" fill="#343439"/>
<path d="M356.669 41.4884H333.349C332.589 41.505 331.839 41.6711 331.143 41.9773C330.448 42.2835 329.819 42.7239 329.293 43.2731C328.768 43.8224 328.355 44.4699 328.08 45.1785C327.805 45.8872 327.672 46.6432 327.688 47.4032V51.6432C327.705 52.4033 327.572 53.1593 327.297 53.8679C327.022 54.5766 326.609 55.2241 326.084 55.7733C325.558 56.3226 324.929 56.763 324.233 57.0692C323.538 57.3754 322.788 57.5415 322.028 57.558H276.554C275.018 57.5219 273.559 56.8776 272.498 55.7666C271.436 54.6556 270.86 53.1687 270.894 51.6326V47.3926C270.928 45.8565 270.351 44.3697 269.29 43.2587C268.228 42.1477 266.769 41.5034 265.233 41.4672H236.613C234.202 41.4645 231.814 41.937 229.585 42.8579C227.356 43.7787 225.331 45.1298 223.625 46.8339C221.919 48.538 220.566 50.5617 219.642 52.7892C218.719 55.0168 218.243 57.4045 218.243 59.8158L218.19 354.231C218.19 359.096 220.122 363.763 223.56 367.205C226.999 370.648 231.663 372.584 236.528 372.59L356.605 372.654C359.017 372.656 361.405 372.184 363.633 371.263C365.862 370.342 367.887 368.991 369.593 367.287C371.299 365.583 372.653 363.559 373.576 361.332C374.5 359.104 374.975 356.716 374.975 354.305V59.89C374.986 55.0227 373.064 50.3501 369.632 46.8994C366.199 43.4488 361.536 41.5025 356.669 41.4884Z" fill="white"/>
<path d="M335.808 51.039H334.472V52.9046H335.808V51.039Z" fill="#161516"/>
<path d="M337.981 50.2122H336.645V52.9152H337.981V50.2122Z" fill="#161516"/>
<path d="M340.143 49.5868H338.808V52.9152H340.143V49.5868Z" fill="#161516"/>
<path d="M342.316 48.3784H340.981V52.9152H342.316V48.3784Z" fill="#161516"/>
<path d="M362.001 53H355.312C355.184 53 355.062 52.9501 354.971 52.861C354.88 52.7718 354.827 52.6505 354.824 52.523V49.1946C354.824 49.0681 354.875 48.9468 354.964 48.8573C355.054 48.7679 355.175 48.7176 355.301 48.7176H362.001C362.028 48.707 362.058 48.707 362.085 48.7176C362.094 48.7488 362.094 48.7819 362.085 48.813V49.873H362.806C362.84 49.873 362.872 49.8864 362.896 49.9103C362.92 49.9341 362.933 49.9665 362.933 50.0002V51.6008C362.931 51.6327 362.916 51.6624 362.893 51.684C362.869 51.7056 362.838 51.7175 362.806 51.7174H362.085V52.7774C362.115 52.7887 362.139 52.8112 362.152 52.84C362.165 52.8688 362.165 52.9016 362.154 52.9311C362.143 52.9606 362.12 52.9845 362.092 52.9974C362.063 53.0103 362.03 53.0113 362.001 53V53ZM361.873 48.9614H355.301C355.271 48.9614 355.24 48.9674 355.212 48.9792C355.184 48.9909 355.158 49.0081 355.136 49.0297C355.115 49.0514 355.098 49.0771 355.086 49.1054C355.074 49.1337 355.068 49.164 355.068 49.1946V52.523C355.068 52.5545 355.074 52.5858 355.087 52.6148C355.099 52.6438 355.117 52.67 355.14 52.6918C355.163 52.7136 355.19 52.7305 355.219 52.7416C355.249 52.7527 355.28 52.7576 355.312 52.7562H361.873V51.6962C361.873 51.6625 361.887 51.6301 361.911 51.6063C361.934 51.5824 361.967 51.569 362.001 51.569H362.711V50.1804H362.001C361.984 50.1819 361.968 50.18 361.953 50.1748C361.937 50.1696 361.923 50.1612 361.911 50.1502C361.899 50.1393 361.89 50.1259 361.883 50.111C361.877 50.0961 361.873 50.0801 361.873 50.0638V48.9614Z" fill="#161516"/>
<path d="M355.619 52.2156V49.5126H361.333V50.7316V50.9966V52.2156H355.619Z" fill="#161516"/>
<path d="M348.74 52.7456C348.737 52.6171 348.685 52.4947 348.594 52.4038C348.503 52.3129 348.381 52.2607 348.252 52.258C348.123 52.258 347.999 52.3094 347.908 52.4008C347.816 52.4923 347.765 52.6163 347.765 52.7456C347.763 52.81 347.775 52.8741 347.799 52.9339C347.823 52.9937 347.859 53.048 347.904 53.0936C347.95 53.1392 348.004 53.175 348.064 53.199C348.124 53.223 348.188 53.2346 348.252 53.2332C348.382 53.2332 348.506 53.1818 348.597 53.0904C348.689 52.9989 348.74 52.8749 348.74 52.7456V52.7456Z" fill="#161516"/>
<path d="M346.535 51.569L347.161 52.1944C347.298 52.0521 347.463 51.9389 347.645 51.8616C347.827 51.7842 348.023 51.7444 348.221 51.7444C348.418 51.7444 348.614 51.7842 348.796 51.8616C348.978 51.9389 349.143 52.0521 349.281 52.1944L349.906 51.569C349.684 51.3467 349.419 51.1712 349.128 51.0528C348.836 50.9345 348.524 50.8757 348.21 50.88C347.583 50.8805 346.981 51.1281 346.535 51.569V51.569Z" fill="#161516"/>
<path d="M348.21 49.4808C347.221 49.469 346.268 49.8502 345.56 50.5408L346.175 51.1662C346.715 50.6309 347.444 50.3305 348.205 50.3305C348.965 50.3305 349.695 50.6309 350.235 51.1662L350.86 50.5408C350.151 49.8522 349.198 49.4713 348.21 49.4808V49.4808Z" fill="#161516"/>
<path d="M344.5 49.5656L345.125 50.191C345.932 49.3845 347.027 48.9314 348.168 48.9314C349.309 48.9314 350.403 49.3845 351.21 50.191L351.835 49.5656C350.862 48.5947 349.543 48.0494 348.168 48.0494C346.793 48.0494 345.474 48.5947 344.5 49.5656V49.5656Z" fill="#161516"/>
<path d="M135.309 259.446C133.814 258.386 131.97 257.94 130.306 257.156C128.642 256.372 127.03 255.036 126.871 253.17C126.649 250.457 129.638 248.411 129.818 245.75C130.062 241.924 124.889 239.836 124.137 236.083C123.511 232.967 126.151 230.031 126.045 226.851C125.939 223.671 123.183 221.307 121.932 218.371C119.006 211.608 124.391 202.884 120.31 196.747C119.072 195.203 117.688 193.783 116.176 192.507C114.777 191.107 113.558 189.327 113.727 187.302L106.074 183.825C103.509 179.903 97.6896 179.755 93.3542 181.43C89.0188 183.104 85.1392 186.104 80.6342 187.228C78.4294 187.768 78.7474 184.504 76.5214 184.959C73.5852 185.553 69.9918 188.977 69.1014 191.818C68.211 194.86 67.5856 198.231 66.5044 201.22C65.3066 204.516 61.7768 206.817 61.4376 210.315C61.056 214.385 65.2642 217.735 65.2748 221.805C65.2748 226.204 60.42 230.147 61.9676 234.271C62.858 236.624 65.5716 237.885 66.5256 240.217C67.8294 243.397 65.2324 246.98 65.4656 250.446C65.6988 253.912 68.582 256.456 71.3062 258.534C81.6793 266.631 93.2858 273.008 105.682 277.423C111.056 279.268 116.717 280.677 122.377 280.169C128.037 279.66 133.73 276.989 136.698 272.091C139.125 268.116 139.104 262.17 135.309 259.446Z" fill="#161516"/>
<path d="M113.42 185.383C112.724 182.6 111.3 180.053 109.293 178.003C107.287 175.952 104.77 174.474 102.003 173.718C99.2353 172.962 96.3165 172.957 93.5465 173.704C90.7765 174.45 88.2552 175.92 86.2416 177.963C84.6092 179.617 83.316 181.642 81.3868 182.935C79.2032 184.408 78.8852 183.995 76.4472 184.938C74.0092 185.882 69.5254 192.697 69.5996 195.326L68.3806 206.838C68.476 209.53 71.9422 211.078 74.4862 210.166C77.0302 209.255 78.7262 206.901 80.083 204.569C81.4398 202.237 82.68 199.715 84.906 198.22C88.563 195.644 93.5238 196.535 97.9016 197.425C102.279 198.315 107.357 198.962 110.781 196.079C113.727 193.545 114.363 189.125 113.42 185.383Z" fill="#161516"/>
<path d="M115.837 201.813C115.339 194.319 110.357 185.14 102.894 185.913L79.5742 191.86C78.4819 191.979 77.4741 192.504 76.7498 193.33C76.0256 194.156 75.6377 195.224 75.6628 196.323L78.281 252.503H78.1114C78.1114 252.503 87.6514 272.59 103 267.745C106.053 266.781 103.276 259.202 103.891 255.767H104.039C104.039 255.365 104.039 254.983 104.039 254.591C104.341 252.029 104.373 249.442 104.134 246.874V246.874C104.134 242.337 104.134 240.514 104.134 240.514C104.134 240.514 113.674 238.903 115.657 226.416C116.706 220.321 116.377 210.134 115.837 201.813Z" fill="#FFBE9D"/>
<path d="M113.971 211.438C113.977 211.857 113.818 212.262 113.529 212.565C113.239 212.868 112.843 213.046 112.424 213.06C112.22 213.076 112.015 213.051 111.821 212.987C111.627 212.923 111.448 212.82 111.294 212.686C111.14 212.552 111.015 212.388 110.925 212.205C110.835 212.022 110.782 211.822 110.77 211.618C110.767 211.2 110.927 210.797 111.216 210.494C111.504 210.192 111.9 210.013 112.318 209.997C112.522 209.979 112.727 210.003 112.921 210.067C113.116 210.13 113.296 210.232 113.45 210.367C113.604 210.501 113.73 210.666 113.819 210.85C113.909 211.034 113.961 211.234 113.971 211.438V211.438Z" fill="#161516"/>
<path d="M113.704 210.954C113.547 211.152 112.545 210.323 111.091 210.323C109.636 210.323 108.643 211.142 108.478 210.944C108.312 210.747 108.565 210.5 109.018 210.135C109.631 209.65 110.361 209.392 111.108 209.395C111.843 209.394 112.56 209.656 113.155 210.145C113.634 210.569 113.791 210.865 113.704 210.954Z" fill="#161516"/>
<path d="M97.6154 212C97.6212 212.416 97.4635 212.818 97.1761 213.12C96.8887 213.421 96.4946 213.597 96.0784 213.611C95.8745 213.629 95.6692 213.605 95.4747 213.541C95.2801 213.477 95.1004 213.375 94.9461 213.241C94.7918 213.106 94.6662 212.942 94.5766 212.758C94.4871 212.574 94.4355 212.374 94.4248 212.17C94.4191 211.753 94.5768 211.351 94.8642 211.05C95.1516 210.749 95.5457 210.572 95.9618 210.558C96.1658 210.541 96.3711 210.565 96.5656 210.629C96.7601 210.692 96.9399 210.794 97.0941 210.929C97.2484 211.063 97.3741 211.227 97.4636 211.411C97.5532 211.595 97.6048 211.796 97.6154 212V212Z" fill="#161516"/>
<path d="M97.3928 211.555C97.202 211.767 95.983 210.866 94.2128 210.876C92.4426 210.887 91.2342 211.756 91.0328 211.544C90.8314 211.332 91.1388 211.067 91.69 210.664C92.4387 210.151 93.326 209.877 94.234 209.88C95.1273 209.876 95.9992 210.154 96.725 210.675C97.308 211.088 97.4736 211.465 97.3928 211.555Z" fill="#161516"/>
<path d="M102.979 220.247C103.885 219.954 104.826 219.779 105.777 219.727C106.212 219.727 106.636 219.6 106.71 219.293C106.741 218.839 106.637 218.385 106.413 217.989C105.989 216.929 105.555 215.816 105.099 214.639C103.286 209.88 101.919 205.958 102.163 205.884C102.407 205.81 103.986 209.615 105.799 214.364C106.233 215.54 106.657 216.664 107.049 217.735C107.328 218.265 107.411 218.877 107.283 219.462C107.219 219.617 107.121 219.756 106.996 219.868C106.871 219.98 106.723 220.062 106.562 220.109C106.319 220.17 106.07 220.206 105.82 220.215C104.878 220.342 103.924 220.353 102.979 220.247V220.247Z" fill="#161516"/>
<path d="M104.219 240.62C98.3387 240.723 92.5448 239.193 87.4818 236.2C87.4818 236.2 91.5522 244.765 104.05 243.62L104.219 240.62Z" fill="#EB996E"/>
<path d="M101.728 226.522C101.401 226.107 100.973 225.784 100.485 225.581C99.9967 225.379 99.4651 225.305 98.9405 225.367C98.5605 225.402 98.1918 225.514 97.8566 225.697C97.5213 225.879 97.2265 226.127 96.9901 226.427C96.7582 226.713 96.6205 227.065 96.5958 227.433C96.5711 227.801 96.6607 228.168 96.8523 228.483C97.1337 228.789 97.4988 229.005 97.9021 229.105C98.3053 229.205 98.7291 229.184 99.1207 229.045C99.9322 228.757 100.678 228.31 101.315 227.73C101.509 227.59 101.674 227.413 101.802 227.211C101.867 227.117 101.901 227.006 101.901 226.893C101.901 226.779 101.867 226.669 101.802 226.575" fill="#EB996E"/>
<path d="M102.987 229.083C102.715 229.13 102.388 227.304 100.585 226.271C98.7824 225.238 96.8549 225.787 96.7889 225.529C96.7228 225.272 97.1661 225.098 97.9877 224.935C99.0697 224.736 100.187 224.923 101.145 225.464C102.059 225.981 102.738 226.831 103.04 227.837C103.243 228.576 103.114 229.072 102.987 229.083Z" fill="#161516"/>
<path d="M89.4216 202.39C89.7261 201.986 91.3082 202.715 93.3029 203.085C95.2976 203.455 97.0334 203.41 97.1728 203.887C97.2238 204.114 96.8175 204.453 96.0668 204.651C95.0636 204.946 94.0043 204.995 92.9783 204.794C91.954 204.6 90.9896 204.169 90.1629 203.534C89.5911 203.054 89.355 202.603 89.4216 202.39Z" fill="#161516"/>
<path d="M106.675 203.624C106.66 203.133 107.831 202.693 108.945 201.795C110.059 200.897 110.819 199.931 111.301 200.074C111.519 200.157 111.616 200.582 111.444 201.197C111.17 201.989 110.668 202.682 110 203.189C109.332 203.695 108.53 203.992 107.693 204.043C107.072 204.067 106.688 203.859 106.675 203.624Z" fill="#161516"/>
<path d="M102.481 182.755L101.421 181.398C94.2073 182.227 87.1398 184.031 80.4115 186.761C77.7191 187.821 75.0055 189.157 73.1611 191.404C70.6383 194.489 70.2355 198.75 69.9811 202.725C68.9211 217.883 67.9777 233.465 72.7477 247.913C73.8925 246.068 76.1397 245.242 78.2703 244.828C80.4009 244.415 82.6375 244.277 84.6303 243.291C85.6775 242.723 86.5951 241.943 87.3251 241.002C88.055 240.06 88.5812 238.977 88.8703 237.822C89.4359 235.485 89.162 233.023 88.0965 230.868C86.9411 228.462 84.9165 226.14 85.3829 223.522C85.8493 220.904 89.0505 219.219 89.7925 216.526C91.0751 211.873 84.4925 207.696 85.8599 203.054C86.1601 202.217 86.628 201.451 87.235 200.802C87.842 200.153 88.5753 199.635 89.3897 199.28C90.9797 198.485 92.7287 198.04 94.3399 197.287C97.0162 195.983 99.23 193.892 100.685 191.295C102.14 188.698 102.766 185.718 102.481 182.755V182.755Z" fill="#161516"/>
<path d="M165.53 277.964L150.923 300.69C151.488 301.519 152.256 302.189 153.155 302.634C154.053 303.08 155.052 303.286 156.053 303.234C159.572 303.086 164.406 294.309 164.978 292.539C165.551 290.769 164.777 289.051 165.296 287.864C165.816 286.677 165.614 283.433 165.614 283.433C165.54 283.624 168.773 279.299 165.53 277.964Z" fill="#FFBE9D"/>
<path d="M146.884 300.68L154.495 270.586C154.611 270.143 154.815 269.727 155.093 269.363C155.371 268.999 155.719 268.694 156.117 268.466L167.173 262.159C167.499 261.976 167.881 261.919 168.246 261.999C168.612 262.08 168.935 262.291 169.155 262.594V262.594C169.285 262.774 169.374 262.98 169.416 263.198C169.458 263.415 169.452 263.64 169.399 263.855L161.343 295.528L146.884 300.68Z" fill="#161516"/>
<path d="M143.047 324L160.717 291.362L154.06 282.744L129.193 301.612L135.712 319.548L143.047 324Z" fill="#C93329"/>
<path d="M160.929 298.443C161.083 298.005 161.196 297.555 161.268 297.097C161.386 295.827 161.26 294.546 160.897 293.323V293.249V293.175C161.052 292.928 161.152 292.651 161.191 292.362C161.229 292.073 161.205 291.779 161.12 291.5C160.876 290.871 160.443 290.334 159.88 289.963L159.689 289.836L159.816 289.634L161.82 286.645C162.005 286.406 162.161 286.147 162.286 285.871C162.366 285.611 162.343 285.331 162.222 285.087C161.937 284.525 161.514 284.043 160.993 283.688L160.738 283.508L160.94 283.274C161.48 282.66 162.085 282.045 162.689 281.419C163.723 280.355 164.696 279.233 165.604 278.059C166.014 277.52 166.369 276.941 166.664 276.331C166.802 276.059 166.892 275.765 166.929 275.462C166.929 275.187 166.823 275.038 166.664 275.006H166.6C166.26 274.972 165.916 275.026 165.604 275.165C165.243 275.299 164.889 275.451 164.544 275.621C163.897 275.971 163.293 276.331 162.742 276.681C161.682 277.402 160.675 278.08 159.901 278.642L158.088 279.957C157.887 280.134 157.662 280.284 157.421 280.402C157.586 280.19 157.778 280.001 157.993 279.84C158.385 279.49 158.968 279.003 159.721 278.398C160.473 277.794 161.406 277.095 162.509 276.342C163.07 275.96 163.664 275.579 164.332 275.208C164.674 275.019 165.028 274.852 165.392 274.71C165.802 274.508 166.267 274.445 166.717 274.529H166.653C166.881 274.561 167.086 274.681 167.225 274.864C167.364 275.047 167.425 275.277 167.395 275.505C167.361 275.873 167.26 276.232 167.098 276.565C166.789 277.214 166.412 277.828 165.975 278.398C165.064 279.6 164.08 280.743 163.028 281.822C162.424 282.448 161.82 283.062 161.279 283.667V283.253C161.888 283.671 162.378 284.241 162.699 284.907C162.863 285.271 162.886 285.682 162.763 286.062C162.625 286.377 162.446 286.673 162.233 286.942C161.512 288.002 160.823 288.998 160.177 289.931V289.592C160.815 290.032 161.297 290.663 161.555 291.394C161.652 291.729 161.677 292.081 161.628 292.427C161.579 292.772 161.456 293.103 161.268 293.397V293.249C161.607 294.521 161.676 295.85 161.47 297.15C161.407 297.499 161.297 297.838 161.141 298.157C161.014 298.348 160.95 298.454 160.929 298.443Z" fill="#EB996E"/>
<path d="M169.155 262.583C168.878 262.832 168.572 263.046 168.243 263.219C167.639 263.601 166.759 264.141 165.657 264.799L161.788 267.12L159.498 268.445C158.665 268.847 157.888 269.357 157.187 269.961C156.579 270.628 156.174 271.456 156.021 272.346C155.788 273.236 155.566 274.084 155.354 274.911L154.198 279.246C153.859 280.476 153.573 281.472 153.361 282.151C153.283 282.519 153.159 282.875 152.99 283.211C152.996 282.851 153.054 282.494 153.159 282.151C153.297 281.451 153.53 280.444 153.817 279.204C154.103 277.964 154.474 276.448 154.877 274.837C155.074 274.01 155.286 273.151 155.513 272.261C155.684 271.273 156.133 270.354 156.806 269.611C157.55 268.983 158.369 268.449 159.244 268.021L161.555 266.728L165.477 264.608C166.6 263.993 167.512 263.548 168.148 263.187C168.453 262.939 168.792 262.736 169.155 262.583V262.583Z" fill="#595866"/>
<path d="M161.83 272.865C161.555 273.522 161.523 274.137 161.756 274.233C161.989 274.328 162.403 273.883 162.678 273.226C162.954 272.568 162.986 271.964 162.752 271.858C162.519 271.752 162.106 272.219 161.83 272.865Z" fill="white"/>
<path d="M106.795 254.623C110.595 255.991 114.088 258.095 117.075 260.814C120.061 263.533 122.482 266.814 124.2 270.47L147.923 320.947L168.36 329.236L150.34 334.419L134.334 322.664L106.795 254.623Z" fill="#F95C3A"/>
<path d="M150.361 334.419L141.754 341.055L98.8026 296.874L74.2531 252.524L77.0939 244.277L96.0784 252.185L102.873 262.233L104.389 249.513L105.608 251.22L107.59 256.594C107.59 256.594 126.225 272.102 130.253 284.387C133.56 294.68 132.553 315.88 134.62 321.604L150.361 334.419Z" fill="#F5F4F8"/>
<path d="M69.6526 251.951C69.3664 252.81 51.2934 260.071 50.4348 266.399C49.5762 272.727 63.4198 321.657 63.4198 321.657L85.3724 341.055H141.754L123.872 307.57C120.017 300.349 115.14 293.723 109.392 287.896C104.092 282.532 97.732 275.897 94.4036 271.943C90.8314 267.65 75.684 247.563 75.684 247.563L69.6526 251.951Z" fill="#F95C3A"/>
<path d="M80.9628 253.955C82.0584 254.348 83.1216 254.827 84.1428 255.386C86.0826 256.34 88.7432 257.675 91.6688 259.191L94.9972 260.93L94.6156 261.184C94.4883 259.205 94.6057 257.219 94.9654 255.269C95.0657 254.498 95.2763 253.744 95.5908 253.033C95.5302 253.8 95.4311 254.564 95.294 255.322C95.0458 257.252 94.9925 259.201 95.135 261.142V261.608L94.7216 261.396L91.4356 259.7C88.51 258.184 85.8812 256.785 84.0156 255.746C82.9538 255.228 81.9332 254.629 80.9628 253.955V253.955Z" fill="#161516"/>
<path d="M124.423 298.581C124.085 298.128 123.784 297.65 123.522 297.15L121.222 293.154C119.292 289.772 116.6 285.119 113.568 280.02C110.537 274.922 107.707 270.353 105.661 267.046L103.233 263.124C102.918 262.656 102.641 262.163 102.407 261.65C102.803 262.068 103.158 262.522 103.467 263.007C104.092 263.898 104.972 265.201 106.042 266.834C108.162 270.088 111.046 274.635 114.098 279.745C117.151 284.854 119.769 289.539 121.614 292.963C122.547 294.68 123.278 296.069 123.734 297.044C124.005 297.537 124.235 298.051 124.423 298.581Z" fill="#161516"/>
<g opacity="0.3">
<path opacity="0.3" d="M115.741 332.692C119.017 333.243 122.377 333.752 125.642 333.179C128.907 332.607 132.097 330.497 133.125 327.339C133.288 326.308 133.707 325.334 134.344 324.508C135.606 323.342 137.62 324.063 139.326 323.904C140.276 323.759 141.18 323.397 141.967 322.845C142.754 322.293 143.403 321.568 143.863 320.724C144.773 319.036 145.414 317.215 145.761 315.329C146.036 314.419 146.151 313.469 146.1 312.52C146.067 312.048 145.916 311.591 145.66 311.193C145.404 310.795 145.052 310.467 144.637 310.241C143.344 309.658 141.881 310.506 140.736 311.301C131.44 318 122.96 325.78 114.48 333.518" fill="#161516"/>
</g>
<path d="M136.804 295.337C136.804 295.337 140.037 287.917 141.754 286.857C143.471 285.797 152.046 280.826 152.046 280.826L150.986 284.907L159.371 279.087C160.431 278.398 166.378 272.961 167.438 275.081C168.211 276.607 163.325 280.635 162.668 281.536C161.035 283.773 161.608 283.571 161.608 283.571C161.608 283.571 163.378 284.631 162.487 286.221C161.76 287.441 160.96 288.616 160.092 289.74C160.092 289.74 162.424 290.567 161.067 293.599C161.459 294.858 161.539 296.193 161.3 297.489C160.919 299.757 156.827 304.05 156.827 304.05L136.369 313.76L128.143 299.81L136.804 295.337Z" fill="#FFBE9D"/>
<path d="M89.305 281.388L102.385 309.308L131.44 296.715C131.44 296.715 143.471 303.732 141.807 311.407L115.625 332.84C113.178 334.85 110.348 336.342 107.307 337.226C104.266 338.11 101.077 338.367 97.9334 337.981V337.981C94.5608 337.568 91.3185 336.426 88.4318 334.634C85.5451 332.842 83.0832 330.443 81.2172 327.604L62.3068 298.856L51.7068 281.568C50.0087 278.876 49.1449 275.741 49.2241 272.559C49.3033 269.377 50.322 266.29 52.152 263.686C53.1513 262.281 54.4195 261.088 55.8832 260.177C60.6214 257.304 74.6558 256.054 89.305 281.388Z" fill="#F95C3A"/>
<path d="M153.626 283.02C152.32 284.145 150.899 285.13 149.386 285.956C147.961 286.937 146.441 287.771 144.849 288.447C146.165 287.335 147.585 286.352 149.089 285.511C150.517 284.536 152.037 283.702 153.626 283.02V283.02Z" fill="#EB996E"/>
<path d="M161.798 282.744C160.665 284.235 159.391 285.612 157.993 286.857C156.719 288.226 155.324 289.478 153.827 290.599C154.967 289.114 156.241 287.737 157.633 286.486C158.906 285.117 160.301 283.864 161.798 282.744V282.744Z" fill="#EB996E"/>
<path d="M160.707 289.041C160.257 289.965 159.655 290.807 158.926 291.532C157.866 292.814 156.806 293.79 156.742 293.652C157.196 292.724 157.802 291.879 158.534 291.15C159.136 290.331 159.87 289.618 160.707 289.041Z" fill="#EB996E"/>
<path d="M161.12 293.281C161.237 293.376 160.781 294.055 160.208 294.881C159.636 295.708 159.148 296.365 159.011 296.291C158.873 296.217 159.191 295.433 159.784 294.585C160.378 293.737 160.982 293.185 161.12 293.281Z" fill="#EB996E"/>
<path d="M111.173 335.638C111.173 335.638 111.173 335.585 111.3 335.511L111.713 335.161L113.356 333.836L119.632 328.876L142.04 311.343L141.945 311.523C141.956 310.07 141.679 308.629 141.128 307.283C140.5 305.874 139.691 304.552 138.722 303.351C136.604 300.849 134.099 298.702 131.302 296.991H131.546L116.526 303.52L102.491 309.52L102.258 309.615L102.142 309.393C98.2938 301.814 94.7216 294.691 91.1388 288.5C89.3474 285.394 87.5772 282.522 85.9024 279.84C84.2276 277.158 82.7224 274.678 81.143 272.537C78.8186 269.086 75.7277 266.22 72.1118 264.163C71.4864 263.792 70.9034 263.505 70.3946 263.262C69.8858 263.018 69.4724 262.816 69.112 262.668L68.3276 262.318C68.2349 262.286 68.146 262.243 68.0626 262.191C71.2075 263.269 74.1153 264.942 76.6274 267.12C78.4288 268.694 80.0403 270.472 81.4292 272.42C83.0192 274.54 84.6092 277.042 86.2522 279.713C87.8952 282.384 89.7396 285.246 91.5522 288.352C95.1986 294.542 98.7708 301.665 102.64 309.234L102.29 309.107L116.271 303.022L131.292 296.503L131.419 296.45L131.535 296.524C134.384 298.276 136.932 300.473 139.083 303.033C140.073 304.277 140.903 305.641 141.552 307.093C142.12 308.522 142.404 310.049 142.39 311.587V311.693L142.294 311.767L119.78 329.098L113.42 333.953L111.735 335.225L111.289 335.543L111.173 335.638Z" fill="#161516"/>
<path d="M100.626 318.085C100.467 318.021 101.272 316.028 101.686 313.453C102.099 310.877 102.11 308.725 102.279 308.714C102.639 310.305 102.639 311.957 102.279 313.548C102.078 315.166 101.513 316.717 100.626 318.085V318.085Z" fill="#161516"/>
<path d="M260.188 400.097L275.377 419.124C275.377 419.124 299.821 410.082 302.937 413.326L267.12 444.14L242.242 415.52L260.188 400.097Z" fill="#88879B"/>
<g opacity="0.6">
<path opacity="0.6" d="M262.965 427.095C262.71 427.495 262.612 427.975 262.69 428.443C262.769 428.911 263.017 429.333 263.389 429.629C263.78 429.899 264.259 430.008 264.728 429.936C265.198 429.863 265.621 429.612 265.912 429.236C266.179 428.809 266.28 428.298 266.194 427.801C266.108 427.304 265.841 426.856 265.445 426.544C265.007 426.307 264.495 426.249 264.014 426.381C263.534 426.513 263.124 426.826 262.869 427.254" fill="white"/>
</g>
<g opacity="0.6">
<path opacity="0.6" d="M267.12 444.14L264.724 441.151L299.98 412.722C299.98 412.722 302.174 412.043 302.959 413.326L267.12 444.14Z" fill="white"/>
</g>
<path d="M275.801 418.446C275.95 418.626 275.144 419.506 274.741 420.756C274.339 422.007 274.54 423.194 274.317 423.258C274.095 423.322 273.491 422.092 273.978 420.523C274.466 418.954 275.706 418.255 275.801 418.446Z" fill="#161516"/>
<path d="M280.9 416.771C281.08 416.909 280.582 417.831 280.624 419.113C280.667 420.396 281.165 421.286 280.985 421.435C280.805 421.583 279.84 420.682 279.819 419.124C279.798 417.566 280.752 416.58 280.9 416.771Z" fill="#161516"/>
<path d="M286.9 419.442C286.772 419.612 285.776 418.944 285.394 417.608C285.013 416.273 285.522 415.181 285.712 415.255C285.903 415.329 285.85 416.315 286.168 417.375C286.486 418.435 287.059 419.272 286.9 419.442Z" fill="#161516"/>
<path d="M271.858 414.46C271.922 414.683 270.915 415.138 269.982 416.05C269.049 416.962 268.551 417.937 268.328 417.873C268.106 417.81 268.328 416.538 269.388 415.478C270.448 414.418 271.826 414.28 271.858 414.46Z" fill="#161516"/>
<g opacity="0.3">
<path opacity="0.3" d="M263.198 403.871L265.901 407.263L248.157 422.23L245.591 419.283L263.198 403.871Z" fill="#161516"/>
</g>
<path d="M268.721 410.718C268.795 410.782 268.191 411.481 266.919 412.245C266.177 412.694 265.384 413.05 264.555 413.305C264.061 413.448 263.558 413.562 263.05 413.644C262.751 413.689 262.447 413.689 262.149 413.644C261.93 413.609 261.727 413.507 261.569 413.351C261.411 413.195 261.306 412.993 261.269 412.775C261.25 412.577 261.279 412.378 261.353 412.193C261.427 412.009 261.543 411.845 261.693 411.715C261.914 411.511 262.169 411.346 262.445 411.227C263.692 410.594 265.076 410.28 266.473 410.315C267.282 410.257 268.089 410.449 268.784 410.867C268.784 410.994 267.873 410.792 266.484 410.867C265.676 410.929 264.879 411.089 264.11 411.344C263.66 411.498 263.224 411.69 262.806 411.916C262.339 412.139 262.011 412.414 262.064 412.669C262.064 412.764 262.064 412.785 262.276 412.828C262.497 412.858 262.722 412.858 262.944 412.828C263.418 412.764 263.888 412.675 264.353 412.563C265.143 412.356 265.913 412.08 266.654 411.736C267.316 411.345 268.007 411.005 268.721 410.718V410.718Z" fill="#161516"/>
<path d="M268.71 411.163C268.71 411.238 267.788 410.909 266.749 409.828C265.785 408.809 265.121 407.543 264.83 406.171C264.724 405.851 264.702 405.509 264.767 405.178C264.832 404.848 264.982 404.54 265.201 404.284C265.362 404.146 265.559 404.06 265.769 404.035C265.978 404.011 266.19 404.049 266.378 404.146C266.651 404.276 266.905 404.443 267.131 404.644C267.671 405.111 268.113 405.68 268.432 406.318C268.75 406.957 268.938 407.653 268.986 408.365C269.092 409.891 268.54 410.729 268.466 410.686C268.516 409.935 268.516 409.18 268.466 408.429C268.339 407.648 268.038 406.905 267.586 406.256C267.331 405.876 267.02 405.536 266.664 405.249C266.283 404.92 265.88 404.729 265.763 404.888C265.663 405.058 265.601 405.247 265.581 405.442C265.561 405.638 265.583 405.836 265.647 406.022C265.729 406.484 265.861 406.935 266.039 407.369C266.331 408.129 266.731 408.843 267.226 409.489C268.032 410.559 268.784 411.047 268.71 411.163Z" fill="#161516"/>
<path d="M243.683 458.757L242.74 483.646C242.74 483.646 267.724 492.964 268 497.585L219.664 497.49L219.547 458.641L243.683 458.757Z" fill="#88879B"/>
<g opacity="0.6">
<path opacity="0.6" d="M227.794 481.526C227.329 481.667 226.933 481.974 226.681 482.388C226.428 482.803 226.338 483.296 226.427 483.773C226.554 484.242 226.855 484.645 227.268 484.901C227.681 485.157 228.176 485.246 228.653 485.151C229.141 484.993 229.555 484.663 229.818 484.222C230.081 483.782 230.175 483.261 230.084 482.756C229.904 482.281 229.548 481.893 229.09 481.674C228.632 481.455 228.107 481.421 227.624 481.579" fill="white"/>
</g>
<g opacity="0.6">
<path opacity="0.6" d="M219.664 497.49L219.812 493.568L266.06 495.126C266.06 495.126 268.18 496.069 267.968 497.585L219.664 497.49Z" fill="white"/>
</g>
<path d="M243.524 483.36C243.524 483.593 242.337 483.699 241.171 484.42C240.005 485.141 239.39 486.158 239.168 486.063C238.945 485.968 239.306 484.611 240.737 483.72C242.168 482.83 243.577 483.19 243.524 483.36Z" fill="#161516"/>
<path d="M248.591 485.48C248.591 485.703 247.616 486.105 246.81 487.102C246.005 488.098 245.75 489.158 245.538 489.148C245.326 489.137 245.157 487.801 246.185 486.582C247.213 485.363 248.581 485.289 248.591 485.48Z" fill="#161516"/>
<path d="M251.453 491.586C251.241 491.586 250.913 490.451 251.527 489.158C252.142 487.865 253.234 487.356 253.34 487.558C253.446 487.759 252.746 488.437 252.28 489.508C251.814 490.579 251.686 491.564 251.453 491.586Z" fill="#161516"/>
<path d="M243.111 477.71C243.005 477.922 241.924 477.594 240.588 477.71C239.253 477.827 238.214 478.219 238.097 478.018C237.981 477.816 238.977 476.958 240.546 476.894C242.115 476.83 243.228 477.519 243.111 477.71Z" fill="#161516"/>
<g opacity="0.3">
<path opacity="0.3" d="M243.493 463.686L243.334 468.117L219.579 467.863L219.558 463.856L243.493 463.686Z" fill="#161516"/>
</g>
<path d="M243.206 472.675C242.416 472.899 241.58 472.899 240.79 472.675C239.397 472.421 238.066 471.903 236.868 471.149C236.593 471.001 236.346 470.807 236.136 470.576C235.988 470.406 235.897 470.193 235.878 469.968C235.859 469.743 235.912 469.518 236.03 469.326C236.153 469.159 236.312 469.023 236.496 468.93C236.68 468.836 236.884 468.786 237.09 468.785C237.395 468.784 237.699 468.827 237.991 468.912C239.386 469.252 240.672 469.938 241.733 470.905C242.846 471.965 243.228 472.824 243.143 472.866C243.058 472.908 242.496 472.209 241.362 471.35C240.708 470.859 239.996 470.449 239.242 470.131C238.793 469.945 238.328 469.8 237.853 469.697C237.345 469.559 236.91 469.559 236.793 469.781C236.677 470.004 236.74 469.909 236.846 470.057C237.006 470.22 237.188 470.359 237.387 470.47C237.793 470.743 238.219 470.988 238.659 471.202C239.409 471.577 240.194 471.878 241.002 472.103C241.748 472.247 242.484 472.438 243.206 472.675Z" fill="#161516"/>
<path d="M242.899 473.014C242.439 472.327 242.215 471.508 242.263 470.682C242.205 469.247 242.534 467.823 243.217 466.559C243.349 466.24 243.561 465.961 243.832 465.747C244.103 465.534 244.424 465.394 244.765 465.34C244.989 465.336 245.209 465.398 245.397 465.519C245.586 465.639 245.735 465.813 245.825 466.018C245.948 466.303 246.033 466.602 246.079 466.909C246.184 467.632 246.144 468.369 245.962 469.077C245.78 469.784 245.46 470.449 245.019 471.032C244.065 472.283 243.079 472.569 243.058 472.484C243.037 472.4 243.811 471.912 244.531 470.714C244.953 470.02 245.217 469.242 245.305 468.435C245.368 467.971 245.368 467.5 245.305 467.036C245.231 466.527 245.04 466.114 244.849 466.167C244.659 466.22 244.192 466.548 243.991 466.951C243.754 467.37 243.555 467.81 243.397 468.266C243.121 469.044 242.961 469.858 242.92 470.682C242.74 472.103 243.026 472.983 242.899 473.014Z" fill="#161516"/>
<path d="M219.176 341.055L267.003 404.613L244.627 423.83L221.604 393.716L219.176 341.055Z" fill="#161516"/>
<path d="M117.904 344.097C117.904 344.097 194.86 320.65 201.909 320.947C208.958 321.244 222.335 346.694 222.335 346.694L200.732 345.91C195.188 359.51 184.949 373.47 173.416 387.61L129.246 385.554L117.904 344.097Z" fill="#161516"/>
<path d="M180.804 325.568C180.804 325.717 172.939 328.197 163.145 331.112C153.35 334.027 145.368 336.264 145.326 336.115C145.284 335.967 153.181 333.487 162.986 330.582C172.791 327.678 180.762 325.42 180.804 325.568Z" fill="#161516"/>
<path d="M198.686 345.496H220.289C225.547 345.5 230.674 347.133 234.966 350.17C239.258 353.207 242.503 357.499 244.256 362.456V362.456C245.94 367.237 246.681 372.298 246.439 377.36L244.754 465.34H215.678L215.148 437.25L211.47 383.858L186.295 384.918L172.027 384.027L198.686 345.496Z" fill="#161516"/>
<path d="M199.333 345.062C199.237 345.689 199.098 346.308 198.92 346.917C198.504 348.598 197.994 350.254 197.393 351.878C196.514 354.288 195.451 356.627 194.213 358.874C192.671 361.63 190.898 364.25 188.913 366.707C185.251 371.076 181.329 375.221 177.168 379.12L173.437 382.713C172.999 383.171 172.524 383.593 172.017 383.974C172.405 383.473 172.827 382.999 173.278 382.554C174.116 381.664 175.398 380.434 176.893 378.844C180.963 374.879 184.829 370.712 188.479 366.357C192.039 361.938 194.919 357.011 197.022 351.74C197.785 349.705 198.368 348.03 198.708 346.864C198.867 346.247 199.076 345.645 199.333 345.062V345.062Z" fill="#595866"/>
<path d="M225.78 346.09C224.467 346.093 223.154 346.03 221.847 345.899C219.431 345.761 216.081 345.666 212.392 345.74C208.703 345.814 205.354 346.037 202.926 346.196C201.625 346.346 200.315 346.413 199.004 346.397C199.347 346.278 199.703 346.203 200.064 346.175C200.732 346.069 201.707 345.942 202.916 345.804C205.333 345.549 208.682 345.263 212.456 345.189C215.639 345.114 218.825 345.223 221.996 345.518C223.204 345.624 224.179 345.761 224.858 345.867C225.172 345.908 225.482 345.982 225.78 346.09Z" fill="#595866"/>
<path d="M215.551 449.228C215.501 448.987 215.472 448.742 215.466 448.497C215.466 447.956 215.403 447.267 215.35 446.377C215.265 444.479 215.148 441.85 215.01 438.639C214.724 432.109 214.332 423.088 213.707 413.135C213.081 403.182 212.339 394.172 211.799 387.695C211.534 384.515 211.322 381.865 211.173 379.978C211.11 379.109 211.067 378.409 211.025 377.858C210.994 377.612 210.994 377.363 211.025 377.116C211.08 377.357 211.119 377.601 211.141 377.848L211.396 379.968C211.597 381.844 211.862 384.462 212.201 387.663C212.837 394.172 213.632 403.182 214.268 413.103C214.904 423.025 215.222 432.098 215.413 438.639C215.477 441.819 215.54 444.479 215.583 446.377C215.583 447.246 215.583 447.945 215.583 448.497C215.6 448.741 215.589 448.986 215.551 449.228V449.228Z" fill="#161516"/>
<path d="M246.482 374.01C246.641 374.01 246.535 394.15 246.259 418.986C245.984 443.822 245.623 463.962 245.475 463.962C245.326 463.962 245.422 443.822 245.708 418.976C245.994 394.129 246.333 374.01 246.482 374.01Z" fill="#595866"/>
<path d="M222.759 370.724C220.625 371.558 218.55 372.536 216.547 373.65C214.649 374.941 212.84 376.357 211.131 377.89C211.457 377.286 211.888 376.744 212.403 376.289C214.723 373.921 217.592 372.163 220.756 371.17C221.393 370.907 222.071 370.756 222.759 370.724V370.724Z" fill="#161516"/>
<g opacity="0.3">
<path opacity="0.3" d="M172.027 383.985C177.9 385.045 184.334 383.275 189.358 380.137C194.376 377.001 198.013 372.075 199.534 366.357C200.181 363.824 200.372 361.195 201.018 358.662C201.528 356.061 202.917 353.714 204.951 352.015C207.41 350.182 213.431 349.016 215.275 346.556C215.275 346.196 208.089 347.023 205.682 347.161C203.054 347.298 198.655 347.966 198.75 347.659C198.054 350.206 197.205 352.709 196.206 355.153C190.97 364.152 179.469 377.413 172.027 384.027" fill="#161516"/>
</g>
<path d="M52.1096 446.196L60.2928 499.695H68.4018L64.4056 446.408L52.1096 446.196Z" fill="#161516"/>
<path d="M196.047 446.408V499.695H204.612L207.802 446.196L196.047 446.408Z" fill="#161516"/>
<path d="M50.6574 280.9C50.6574 280.9 39.1988 281.356 35.6902 286.2C29.5104 294.68 32.9872 302.015 32.6374 304.517C32.2876 307.018 52.1096 446.196 52.1096 446.196H60.2716L207.76 447.564L214.883 430.36L211.47 383.815L172.027 383.985C172.027 383.985 155.873 337.621 141.754 334.525C132.214 332.405 109.731 333.169 96.1738 333.868C92.8616 334.04 89.5627 333.336 86.6093 331.827C83.656 330.318 81.1526 328.057 79.3516 325.272L50.6574 280.9Z" fill="#595866"/>
<path d="M181.419 440.727C181.419 440.727 180.603 440.833 179.034 440.907C177.465 440.981 175.154 441.034 172.165 441.055C166.176 441.14 157.495 441.161 146.725 441.151C125.091 441.151 94.9336 440.971 60.8652 440.674H60.6426V440.462C60.0278 437.547 59.4024 434.547 58.7664 431.505C58.1304 428.463 57.5262 425.346 56.9008 422.219C49.4808 384.462 45.156 349.864 42.824 324.773C41.6474 312.234 40.9478 302.058 40.5026 295.019C40.3118 291.521 40.1528 288.797 40.0574 286.921C40.0574 286.009 39.9832 285.31 39.9514 284.801C39.9196 284.292 39.9514 284.08 39.9514 284.08C39.9514 284.08 39.9514 284.324 40.0256 284.801C40.0998 285.278 40.1104 285.999 40.174 286.921C40.3012 288.786 40.492 291.511 40.7252 295.009C41.234 302.036 41.9972 312.202 43.2162 324.742C45.58 349.8 49.9366 384.367 57.3354 422.103C57.9573 425.233 58.5791 428.325 59.201 431.378C59.8229 434.43 60.4483 437.416 61.0772 440.335L60.8122 440.123L146.672 440.79L172.112 440.854H178.981C179.765 440.854 180.348 440.79 180.751 440.79L181.419 440.727Z" fill="#161516"/>
<path d="M179.861 447.32C179.853 447.096 179.875 446.871 179.924 446.652C179.999 446.165 180.083 445.539 180.2 444.776C180.317 444.013 180.497 442.963 180.624 441.797C180.751 440.631 180.963 439.317 181.059 437.844C181.154 436.37 181.345 434.78 181.408 433.042C181.472 431.303 181.525 429.47 181.557 427.519C181.536 423.297 181.288 419.079 180.815 414.884C180.304 410.694 179.575 406.533 178.631 402.418C177.741 398.624 176.787 395.253 175.865 392.444C175.451 391.034 174.974 389.794 174.593 388.681C174.211 387.568 173.861 386.624 173.533 385.861L172.875 384.08C172.784 383.878 172.72 383.664 172.685 383.444C172.803 383.632 172.903 383.831 172.981 384.038L173.734 385.776C174.063 386.54 174.455 387.472 174.794 388.575C175.133 389.677 175.706 390.917 176.151 392.327C177.115 395.115 178.122 398.496 179.045 402.302C180.018 406.431 180.765 410.61 181.281 414.82C181.753 419.044 181.987 423.291 181.981 427.54C181.981 429.501 181.917 431.356 181.779 433.095C181.642 434.833 181.525 436.444 181.366 437.907C181.207 439.37 181.006 440.706 180.836 441.861C180.666 443.016 180.497 443.981 180.327 444.829C180.158 445.677 180.041 446.207 179.946 446.695C179.938 446.905 179.91 447.115 179.861 447.32V447.32Z" fill="#161516"/>
<path d="M71.7513 347.542C71.9325 347.357 72.1313 347.19 72.3449 347.044C72.8007 346.694 73.4049 346.249 74.1257 345.677L75.4295 344.712C75.9171 344.383 76.4895 344.065 77.0725 343.705C78.3893 342.854 79.7595 342.09 81.1747 341.415L83.6339 340.26C84.4819 339.836 85.4253 339.529 86.3687 339.136C87.3121 338.744 88.2979 338.341 89.3367 338.013L92.5167 336.953C97.3196 335.539 102.229 334.518 107.198 333.9C112.149 333.246 117.139 332.942 122.133 332.988C124.433 332.988 126.617 333.137 128.663 333.211C130.709 333.285 132.595 333.529 134.323 333.773C137.048 334.124 139.751 334.623 142.422 335.267L144.542 335.861C144.795 335.923 145.043 336.004 145.284 336.105C145.022 336.084 144.763 336.038 144.51 335.967L142.326 335.469C140.439 335.077 137.673 334.557 134.228 334.165C132.511 333.942 130.613 333.836 128.589 333.667C126.564 333.497 124.349 333.444 122.08 333.497C117.118 333.485 112.161 333.8 107.24 334.441C102.312 335.058 97.4386 336.057 92.6651 337.43L89.4851 338.416C88.4251 338.734 87.4817 339.158 86.5277 339.476C85.5737 339.794 84.6409 340.154 83.7929 340.536C82.9449 340.917 82.1181 341.32 81.3337 341.691C79.9211 342.345 78.5478 343.081 77.2209 343.896C76.6273 344.235 76.0655 344.542 75.5567 344.85L74.2423 345.783L72.4085 347.055C72.2046 347.237 71.9847 347.4 71.7513 347.542V347.542Z" fill="#161516"/>
<path d="M159.435 355.1C159.435 355.1 159.435 355.217 159.329 355.45C159.223 355.683 159.148 356.012 158.968 356.457C158.419 357.713 157.687 358.881 156.795 359.923C155.354 361.558 153.626 362.916 151.697 363.93C150.489 364.548 149.235 365.069 147.944 365.488C146.483 365.923 144.986 366.228 143.471 366.4C139.998 366.696 136.5 366.497 133.083 365.806C129.384 365.149 125.536 364.078 121.423 363.103C117.195 361.986 112.843 361.409 108.47 361.386C106.17 361.419 103.886 361.776 101.686 362.446C99.4228 363.143 97.294 364.218 95.3894 365.626C91.6821 368.502 88.5591 372.06 86.1886 376.109C83.7612 379.957 81.8426 383.932 79.8286 387.61C77.9648 391.127 75.741 394.442 73.193 397.5C70.9651 400.201 68.186 402.394 65.0416 403.934C62.431 405.193 59.5855 405.89 56.6888 405.98C54.5092 406.033 52.3427 405.628 50.3288 404.793C49.5876 404.483 48.8776 404.103 48.2088 403.659C47.6576 403.245 47.1488 402.885 46.852 402.599L46.1206 401.825C45.951 401.645 45.8768 401.549 45.8768 401.549C45.8768 401.549 45.9828 401.623 46.1524 401.782L46.9262 402.514C47.276 402.811 47.753 403.15 48.2936 403.574C48.9669 403.99 49.6764 404.345 50.4136 404.634C52.4065 405.415 54.5393 405.776 56.6782 405.694C59.5186 405.591 62.3075 404.905 64.872 403.68C67.9515 402.147 70.6717 399.979 72.8538 397.32C75.3638 394.26 77.5519 390.949 79.3834 387.441C81.408 383.773 83.3266 379.787 85.7434 375.897C88.1506 371.8 91.3206 368.201 95.082 365.297C97.0345 363.859 99.2125 362.756 101.527 362.032C103.781 361.359 106.118 361.002 108.47 360.972C112.891 361.001 117.29 361.592 121.561 362.732C125.642 363.728 129.479 364.852 133.136 365.488C136.517 366.178 139.977 366.396 143.418 366.135C144.907 365.979 146.379 365.692 147.817 365.276C149.095 364.878 150.34 364.379 151.538 363.781C153.447 362.804 155.166 361.494 156.615 359.912C157.834 358.489 158.789 356.859 159.435 355.1V355.1Z" fill="white"/>
<path d="M213.346 422.94L212.88 423.057L211.512 423.332C210.792 423.509 210.084 423.733 209.392 424C208.939 424.163 208.497 424.354 208.067 424.572C207.564 424.792 207.076 425.043 206.605 425.325C204.154 426.737 201.874 428.426 199.81 430.36C197.351 432.586 194.722 435.31 191.5 437.992C189.824 439.42 187.997 440.661 186.051 441.691C185.011 442.241 183.931 442.709 182.818 443.091L181.069 443.568C180.471 443.703 179.866 443.805 179.257 443.875C176.706 444.185 174.121 444.056 171.614 443.493C168.968 442.874 166.411 441.923 164.003 440.663C158.892 437.91 154.163 434.499 149.937 430.519C145.485 426.48 140.938 422.209 135.638 418.711C133.041 416.967 130.23 415.567 127.274 414.545C124.405 413.57 121.376 413.149 118.349 413.305C115.429 413.506 112.563 414.194 109.869 415.34C107.277 416.441 104.778 417.749 102.396 419.251C97.7108 422.145 93.4496 425.24 89.1142 427.604C79.1862 432.945 67.8471 435.078 56.657 433.71C54.2465 433.434 51.8637 432.955 49.5338 432.279C49.6942 432.293 49.8535 432.318 50.0108 432.353L51.3782 432.65C52.576 432.904 54.3674 433.233 56.6782 433.498C63.2323 434.222 69.8631 433.766 76.2564 432.151C80.6603 431.032 84.9056 429.362 88.8916 427.18C93.1316 424.816 97.4352 421.721 102.131 418.795C104.532 417.273 107.053 415.948 109.668 414.831C112.413 413.648 115.336 412.932 118.317 412.711C121.412 412.546 124.51 412.974 127.444 413.972C130.446 415.005 133.297 416.43 135.924 418.212C141.287 421.742 145.845 426.035 150.287 430.074C154.475 434.029 159.161 437.421 164.226 440.165C166.589 441.453 169.108 442.432 171.72 443.08C174.169 443.644 176.697 443.78 179.193 443.483C179.792 443.417 180.386 443.318 180.974 443.186L182.691 442.741C183.783 442.364 184.846 441.907 185.871 441.373C187.799 440.37 189.609 439.154 191.266 437.748C194.446 435.109 197.139 432.448 199.619 430.201C201.698 428.249 204 426.548 206.477 425.134C206.958 424.856 207.458 424.612 207.972 424.403C208.405 424.181 208.856 423.993 209.318 423.841C210.038 423.592 210.77 423.384 211.512 423.216L212.89 422.993L213.346 422.94Z" fill="white"/>
<path d="M65.826 307.103C65.7908 307.559 65.6946 308.008 65.5398 308.439C65.1866 309.64 64.7106 310.801 64.1194 311.905C62.1934 315.602 59.1803 318.619 55.4863 320.551C51.7923 322.482 47.5949 323.234 43.46 322.706C42.2194 322.562 40.9973 322.289 39.8136 321.89C39.3686 321.769 38.9411 321.591 38.5416 321.36C40.1703 321.799 41.8281 322.121 43.5024 322.325C47.5522 322.74 51.6346 321.957 55.2432 320.072C58.8518 318.188 61.8276 315.285 63.8014 311.725C64.5804 310.232 65.2568 308.688 65.826 307.103V307.103Z" fill="white"/>
<path d="M471.128 289.094C460.157 294.786 451.74 304.57 445.688 315.339C439.635 326.109 435.734 337.949 431.908 349.683L428.494 410.22C441.267 388.49 451.518 362.955 454.284 337.917L445.804 337.154C451.507 336.285 456.288 332.162 459.33 327.264C462.372 322.367 463.941 316.728 465.467 311.174L455.079 312.7C463.264 307.186 469.011 298.733 471.128 289.094Z" fill="#595866"/>
<path d="M471.128 289.094C460.157 294.786 451.74 304.57 445.688 315.339C439.635 326.109 435.734 337.949 431.908 349.683L428.494 410.22C441.267 388.49 451.518 362.955 454.284 337.917L445.804 337.154C451.507 336.285 456.288 332.162 459.33 327.264C462.372 322.367 463.941 316.728 465.467 311.174L455.079 312.7C463.264 307.186 469.011 298.733 471.128 289.094Z" fill="#57A41B"/>
<path d="M426.608 424.413C426.608 424.413 398.889 391.246 399.207 359.573H410.411C410.411 359.573 398.242 351.581 399.207 347.097C400.171 342.613 400.489 325.664 400.489 325.664L410.729 328.229C410.729 328.229 403.054 324.392 402.09 318.307C401.125 312.223 404.326 284.08 404.326 284.08C404.326 284.08 416.803 297.203 420.64 310.633C424.477 324.063 434.558 339.741 431.6 380.688C428.643 421.636 426.608 424.413 426.608 424.413Z" fill="#74C733"/>
<path d="M440.653 427.54C440.653 427.54 470.682 407.538 477.35 382.013L468.35 379.565C468.35 379.565 479.883 375.791 480.085 371.986C480.286 368.18 483.742 354.475 483.742 354.475L474.954 354.294C474.954 354.294 481.961 352.885 484.07 348.21C486.18 343.535 489.72 320.205 489.72 320.205C489.72 320.205 476.82 328.017 470.799 337.981C464.778 347.945 453.246 358.333 446.663 391.903C440.08 425.473 440.653 427.54 440.653 427.54Z" fill="#74C733"/>
<path d="M411.895 313.007C411.946 313.115 411.982 313.229 412.001 313.347C412.064 313.612 412.149 313.951 412.245 314.407C412.457 315.339 412.753 316.664 413.135 318.339C413.517 320.014 413.972 322.145 414.46 324.583C414.948 327.021 415.52 329.798 416.092 332.872C417.28 339.02 418.541 346.376 419.824 354.559C421.106 362.743 422.325 371.763 423.438 381.261C424.551 390.758 425.367 399.832 426.014 408.089C426.661 416.347 427.074 423.799 427.328 430.053C427.477 433.18 427.551 436.01 427.625 438.533C427.699 441.055 427.752 443.165 427.763 444.893C427.774 446.62 427.763 447.967 427.763 448.921V449.981C427.773 450.101 427.773 450.221 427.763 450.341C427.744 450.222 427.744 450.1 427.763 449.981C427.763 449.716 427.763 449.376 427.763 448.921C427.763 447.956 427.678 446.61 427.615 444.882C427.551 443.154 427.487 440.992 427.381 438.522C427.275 436.052 427.169 433.222 426.989 430.042C426.692 423.788 426.194 416.347 425.558 408.1C424.922 399.853 424.021 390.79 422.929 381.293C421.838 371.795 420.597 362.796 419.368 354.612C418.138 346.429 416.898 339.073 415.764 332.914C415.223 329.84 414.704 327.052 414.216 324.614C413.729 322.176 413.347 320.067 412.997 318.35C412.647 316.633 412.404 315.339 412.213 314.396C412.139 313.972 412.075 313.633 412.033 313.336C411.976 313.231 411.93 313.121 411.895 313.007Z" fill="#161516"/>
<path d="M422.76 444.723C422.76 444.723 397.394 415.955 389.529 398.56L395.465 396.027C391.161 396.737 386.741 394.882 383.402 392.073C380.063 389.264 377.604 385.564 375.198 381.918L383.031 380.593C375.837 378.534 369.71 373.786 365.923 367.332C375.166 368.859 383.529 373.936 390.419 380.275C395.886 385.535 400.854 391.291 405.259 397.468C407.472 400.439 409.399 403.612 411.015 406.945C415.276 415.753 422.77 434.155 422.76 444.723Z" fill="#74C733"/>
<path d="M477.753 336.953C477.726 337.056 477.687 337.156 477.636 337.25L477.254 338.087C476.883 338.85 476.364 339.921 475.717 341.267C474.361 344.034 472.431 348.051 470.11 353.044C465.446 363.018 459.309 376.936 453.245 392.603C447.182 408.27 442.37 422.707 439.105 433.222C437.473 438.522 436.19 442.762 435.331 445.709C434.907 447.15 434.568 448.285 434.324 449.101L434.038 449.981C434.014 450.083 433.979 450.183 433.932 450.277C433.938 450.173 433.956 450.07 433.985 449.97C434.038 449.737 434.112 449.44 434.208 449.069C434.42 448.242 434.727 447.097 435.109 445.645C435.904 442.667 437.123 438.374 438.702 433.105C441.882 422.505 446.631 408.079 452.684 392.391C458.736 376.703 464.969 362.796 469.728 352.863C472.103 347.892 474.085 343.896 475.505 341.203C476.205 339.868 476.746 338.808 477.148 338.023L477.583 337.207C477.689 337.08 477.742 336.942 477.753 336.953Z" fill="#161516"/>
<path d="M424.912 457.061C424.844 456.892 424.801 456.713 424.784 456.531C424.71 456.107 424.625 455.609 424.53 455.005C424.329 453.68 424 451.761 423.534 449.408C423.067 447.055 422.421 444.278 421.583 441.214C420.746 438.151 419.675 434.854 418.403 431.42C417.131 427.986 415.69 424.806 414.322 421.954C412.955 419.103 411.577 416.591 410.368 414.534C409.16 412.478 408.153 410.803 407.422 409.669L406.605 408.354C406.496 408.21 406.411 408.049 406.351 407.877C406.351 407.877 406.489 408.005 406.701 408.291L407.612 409.542C408.407 410.602 409.478 412.266 410.729 414.312C411.98 416.357 413.379 418.88 414.81 421.732C416.241 424.583 417.651 427.795 418.954 431.272C420.258 434.748 421.286 438.066 422.134 441.14C422.982 444.214 423.555 447.023 423.968 449.398C424.382 451.772 424.657 453.701 424.774 455.037C424.837 455.652 424.88 456.16 424.922 456.584C424.942 456.743 424.938 456.904 424.912 457.061V457.061Z" fill="#161516"/>
<path d="M458.386 450.288H402.874V461.609H458.386V450.288Z" fill="#595866"/>
<path d="M408.164 461.609L414.163 499.695H447.702L453.298 461.609H408.164Z" fill="#595866"/>
<path d="M454.973 461.609C454.973 461.778 444.469 461.906 431.526 461.906C418.583 461.906 408.068 461.778 408.068 461.609C408.068 461.439 418.573 461.312 431.526 461.312C444.479 461.312 454.973 461.45 454.973 461.609Z" fill="#161516"/>
<path d="M140.721 170.65L140.609 171.137L140.301 170.743L129.512 179.194L130.571 166.642L130.596 166.348L130.349 166.184C123.793 161.826 119.104 155.173 117.204 147.534C115.303 139.894 116.33 131.82 120.08 124.899C123.831 117.977 130.035 112.709 137.473 110.13C144.911 107.55 153.045 107.847 160.275 110.96C167.506 114.073 173.31 119.779 176.548 126.955C179.785 134.131 180.221 142.258 177.771 149.739C175.32 157.22 170.159 163.514 163.304 167.384C156.448 171.253 148.392 172.418 140.721 170.65Z" fill="#F5F4F8" stroke="url(#paint1_linear_60_2834)"/>
<path d="M144.014 149.949C143.975 149.911 143.935 149.873 143.895 149.836C143.235 149.21 142.395 148.922 141.374 148.972C140.353 149.023 139.539 149.392 138.932 150.08C138.324 150.755 138.044 151.574 138.091 152.539C138.139 153.504 138.498 154.299 139.17 154.924C139.841 155.535 140.688 155.816 141.708 155.766C142.49 155.727 143.146 155.506 143.679 155.102C143.243 154.236 143.083 153.277 143.195 152.251C143.29 151.389 143.563 150.616 144.014 149.949Z" fill="#343439"/>
<path d="M143.799 146.012L143.607 125.975L136.965 126.303L138.744 146.261L143.799 146.012Z" fill="#343439"/>
<path d="M155.095 135.31L155.396 133.325C155.855 132.735 156.365 132.267 156.926 131.922C157.953 131.295 159.071 131.005 160.281 131.052C161.504 131.095 162.752 131.404 164.025 131.979C165.433 132.616 166.545 133.38 167.361 134.271C168.177 135.163 168.661 136.16 168.813 137.262C168.969 138.355 168.766 139.523 168.204 140.767C167.829 141.596 167.343 142.248 166.745 142.721C166.162 143.189 165.486 143.568 164.715 143.858C163.959 144.144 163.123 144.439 162.207 144.745C161.425 144.984 160.818 145.313 160.384 145.732C159.955 146.142 159.558 146.723 159.195 147.476L155.044 145.599C155.427 144.751 155.823 144.03 156.231 143.436C156.653 142.837 157.131 142.345 157.665 141.959C158.2 141.574 158.823 141.275 159.534 141.063C160.157 140.891 160.711 140.706 161.196 140.508C161.681 140.309 162.091 140.07 162.426 139.792C162.761 139.514 163.02 139.172 163.203 138.767C163.429 138.266 163.542 137.823 163.542 137.44C163.551 137.06 163.45 136.73 163.24 136.45C163.044 136.164 162.739 135.927 162.325 135.739C161.987 135.587 161.632 135.525 161.259 135.554C160.895 135.587 160.544 135.735 160.203 136C159.868 136.254 159.564 136.657 159.292 137.207L155.095 135.31Z" fill="#88879B"/>
<path d="M153.748 153.238C153.856 151.899 153.49 150.681 152.64 149.649C152.612 149.614 152.583 149.578 152.554 149.544C152.872 148.951 153.354 148.547 154 148.333C154.715 148.087 155.472 148.145 156.272 148.507C157.073 148.869 157.617 149.399 157.905 150.098C158.197 150.788 158.186 151.48 157.872 152.174C157.558 152.868 157.043 153.338 156.328 153.584C155.618 153.82 154.862 153.757 154.062 153.395C153.953 153.346 153.848 153.293 153.748 153.238Z" fill="#88879B"/>
<path d="M155.997 122.308L152.426 145.819L146.234 145.138L147.862 121.413L155.997 122.308ZM144.249 152.367C144.375 151.228 144.871 150.321 145.738 149.648C146.607 148.959 147.666 148.683 148.917 148.821C150.167 148.958 151.134 149.457 151.817 150.317C152.517 151.163 152.804 152.155 152.678 153.295C152.553 154.434 152.056 155.348 151.187 156.038C150.335 156.713 149.284 156.981 148.034 156.844C146.783 156.706 145.808 156.214 145.108 155.369C144.41 154.507 144.124 153.506 144.249 152.367Z" fill="#343439"/>
<defs>
<linearGradient id="paint0_linear_60_2834" x1="104.94" y1="316.41" x2="506.15" y2="67.31" gradientUnits="userSpaceOnUse">
<stop stop-color="#F5F4F8"/>
<stop offset="1" stop-color="#E1E1E7"/>
</linearGradient>
<linearGradient id="paint1_linear_60_2834" x1="150.52" y1="108.12" x2="126.67" y2="187.62" gradientUnits="userSpaceOnUse">
<stop stop-color="#C6C5D2" stop-opacity="0"/>
<stop offset="1" stop-color="#C6C5D2"/>
</linearGradient>
</defs>
</svg>
