<svg width="162" height="174" viewBox="0 0 162 174" fill="none" xmlns="http://www.w3.org/2000/svg">
<path d="M146.831 139.56C114.443 180.988 38.5943 181.653 17.597 158.642C9.21709 149.459 7.00449 133.687 3.75176 110.52C2.18623 99.3681 1.96195 90.3792 1.82905 84.2113C1.37095 63.2314 1.14273 52.7404 4.52051 45.6035C14.194 25.1737 47.8002 17.2227 69.5219 16.8538C71.0373 16.8276 72.5666 16.8377 74.1097 16.884C99.5439 17.6416 128.245 28.2296 145.946 50.8541C147.795 53.2145 149.504 55.6824 151.062 58.2449C167.219 84.8141 164.5 116.962 146.831 139.56Z" fill="url(#paint0_linear_147_786)"/>
<path d="M78.4935 96.671C74.0582 93.5393 73.2653 85.3349 74.3509 79.8292C75.6187 73.4011 78.9392 73.2312 79.5364 68.155C80.6478 58.7041 69.5937 55.4188 69.9588 45.7975C70.2571 37.9334 77.7584 37.145 77.6922 28.4213C77.6451 22.1261 73.7167 19.5109 75.4813 14.0181C75.6321 13.5488 77.3317 8.50795 81.6363 7.32988C85.9813 6.1406 90.4396 9.58229 92.6443 12.3539C96.7197 17.4811 93.703 21.081 96.3053 28.9277C99.8479 39.611 107.537 39.26 108.519 47.6652C109.331 54.6064 104.275 56.4472 105.329 64.1251C106.306 71.2541 111.02 72.2589 111.216 77.1187C111.674 88.3 87.5396 103.059 78.4935 96.671Z" fill="#D8DEE8"/>
<g style="mix-blend-mode:soft-light" opacity="0.7">
<g style="mix-blend-mode:soft-light" opacity="0.7">
<path d="M84.8891 101.925C84.9161 101.925 84.9426 101.918 84.9659 101.905C89.1293 99.4594 92.5979 96.2504 95.2764 92.3663C97.817 88.6824 100.443 84.8734 100.232 80.1101C100.071 76.4856 98.3811 74.5495 96.2504 72.098C94.215 69.7604 91.6817 66.8519 89.9092 61.4645C88.8971 58.3896 87.6377 54.5626 88.6089 49.981C89.1724 47.3215 90.2126 45.8171 91.1322 44.4893C92.0932 43.0987 92.9265 41.8982 92.765 39.8354C92.511 36.5355 90.7464 34.4278 88.7076 31.9853C87.4701 30.505 86.1905 28.9748 85.068 26.9876C81.9134 21.4 81.8298 13.8786 84.8196 4.63117C84.8258 4.6121 84.8281 4.592 84.8265 4.57201C84.825 4.55202 84.8195 4.53254 84.8103 4.51468C84.8012 4.49683 84.7887 4.48094 84.7734 4.46792C84.7582 4.45491 84.7405 4.44503 84.7214 4.43884C84.7024 4.43266 84.6823 4.43029 84.6623 4.43187C84.6423 4.43346 84.6228 4.43896 84.605 4.44807C84.5871 4.45719 84.5712 4.46973 84.5582 4.48498C84.5452 4.50023 84.5353 4.5179 84.5291 4.53697C81.5125 13.869 81.6044 21.4707 84.8028 27.1373C85.9388 29.1492 87.2273 30.6906 88.4738 32.1838C90.4784 34.5831 92.2115 36.6578 92.4583 39.8589C92.6085 41.8108 91.8448 42.9148 90.8781 44.3133C89.944 45.664 88.8848 47.1959 88.3089 49.9148C87.3209 54.5767 88.5943 58.4473 89.6176 61.5571C91.4119 67.0028 93.9655 69.9376 96.0188 72.2954C98.1148 74.702 99.7706 76.6028 99.927 80.1208C100.134 84.782 97.5372 88.5478 95.0258 92.1897C92.3725 96.0374 88.9358 99.2161 84.8117 101.639C84.783 101.656 84.7606 101.682 84.7481 101.713C84.7356 101.744 84.7336 101.778 84.7423 101.81C84.7511 101.842 84.7702 101.871 84.7968 101.891C84.8233 101.912 84.8557 101.923 84.8891 101.923V101.925Z" fill="white"/>
</g>
</g>
<g style="mix-blend-mode:soft-light" opacity="0.7">
<g style="mix-blend-mode:soft-light" opacity="0.7">
<path d="M88.1468 52.3089C88.1776 52.3089 88.2077 52.2995 88.2331 52.2821C88.2585 52.2646 88.278 52.2398 88.2891 52.2111C88.3001 52.1823 88.3022 52.1508 88.295 52.1208C88.2878 52.0909 88.2717 52.0638 88.2488 52.0431C81.1944 45.7418 77.8794 39.8912 76.3397 36.0974C74.6738 31.9862 74.6744 29.3306 74.6744 29.3043C74.6746 29.2843 74.6709 29.2644 74.6634 29.2459C74.6559 29.2273 74.6449 29.2104 74.6309 29.1961C74.6168 29.1819 74.6001 29.1705 74.5817 29.1627C74.5633 29.1549 74.5435 29.1508 74.5235 29.1506C74.4834 29.1506 74.4448 29.1665 74.4163 29.1947C74.3877 29.2229 74.3715 29.2613 74.371 29.3015C74.371 29.4136 74.3671 32.0299 76.0504 36.1921C77.5996 40.0224 80.9376 45.9201 88.0453 52.2702C88.0731 52.2953 88.1093 52.3091 88.1468 52.3089Z" fill="white"/>
</g>
</g>
<g style="mix-blend-mode:soft-light" opacity="0.7">
<g style="mix-blend-mode:soft-light" opacity="0.7">
<path d="M91.5409 65.938C91.5762 65.938 91.6103 65.9257 91.6374 65.9032C95.5725 62.6864 98.569 59.0367 100.537 55.0567C102.105 51.897 103.039 48.4603 103.284 44.9413C103.703 38.9366 101.985 34.5949 101.965 34.5517C101.946 34.5199 101.917 34.4958 101.883 34.4838C101.848 34.4717 101.81 34.4726 101.776 34.4863C101.742 34.4999 101.714 34.5254 101.697 34.558C101.68 34.5906 101.676 34.6282 101.684 34.6639C101.702 34.7065 103.395 38.9949 102.974 44.9323C102.588 50.4077 100.274 58.4496 91.4423 65.6655C91.4178 65.6854 91.4001 65.7123 91.3916 65.7427C91.3831 65.773 91.3843 65.8053 91.3948 65.835C91.4054 65.8646 91.4249 65.8903 91.4507 65.9085C91.4764 65.9266 91.5072 65.9363 91.5387 65.9363L91.5409 65.938Z" fill="white"/>
</g>
</g>
<g style="mix-blend-mode:soft-light" opacity="0.7">
<g style="mix-blend-mode:soft-light" opacity="0.7">
<path d="M97.9836 88.4553C98.0203 88.4554 98.0558 88.4422 98.0836 88.4182C98.1114 88.3942 98.1295 88.361 98.1348 88.3246C98.14 88.2883 98.132 88.2513 98.1122 88.2204C98.0923 88.1895 98.062 88.1668 98.0268 88.1565C87.6249 85.105 82.2005 79.5601 79.4815 75.4455C76.5406 70.9945 76.0477 67.2248 76.0432 67.1872C76.0382 67.1471 76.0175 67.1106 75.9856 67.0857C75.9537 67.0608 75.9132 67.0496 75.873 67.0546C75.8329 67.0596 75.7964 67.0803 75.7715 67.1123C75.7466 67.1442 75.7354 67.1847 75.7404 67.2248C75.7455 67.2629 76.2451 71.1033 79.2275 75.6137C81.9751 79.7703 87.4505 85.3702 97.941 88.4492C97.9548 88.4534 97.9692 88.4555 97.9836 88.4553Z" fill="white"/>
</g>
</g>
<g style="mix-blend-mode:soft-light" opacity="0.7">
<g style="mix-blend-mode:soft-light" opacity="0.7">
<path d="M84.5823 26.1584C84.6033 26.1584 84.6242 26.1541 84.6435 26.1457C84.6628 26.1373 84.6801 26.125 84.6944 26.1096C90.6437 19.6579 91.367 12.9265 90.9285 8.41552C90.4519 3.52941 88.5404 0.119678 88.5213 0.0860351C88.5114 0.0686557 88.4981 0.0534121 88.4823 0.0411799C88.4664 0.0289478 88.4483 0.0199684 88.429 0.0147578C88.4097 0.00954729 88.3895 0.0082082 88.3696 0.0108176C88.3498 0.0134271 88.3306 0.0199336 88.3133 0.0299632C88.296 0.039903 88.2808 0.0531542 88.2687 0.0689601C88.2565 0.084766 88.2475 0.102817 88.2423 0.122082C88.2371 0.141348 88.2357 0.16145 88.2383 0.181241C88.2409 0.201033 88.2473 0.220125 88.2572 0.237429C88.2763 0.271072 90.1592 3.63427 90.6268 8.45869C91.058 12.9046 90.3398 19.5396 84.4713 25.9038C84.4439 25.9335 84.4294 25.9728 84.4309 26.0132C84.4325 26.0536 84.4501 26.0916 84.4797 26.1191C84.5079 26.1443 84.5444 26.1583 84.5823 26.1584Z" fill="white"/>
</g>
</g>
<path d="M95.7489 124.818C94.6225 124.978 92.0314 124.332 91.4252 123.885C87.392 120.914 79.4786 115.837 78.3711 110.656C78.1822 109.772 81.8476 107.889 82.1739 106.94C84.2211 105.172 85.0409 104.686 86.1612 102.049C89.4695 94.266 74.5958 85.4728 86.8862 77.5459C95.8886 71.7386 105.149 72.8359 99.8646 57.8294C94.5798 42.8229 99.014 11.5936 118.113 17.8058C129.075 21.3703 123.256 36.9785 130.676 45.2575C137.727 53.1244 135.935 61.6983 127.76 69.8462C119.586 77.994 125.921 80.7712 131.129 88.6594C137.385 98.1356 121.882 104.4 114.476 106.683C108.515 108.521 94.5731 117.223 95.7489 124.818Z" fill="url(#paint1_linear_147_786)"/>
<g style="mix-blend-mode:soft-light" opacity="0.7">
<g style="mix-blend-mode:soft-light" opacity="0.7">
<path d="M85.1555 117.673L84.9956 117.492C112.938 92.842 123.228 54.2842 112.52 14.3509L112.754 14.2881C117.829 33.2135 118.178 52.5684 113.763 70.2596C109.126 88.8609 99.2329 105.255 85.1555 117.673Z" fill="#FCFDFE"/>
</g>
<g style="mix-blend-mode:soft-light" opacity="0.7">
<path d="M134.181 92.2998C124.002 91.8147 108.365 96.042 99.3265 101.724L99.1981 101.519C108.272 95.8138 123.971 91.5708 134.193 92.057L134.181 92.2998Z" fill="#FCFDFE"/>
</g>
<g style="mix-blend-mode:soft-light" opacity="0.7">
<path d="M90.5854 112.771L90.3813 112.641C93.3627 107.96 93.8628 101.953 91.8683 94.7837C90.406 89.5275 87.6629 83.7818 83.7099 77.7053L83.9129 77.573C87.8771 83.6703 90.6325 89.4389 92.0994 94.7192C94.1146 101.956 93.6049 108.03 90.5854 112.771Z" fill="#FCFDFE"/>
</g>
<g style="mix-blend-mode:soft-light" opacity="0.7">
<path d="M114.294 67.7246L114.084 67.6052C119.249 58.4929 129.167 53.6993 136.575 51.2815L136.65 51.5119C129.281 53.9158 119.421 58.6802 114.294 67.7246Z" fill="#FCFDFE"/>
</g>
<g style="mix-blend-mode:soft-light" opacity="0.7">
<path d="M116.873 43.8863L116.636 43.934C114.326 32.3624 105.038 24.1681 99.7072 20.3137L99.8485 20.1174C105.208 23.9931 114.547 32.234 116.873 43.8863Z" fill="#FCFDFE"/>
</g>
</g>
<path d="M6.10352e-05 151.823L132.029 150.673V154.072C132.029 154.996 131.453 155.782 130.673 155.923L93.3391 162.623C92.8972 162.703 92.4468 162.724 91.9995 162.686L1.43494 155.048C0.626373 154.979 6.10352e-05 154.191 6.10352e-05 153.243V151.823Z" fill="#343439"/>
<path d="M42.5022 146.307L130.576 152.531C132.152 152.643 133.436 151.459 133.436 149.887V86.9252C133.434 86.1687 133.131 85.4441 132.595 84.9105C132.059 84.377 131.332 84.0783 130.576 84.0801H42.5022C41.2035 84.0801 40.1539 85.2318 40.1539 86.6521V143.569C40.1539 144.989 41.2035 146.216 42.5022 146.307Z" fill="url(#paint2_linear_147_786)"/>
<path d="M41.0975 146.307L129.171 152.531C130.748 152.643 132.031 151.459 132.031 149.887V86.9252C132.03 86.5506 131.955 86.1799 131.811 85.8342C131.667 85.4885 131.456 85.1746 131.19 84.9104C130.925 84.6462 130.61 84.4369 130.263 84.2944C129.917 84.152 129.546 84.0791 129.171 84.0801H41.0975C39.7994 84.0801 38.7492 85.2318 38.7492 86.6521V143.569C38.7492 144.989 39.7994 146.216 41.0975 146.307Z" fill="#343439"/>
<path d="M43.841 142.297L125.874 147.704C127.157 147.788 128.199 146.817 128.199 145.534V90.4078C128.198 89.7907 127.953 89.1991 127.518 88.7621C127.082 88.3251 126.491 88.0781 125.874 88.0752L43.841 87.7354C42.77 87.7309 41.9037 88.6746 41.9037 89.8431V140.051C41.9037 141.22 42.77 142.224 43.841 142.297Z" fill="url(#paint3_linear_147_786)"/>
<path d="M82.0237 85.8021C82.0237 86.3869 82.4773 86.8629 83.0369 86.8674C83.5965 86.8719 84.0524 86.3947 84.0524 85.8088C84.0524 85.2228 83.5976 84.7468 83.0369 84.7434C82.4762 84.7401 82.0237 85.2161 82.0237 85.8021Z" fill="white"/>
<g style="mix-blend-mode:soft-light" opacity="0.48">
<path d="M62.3172 129.039C69.107 125.385 74.4461 130.015 79.598 125.448C82.7218 122.678 81.1882 120.614 85.0319 116.476C89.2889 111.893 92.0606 113.434 96.3383 109.309C101.748 104.094 99.0426 100.036 103.702 96.2913C109.355 91.7495 115.451 95.9549 120.832 91.5964C123.153 89.7174 124.426 86.9856 125.094 84.0828H130.359C130.578 84.0826 130.796 84.1257 130.998 84.2095C131.201 84.2934 131.385 84.4163 131.541 84.5714C131.696 84.7264 131.819 84.9106 131.903 85.1132C131.987 85.3159 132.031 85.5331 132.031 85.7526V151.02C132.034 151.235 131.992 151.448 131.907 151.646C131.822 151.844 131.697 152.021 131.54 152.168C131.382 152.314 131.196 152.425 130.992 152.495C130.789 152.565 130.573 152.591 130.359 152.572L40.5972 146.2C40.157 146.169 39.7662 145.912 39.5156 145.539C46.0866 145.3 50.1232 143.097 52.7037 140.82C57.7496 136.361 56.8737 131.968 62.3172 129.039Z" fill="white"/>
</g>
<path d="M43.2949 146.025L132.029 152.576L93.3391 159.519C92.8972 159.599 92.4469 159.62 91.9995 159.583L6.10352e-05 151.823L41.8858 146.069C42.3526 146.005 42.8249 145.99 43.2949 146.025Z" fill="#88879B"/>
<path style="mix-blend-mode:multiply" opacity="0.3" d="M119.081 152.741L45.208 147.206L22.3447 150.321L95.5819 156.238L119.081 152.741Z" fill="url(#paint4_linear_147_786)"/>
<path d="M37.959 66.1611L97.2653 64.7537C99.2143 64.7055 100.801 66.3383 100.801 68.3984V82.3844C100.801 84.4473 99.2143 86.1194 97.2653 86.1188L37.9613 85.7902C36.3234 85.7902 35.0001 84.2651 35.0001 82.3844V69.6393C35.0001 67.7586 36.3234 66.2015 37.959 66.1611Z" fill="white"/>
<path d="M47.9 72.4486L94.0903 71.6742V69.3938L47.9 70.2926V72.4486Z" fill="#D8DEE8"/>
<path d="M47.9 76.0416L94.0903 75.4753V73.1948L47.9 73.8856V76.0416Z" fill="#D8DEE8"/>
<path d="M68.1857 79.4777L94.0903 79.2758V76.9954L68.1857 77.2667V79.4777Z" fill="#D8DEE8"/>
<path d="M29.9419 118.691L98.9183 121.596C100.868 121.679 102.455 123.417 102.455 125.48V139.464C102.455 141.526 100.868 143.092 98.9183 142.961L29.9419 138.322C28.3035 138.21 26.9808 136.598 26.9808 134.718V121.973C26.9808 120.093 28.3035 118.624 29.9419 118.691Z" fill="url(#paint5_linear_147_786)"/>
<path d="M49.5531 125.986L95.744 128.304V126.024L49.5531 123.83V125.986Z" fill="white"/>
<path d="M49.5531 129.58L95.744 132.105V129.825L49.5531 127.424V129.58Z" fill="white"/>
<path d="M69.8388 134.373L95.744 135.906V133.625L69.8388 132.162V134.373Z" fill="white"/>
<path d="M18.954 127.565C18.954 135.524 24.527 142.383 31.5141 142.893C38.628 143.412 44.4908 137.173 44.4908 128.95C44.4908 120.726 38.628 113.852 31.5141 113.599C24.5292 113.351 18.954 119.606 18.954 127.565Z" fill="url(#paint6_linear_147_786)"/>
<g style="mix-blend-mode:soft-light">
<path d="M20.3498 127.641C20.3498 134.715 25.3082 140.802 31.5137 141.242C37.819 141.69 43.0084 136.152 43.0084 128.869C43.0084 121.587 37.8218 115.488 31.5137 115.251C25.3082 115.017 20.3498 120.566 20.3498 127.641Z" fill="white"/>
</g>
<path d="M132.612 93.4799L58.0256 92.8368C56.2598 92.8216 54.8345 94.3911 54.8345 96.343V109.573C54.8345 111.524 56.2598 113.154 58.0256 113.214L132.612 115.734C134.727 115.806 136.449 114.121 136.449 111.972V97.4044C136.449 95.2529 134.727 93.4984 132.612 93.4799Z" fill="white"/>
<path d="M108.688 100.233L60.935 99.4354V97.2441L108.688 97.9136V100.233Z" fill="#D8DEE8"/>
<path d="M108.688 104.099L60.935 103.087V100.896L108.688 101.78V104.099Z" fill="#D8DEE8"/>
<path d="M86.3766 107.392L60.9351 106.739V104.548L86.3766 105.133V107.392Z" fill="#D8DEE8"/>
<path d="M147.172 104.517C147.172 113.82 139.676 121.065 130.6 120.707C121.707 120.356 114.628 112.808 114.628 103.841C114.628 94.8746 121.707 87.62 130.6 87.6363C139.676 87.6564 147.172 95.2133 147.172 104.517Z" fill="url(#paint7_linear_147_786)"/>
<g style="mix-blend-mode:soft-light">
<path d="M145.273 104.477C145.273 112.714 138.644 119.143 130.6 118.842C122.701 118.547 116.4 111.849 116.4 103.878C116.4 95.9066 122.701 89.4673 130.6 89.5021C138.644 89.5335 145.273 96.2403 145.273 104.477Z" fill="white"/>
</g>
<path d="M131.826 85.3399C134.854 87.2043 138.541 86.7098 145.788 85.6433C152.788 84.6138 156.288 84.0985 158.13 81.8943C161.455 77.9132 160.512 70.8022 157.834 66.1381C153.946 59.3629 147.998 60.5309 145.33 54.2273C142.938 48.5539 146.878 45.5502 144.424 41.4754C140.899 35.6221 128.586 34.8774 119.987 39.1989C115.845 41.2803 109.086 46.2853 109.818 51.1893C110.474 55.5859 116.978 58.7422 123.934 62.1172C129.682 64.9068 133.095 65.505 134.558 68.9473C135.901 72.1058 134.921 76.0511 133.951 76.2327C133.273 76.36 132.942 74.5865 131.219 73.9562C129.728 73.4101 127.624 73.8799 126.817 75.0216C125.279 77.1916 127.734 82.8206 131.826 85.3399Z" fill="url(#paint8_linear_147_786)"/>
<path d="M117.743 65.657C117.743 65.657 107.597 70.0816 109.303 81.3997C111.015 92.7627 126.314 89.2532 126.314 89.2532L127.229 81.3061C127.229 81.3061 115.528 81.8668 116.985 74.5062C118.577 66.4655 119.939 66.3489 119.939 66.3489L117.743 65.657Z" fill="url(#paint9_linear_147_786)"/>
<path d="M131.515 158.031C131.515 158.031 131.646 159.104 131.558 159.452C131.47 159.8 128.442 159.802 127.419 159.594C126.396 159.385 128.028 158.456 128.681 158.31C129.333 158.163 131.515 158.031 131.515 158.031Z" fill="url(#paint10_linear_147_786)"/>
<path d="M129.991 156.14L130.31 158.291C130.31 158.291 131.125 158.731 131.517 158.395L131.561 156.17L129.991 156.14Z" fill="#D99C71"/>
<path d="M147.396 157.431C147.396 157.431 146.729 157.871 146.906 158.477C147.084 159.084 148.645 161.587 149.76 162.356C150.876 163.126 150.528 161.689 150.202 160.786C149.877 159.884 149.047 157.886 148.724 157.537C148.4 157.188 147.396 157.431 147.396 157.431Z" fill="url(#paint11_linear_147_786)"/>
<path d="M146.196 154.957C146.518 155.879 146.828 156.639 147.071 157.204C147.608 158.452 147.903 158.928 148.236 159.347C148.526 159.712 149.216 160.499 149.401 160.393C149.586 160.287 149.085 159.356 148.111 156.682C147.97 156.294 147.526 155.06 147.526 155.06L146.196 154.957Z" fill="#D99C71"/>
<path d="M123.695 116.696C123.373 119.934 123.335 123.194 123.58 126.438C123.989 131.852 125.043 135.325 126.369 141.167C127.182 144.747 128.279 150.019 129.274 156.602C129.505 156.755 130.186 157.162 131.065 157.103C131.445 157.077 131.814 156.964 132.144 156.773C134.782 148.802 134.001 143.682 132.728 140.447C132.187 139.071 131.531 137.973 131.181 135.891C130.718 133.139 131.29 131.644 132.108 125.364C132.691 120.878 132.591 120.178 132.202 119.487C130.653 116.728 125.949 116.616 123.695 116.696Z" fill="url(#paint12_linear_147_786)"/>
<path d="M132.67 117.962C134.287 126.485 135.879 131.014 137.088 133.599C137.961 135.427 138.71 137.312 139.331 139.241C140.172 141.847 140.519 143.751 140.699 144.59C141.266 147.243 142.67 151.165 146.47 156.478C146.517 156.509 147.168 156.926 147.792 156.649C148.022 156.543 148.211 156.363 148.328 156.137C147.827 151.274 147.253 147.18 146.758 144.022C146.653 143.36 146.194 140.465 145.475 136.638C145.194 135.142 144.782 132.952 144.289 130.7C143.673 127.903 142.735 124.096 141.294 119.532L132.67 117.962Z" fill="url(#paint13_linear_147_786)"/>
<path style="mix-blend-mode:multiply" opacity="0.3" d="M132.728 140.447C132.187 139.071 131.531 137.973 131.181 135.891C130.718 133.139 131.29 131.643 132.108 125.363C132.691 120.878 132.59 120.178 132.202 119.487C131.361 117.987 129.58 117.272 127.772 116.943C127.796 117.038 127.82 117.134 127.84 117.223C128.789 121.673 125.18 124.21 126.804 129.125C127.607 131.554 128.891 132.169 129.191 134.963C129.471 137.581 128.454 138.063 128.671 140.439C128.996 143.993 131.469 145.014 132.114 147.774C132.534 149.568 132.18 152.124 129.124 155.618C129.175 155.943 129.225 156.269 129.276 156.6C129.507 156.753 130.187 157.161 131.066 157.101C131.446 157.075 131.815 156.962 132.145 156.772C134.782 148.801 134.001 143.682 132.728 140.447Z" fill="url(#paint14_linear_147_786)"/>
<path d="M120.407 83.9263C120.642 83.5506 121.389 82.5077 124.577 81.726C126.183 81.3335 129.169 80.6523 133.04 81.4647C138.414 82.5918 141.794 85.8602 143.073 87.2402C142.025 87.922 139.148 89.9944 137.729 93.9256C137.289 95.1463 135.991 99.313 137.848 103.265C138.923 105.549 140.829 107.295 142.283 108.625C144.469 110.629 145.609 110.96 146.347 112.73C147.152 114.66 146.341 115.563 147.341 116.901C148.418 118.342 149.682 117.734 151.518 119.223C153.407 120.754 152.734 121.931 154.457 123.617C156.972 126.078 160.328 125.458 160.484 126.529C160.619 127.451 158.23 128.581 156.21 128.988C152.237 129.788 148.799 127.967 147.782 127.411C144.978 125.877 145.46 124.988 143.332 123.827C139.79 121.894 137.385 123.775 129.465 123.639C125.233 123.567 123.11 123.5 121.951 121.999C120.895 120.63 121.45 119.199 122.084 112.956C122.288 110.869 122.716 106.495 122.718 103.996C122.718 102.519 122.221 100.097 121.224 95.2618C121.168 94.977 120.627 92.3702 120.192 88.8932C119.801 85.7627 119.857 84.8022 120.407 83.9263Z" fill="url(#paint15_linear_147_786)"/>
<g style="mix-blend-mode:multiply" opacity="0.3">
<path style="mix-blend-mode:multiply" opacity="0.3" d="M154.457 123.615C152.734 121.929 153.407 120.753 151.518 119.221C149.682 117.732 148.418 118.34 147.341 116.899C146.341 115.561 147.152 114.657 146.347 112.728C145.609 110.959 144.472 110.628 142.283 108.624C140.829 107.293 138.923 105.548 137.848 103.263C135.99 99.3113 137.288 95.1446 137.729 93.924C139.148 89.9927 142.025 87.9203 143.073 87.2385C142.972 87.1263 142.852 87.0052 142.725 86.874C135.875 87.8104 131.929 91.7523 131.443 92.9191C130.322 95.6106 132.098 96.6232 132.144 104.426C132.166 108.156 131.77 109.618 132.962 111.211C134.331 113.034 135.913 112.53 137.907 114.932C139.445 116.783 139.196 117.92 140.638 118.732C142.192 119.609 143.184 118.69 144.947 119.132C147.907 119.873 148.543 123.313 150.513 125.269C152.009 126.753 154.788 127.874 160.318 127.056C160.447 126.877 160.509 126.7 160.486 126.53C160.327 125.457 156.971 126.076 154.457 123.615Z" fill="url(#paint16_linear_147_786)"/>
</g>
<path d="M130.853 77.2505C130.853 77.2505 131.19 80.0019 132.195 80.6277C133.199 81.2535 134.83 82.0732 135.007 82.297C135.184 82.5207 128.797 83.2395 125.663 81.6387C126.693 81.4144 126.974 81.332 126.974 81.332C127.255 81.2495 127.777 81.0965 128.302 80.7886C128.887 80.4398 129.388 79.9654 129.767 79.3997L129.756 77.8768L130.853 77.2505Z" fill="#E8BEA0"/>
<path d="M131.006 78.2243C131.006 78.2243 130.354 79.1394 129.333 78.7687C128.422 78.4374 128.966 76.0347 129.69 75.7526C129.931 75.659 130.375 75.6966 130.672 75.8793C130.882 76.0094 131.441 76.7087 131.121 77.5021C131.353 77.432 131.557 77.492 131.608 77.608C131.673 77.755 131.477 77.9579 131.432 78.0039C131.317 78.1205 131.167 78.1977 131.006 78.2243Z" fill="#E8BEA0"/>
<path d="M119.343 66.0838L119.796 64.6663C119.811 64.6247 119.812 64.5795 119.799 64.5373C119.786 64.4951 119.759 64.4584 119.723 64.4326C119.687 64.4068 119.644 64.3933 119.6 64.3943C119.556 64.3953 119.513 64.4107 119.479 64.438C119.086 64.7554 119.218 65.5068 117.558 62.5669C116.895 61.3928 117.294 64.0736 117.663 64.8272C117.914 65.3391 117.894 65.6122 118.116 65.7748C118.478 66.0428 118.94 66.3047 119.343 66.0838Z" fill="#E8BEA0"/>
<path d="M135.728 95.3892C135.055 96.8275 138.158 100.244 141.633 101.911C142.344 102.252 147.485 104.718 149.796 102.48C151.714 100.622 150.476 96.6923 150.034 95.2922C147.872 88.4363 141.298 84.9666 138.572 83.7285C136.547 88.8311 137.738 91.1104 138.208 91.8242C138.699 92.5699 140.073 94.1433 141.536 95.5356C142.568 96.518 143.212 96.9985 143.126 97.1493C143.018 97.336 141.807 96.9649 137.135 94.6261C136.596 94.7068 135.959 94.898 135.728 95.3892Z" fill="url(#paint17_linear_147_786)"/>
<path d="M124.415 86.9212L132.482 87.7062C132.566 87.7148 132.646 87.7484 132.71 87.8029C132.775 87.8573 132.821 87.9299 132.844 88.0112L135.895 98.8213C135.915 98.8868 135.918 98.9559 135.904 99.0228C135.891 99.0896 135.861 99.1521 135.817 99.2046C135.774 99.2572 135.718 99.2983 135.655 99.3242C135.592 99.3502 135.523 99.3602 135.455 99.3535L127.269 98.4989C127.185 98.4893 127.105 98.4545 127.041 98.3991C126.977 98.3437 126.931 98.2702 126.909 98.1883L123.985 87.4511C123.966 87.3867 123.963 87.3186 123.976 87.2528C123.989 87.1869 124.018 87.1253 124.061 87.0732C124.103 87.021 124.157 86.98 124.219 86.9535C124.281 86.927 124.348 86.9159 124.415 86.9212Z" fill="#343439"/>
<path style="mix-blend-mode:multiply" opacity="0.3" d="M129.768 96.2061C129.463 94.5071 130.404 93.2006 129.502 91.6037C128.576 89.9647 126.957 90.2322 125.796 88.8853C125.427 88.4575 125.097 87.8525 124.935 86.9705L124.415 86.92C124.348 86.9147 124.281 86.9256 124.219 86.9519C124.157 86.9782 124.103 87.0191 124.061 87.071C124.018 87.123 123.989 87.1844 123.976 87.2501C123.962 87.3158 123.965 87.3838 123.984 87.4482L126.908 98.1854C126.93 98.2674 126.976 98.3408 127.04 98.3962C127.104 98.4517 127.183 98.4864 127.268 98.4961L131.406 98.9278C130.349 97.9505 129.914 97.018 129.768 96.2061Z" fill="url(#paint18_linear_147_786)"/>
<path d="M136.898 95.0634C136.898 95.0634 134.074 92.1191 132.93 91.6806C131.787 91.2421 132.8 94.3204 133.469 94.76C134.139 95.1996 134.402 95.369 134.927 95.4408L135.452 95.5131L136.142 95.8921C136.142 95.8921 137.032 95.7962 136.898 95.0634Z" fill="#E8BEA0"/>
<path d="M56.6134 100.502C56.6134 100.502 55.0367 98.3547 55.1993 97.8215C55.3619 97.2882 57.704 96.6361 58.2502 95.504C58.7963 94.3719 59.0161 95.6268 58.2502 96.7001L57.4853 97.7716L56.5585 98.2706L57.5947 99.6511L56.6134 100.502Z" fill="#E8BEA0"/>
<path d="M55.5459 100.28C56.3197 99.4191 57.0649 99.0788 57.7467 99.0362C60.7813 98.8472 64.4585 104.442 64.7109 109.569C64.7288 109.937 64.9385 115.667 60.7326 119.161C54.6678 124.201 43.8095 120.956 41.9961 116.34C41.4006 114.826 41.5672 112.643 41.5963 112.262C41.7323 110.457 42.2935 108.71 43.2342 107.163C47.891 108.768 53.7236 109.855 55.5201 107.504C56.863 105.743 57.4215 103.12 55.5459 100.28Z" fill="url(#paint19_linear_147_786)"/>
<path d="M18.1206 106.565C21.8264 105.508 27.5294 104.439 34.5496 105.258C38.1422 105.684 41.6711 106.536 45.062 107.797C45.6124 110.046 45.935 112.345 46.0248 114.659C46.5109 127.372 39.7178 137.627 40.2224 137.873C40.5936 138.055 43.1382 131.936 44.328 132.271C45.708 132.66 45.468 141.712 41.8569 143.505C40.8005 144.03 40.445 143.918 35.2096 142.753C31.7331 141.98 30.2753 141.747 28.5096 142.168C26.117 142.738 24.9911 143.224 24.0345 142.645C23.1188 142.091 23.0504 140.37 23.0252 137.38C22.9854 132.768 23.0869 129.647 23.1031 128.528C23.1788 123.39 22.0764 119.362 20.669 114.218C19.9591 111.623 19.1083 109.068 18.1206 106.565Z" fill="#F95C3A"/>
<path d="M34.2295 100.07C34.1592 101.087 33.9902 102.096 33.7249 103.081C33.5107 103.872 33.3884 104.067 33.2348 104.219C33.0105 104.448 32.6774 104.622 30.8764 104.855C29.8991 104.982 29.7768 104.959 29.7477 105.057C29.6058 105.532 32.0848 107.545 34.8329 107.501C36.524 107.474 38.131 106.671 38.0794 106.132C38.0278 105.593 36.33 105.657 35.9089 104.635C35.6162 103.925 36.0804 103.029 36.603 102.303C36.2318 101.373 34.6035 100.998 34.2295 100.07Z" fill="#E8BEA0"/>
<path d="M37.576 101.37C38.1194 100.992 38.4317 100.091 38.1788 99.3512C37.9612 98.7137 37.3938 98.4199 37.0574 98.2438C36.0767 97.7352 34.6535 97.6921 33.9011 98.4978C33.4553 98.9744 33.6465 100.391 33.6678 100.64C33.6919 100.921 33.8484 101.077 33.9599 101.326C34.1141 101.672 34.3524 102.219 34.7399 103.13C34.8736 102.907 35.0269 102.696 35.198 102.501C35.4177 102.249 35.67 102.027 35.9482 101.842C36.6912 101.369 37.0613 101.726 37.576 101.37Z" fill="#343439"/>
<path d="M34.0614 102.226C34.0614 102.226 34.3675 103.623 35.7256 104.047C36.9457 104.427 38.0066 101.706 37.4291 100.821C37.2367 100.526 36.7523 100.249 36.2998 100.212C36.0323 100.191 35.9157 100.265 35.48 100.22C35.0785 100.179 34.9877 100.096 34.8453 100.151C34.667 100.22 34.4696 100.482 34.4455 101.385C34.2946 101.059 34.053 100.862 33.8287 100.883C33.7509 100.896 33.6784 100.93 33.6201 100.983C33.3538 101.236 33.5007 101.748 34.0614 102.226Z" fill="#E8BEA0"/>
<path d="M34.8464 99.963C34.8896 100.03 34.6434 100.187 34.5307 100.497C34.3115 101.1 34.6737 102.067 35.2596 102.361C35.6073 102.536 35.7777 102.348 36.394 102.511C36.6974 102.593 36.9856 102.724 37.2474 102.898C37.221 103.644 36.8313 104.247 36.2998 104.392C35.7278 104.546 35.1985 104.111 34.977 103.933C34.829 103.812 34.3552 103.428 34.2386 102.811C34.1169 102.171 34.501 101.961 34.2829 101.476C34.1707 101.231 33.9778 101.069 33.8747 100.635C33.8526 100.543 33.8371 100.449 33.8281 100.355C34.2414 100.136 34.7813 99.8682 34.8464 99.963Z" fill="#343439"/>
<path d="M36.7331 102.981C36.7331 102.981 36.4309 103.022 35.9935 102.825C35.9722 102.815 35.9464 102.813 35.9374 102.825C35.9133 102.865 36.1365 103.172 36.4247 103.197C36.6288 103.214 36.8329 103.084 36.8228 103.028C36.8206 103.004 36.7774 102.991 36.7331 102.981Z" fill="url(#paint20_linear_147_786)"/>
<path style="mix-blend-mode:multiply" opacity="0.3" d="M39.8811 140.549C37.3276 139.098 37.4139 136.711 35.0393 135.452C31.6749 133.667 27.8486 136.535 27.2957 135.564C26.721 134.555 31.2527 132.137 30.7419 129.212C30.3365 126.89 27.2217 126.983 25.6595 123.723C24.1826 120.639 25.7762 118.066 24.422 116.924C23.9376 116.515 23.0696 116.294 21.3992 116.924C22.4365 120.861 23.1638 124.325 23.1021 128.526C23.0858 129.648 22.9843 132.767 23.0242 137.379C23.05 140.369 23.1184 142.089 24.0335 142.644C24.99 143.223 26.116 142.737 28.5086 142.167C30.2748 141.746 31.7383 141.27 35.2125 142.043C40.448 143.203 40.7995 144.029 41.8565 143.504C42.5462 143.161 42.8871 142.564 43.1394 141.369C42.0712 141.369 40.9476 141.154 39.8811 140.549Z" fill="url(#paint21_linear_147_786)"/>
<path d="M20.8845 128.306L22.1052 128.358C22.1052 128.358 23.4789 127.297 24.0879 127.433C24.6968 127.569 25.6018 128.116 25.7106 128.222C25.8194 128.328 25.3568 128.815 24.911 128.717C24.4652 128.62 23.4627 128.773 23.2732 129.175C23.0836 129.577 22.3059 129.748 22.182 129.489L20.5346 129.667L20.8845 128.306Z" fill="#E8BEA0"/>
<path d="M21.2634 127.887C21.3195 128.964 21.0795 129.667 20.7027 130.127C19.0351 132.159 13.6556 130.687 10.5599 127.435C8.28334 125.043 7.14563 121.582 7.27628 118.594C7.53085 112.763 12.7012 107.425 20.3237 106.003C21.3509 109.713 22.3806 113.432 23.4127 117.161C18.6948 116.821 16.6582 120.252 17.0014 122.993C17.256 125.037 18.4772 127.158 21.2634 127.887Z" fill="#F95C3A"/>
<path d="M43.6358 20.1166L75.1954 18.1821C77.5123 18.0627 79.4008 19.8743 79.4008 22.2294V51.712C79.4008 54.067 77.5134 55.9936 75.1954 56.0155L73.4392 56.0318V63.292C73.4392 64.3798 72.1495 64.9108 71.0842 63.7075L64.4828 56.1147L43.6358 56.1781C41.6857 56.1966 40.1117 54.4713 40.1117 52.3248V24.1852C40.1117 22.0387 41.6873 20.2181 43.6358 20.1166Z" fill="#C93329"/>
<path d="M42.6348 55.4116L74.1949 55.2473C76.5118 55.2254 78.4003 53.2982 78.4003 50.9432V21.4623C78.4003 19.1073 76.5129 17.2956 74.1949 17.415L42.6348 19.3484C40.6852 19.4487 39.1112 21.2699 39.1112 23.4164V51.5583C39.1112 53.7036 40.6852 55.4295 42.6348 55.4116Z" fill="#F95C3A"/>
<path d="M77.1982 51.7367V20.7407C77.1982 19.4875 76.194 18.5219 74.9587 18.5841L41.9884 20.4906C40.9494 20.5427 40.1095 21.5133 40.1095 22.6583V52.2537C40.1095 53.3986 40.9505 54.3182 41.9884 54.307L74.9559 54.0306C76.194 54.0171 77.1982 52.9904 77.1982 51.7367Z" fill="#FF9559"/>
<path d="M72.439 63.5239V54.7705L62.2081 54.8827L70.4092 64.3089C71.1168 65.1219 72.439 64.6123 72.439 63.5239Z" fill="#F95C3A"/>
<path d="M64.0337 36.8091C64.0337 38.1245 65.1405 39.1641 66.5104 39.1355C67.8802 39.1069 69.005 38.0062 69.005 36.6818C69.005 35.3574 67.8836 34.3155 66.5104 34.3554C65.1372 34.3952 64.0337 35.4931 64.0337 36.8091Z" fill="white"/>
<path d="M55.6908 37.0223C55.6908 38.3226 56.7718 39.3526 58.1103 39.3212C59.4487 39.2898 60.546 38.206 60.546 36.8972C60.546 35.5885 59.4537 34.5585 58.1103 34.5983C56.7668 34.6381 55.6908 35.722 55.6908 37.0223Z" fill="white"/>
<path d="M47.5405 37.2309C47.5405 38.5161 48.5969 39.5343 49.9045 39.5052C51.2121 39.476 52.2848 38.4034 52.2848 37.1092C52.2848 35.8151 51.2194 34.7974 49.9051 34.8355C48.5908 34.8736 47.5405 35.9457 47.5405 37.2309Z" fill="white"/>
<defs>
<linearGradient id="paint0_linear_147_786" x1="-3.00862" y1="146.562" x2="170.57" y2="25.707" gradientUnits="userSpaceOnUse">
<stop stop-color="#F5F4F8"/>
<stop offset="1" stop-color="#E1E1E7"/>
</linearGradient>
<linearGradient id="paint1_linear_147_786" x1="113.349" y1="39.2802" x2="106.849" y2="91.029" gradientUnits="userSpaceOnUse">
<stop stop-color="#74C733"/>
<stop offset="1" stop-color="#57A41B"/>
</linearGradient>
<linearGradient id="paint2_linear_147_786" x1="-91520.6" y1="138122" x2="-76681.6" y2="146614" gradientUnits="userSpaceOnUse">
<stop stop-color="#40447E"/>
<stop offset="1" stop-color="#3C3B6B"/>
</linearGradient>
<linearGradient id="paint3_linear_147_786" x1="73.1021" y1="95.7004" x2="144.592" y2="212.571" gradientUnits="userSpaceOnUse">
<stop stop-color="#E1E1E7"/>
<stop offset="1" stop-color="#595866"/>
</linearGradient>
<linearGradient id="paint4_linear_147_786" x1="-73519.6" y1="24585.2" x2="-240411" y2="24585.2" gradientUnits="userSpaceOnUse">
<stop stop-color="#595866"/>
<stop offset="1" stop-color="#151516"/>
</linearGradient>
<linearGradient id="paint5_linear_147_786" x1="102.455" y1="130.83" x2="26.9808" y2="130.83" gradientUnits="userSpaceOnUse">
<stop stop-color="#98DD62"/>
<stop offset="1" stop-color="#74C733"/>
</linearGradient>
<linearGradient id="paint6_linear_147_786" x1="-45156" y1="65656.9" x2="-56785.9" y2="65656.9" gradientUnits="userSpaceOnUse">
<stop stop-color="#98DD62"/>
<stop offset="1" stop-color="#74C733"/>
</linearGradient>
<linearGradient id="paint7_linear_147_786" x1="-39404.4" y1="59809.5" x2="-20515.1" y2="59809.5" gradientUnits="userSpaceOnUse">
<stop stop-color="#FF9559"/>
<stop offset="1" stop-color="#F95C3A"/>
</linearGradient>
<linearGradient id="paint8_linear_147_786" x1="135.257" y1="40.1701" x2="134.953" y2="68.0978" gradientUnits="userSpaceOnUse">
<stop stop-color="#595866"/>
<stop offset="1" stop-color="#151516"/>
</linearGradient>
<linearGradient id="paint9_linear_147_786" x1="-10474.7" y1="35192.8" x2="-12763.6" y2="41433.6" gradientUnits="userSpaceOnUse">
<stop stop-color="#98DD62"/>
<stop offset="1" stop-color="#57A41B"/>
</linearGradient>
<linearGradient id="paint10_linear_147_786" x1="-1544.03" y1="4679.85" x2="-1532.77" y2="5215" gradientUnits="userSpaceOnUse">
<stop stop-color="#444B8C"/>
<stop offset="1" stop-color="#26264F"/>
</linearGradient>
<linearGradient id="paint11_linear_147_786" x1="12.5663" y1="13968.2" x2="162.613" y2="15851.8" gradientUnits="userSpaceOnUse">
<stop stop-color="#444B8C"/>
<stop offset="1" stop-color="#26264F"/>
</linearGradient>
<linearGradient id="paint12_linear_147_786" x1="-4978.89" y1="101604" x2="24.8636" y2="99862.8" gradientUnits="userSpaceOnUse">
<stop stop-color="#595866"/>
<stop offset="1" stop-color="#343439"/>
</linearGradient>
<linearGradient id="paint13_linear_147_786" x1="-5410.96" y1="99466.2" x2="6393.81" y2="95021.4" gradientUnits="userSpaceOnUse">
<stop stop-color="#595866"/>
<stop offset="1" stop-color="#343439"/>
</linearGradient>
<linearGradient id="paint14_linear_147_786" x1="-3345.7" y1="101671" x2="442.255" y2="100718" gradientUnits="userSpaceOnUse">
<stop stop-color="#444B8C"/>
<stop offset="1" stop-color="#26264F"/>
</linearGradient>
<linearGradient id="paint15_linear_147_786" x1="-17310.1" y1="80059.5" x2="4263.22" y2="103929" gradientUnits="userSpaceOnUse">
<stop stop-color="#98DD62"/>
<stop offset="1" stop-color="#57A41B"/>
</linearGradient>
<linearGradient id="paint16_linear_147_786" x1="-5074.2" y1="56337.2" x2="1094.89" y2="83770.8" gradientUnits="userSpaceOnUse">
<stop stop-color="#FF9085"/>
<stop offset="1" stop-color="#FB6FBB"/>
</linearGradient>
<linearGradient id="paint17_linear_147_786" x1="-3807" y1="31886.2" x2="313.657" y2="31886.2" gradientUnits="userSpaceOnUse">
<stop stop-color="#57A41B"/>
<stop offset="1" stop-color="#74C733"/>
</linearGradient>
<linearGradient id="paint18_linear_147_786" x1="-3157.47" y1="24105.2" x2="-2757.8" y2="21932.9" gradientUnits="userSpaceOnUse">
<stop stop-color="#AA80F9"/>
<stop offset="1" stop-color="#6165D7"/>
</linearGradient>
<linearGradient id="paint19_linear_147_786" x1="-43770.5" y1="-39029.4" x2="-61210.5" y2="-32678.2" gradientUnits="userSpaceOnUse">
<stop stop-color="#F95C3A"/>
<stop offset="1" stop-color="#C93329"/>
</linearGradient>
<linearGradient id="paint20_linear_147_786" x1="37.0256" y1="104.359" x2="36.4272" y2="105.675" gradientUnits="userSpaceOnUse">
<stop stop-color="#FFC444"/>
<stop offset="1" stop-color="#F36F56"/>
</linearGradient>
<linearGradient id="paint21_linear_147_786" x1="-157597" y1="64644.6" x2="-146363" y2="45700.1" gradientUnits="userSpaceOnUse">
<stop stop-color="#FF9085"/>
<stop offset="1" stop-color="#FB6FBB"/>
</linearGradient>
</defs>
</svg>
