<svg width="233" height="233" viewBox="0 0 233 233" fill="none" xmlns="http://www.w3.org/2000/svg">
<path d="M225.184 90.0753C222.667 59.0382 221.408 43.5205 215.547 33.4794C198.771 4.73526 150.003 -2.1064 119.2 0.51561C77.9623 4.02409 30.7868 27.7302 10.0209 73.5016C-8.83998 115.074 -0.143129 162.132 28.2761 192.912C80.3725 249.344 187.838 239.271 214.089 202.241C224.566 187.464 225.321 163.858 226.43 129.189C226.964 112.499 225.923 99.1976 225.184 90.0753Z" fill="url(#paint0_linear_147_944)"/>
<path d="M205.422 18.9884C202.756 16.7826 198.712 15.5821 195.294 15.3395C171.06 13.6223 167.524 64.2738 171.237 75.5977C174.951 86.9215 172.545 90.6352 153.458 96.558C134.371 102.481 143.528 113.884 145.856 120.553C148.183 127.222 152.789 132.856 138.877 139.482C124.965 146.109 129.798 150.214 129.798 150.214C129.798 150.214 155.457 176.46 154.04 168.057C152.622 159.654 155.19 146.966 178.195 146.002C188.104 145.587 203.278 140.86 206.638 130.25C207.421 127.78 207.967 124.006 207.37 121.449C206.544 117.901 204.213 115.106 202.923 111.768C199.91 103.987 207.466 98.2894 211.812 93.0886C214.082 90.3735 216.352 87.5895 218.09 84.4939C221.7 78.0668 220.349 71.1745 216.418 65.25C214.533 62.4095 211.914 59.3953 211.092 56.0073C210.209 52.3668 210.978 47.3936 211.188 43.6491C211.354 40.7122 211.633 37.787 211.467 34.8426C211.162 29.3668 209.88 22.6805 205.422 18.9884Z" fill="url(#paint1_linear_147_944)"/>
<g style="mix-blend-mode:soft-light" opacity="0.8">
<g style="mix-blend-mode:soft-light" opacity="0.8">
<path d="M127.78 164.945C127.694 164.977 127.599 164.975 127.515 164.939C127.431 164.903 127.363 164.837 127.327 164.753C127.29 164.669 127.286 164.575 127.317 164.489C127.348 164.402 127.411 164.331 127.492 164.29C127.6 164.233 138.402 158.552 150.452 149.193C161.556 140.57 176.021 126.974 181.877 111.168C186.769 97.9669 191.231 76.1442 194.117 51.2949C196.706 29.0119 197.114 12.5321 196.014 9.4731C195.998 9.42875 195.99 9.38158 195.992 9.33433C195.994 9.28708 196.006 9.24067 196.025 9.19779C196.045 9.15491 196.074 9.1164 196.109 9.0845C196.143 9.05259 196.184 9.02791 196.229 9.01189C196.273 8.99587 196.321 8.98883 196.368 8.99116C196.415 8.99349 196.461 9.00515 196.504 9.02548C196.547 9.0458 196.585 9.07439 196.617 9.10958C196.648 9.14477 196.672 9.18586 196.688 9.2305C197.975 12.8088 197.158 31.3224 194.829 51.3771C191.936 76.2813 187.46 98.1646 182.549 111.417C176.633 127.385 162.063 141.086 150.882 149.767C138.783 159.162 127.932 164.868 127.824 164.925C127.81 164.932 127.795 164.939 127.78 164.945Z" fill="white"/>
</g>
<g style="mix-blend-mode:soft-light" opacity="0.8">
<path d="M194.078 55.6141C193.892 55.6806 193.703 55.6291 193.636 55.4438C193.545 55.1987 184.512 30.8936 172.861 25.4061C172.819 25.3871 172.782 25.3597 172.75 25.3258C172.719 25.2918 172.695 25.2519 172.679 25.2084C172.664 25.1649 172.657 25.1187 172.66 25.0726C172.663 25.0265 172.675 24.9814 172.695 24.9401C172.737 24.8547 172.81 24.7893 172.9 24.7581C172.99 24.727 173.088 24.7327 173.174 24.7739C185.09 30.3868 193.936 54.1843 194.308 55.1946C194.376 55.3798 194.266 55.5468 194.08 55.61L194.078 55.6141Z" fill="white"/>
</g>
<g style="mix-blend-mode:soft-light" opacity="0.8">
<path d="M189.672 83.8008C189.592 83.8298 189.505 83.8297 189.426 83.8006C189.346 83.7714 189.28 83.715 189.238 83.6414C189.196 83.5678 189.182 83.4817 189.197 83.3985C189.213 83.3153 189.257 83.2403 189.323 83.1869C189.389 83.132 196.04 77.6761 204.247 73.0976C215.336 66.9114 223.834 65.1842 229.504 67.9649C229.546 67.9856 229.584 68.0145 229.615 68.0498C229.646 68.0851 229.67 68.1262 229.685 68.1707C229.7 68.2152 229.706 68.2623 229.703 68.3092C229.7 68.3561 229.688 68.402 229.668 68.4443C229.647 68.4865 229.618 68.5242 229.583 68.5553C229.547 68.5864 229.506 68.6102 229.462 68.6254C229.417 68.6406 229.37 68.6469 229.323 68.6439C229.276 68.6409 229.23 68.6287 229.188 68.6079C216.145 62.2108 190.039 83.5242 189.777 83.7402C189.745 83.7662 189.71 83.7867 189.672 83.8008Z" fill="white"/>
</g>
<g style="mix-blend-mode:soft-light" opacity="0.8">
<path d="M160.713 141.415C160.676 141.428 160.637 141.435 160.598 141.435C160.551 141.436 160.504 141.428 160.46 141.41C160.417 141.393 160.377 141.367 160.343 141.335C160.309 141.302 160.282 141.263 160.264 141.22C160.245 141.177 160.235 141.13 160.234 141.083C160.234 140.978 160.048 130.55 157.865 119.565C155.864 109.491 151.732 96.8719 143.409 93.9641C143.363 93.9499 143.321 93.9265 143.284 93.8954C143.247 93.8643 143.217 93.826 143.195 93.7829C143.173 93.7399 143.16 93.6928 143.157 93.6447C143.154 93.5965 143.16 93.5482 143.176 93.5026C143.192 93.4571 143.217 93.4152 143.25 93.3795C143.282 93.3438 143.322 93.3151 143.365 93.2949C143.409 93.2748 143.457 93.2637 143.505 93.2623C143.553 93.261 143.601 93.2694 143.646 93.287C150.585 95.7121 155.606 104.509 158.569 119.435C160.763 130.485 160.949 140.969 160.95 141.074C160.951 141.148 160.928 141.221 160.886 141.282C160.844 141.343 160.783 141.389 160.713 141.415Z" fill="white"/>
</g>
<g style="mix-blend-mode:soft-light" opacity="0.8">
<path d="M175.521 124.567C175.44 124.595 175.352 124.593 175.273 124.562C175.193 124.531 175.127 124.472 175.087 124.397C175.047 124.321 175.035 124.234 175.054 124.151C175.072 124.067 175.12 123.993 175.188 123.942C176.342 123.089 203.562 103.076 214.177 104.988C214.271 105.005 214.354 105.058 214.408 105.136C214.462 105.214 214.484 105.31 214.467 105.404C214.45 105.497 214.397 105.58 214.319 105.635C214.241 105.689 214.145 105.71 214.051 105.693C203.736 103.837 175.894 124.311 175.614 124.518C175.586 124.539 175.554 124.556 175.521 124.567Z" fill="white"/>
</g>
</g>
<path d="M226.692 93.5969C224.93 90.6193 221.53 88.1203 218.395 86.7353C196.172 76.9194 175.704 123.39 175.368 135.299C175.033 147.209 171.511 149.892 151.547 149.007C131.582 148.123 136.343 161.952 136.272 169.015C136.202 176.077 138.633 182.937 123.298 184.468C107.963 185.998 111.121 191.492 111.121 191.492C111.121 191.492 126.386 224.872 127.895 216.485C129.405 208.098 136.115 197.027 158.089 203.904C167.554 206.867 183.429 207.553 190.184 198.706C191.757 196.646 193.545 193.279 193.851 190.671C194.274 187.054 193.029 183.636 192.942 180.057C192.739 171.716 201.778 168.911 207.63 165.489C210.685 163.702 213.762 161.85 216.446 159.525C222.017 154.698 223.078 147.755 221.384 140.851C220.571 137.54 219.127 133.817 219.5 130.351C219.9 126.626 222.307 122.209 223.772 118.754C224.921 116.047 226.173 113.388 227.012 110.562C228.581 105.305 229.639 98.5751 226.692 93.5969Z" fill="url(#paint2_linear_147_944)"/>
<g style="mix-blend-mode:soft-light" opacity="0.8">
<g style="mix-blend-mode:soft-light" opacity="0.8">
<path d="M104.241 204.671C104.15 204.67 104.063 204.636 103.996 204.574C103.93 204.512 103.89 204.427 103.884 204.337C103.878 204.246 103.906 204.157 103.963 204.086C104.021 204.016 104.103 203.97 104.192 203.958C104.313 203.941 116.4 202.25 130.907 197.521C144.27 193.161 162.485 185.264 173.349 172.372C182.418 161.605 194.001 142.579 205.126 120.172C215.101 100.08 221.062 84.7101 221.062 81.4566C221.067 81.3645 221.106 81.2777 221.173 81.2141C221.24 81.1505 221.329 81.115 221.421 81.115C221.513 81.115 221.602 81.1505 221.668 81.2141C221.735 81.2777 221.775 81.3645 221.779 81.4566C221.779 85.26 214.746 102.405 205.767 120.489C194.619 142.944 183.003 162.022 173.897 172.829C162.926 185.853 144.579 193.815 131.12 198.201C116.556 202.947 104.415 204.646 104.295 204.662C104.277 204.666 104.259 204.669 104.241 204.671Z" fill="white"/>
</g>
<g style="mix-blend-mode:soft-light" opacity="0.8">
<path d="M203.623 124.297C203.577 124.298 203.53 124.29 203.487 124.273C203.444 124.256 203.405 124.231 203.371 124.199C203.338 124.166 203.311 124.128 203.293 124.085C203.274 124.043 203.265 123.997 203.264 123.951C203.264 123.69 202.987 97.743 193.88 88.6416C193.846 88.6085 193.819 88.569 193.8 88.5254C193.782 88.4817 193.772 88.4348 193.771 88.3873C193.771 88.3398 193.78 88.2927 193.798 88.2488C193.817 88.2049 193.843 88.1651 193.877 88.1316C193.911 88.0982 193.951 88.0718 193.995 88.0539C194.039 88.0361 194.086 88.0273 194.133 88.0279C194.181 88.0285 194.228 88.0385 194.271 88.0575C194.315 88.0764 194.354 88.1038 194.387 88.1381C203.701 97.4523 203.974 122.872 203.981 123.95C203.981 123.997 203.972 124.043 203.954 124.086C203.936 124.129 203.91 124.168 203.877 124.201C203.844 124.233 203.804 124.259 203.761 124.276C203.718 124.294 203.671 124.302 203.625 124.301L203.623 124.297Z" fill="white"/>
</g>
<g style="mix-blend-mode:soft-light" opacity="0.8">
<path d="M189.94 149.257C189.855 149.257 189.774 149.227 189.709 149.172C189.645 149.118 189.602 149.043 189.587 148.96C189.573 148.876 189.588 148.791 189.63 148.718C189.673 148.645 189.739 148.589 189.818 148.561C189.901 148.532 198.005 145.648 207.277 144.117C219.805 142.047 228.386 143.298 232.782 147.834C232.849 147.902 232.885 147.994 232.883 148.089C232.882 148.184 232.842 148.274 232.774 148.34C232.74 148.373 232.7 148.399 232.657 148.416C232.613 148.434 232.566 148.442 232.519 148.441C232.424 148.44 232.333 148.4 232.267 148.332C222.153 137.897 190.38 149.121 190.063 149.235C190.023 149.25 189.982 149.257 189.94 149.257Z" fill="white"/>
</g>
<g style="mix-blend-mode:soft-light" opacity="0.8">
<path d="M143.194 193.673C143.137 193.674 143.081 193.66 143.03 193.634C142.979 193.608 142.935 193.57 142.902 193.524C142.869 193.477 142.847 193.424 142.839 193.367C142.831 193.311 142.837 193.253 142.855 193.199C142.889 193.1 146.244 183.229 147.908 172.146C149.434 161.99 149.815 148.718 142.968 143.165C142.9 143.103 142.857 143.018 142.85 142.926C142.842 142.834 142.871 142.742 142.929 142.671C142.987 142.599 143.071 142.553 143.162 142.541C143.254 142.529 143.346 142.553 143.42 142.608C149.129 147.237 150.877 157.214 148.615 172.263C146.941 183.404 143.567 193.332 143.533 193.431C143.509 193.501 143.463 193.563 143.403 193.606C143.342 193.65 143.269 193.673 143.194 193.673Z" fill="white"/>
</g>
<g style="mix-blend-mode:soft-light" opacity="0.8">
<path d="M162.829 182.83C162.743 182.83 162.659 182.799 162.594 182.743C162.529 182.687 162.486 182.609 162.474 182.524C162.461 182.439 162.48 182.352 162.526 182.279C162.572 182.207 162.643 182.153 162.726 182.129C164.1 181.713 196.486 172.096 205.829 177.486C205.911 177.533 205.971 177.612 205.996 177.703C206.02 177.795 206.007 177.893 205.96 177.975C205.912 178.058 205.834 178.118 205.742 178.142C205.651 178.167 205.553 178.154 205.471 178.107C196.393 172.873 163.266 182.715 162.933 182.815C162.899 182.825 162.864 182.83 162.829 182.83Z" fill="white"/>
</g>
</g>
<path d="M152.195 9.88622L151.94 11.714C151.098 11.7511 150.262 11.8623 149.44 12.0463L148.748 10.3365C148.703 10.2255 148.636 10.1245 148.551 10.0395C148.467 9.95441 148.366 9.88696 148.255 9.84101C148.144 9.79505 148.026 9.7715 147.906 9.7717C147.786 9.7719 147.667 9.79585 147.556 9.84218L144.618 11.0493C144.392 11.1418 144.212 11.3193 144.116 11.5435C144.02 11.7676 144.017 12.0205 144.106 12.2474L144.803 13.9788C144.09 14.432 143.417 14.9457 142.792 15.5141L141.314 14.3726C141.121 14.224 140.876 14.1581 140.634 14.1892C140.392 14.2204 140.172 14.346 140.022 14.5387L138.048 17.0644C137.973 17.159 137.917 17.2677 137.884 17.3841C137.85 17.5005 137.84 17.6224 137.854 17.7426C137.868 17.8629 137.906 17.9793 137.965 18.085C138.024 18.1907 138.103 18.2838 138.198 18.3587L139.679 19.5111C139.28 20.2608 138.947 21.0435 138.682 21.8506L136.802 21.6014C136.557 21.571 136.31 21.6377 136.114 21.7872C135.917 21.9367 135.787 22.1572 135.751 22.4014L135.279 25.5867C135.261 25.7067 135.266 25.8291 135.296 25.9469C135.325 26.0646 135.377 26.1754 135.45 26.2727C135.522 26.37 135.614 26.4519 135.718 26.5135C135.823 26.5752 135.938 26.6154 136.059 26.6319L137.944 26.8811C137.965 27.7308 138.06 28.577 138.228 29.4101L136.461 30.1578C136.231 30.2537 136.048 30.4354 135.95 30.6642C135.852 30.8931 135.848 31.151 135.937 31.3832L137.116 34.3791C137.161 34.4928 137.228 34.5963 137.313 34.6836C137.399 34.771 137.501 34.8403 137.613 34.8876C137.726 34.9348 137.847 34.959 137.969 34.9587C138.091 34.9584 138.212 34.9337 138.324 34.8859L140.095 34.1448C140.54 34.8668 141.048 35.5484 141.612 36.182L140.432 37.7181C140.278 37.9147 140.208 38.164 140.237 38.412C140.265 38.66 140.39 38.8868 140.585 39.0432L143.115 41.0272C143.212 41.1024 143.323 41.1575 143.442 41.1892C143.561 41.221 143.685 41.2288 143.807 41.2122C143.929 41.1955 144.047 41.1548 144.153 41.0924C144.259 41.03 144.351 40.9471 144.425 40.8486L145.588 39.3274C146.342 39.727 147.13 40.0581 147.943 40.3169L147.677 42.2161C147.658 42.3381 147.664 42.4625 147.694 42.5821C147.724 42.7018 147.778 42.8143 147.851 42.9131C147.925 43.0119 148.018 43.0951 148.124 43.1579C148.23 43.2207 148.348 43.2617 148.47 43.2787L151.663 43.6941C151.911 43.7239 152.161 43.6544 152.359 43.5007C152.556 43.3469 152.685 43.1214 152.716 42.8732L152.974 40.989C153.833 40.9532 154.687 40.8403 155.525 40.6517L156.226 42.3964C156.271 42.5107 156.338 42.6149 156.424 42.7028C156.51 42.7906 156.612 42.8603 156.726 42.9078C156.839 42.9553 156.961 42.9796 157.084 42.9792C157.207 42.9788 157.328 42.9538 157.441 42.9057L160.419 41.6445C160.648 41.5454 160.83 41.3602 160.925 41.1286C161.02 40.8971 161.02 40.6376 160.926 40.4058L160.226 38.6769C160.953 38.2072 161.638 37.6748 162.272 37.0859L163.73 38.2166C163.827 38.2916 163.938 38.3466 164.056 38.3783C164.174 38.41 164.297 38.4178 164.419 38.4013C164.54 38.3847 164.657 38.3441 164.762 38.2819C164.867 38.2196 164.959 38.137 165.032 38.0388L166.983 35.4533C167.132 35.255 167.198 35.006 167.166 34.7598C167.134 34.5136 167.006 34.2899 166.811 34.1365L165.373 33.0166C165.768 32.2449 166.096 31.4401 166.351 30.6114L168.154 30.8482C168.275 30.8634 168.398 30.8546 168.516 30.8223C168.633 30.79 168.743 30.7347 168.839 30.6598C168.936 30.5848 169.016 30.4916 169.076 30.3855C169.136 30.2794 169.175 30.1625 169.189 30.0415L169.599 26.8471C169.631 26.6034 169.565 26.357 169.416 26.1618C169.267 25.9665 169.047 25.8383 168.803 25.8052L167.005 25.5693C166.97 24.7096 166.858 23.8547 166.673 23.0146L168.34 22.3167C168.567 22.2219 168.746 22.0415 168.839 21.8148C168.933 21.5881 168.933 21.3336 168.839 21.107L167.616 18.1618C167.57 18.0499 167.503 17.9482 167.418 17.8624C167.333 17.7767 167.232 17.7087 167.12 17.6623C167.009 17.616 166.889 17.5922 166.768 17.5924C166.647 17.5925 166.528 17.6167 166.416 17.6634L164.739 18.3604C164.283 17.644 163.765 16.9688 163.191 16.3424L164.299 14.896C164.447 14.7031 164.513 14.4594 164.481 14.2182C164.45 13.9769 164.325 13.7579 164.132 13.609L161.627 11.6841C161.532 11.6108 161.423 11.557 161.307 11.5259C161.191 11.4947 161.07 11.4869 160.95 11.5027C160.831 11.5185 160.716 11.5577 160.612 11.6181C160.508 11.6784 160.417 11.7587 160.344 11.8544L159.225 13.3058C158.476 12.9187 157.695 12.5987 156.89 12.3495L157.139 10.5309C157.156 10.4122 157.149 10.2914 157.118 10.1755C157.087 10.0597 157.034 9.95099 156.962 9.85576C156.889 9.76054 156.798 9.68066 156.694 9.62072C156.59 9.56078 156.476 9.52197 156.357 9.50654L153.227 9.09612C152.986 9.06517 152.742 9.13082 152.549 9.27879C152.355 9.42677 152.228 9.64508 152.195 9.88622ZM141.162 24.7285C142.066 18.4344 147.843 14.022 154.07 14.842C160.297 15.662 164.67 21.4053 163.833 27.7053C162.992 34.0468 157.203 38.5464 150.908 37.7206C144.613 36.8948 140.252 31.0609 141.162 24.7285Z" fill="url(#paint3_linear_147_944)"/>
<path d="M104.207 8.88914L103.81 11.723C102.51 11.7802 101.217 11.9514 99.947 12.2348L98.8761 9.59116C98.8059 9.41946 98.7023 9.26337 98.5714 9.13189C98.4405 9.0004 98.2849 8.89613 98.1135 8.82508C97.9422 8.75402 97.7584 8.71759 97.5729 8.71789C97.3874 8.71819 97.2037 8.75522 97.0326 8.82682L92.4898 10.6986C92.1408 10.8411 91.862 11.1154 91.7139 11.4621C91.5659 11.8088 91.5604 12.1998 91.6988 12.5505L92.7789 15.2273C91.6766 15.9289 90.6363 16.7233 89.6692 17.6018L87.3853 15.8313C87.0854 15.6034 86.7076 15.5032 86.3341 15.5525C85.9607 15.6018 85.6218 15.7967 85.3914 16.0947L82.339 19.9995C82.2225 20.1459 82.136 20.3139 82.0845 20.4939C82.033 20.6738 82.0176 20.8622 82.0391 21.0481C82.0605 21.234 82.1185 21.4139 82.2096 21.5774C82.3007 21.7409 82.4231 21.8848 82.57 22.0009L84.8605 23.7813C84.2454 24.9409 83.7315 26.1515 83.3243 27.3994L80.4165 27.0181C80.0378 26.9715 79.6558 27.0749 79.3523 27.3062C79.0488 27.5376 78.8478 27.8784 78.7923 28.256L78.0554 33.1818C78.0266 33.3672 78.0351 33.5565 78.0803 33.7387C78.1255 33.9208 78.2066 34.0921 78.3187 34.2425C78.4309 34.3929 78.5719 34.5195 78.7335 34.6148C78.8951 34.7102 79.0741 34.7723 79.2601 34.7977L82.1762 35.1799C82.2079 36.4937 82.3544 37.8022 82.614 39.0905L79.8832 40.2312C79.5281 40.3796 79.245 40.6606 79.0939 41.0144C78.9428 41.3683 78.9356 41.7672 79.074 42.1262L80.8967 46.758C80.9657 46.9337 81.0693 47.0939 81.2013 47.2289C81.3332 47.364 81.4909 47.4712 81.6651 47.5442C81.8392 47.6173 82.0262 47.6546 82.215 47.6542C82.4038 47.6537 82.5906 47.6153 82.7644 47.5414L85.5019 46.3957C86.1897 47.5145 86.9742 48.5709 87.8464 49.5528L86.0186 51.9214C85.7807 52.2252 85.6721 52.6106 85.7164 52.994C85.7607 53.3774 85.9544 53.7278 86.2554 53.9693L90.1652 57.0375C90.3158 57.1538 90.4881 57.239 90.672 57.2881C90.8559 57.3373 91.0477 57.3493 91.2363 57.3235C91.4249 57.2978 91.6064 57.2348 91.7704 57.1382C91.9344 57.0416 92.0776 56.9133 92.1915 56.7608L93.9943 54.408C95.1591 55.0265 96.3773 55.5387 97.6341 55.9383L97.2237 58.8752C97.1951 59.0637 97.2043 59.256 97.2506 59.441C97.2968 59.6259 97.3794 59.7999 97.4933 59.9527C97.6073 60.1055 97.7505 60.2343 97.9145 60.3314C98.0786 60.4285 98.2603 60.4921 98.4491 60.5186L103.387 61.1658C103.77 61.2121 104.157 61.1047 104.462 60.867C104.767 60.6294 104.966 60.2807 105.015 59.8971L105.414 56.9827C106.742 56.9273 108.062 56.7533 109.358 56.4626L110.438 59.1552C110.508 59.3319 110.612 59.4928 110.745 59.6285C110.878 59.7642 111.036 59.872 111.211 59.9454C111.387 60.0188 111.575 60.0564 111.764 60.056C111.954 60.0555 112.142 60.017 112.317 59.9428L116.921 57.9921C117.275 57.8389 117.556 57.5533 117.702 57.1963C117.849 56.8393 117.85 56.4391 117.705 56.0812L116.625 53.4077C117.75 52.6814 118.808 51.8583 119.789 50.9477L122.04 52.6924C122.189 52.8085 122.36 52.8937 122.543 52.9428C122.726 52.992 122.917 53.0041 123.104 52.9786C123.292 52.9531 123.472 52.8903 123.635 52.7941C123.798 52.6979 123.941 52.5701 124.054 52.4182L127.069 48.4212C127.3 48.1147 127.402 47.7295 127.352 47.3487C127.302 46.9679 127.105 46.6218 126.803 46.3849L124.573 44.6569C125.185 43.4641 125.692 42.2197 126.086 40.9382L128.874 41.3037C129.061 41.3275 129.251 41.314 129.433 41.2641C129.614 41.2143 129.785 41.129 129.933 41.0132C130.082 40.8974 130.206 40.7534 130.299 40.5894C130.392 40.4254 130.452 40.2447 130.475 40.0575L131.107 35.1192C131.157 34.7424 131.056 34.3611 130.825 34.059C130.594 33.7568 130.253 33.5585 129.877 33.5075L127.097 33.1428C127.043 31.8137 126.872 30.492 126.585 29.1931L129.161 28.1131C129.509 27.9656 129.786 27.6861 129.93 27.3356C130.073 26.9851 130.072 26.592 129.927 26.2421L128.044 21.6901C127.973 21.5176 127.869 21.3608 127.737 21.2287C127.605 21.0965 127.449 20.9917 127.277 20.9203C127.104 20.8488 126.92 20.812 126.733 20.8121C126.547 20.8122 126.362 20.8492 126.19 20.9208L123.596 22.0009C122.891 20.8925 122.091 19.8483 121.203 18.8804L122.919 16.6455C123.033 16.4976 123.117 16.3287 123.165 16.1484C123.214 15.9681 123.227 15.78 123.203 15.5948C123.178 15.4096 123.118 15.231 123.025 15.0691C122.932 14.9073 122.808 14.7654 122.66 14.6516L118.786 11.6756C118.638 11.5623 118.47 11.4791 118.29 11.4309C118.111 11.3828 117.923 11.3705 117.739 11.3949C117.555 11.4193 117.377 11.4798 117.216 11.5731C117.055 11.6663 116.914 11.7904 116.802 11.9382L115.077 14.1814C113.919 13.5826 112.711 13.088 111.466 12.7033L111.851 9.89108C111.876 9.70763 111.865 9.52098 111.818 9.34188C111.771 9.16279 111.689 8.9948 111.576 8.84759C111.464 8.70039 111.323 8.57688 111.163 8.4842C111.003 8.39152 110.826 8.33149 110.642 8.30757L105.804 7.67284C105.431 7.6243 105.054 7.72482 104.755 7.95255C104.456 8.18029 104.259 8.51685 104.207 8.88914ZM87.146 31.8434C88.5443 22.1114 97.4762 15.2888 107.104 16.5516C116.731 17.8144 123.493 26.6957 122.2 36.4411C120.899 46.2445 111.949 53.2025 102.216 51.9256C92.4831 50.6486 85.7387 41.6336 87.146 31.8434Z" fill="#C6C5D2"/>
<path d="M99.5732 36.3307L78.411 212.257C78.0936 214.894 79.9114 217.259 82.4578 217.511L170.616 227.189C176.016 227.526 178.974 224.767 179.307 221.962L201.529 34.9233C201.861 32.1343 199.211 29.6062 193.787 29.6062L104.826 31.4822C102.252 31.5254 99.8922 33.707 99.5732 36.3307Z" fill="#151516"/>
<path d="M95.6086 36.0282L74.3267 212.834C74.0077 215.484 75.8322 217.861 78.3877 218.116L169.784 227.215C172.649 227.5 175.274 225.427 175.61 222.608L197.959 34.6033C198.291 31.7994 196.187 29.5462 193.29 29.5953L100.879 31.1547C98.2946 31.1979 95.926 33.3912 95.6086 36.0282Z" fill="#595866"/>
<path d="M97.3424 45.7769L77.6175 209.711C77.3193 212.188 79.0299 214.404 81.4201 214.637L167.374 222.995C170.038 223.254 172.479 221.32 172.791 218.695L193.442 45.0225C193.753 42.4113 191.799 40.2994 189.108 40.3277L102.272 41.2524C99.8548 41.2781 97.6399 43.3161 97.3424 45.7769Z" fill="#E1E1E7"/>
<path d="M143.44 35.9061C143.327 36.8474 144.002 37.6009 144.949 37.5893C145.896 37.5777 146.758 36.8025 146.871 35.8596C146.984 34.9166 146.305 34.1631 145.357 34.1772C144.409 34.1913 143.548 34.9656 143.44 35.9061Z" fill="white"/>
<g style="mix-blend-mode:soft-light">
<g style="mix-blend-mode:soft-light">
<path d="M112.201 155.823C129.798 123.289 156.084 113.551 163.999 80.0217C168.277 61.8969 165.362 44.5464 160.453 30.1494L193.288 29.5953C196.185 29.5462 198.289 31.7994 197.956 34.6033L175.607 222.608C175.275 225.427 172.646 227.5 169.78 227.215L97.9348 220.062C97.4064 190.911 104.359 170.325 112.201 155.823Z" fill="white"/>
</g>
</g>
<path d="M8.83789 54.6856C8.83789 37.3983 23.917 23.3868 42.0135 23.3884C59.575 23.3884 73.4345 36.6655 73.4345 53.0373C73.4345 69.4091 59.575 83.3915 42.0135 84.2896C23.917 85.2151 8.83789 71.973 8.83789 54.6856Z" fill="#C93329"/>
<path d="M11 53.2972C11 36.0098 25.6429 21.9975 43.216 22C60.2699 22 73.7281 35.2762 73.7281 51.6489C73.7281 68.0215 60.2691 82.0031 43.216 82.9012C25.6429 83.8267 11 70.5837 11 53.2972Z" fill="url(#paint4_linear_147_944)"/>
<g style="mix-blend-mode:soft-light" opacity="0.5">
<g style="mix-blend-mode:soft-light" opacity="0.5">
<path d="M15.8018 53.1752C15.8018 38.6519 28.1043 26.8794 42.8685 26.8811C57.1965 26.8811 68.5037 38.0355 68.5037 51.7911C68.5037 65.5467 57.1965 77.2926 42.8685 78.0444C28.1043 78.8254 15.8018 67.6993 15.8018 53.1752Z" fill="white"/>
</g>
</g>
<g style="mix-blend-mode:soft-light" opacity="0.5">
<path d="M41.8523 29.1126C56.1795 29.1126 67.4868 40.267 67.4868 54.0226C67.4839 57.2255 66.8694 60.3984 65.6765 63.3708C67.527 59.791 68.4955 55.8209 68.5012 51.7911C68.5012 38.0355 57.194 26.8828 42.8659 26.8811C31.4789 26.8811 21.5625 33.8848 17.6187 43.7514C22.0875 35.0778 31.3443 29.1118 41.8523 29.1126Z" fill="white"/>
</g>
<path d="M30.6273 49.6202V62.2966C30.6273 65.9621 33.7104 68.8524 37.5022 68.7536L46.9044 68.5043C50.6505 68.4063 53.6779 65.388 53.6779 61.7607V49.2156L30.6273 49.6202ZM39.2859 62.7253L41.0306 57.4306C40.6539 57.2405 40.3372 56.9499 40.1155 56.591C39.8937 56.232 39.7757 55.8187 39.7745 55.3968C39.7745 54.0957 40.8661 53.0198 42.2104 52.9949C43.5546 52.97 44.6405 54.001 44.6405 55.2995C44.6361 55.7265 44.5179 56.1446 44.2979 56.5106C44.078 56.8766 43.7643 57.1773 43.3893 57.3815L45.134 62.589L39.2859 62.7253Z" fill="white"/>
<path d="M51.0053 48.1237C50.0083 48.1404 49.1991 47.3685 49.1991 46.3998C49.1991 42.6737 46.0711 39.6828 42.2137 39.7318C38.3422 39.7816 35.1834 42.8731 35.1834 46.6275C35.1834 47.6028 34.3626 48.407 33.3499 48.4237C32.3371 48.4403 31.5138 47.6626 31.5138 46.6856C31.5138 40.9788 36.3266 36.2815 42.2137 36.2175C48.0684 36.1519 52.8089 40.6964 52.8089 46.3475C52.8089 47.3095 52.0022 48.1071 51.0053 48.1237Z" fill="white"/>
<path d="M72.7814 120.426C72.7814 120.426 72.1425 118.028 72.5953 117.415C73.0481 116.802 75.8188 114.351 75.553 115.151C75.3968 115.623 75.1729 116.071 74.8883 116.48C74.8883 116.48 76.3838 117.172 75.4209 118.211C74.458 119.251 74.1414 119.49 74.0916 120.423C74.0417 121.356 73.4211 121.678 72.7814 120.426Z" fill="#E8BEA0"/>
<path d="M46.1666 223.925C46.1666 223.925 45.8277 226.002 45.8709 226.736C45.9141 227.471 54.1033 227.852 54.1864 227.299C54.2695 226.746 52.833 225.867 51.8219 225.554C50.8108 225.241 47.8515 224.416 47.8515 224.416L46.1666 223.925Z" fill="#151516"/>
<path d="M48.1539 221.858L47.8931 224.433C47.8931 224.433 46.9418 225.062 46.1035 224.577L45.684 221.771L48.1539 221.858Z" fill="#D99C71"/>
<path d="M31.5537 227.287C31.5537 227.287 31.2156 229.364 31.2579 230.099C31.3003 230.834 39.4912 231.214 39.5743 230.661C39.6574 230.109 38.2201 229.229 37.209 228.917C36.1979 228.604 33.2394 227.778 33.2394 227.778L31.5537 227.287Z" fill="#151516"/>
<path d="M33.5418 225.219L33.2809 227.795C33.2809 227.795 32.3296 228.423 31.4913 227.938L31.0759 225.131L33.5418 225.219Z" fill="#D99C71"/>
<path d="M46.6685 154.541L49.5082 160.299C50.2692 171.252 50.648 183.162 50.4046 195.899C50.2243 205.375 49.7175 214.352 48.9922 222.778L45.1415 222.602C43.2854 218.918 41.0938 213.337 40.8927 206.448C40.6817 199.262 42.8609 198.306 42.7205 191.427C42.5419 182.51 38.8024 180.129 36.8102 169.404C36.0483 165.302 35.5349 159.944 36.1455 153.443L46.6685 154.541Z" fill="url(#paint5_linear_147_944)"/>
<path style="mix-blend-mode:multiply" opacity="0.3" d="M36.1447 153.443L41.8282 154.036C45.2345 159.971 46.1899 166.148 45.5918 168.879C44.7452 172.745 42.5062 173.983 42.6291 177.864C42.7504 181.704 45.0127 182.7 46.4508 187.226C47.4478 190.36 47.1819 193.241 46.617 198.876C45.4788 210.225 42.738 213.696 45.0335 217.417C45.6856 218.474 46.8612 219.734 49.1642 220.695C49.1077 221.391 49.0521 222.089 48.9931 222.778L45.1423 222.602C43.2863 218.917 41.0946 213.337 40.8936 206.448C40.6825 199.262 42.8617 198.306 42.7213 191.427C42.5427 182.51 38.8033 180.129 36.811 169.405C36.0483 165.302 35.5349 159.944 36.1447 153.443Z" fill="url(#paint6_linear_147_944)"/>
<path d="M41.5748 157.997C39.7977 167.687 38.2283 178.058 37.0054 189.056C35.5266 202.337 34.7373 214.857 34.4299 226.482L30.2011 226.601C24.6497 215.619 24.3099 208.173 25.1108 203.325C25.419 201.457 26.2565 197.794 26.4484 192.32C26.5813 188.504 26.3379 185.599 26.033 182.108C25.3683 174.454 24.5575 172.783 24.4412 166.929C24.3315 161.434 24.3091 158.654 25.8776 157.031C30.0092 152.755 40.7598 157.618 41.5748 157.997Z" fill="url(#paint7_linear_147_944)"/>
<path d="M72.0445 120.056L74.8551 119.86C77.0658 128.792 75.4798 137.456 70.4917 140.642C62.6979 145.621 48.2129 136.239 45.0741 126.029C43.6958 121.543 44.0098 115.077 46.7631 113.816C47.5275 113.467 48.7139 113.413 51.2835 114.856C58.9577 119.164 59.1595 127.308 63.0602 127.997C64.7949 128.308 67.5963 127.202 72.0445 120.056Z" fill="#74C733"/>
<path d="M50.5866 162.264C51.9366 160.025 50.241 157.861 49.8546 153.623C49.4176 148.814 51.267 148.013 53.1022 140.043C54.321 134.743 55.4908 129.654 54.0942 123.697C53.4296 120.842 52.2905 116.001 48.2836 113.662C46.2157 112.455 43.3918 112.575 37.8296 112.867C30.9505 113.226 27.511 113.406 24.9463 114.757C24.5708 114.955 16.7679 119.199 16.2304 126.117C15.6837 133.159 23.3528 134.105 24.3722 143.496C24.8308 147.711 24.0125 154.195 23.4816 158.401C22.9723 162.438 22.6217 163.468 23.4185 164.694C25.3385 167.641 31.218 166.801 42.9781 165.122C47.594 164.46 49.5788 163.935 50.5866 162.264Z" fill="#74C733"/>
<path d="M32.6935 141.984C32.195 143.811 30.408 145.181 29.1634 149.633C28.8943 150.594 26.9801 157.442 29.4634 159.123C30.8973 160.096 32.1851 158.252 35.6661 158.012C41.6978 157.597 44.5715 162.665 48.512 161.28C49.1949 161.04 50.098 160.527 50.9986 159.351C51.1781 160.411 51.1473 161.332 50.5832 162.264C49.5754 163.936 47.5923 164.461 42.978 165.12C31.218 166.799 25.3384 167.639 23.4184 164.692C22.6217 163.47 22.9723 162.436 23.4816 158.399C24.0125 154.193 24.8308 147.71 24.3722 143.494C23.3495 134.106 15.6803 133.157 16.2303 126.115C16.3766 124.234 17.0694 122.557 17.995 121.098C27.7237 125.035 34.2571 136.231 32.6935 141.984Z" fill="#57A41B"/>
<path d="M20.4076 155.834L22.3533 157.08C22.7031 156.677 23.5165 155.862 24.7751 155.585C26.1991 155.272 27.8325 155.72 27.8707 156.175C27.9006 156.539 26.9061 156.906 26.7524 156.962C25.5062 157.421 24.5923 157.04 24.0872 157.54C23.9094 157.716 23.6884 158.044 23.1792 158.349C23.0679 158.417 22.9519 158.477 22.8319 158.528C22.0011 158.85 20.5812 157.407 20.4591 157.281L20.4076 155.834Z" fill="#E8BEA0"/>
<path d="M26.1577 130.307C27.5659 126.935 28.5412 121.771 26.3172 114.106C11.6635 119.88 4.19039 133.569 7.10817 144.42C9.51418 153.366 18.265 157.719 20.2174 158.636L21.5808 155.534C19.3177 153.014 16.7688 149.29 17.1293 145.039C17.6286 139.145 23.3055 137.134 26.1577 130.307Z" fill="#74C733"/>
<path d="M37.469 105.927C37.469 105.927 37.3535 108.49 36.5551 110.413C35.8364 112.148 32.0538 113.238 31.2878 113.626C30.5218 114.014 32.7234 115.145 34.9359 115.371C37.1483 115.597 43.4665 115.091 44.6056 114.252C45.7446 113.414 43.6917 113.477 42.1132 112.897C40.5346 112.317 39.6207 109.229 39.8999 107.829C40.179 106.428 37.469 105.927 37.469 105.927Z" fill="#E8BEA0"/>
<path d="M40.9683 104.997C42.1165 103.87 42.2768 103.738 42.4015 103.348C42.8999 101.783 41.6895 99.6403 40.0976 99.1111C40.0146 99.0837 38.9478 98.7422 38.5399 99.205C38.1943 99.5988 38.706 100.142 38.4568 100.9C38.23 101.609 37.6152 101.662 36.4745 102.593C35.5357 103.36 34.9516 103.839 34.8171 104.504C34.5396 105.885 36.212 107.888 37.6925 107.834C38.2292 107.818 38.3746 107.546 40.9683 104.997Z" fill="#343439"/>
<path d="M37.8445 108.051C37.8445 108.051 39.0649 109.433 40.9234 108.976C42.585 108.567 42.163 104.747 40.945 104.137C40.5388 103.934 39.8002 103.951 39.2452 104.22C38.9129 104.378 38.8298 104.542 38.2856 104.79C37.7871 105.018 37.6285 104.987 37.4939 105.148C37.3277 105.349 37.2538 105.782 37.7797 106.828C37.4008 106.559 36.9929 106.503 36.7428 106.681C36.658 106.748 36.5938 106.837 36.5575 106.939C36.3964 107.41 36.8882 107.891 37.8445 108.051Z" fill="#E8BEA0"/>
<path d="M177.023 56.3281L177.453 58.6469L168.611 58.6677L91.8783 58.8496C89.9043 58.8538 88.089 60.4855 87.8182 62.4943L69.4981 184.917C69.2256 186.944 72.3802 190.037 74.3425 190.188L108.385 192.804V192.763L159.306 196.668L159.43 196.72C161.604 196.886 163.599 195.307 163.882 193.17V193.178L181.04 62.4761C181.318 60.3525 179.21 56.3281 177.023 56.3281Z" fill="#595866"/>
<path d="M162.149 190.623C161.868 192.764 159.874 194.362 157.7 194.196L72.523 187.656C70.5615 187.504 69.1998 185.74 69.469 183.713L86.1208 59.9903C86.3908 57.9823 88.2061 56.3506 90.1784 56.3456L175.834 56.1096C178.02 56.1038 179.573 57.8178 179.292 59.938L162.149 190.623Z" fill="url(#paint8_linear_147_944)"/>
<path d="M163.281 122.583C163.141 123.643 162.151 124.434 161.069 124.394L86.1026 121.658C85.1131 121.623 84.4177 120.808 84.5531 119.795L86.0311 108.871C86.1674 107.859 87.0705 107.174 88.0608 107.201L163.092 109.285C164.172 109.315 164.943 110.08 164.804 111.14L163.281 122.583Z" fill="white"/>
<path d="M160.378 144.78C160.238 145.842 159.246 146.749 158.166 146.69L83.2562 142.99C82.2675 142.941 81.5788 141.993 81.7151 140.981L83.2005 129.848C83.3368 128.835 84.249 127.967 85.2377 128.006L160.193 131.03C161.273 131.074 162.04 132.052 161.9 133.113L160.378 144.78Z" fill="white"/>
<path style="mix-blend-mode:multiply" opacity="0.1" d="M164.806 111.095C164.621 111.037 164.428 111.005 164.234 111.001L89.2006 108.918C88.2103 108.889 87.3064 109.575 87.1718 110.585L85.6988 121.51C85.6988 121.539 85.693 121.565 85.6897 121.593C84.9295 121.379 84.4434 120.658 84.5548 119.794L86.0311 108.87C86.1657 107.86 87.0696 107.173 88.0591 107.202L163.093 109.284C164.154 109.316 164.918 110.057 164.806 111.095Z" fill="url(#paint9_linear_147_944)"/>
<path style="mix-blend-mode:multiply" opacity="0.1" d="M161.917 132.87C161.731 132.796 161.534 132.755 161.335 132.747L86.3816 129.724C85.3921 129.683 84.4791 130.554 84.3453 131.566L82.8574 142.698C82.8485 142.769 82.8438 142.839 82.8432 142.91C82.0822 142.661 81.597 141.846 81.7133 140.982L83.2005 129.849C83.3351 128.836 84.2481 127.967 85.2376 128.007L160.191 131.03C160.661 131.053 161.104 131.258 161.426 131.601C161.748 131.944 161.924 132.399 161.917 132.87Z" fill="url(#paint10_linear_147_944)"/>
<path d="M140.455 162.77C140.676 161.095 139.492 159.551 137.808 159.454L99.0299 157.227C97.4239 157.135 95.941 158.488 95.7225 160.119L94.1223 172.181C93.9038 173.815 95.0179 175.379 96.6222 175.488L135.381 178.14C137.064 178.256 138.614 176.834 138.836 175.156L140.455 162.77Z" fill="#74C733"/>
<path d="M143.384 81.5071C142.873 85.3629 140.892 88.8431 138.076 91.4028C135.041 94.1628 131.043 95.8426 126.886 95.7629C122.749 95.6798 119.268 93.8753 117.033 91.0531C114.97 88.4526 113.959 84.9882 114.466 81.1948C115.519 73.3079 122.764 66.9324 130.717 66.9515C138.743 66.9697 144.446 73.4857 143.384 81.5071Z" fill="#74C733"/>
<path d="M135.651 77.1246C135.193 80.5791 132.004 83.3465 128.542 83.305C125.095 83.2643 122.679 80.4503 123.136 77.0208C123.593 73.5912 126.75 70.8263 130.198 70.8421C133.663 70.8579 136.109 73.6702 135.651 77.1246Z" fill="white"/>
<path d="M138.076 91.403C135.041 94.1629 131.043 95.8428 126.886 95.7631C122.749 95.68 119.268 93.8755 117.032 91.0532C119.591 87.4882 123.811 85.1171 128.294 85.1761C132.799 85.2343 136.432 87.7325 138.076 91.403Z" fill="white"/>
<g style="mix-blend-mode:soft-light" opacity="0.4">
<path d="M179.295 59.9395L162.149 190.625C161.868 192.765 159.747 194.357 157.574 194.19L106.416 190.261C103.879 187.663 101.887 184.584 100.556 181.205C99.8411 179.382 99.3195 177.488 99 175.556C98.0504 170.038 98.4184 163.766 99.8034 157.61C100.864 152.881 102.5 148.3 104.676 143.969C106.386 140.594 108.396 137.507 110.642 134.914C112.259 133.047 114.008 131.233 115.852 129.454C118.076 127.308 120.44 125.212 122.878 123.136C128.559 118.295 134.644 113.562 140.277 108.564C153.274 97.0341 163.818 84.1508 161.281 65.7685C161.198 65.1869 160.408 60.7554 159.396 56.1594L175.71 56.1145C177.895 56.1054 179.573 57.8235 179.295 59.9395Z" fill="white"/>
</g>
<defs>
<linearGradient id="paint0_linear_147_944" x1="-6.47569" y1="192.207" x2="239.031" y2="13.1387" gradientUnits="userSpaceOnUse">
<stop stop-color="#F5F4F8"/>
<stop offset="1" stop-color="#E1E1E7"/>
</linearGradient>
<linearGradient id="paint1_linear_147_944" x1="155.775" y1="167.79" x2="216.456" y2="3.90352" gradientUnits="userSpaceOnUse">
<stop stop-color="#74C733"/>
<stop offset="1" stop-color="#57A41B"/>
</linearGradient>
<linearGradient id="paint2_linear_147_944" x1="110.855" y1="151.61" x2="228.557" y2="151.61" gradientUnits="userSpaceOnUse">
<stop stop-color="#FFD234"/>
<stop offset="1" stop-color="#FF9559"/>
</linearGradient>
<linearGradient id="paint3_linear_147_944" x1="135" y1="26" x2="170" y2="26" gradientUnits="userSpaceOnUse">
<stop stop-color="#C6C5D2"/>
<stop offset="1" stop-color="#E1E1E7"/>
</linearGradient>
<linearGradient id="paint4_linear_147_944" x1="46066.6" y1="80211.6" x2="86761.2" y2="42203.5" gradientUnits="userSpaceOnUse">
<stop stop-color="#FF9559"/>
<stop offset="1" stop-color="#F95C3A"/>
</linearGradient>
<linearGradient id="paint5_linear_147_944" x1="2770.75" y1="169142" x2="-17279.2" y2="190729" gradientUnits="userSpaceOnUse">
<stop stop-color="#343439"/>
<stop offset="1" stop-color="#595866"/>
</linearGradient>
<linearGradient id="paint6_linear_147_944" x1="60902.8" y1="199358" x2="58714.5" y2="199533" gradientUnits="userSpaceOnUse">
<stop stop-color="#311944"/>
<stop offset="1" stop-color="#893976"/>
</linearGradient>
<linearGradient id="paint7_linear_147_944" x1="73080.1" y1="205915" x2="68786.1" y2="206259" gradientUnits="userSpaceOnUse">
<stop stop-color="#343439"/>
<stop offset="1" stop-color="#595866"/>
</linearGradient>
<linearGradient id="paint8_linear_147_944" x1="137.321" y1="345.992" x2="124.016" y2="115.534" gradientUnits="userSpaceOnUse">
<stop stop-color="#E1E1E7"/>
<stop offset="1" stop-color="#C6C5D2"/>
</linearGradient>
<linearGradient id="paint9_linear_147_944" x1="120261" y1="26472.7" x2="197834" y2="26472.7" gradientUnits="userSpaceOnUse">
<stop stop-color="#F36F56"/>
<stop offset="1" stop-color="#FFC444"/>
</linearGradient>
<linearGradient id="paint10_linear_147_944" x1="117432" y1="31210.4" x2="194889" y2="31210.4" gradientUnits="userSpaceOnUse">
<stop stop-color="#F36F56"/>
<stop offset="1" stop-color="#FFC444"/>
</linearGradient>
</defs>
</svg>
