<svg width="273" height="270" viewBox="0 0 273 270" fill="none" xmlns="http://www.w3.org/2000/svg">
<path d="M93.8655 0.890811C73.6647 2.93227 37.2073 6.61652 16.4394 35.9548C-5.00941 66.255 -4.19956 116.118 17.0846 143.792C27.6414 157.514 41.998 164.183 40.3129 174.886C38.1867 188.379 13.7537 187.932 11.278 198.702C7.07275 216.998 67.3025 262.984 135.804 264.198C149.849 264.448 228.088 265.835 260.33 206.641C296.292 140.615 239.46 64.5091 235.812 59.7714C184.544 -6.80799 101.877 0.080969 93.8655 0.890811Z" fill="url(#paint0_linear_147_725)"/>
<path d="M19.593 100.774V207.095C19.593 222.476 32.4503 234.902 48.3919 234.828L107.594 234.589L115.412 234.562L143.038 268.414C145.132 270.044 150.151 270.115 151.838 268.076L155.936 262.663L177.372 234.308L179.352 234.295L233.489 234.084C239.31 234.055 244.292 231.946 248.467 228.418C253.993 223.779 257.176 216.68 257.176 208.736V112.301C257.176 98.3559 246.668 86.4067 233.144 85.6055L221.662 84.916L48.0877 74.6394C44.0069 74.381 39.9193 75.0244 36.1153 76.5239C26.2354 80.3748 19.593 89.5979 19.593 100.774Z" fill="url(#paint1_linear_147_725)"/>
<path d="M23.8109 98.0286V204.059C23.8109 219.397 37.089 231.792 52.9324 231.754L108.922 231.641L119.942 231.613L147.433 263.89C149.428 266.224 152.974 266.21 154.915 263.862L155.921 262.667L179.347 234.299L181.682 231.473L237.508 231.346C241.599 231.332 245.247 230.277 248.622 228.422C256.353 224.204 261.394 215.783 261.394 206.098V109.911C261.394 95.9939 250.787 84.0591 237.32 83.2435L224.144 82.4423L53.1597 72.0289C46.7079 71.6351 40.467 73.3366 35.6446 76.5278C28.6304 81.149 23.8109 88.9509 23.8109 98.0286Z" fill="url(#paint2_linear_147_725)"/>
<path d="M209.433 147.315C208.427 128.441 195.6 112.584 179.627 110.576C166.923 108.979 155.619 116.161 149.601 127.78C143.569 115.589 132.16 107.278 119.216 107.63C102.75 108.079 89.381 123.027 88.3265 142.262C87.6294 154.973 92.2419 166.653 99.8136 174.528L146.285 212.379C148.291 214.016 150.907 214.087 152.914 212.567L198.431 178.033C205.691 170.853 210.097 159.779 209.433 147.315Z" fill="white"/>
<path style="mix-blend-mode:multiply" opacity="0.3" d="M107.485 234.594L115.358 234.566L143.01 268.418C145.105 270.048 150.136 270.119 151.825 268.08L155.93 262.667L179.351 234.299L233.489 234.088C239.309 234.059 244.447 231.95 248.621 228.422C256.354 224.204 261.394 215.783 261.394 206.098V109.912C261.394 95.994 250.787 84.0592 237.32 83.2436L224.144 82.4424C223.315 83.2301 222.561 84.0447 221.788 84.9162C212.959 94.6305 206.727 108.955 207.865 130.071C211.226 192.869 169.499 203.033 131.792 214.811C120.11 218.47 113.129 224.736 109.053 231.638C108.477 232.612 107.963 233.596 107.485 234.594Z" fill="url(#paint3_linear_147_725)"/>
<path d="M196.846 41.8761C198.046 41.7856 197.994 45.0038 201.379 47.7415C204.406 50.1893 206.639 49.3891 207.912 51.5413C209.164 53.6598 208.573 57.1042 206.712 58.6065C203.989 60.8029 197.949 58.6065 195.38 54.6073C192.093 49.496 195.046 42.0119 196.846 41.8761Z" fill="url(#paint4_linear_147_725)"/>
<path d="M196.846 41.8761C198.046 41.7856 197.994 45.0038 201.379 47.7415C204.406 50.1893 206.639 49.3891 207.912 51.5413C209.164 53.6598 208.573 57.1042 206.712 58.6065C203.989 60.8029 197.949 58.6065 195.38 54.6073C192.093 49.496 195.046 42.0119 196.846 41.8761Z" fill="#D99C71"/>
<path d="M197.788 69.4878C207.582 71.8663 214.035 75.6834 217.803 78.3835C219.844 79.8472 220.788 80.7591 221.298 82.0899C224.199 89.6713 209.291 101.134 207.703 102.335L205.622 97.4808C207.162 89.0261 209.726 86.3731 211.872 85.5845C212.472 85.364 213.48 85.1271 213.461 84.843C213.415 84.1689 207.753 85.1319 202.341 83.1492C196.948 81.1742 191.525 76.1793 192.493 72.8764C192.669 72.2736 193.41 70.5307 197.788 69.4878Z" fill="url(#paint5_linear_147_725)"/>
<path d="M197.788 69.4878C207.582 71.8663 214.035 75.6834 217.803 78.3835C219.844 79.8472 220.788 80.7591 221.298 82.0899C224.199 89.6713 209.291 101.134 207.703 102.335L205.622 97.4808C207.162 89.0261 209.726 86.3731 211.872 85.5845C212.472 85.364 213.48 85.1271 213.461 84.843C213.415 84.1689 207.753 85.1319 202.341 83.1492C196.948 81.1742 191.525 76.1793 192.493 72.8764C192.669 72.2736 193.41 70.5307 197.788 69.4878Z" fill="url(#paint6_linear_147_725)"/>
<path d="M207.286 124.903C207.286 124.903 206.374 125.227 206.371 125.948C206.368 126.67 207.294 129.846 208.297 130.975C209.299 132.104 209.395 130.419 209.332 129.338C209.269 128.257 209.006 125.825 208.754 125.355C208.503 124.885 207.286 124.903 207.286 124.903Z" fill="url(#paint7_linear_147_725)"/>
<path style="mix-blend-mode:multiply" opacity="0.3" d="M210.217 80.5721C211.997 80.5365 216.167 80.2053 217.277 82.266C218.204 83.9858 216.581 86.5935 215.583 88.1968C212.87 92.5561 210.236 93.0019 208.382 95.6799C207.663 96.717 207.013 98.1653 206.806 100.234C206.412 99.3157 206.019 98.398 205.626 97.4806C207.166 89.0259 209.73 86.373 211.876 85.5843C212.476 85.3638 213.484 85.1269 213.465 84.8428C213.419 84.1688 207.757 85.1317 202.345 83.149C197.427 81.3493 192.504 77.0429 192.401 73.793C200.186 79.379 206.048 80.653 210.217 80.5721Z" fill="url(#paint8_linear_147_725)"/>
<path d="M206.759 121.839C206.813 122.95 206.907 123.879 206.992 124.569C207.18 126.095 207.353 126.7 207.59 127.249C207.797 127.731 208.313 128.774 208.56 128.702C208.806 128.629 208.553 127.47 208.357 124.248C208.329 123.78 208.243 122.291 208.243 122.291L206.759 121.839Z" fill="url(#paint9_linear_147_725)"/>
<path d="M192.14 70.1232C196.492 72.7338 200.36 76.0777 203.573 80.0069C206.088 83.0884 209.913 87.7828 211.297 94.7776C212.035 98.5062 211.672 101.851 210.912 108.388C210.315 113.564 209.423 118.702 208.241 123.777L206.939 124.3C205.777 122.164 204.256 118.783 203.711 114.459C202.82 107.387 205.466 105.139 204.193 100.123C203.092 95.7772 199.905 93.1127 193.529 87.7847C188.291 83.4061 183.46 80.8091 181.667 75.3482C181.363 74.4199 181.104 73.2826 181.601 72.2407C182.677 69.9961 186.773 69.2132 192.14 70.1232Z" fill="url(#paint10_linear_147_725)"/>
<path d="M187.322 42.6234C188.787 42.3086 191.196 42.3711 193.492 40.5627C194.184 40.0177 196.634 38.0889 196.336 35.3291C196.074 32.8996 193.772 31.5938 193.489 31.4388C191.858 30.5413 190.233 30.7406 188.431 30.9871C186.094 31.3068 185.318 31.9501 183.693 32.3834C179.676 33.4658 178.317 31.2057 174.272 31.3964C169.102 31.64 168.654 35.4581 164.304 35.5534C159.421 35.6603 158.485 30.8812 153.664 30.0714C146.971 28.9476 136.846 36.1524 137.049 44.4569C137.168 49.2543 140.739 54.7518 145.302 56.4023C147.96 57.3653 150.83 57.0581 151.649 58.7875C152.227 60.0182 150.921 60.9667 151.046 63.1102C151.204 65.8749 153.585 67.8152 153.969 68.1282C157.532 71.0363 165.536 69.5668 170.998 65.4521C180.847 58.0326 179.357 44.3375 187.322 42.6234Z" fill="#343439"/>
<path d="M176.321 41.2943C180.103 40.8278 183.907 40.568 187.718 40.5163C196.703 40.3949 197.989 41.5341 198.318 42.3777C198.932 43.9492 197.881 44.7378 198.478 47.4813C198.834 49.1183 198.497 49.8675 199.187 51.6287C199.861 53.3457 199.332 54.2682 198.738 58.2923C197.977 63.4393 197.626 66.0547 199.067 68.1289C200.067 69.5733 201.185 69.6927 201.08 70.3774C200.853 71.8363 195.808 71.0322 189.423 73.8325C187.574 74.6433 185.873 75.6418 184.446 76.4796C181.104 78.4421 180.486 79.1922 178.938 80.0801C174.045 82.8909 166.694 83.1615 162.842 79.7633C161.405 78.4951 160.358 76.6327 160.83 75.9509C161.471 75.0217 164.339 77.1315 166.972 75.845C168.716 74.9919 168.384 73.6139 170.4 71.9932C172.827 70.0375 174.514 71.062 176.165 69.79C178.741 67.8053 177.569 63.0493 176.846 55.0876C176.432 50.502 176.257 45.8981 176.321 41.2943Z" fill="url(#paint11_linear_147_725)"/>
<path d="M186.015 46.3317L187.012 46.1622C187.012 46.1622 188.688 42.01 190.322 43.1771C191.957 44.3442 190.757 44.5666 190.208 44.7033C189.659 44.8401 188.503 46.1324 188.282 46.7092C188.06 47.286 186.336 47.8589 186.336 47.8589L186.015 46.3317Z" fill="#D99C71"/>
<path d="M186.047 39.4437C184.822 40.2034 182.84 41.1972 182.623 41.4658C182.405 41.7345 188.624 42.8005 192.494 40.8476C192.494 40.8476 193.094 40.5145 190.761 40.0484C190.264 39.9521 190.361 38.9814 190.427 37.9819L189.96 37.1152C189.96 37.1152 187.27 38.6829 186.047 39.4437Z" fill="#E8BEA0"/>
<path d="M189.728 37.1576C189.728 37.1576 189.417 38.4778 190.581 39.1307C191.621 39.7152 193.384 37.3194 193.054 36.4287C192.945 36.1321 192.553 35.7546 192.142 35.6217C191.854 35.5312 190.763 35.5668 190.296 36.4884C190.174 36.2197 189.956 36.0791 189.808 36.1234C189.621 36.1793 189.593 36.5192 189.588 36.5962C189.575 36.7934 189.624 36.9896 189.728 37.1576Z" fill="#E8BEA0"/>
<path d="M196.871 47.0886L191.778 47.3457C191.586 47.3554 191.35 47.1137 191.398 46.949L193.777 39.2502C193.799 39.1858 193.842 39.1306 193.898 39.0934C193.955 39.0562 194.023 39.0392 194.09 39.0451L198.974 39.152C199.133 39.1616 199.221 39.4746 199.178 39.6335L197.155 46.8729C197.135 46.9332 197.097 46.9861 197.047 47.0246C196.996 47.063 196.935 47.0854 196.871 47.0886Z" fill="url(#paint12_linear_147_725)"/>
<path d="M196.995 46.9027L191.874 47.1435C191.681 47.1521 191.542 47.0115 191.59 46.8469L193.877 39.0152C193.899 38.9506 193.942 38.8952 193.999 38.858C194.056 38.8208 194.124 38.8039 194.192 38.8101L199.083 39.099C199.121 39.1014 199.157 39.1121 199.19 39.1305C199.222 39.1488 199.251 39.1743 199.272 39.205C199.294 39.2357 199.308 39.2708 199.314 39.3078C199.32 39.3448 199.318 39.3827 199.308 39.4187L197.279 46.6832C197.259 46.7442 197.221 46.7979 197.171 46.8371C197.12 46.8763 197.059 46.8992 196.995 46.9027Z" fill="#343439"/>
<g style="mix-blend-mode:multiply">
<path d="M194.388 42.2978C194.54 43.0094 195.181 42.8563 195.702 43.7182C196.366 44.813 195.73 45.7789 196.339 46.1804C196.524 46.3027 196.838 46.373 197.398 46.2286L197.253 46.7476C197.234 46.8087 197.196 46.8625 197.146 46.9017C197.095 46.941 197.034 46.9638 196.97 46.9672L191.849 47.2079C191.656 47.2166 191.517 47.076 191.565 46.9123L193.853 39.0796C193.874 39.0151 193.917 38.9598 193.974 38.9225C194.031 38.8853 194.099 38.8684 194.167 38.8745L194.901 38.9179C195 39.216 195.047 39.5284 195.043 39.8423C195.024 41.0219 194.211 41.4629 194.388 42.2978Z" fill="#343439"/>
</g>
<path style="mix-blend-mode:multiply" opacity="0.3" d="M191.921 69.2182C190.071 69.9885 189.822 71.6419 187.263 72.5827C184.822 73.4792 184.003 72.3554 181.569 73.0998C177.91 74.2178 176.516 77.746 175.962 77.4129C175.455 77.1086 175.942 73.7334 178.291 71.5475C180.988 69.0361 183.897 70.1859 185.624 67.5792C186.298 66.5643 186.813 64.9446 186.228 63.6966C185.433 62.0066 183.359 62.593 182.26 61.1929C180.285 58.6825 184.907 54.1528 183.639 50.3241C183.134 48.7959 181.521 46.8806 176.334 45.5989C176.404 49.4362 176.622 52.6438 176.846 55.0791C177.569 63.0456 178.741 67.7968 176.165 69.7815C174.514 71.0535 172.827 70.029 170.4 71.9847C168.384 73.6092 168.716 74.9872 166.972 75.8365C164.339 77.123 161.471 75.0142 160.83 75.9424C160.358 76.6252 161.408 78.4875 162.842 79.7557C166.693 83.1549 174.045 82.8834 178.938 80.0735C180.486 79.1847 181.104 78.4365 184.445 76.4721C185.873 75.6343 187.574 74.6357 189.423 73.8249C193.905 71.8595 197.722 71.6689 199.681 71.2249C195.791 68.6385 193.422 68.5951 191.921 69.2182Z" fill="url(#paint13_linear_147_725)"/>
<path d="M197.98 43.6083C196.619 44.3488 198.422 52.3529 200.979 56.3395C201.731 57.5124 204.225 59.3247 206.245 58.8056C207.798 58.406 208.639 55.0366 208.311 52.8738C208.014 50.9075 205.798 49.4698 202.978 46.9411C200.209 44.4576 198.778 43.174 197.98 43.6083Z" fill="#E8BEA0"/>
<path d="M198.713 43.825L199.025 42.8563C199.068 42.7236 199.063 42.58 199.012 42.4502C198.961 42.3203 198.866 42.2123 198.744 42.1447C198.395 41.9521 197.894 41.7826 197.514 42.0754C196.864 42.5761 197.963 45.1751 198.213 44.9748C198.462 44.7745 198.713 43.825 198.713 43.825Z" fill="#D99C71"/>
<path d="M182.603 42.2168C181.792 40.705 178.574 40.6761 176.479 41.1816C170.701 42.5818 164.791 50.1756 166.989 56.7959C167.124 57.2004 168.668 61.6463 172.252 62.4889C176.892 63.5809 183.575 58.3068 186.831 48.2555C186.514 47.5076 186.198 46.76 185.881 46.0128C184.134 47.8326 182.293 49.5603 180.365 51.1886C177.394 53.6981 175.085 55.2417 175.017 55.157C174.95 55.0722 177.257 53.6047 179.417 50.6706C180.81 48.7765 181.413 47.2627 181.832 46.1851C182.642 44.0917 183.049 43.044 182.603 42.2168Z" fill="#E8BEA0"/>
<path d="M255.126 13.0808L152.452 4.22165C149.527 3.96936 147.144 5.87408 147.144 8.48079V23.1581C147.144 25.7581 149.527 28.021 152.452 28.2011L255.126 34.4988C257.445 34.6413 259.316 32.8887 259.316 30.5863V17.6125C259.316 15.311 257.445 13.2811 255.126 13.0808Z" fill="#C6C5D2"/>
<path d="M206.685 39.0873L198.804 29.0774L214.432 30.0692L206.685 39.0873Z" fill="#C6C5D2"/>
<path d="M168.8 18.8182L159.38 18.1374C157.762 18.0199 156.448 19.1004 156.448 20.5506V22.6604L171.662 23.6859V21.6088C171.658 20.1818 170.381 18.9328 168.8 18.8182Z" fill="white"/>
<path d="M167.732 14.2654C167.732 16.0633 166.116 17.4018 164.114 17.2506C162.112 17.0994 160.467 15.5173 160.467 13.7011C160.467 11.885 162.104 10.5523 164.114 10.716C166.124 10.8797 167.732 12.4666 167.732 14.2654Z" fill="white"/>
<path d="M176.34 22.1317C176.759 22.1964 177.182 22.2258 177.605 22.2193C178.483 22.228 179.379 22.0633 180.046 21.6926C180.426 21.4856 180.76 21.2036 181.027 20.8638C181.295 20.524 181.491 20.1334 181.603 19.7156L181.546 19.6945C180.996 20.1759 180.198 20.4147 179.074 20.3348C176.973 20.1846 175.189 18.7094 175.189 16.5042C175.189 14.2817 177.145 12.5657 179.874 12.7824C183.042 13.0347 184.533 15.3718 184.533 18.0045C184.533 20.3435 183.722 22.0027 182.38 23.0369C181.205 23.9295 179.587 24.36 177.662 24.3003C177.22 24.2973 176.779 24.2678 176.34 24.2117V22.1317ZM178.102 16.5629C178.102 17.5394 178.674 18.4195 179.855 18.5062C180.635 18.563 181.186 18.2558 181.452 17.8764C181.548 17.7262 181.603 17.5567 181.603 17.2264C181.603 16.0275 181.11 14.8075 179.798 14.7054C178.808 14.637 178.082 15.3785 178.102 16.5629Z" fill="white"/>
<path d="M194.044 16.2433L189.369 15.8831L189.108 17.5866C189.369 17.5768 189.631 17.5851 189.891 17.6116C191.046 17.6983 192.214 18.0267 193.069 18.6574C193.974 19.2901 194.528 20.2569 194.528 21.5597C194.528 23.633 192.602 25.3384 189.355 25.1227C187.879 25.0264 186.643 24.6296 185.967 24.256L186.473 22.3195C187.337 22.7332 188.269 22.9855 189.224 23.0639C190.397 23.1448 191.643 22.7153 191.643 21.5289C191.643 20.3734 190.657 19.603 188.235 19.423C187.686 19.3774 187.135 19.3716 186.586 19.4056L187.392 13.575L194.048 14.1036L194.044 16.2433Z" fill="white"/>
<path d="M221.58 19.4009C221.462 17.2747 219.975 15.4432 218.126 15.1562C216.657 14.929 215.353 15.6897 214.659 16.9675C213.965 15.5799 212.653 14.6064 211.167 14.5967C209.281 14.5852 207.753 16.201 207.632 18.3417C207.592 19.0067 207.688 19.673 207.914 20.3C208.139 20.9269 208.49 21.5013 208.945 21.9884L214.278 26.4247C214.381 26.5176 214.512 26.5732 214.65 26.5827C214.788 26.5921 214.926 26.5548 215.04 26.4767L220.302 22.8069C221.143 22.0317 221.654 20.8049 221.58 19.4009Z" fill="white"/>
<path d="M233.283 17.2178V18.7932L228.726 27.581L225.966 27.3952L230.552 19.0917V19.0589L225.448 18.6651V16.5957L233.283 17.2178Z" fill="white"/>
<path d="M242.043 19.9448L237.844 19.6212L237.61 21.2371C237.844 21.2265 238.079 21.2332 238.313 21.2573C239.348 21.3353 240.399 21.6425 241.163 22.2366C241.977 22.8336 242.474 23.7475 242.474 24.982C242.474 26.9474 240.747 28.5699 237.828 28.3735C236.503 28.2849 235.393 27.9151 234.787 27.5637L235.241 25.7273C236.012 26.1144 236.85 26.3504 237.71 26.4226C238.765 26.4958 239.882 26.0836 239.882 24.9598C239.882 23.8679 238.998 23.1302 236.822 22.9762C236.33 22.9347 235.835 22.9315 235.342 22.9665L236.066 17.4382L242.043 17.9139V19.9448Z" fill="white"/>
<path d="M243.88 25.8449C243.88 24.5796 244.622 23.7582 245.791 23.3412V23.2931C244.754 22.698 244.243 21.8015 244.243 20.8771C244.243 19.0937 245.873 18.0402 248.005 18.2097C250.484 18.4023 251.507 19.9035 251.507 21.1736C251.507 22.074 251.02 22.9214 249.979 23.3595V23.4077C251.004 23.8699 251.913 24.804 251.913 26.154C251.913 28.0501 250.305 29.2114 247.841 29.0429C245.134 28.8647 243.88 27.272 243.88 25.8449ZM249.393 26.1531C249.393 25.2344 248.708 24.6364 247.727 24.3071C246.907 24.4737 246.432 25.0216 246.432 25.7823C246.431 26.1887 246.588 26.5795 246.869 26.8731C247.15 27.1667 247.534 27.3403 247.94 27.3577C248.822 27.4184 249.393 26.8936 249.393 26.1531ZM246.6 20.9753C246.6 21.6869 247.256 22.1886 248.107 22.5112C248.679 22.3927 249.185 21.9142 249.185 21.2536C249.185 20.6084 248.809 19.9343 247.894 19.8631C247.039 19.7976 246.596 20.3128 246.596 20.9753H246.6Z" fill="white"/>
<path d="M12.2149 196.292C12.2149 196.292 12.1668 194.903 11.4677 194.056C10.7686 193.209 6.36402 192.804 4.66056 193.035C2.9571 193.266 0.953194 193.646 0.650828 193.818C0.348461 193.99 4.36782 196.047 8.25814 196.291L12.1485 196.535L12.2149 196.292Z" fill="#151516"/>
<path d="M18.1082 201.94C17.152 201.492 10.3776 197.142 7.6255 196.319C4.87339 195.496 9.86822 195.494 10.6299 195.322C11.3916 195.151 12.784 196.504 14.9391 197.19C17.0942 197.877 19.778 198.766 19.778 198.766L18.1082 201.94Z" fill="#E8BEA0"/>
<path d="M45.8411 183.011C46.6009 186.634 47.5446 193.618 44.5219 199.401C43.6331 201.1 42.8742 201.794 42.0182 202.114C39.0138 203.234 35.8351 199.4 31.8956 197.211C28.5937 195.376 23.4679 193.98 15.3887 195.711L13.3136 201.567C22.4423 206.663 30.4002 209.656 36.0392 211.442C47.325 215.025 50.4835 214.172 52.4248 213.127C56.1254 211.136 57.6247 207.091 60.4828 199.083C62.3647 193.809 63.7757 188.379 64.6995 182.857L45.8411 183.011Z" fill="url(#paint14_linear_147_725)"/>
<path style="mix-blend-mode:multiply" opacity="0.3" d="M57.6788 182.915C52.9728 202.802 48.835 207.759 45.6486 207.825C42.0096 207.902 38.7558 201.618 31.6858 202.097C27.8802 202.354 26.5148 204.332 23.4834 203.81C19.7385 203.165 17.1732 199.343 15.4832 195.691L15.3869 195.711L13.3117 201.567C22.4405 206.663 30.3983 209.656 36.0374 211.442C47.3232 215.025 50.4817 214.172 52.423 213.127C56.1236 211.136 57.6229 207.091 60.4809 199.083C62.3628 193.809 63.7739 188.379 64.6977 182.857L57.6788 182.915Z" fill="url(#paint15_linear_147_725)"/>
<path d="M65.8225 258.377C65.8225 258.377 64.6582 259.136 64.2962 260.173C63.9341 261.21 65.8639 265.187 66.9433 266.529C68.0228 267.87 69.3844 269.385 69.6887 269.554C69.993 269.724 69.6733 265.221 67.8687 261.765L66.0632 258.308L65.8225 258.377Z" fill="#151516"/>
<path d="M65.5113 124.697C69.8735 122.364 74.72 117.378 73.8351 113.449C73.2005 110.629 70.0796 110.433 68.7054 106.719C67.1888 102.633 69.2967 98.3763 69.7377 97.4875C72.9713 90.9567 78.8068 92.3684 83.949 86.5223C87.846 82.0928 90.6896 74.2303 87.848 66.9995C85.507 61.0523 79.7736 56.6959 73.2698 55.8485C66.6158 54.9818 59.9118 57.8842 56.5906 62.5333C53.1644 67.3269 55.4273 71.0535 51.718 74.3295C47.8662 77.7287 44.2561 74.7551 39.8044 78.0782C35.4711 81.3157 33.4816 88.1815 35.0127 93.2274C36.2713 97.3681 39.0629 97.5212 39.2632 100.88C39.5521 105.814 33.6598 107.568 33.6165 112.285C33.577 116.529 38.307 119.731 41.1275 121.641C42.1241 122.314 54.6329 130.513 65.5113 124.697Z" fill="#343439"/>
<path d="M67.6038 250.411C67.7145 251.461 67.4978 259.508 68.2172 262.289C68.9365 265.07 66.351 260.797 65.8098 260.234C65.2686 259.671 65.7067 257.779 65.179 255.58C64.6513 253.381 64.0235 250.624 64.0235 250.624L67.6038 250.411Z" fill="#E8BEA0"/>
<path d="M49.7402 178.686C47.4185 181.256 49.2587 186.533 51.928 194.21C55.1943 203.591 58.0697 205.346 58.8266 211.826C59.4862 217.478 57.7953 220.397 56.9257 225.064C55.7105 231.589 56.1323 241.359 64.0814 254.997L68.4282 253.633C68.5392 242.278 68.7357 230.787 69.0175 219.159C69.239 210.108 69.5099 201.14 69.8302 192.256C71.2554 189.261 71.058 187.105 70.7431 185.865C68.7373 177.977 53.6112 174.405 49.7402 178.686Z" fill="url(#paint16_linear_147_725)"/>
<path d="M69.6771 117.591C69.6771 117.591 61.8897 130.056 62.0515 130.901C62.2133 131.745 71.524 128.264 71.524 128.264C71.524 128.264 69.4152 124.612 71.8235 120.426L69.6771 117.591Z" fill="#E8BEA0"/>
<path d="M67.9775 121.236C67.9775 121.236 70.7103 122.917 73.0407 120.792C75.1274 118.888 71.0589 113.151 68.8152 113.228C68.067 113.253 66.9182 113.85 66.325 114.672C65.9081 115.25 65.1753 117.727 66.8893 119.458C66.196 119.533 65.7165 119.92 65.7059 120.283C65.6924 120.745 66.4358 121.054 66.6033 121.131C67.0393 121.308 67.5197 121.345 67.9775 121.236Z" fill="#E8BEA0"/>
<path d="M109.767 91.6828C109.767 91.6828 109.736 89.5816 108.419 87.9273C107.101 86.2729 106.654 85.1848 106.654 85.1848C106.654 85.1848 108.002 85.1126 108.209 86.5195C108.416 87.9263 110.37 83.2204 110.935 82.2035C111.5 81.1866 113.94 80.0715 113.94 80.0715C113.94 80.0715 112.384 85.9378 111.793 87.0577C111.202 88.1777 111.251 91.6308 111.251 91.6308L109.767 91.6828Z" fill="#E8BEA0"/>
<path d="M108.694 91.0135L112.24 89.9956C117.384 104.772 116.007 114.397 112.346 120.885C105.504 133.018 93.0017 130.076 84.0905 143.859C77.3181 154.334 76.9647 167.74 76.7451 176.342C76.4158 188.993 78.9339 198.618 75.0186 200.48C72.641 201.61 70.7354 198.527 63.9677 197.237C57.2271 195.952 55.5015 198.322 49.1441 197.911C40.776 197.366 30.5658 192.401 29.783 186.095C29.3756 182.821 31.6029 179.876 34.9222 175.492C38.5901 170.648 40.4303 170.372 43.2036 167.166C50.1253 159.167 45.6765 152.79 52.6839 140.459C54.032 138.088 56.1139 134.496 60.0639 131.102C65.0356 126.828 69.5365 125.816 75.4134 123.822C86.989 119.895 97.5247 116.321 103.435 108.483C105.628 105.581 108.569 100.262 108.694 91.0135Z" fill="url(#paint17_linear_147_725)"/>
<path style="mix-blend-mode:multiply" opacity="0.3" d="M112.239 89.9956L111.669 90.1593C114.961 110.04 111.02 118.007 106.587 121.544C102.35 124.924 99.6296 122.699 91.0834 126.683C88.599 127.839 73.1725 135.038 70.7238 147.712C69.4825 154.131 72.5312 156.985 69.6452 161.482C66.7699 165.959 62.635 164.858 59.1828 169.905C56.1013 174.406 58.4124 176.719 55.6305 181.08C52.2678 186.358 43.8699 190.854 37.6772 187.628C34.0873 185.758 32.5408 181.972 31.8995 179.659C30.3703 181.985 29.5239 183.97 29.7877 186.094C30.5706 192.4 40.7808 197.361 49.1488 197.91C55.5043 198.324 57.2318 195.954 63.9725 197.236C70.7401 198.526 72.6458 201.609 75.0233 200.479C78.9387 198.617 76.4206 188.992 76.7499 176.342C76.9743 167.738 77.3277 154.333 84.0953 143.858C93.0065 130.075 105.508 133.014 112.351 120.884C116.007 114.399 117.388 104.769 112.239 89.9956Z" fill="url(#paint18_linear_147_725)"/>
<path d="M119.224 14.3374L79.1112 29.2507C75.8073 30.4784 74.2088 33.998 75.5579 37.1045L84.886 58.5783C86.2341 61.6848 89.9896 63.1254 93.2511 61.8032L106.202 56.5532L115.254 61.0223C115.516 61.1523 115.819 61.1765 116.099 61.09C116.378 61.0034 116.614 60.8127 116.758 60.5572L119.512 51.1588L132.868 45.7451C133.58 45.4636 134.228 45.0416 134.773 44.5041C135.318 43.9667 135.749 43.3248 136.041 42.617C136.332 41.9091 136.478 41.1498 136.469 40.3843C136.461 39.6188 136.298 38.863 135.991 38.1618L127.083 17.6509C125.793 14.6889 122.282 13.2011 119.224 14.3374Z" fill="#F95C3A"/>
<path d="M119.733 13.3758L79.6207 28.288C76.3168 29.5158 74.7183 33.0354 76.0674 36.1419L85.3945 57.6157C86.7427 60.7221 90.4982 62.1627 93.7597 60.8406L106.711 55.5906L115.54 59.9508C115.688 60.0237 115.849 60.0639 116.014 60.0685C116.179 60.0731 116.343 60.042 116.494 59.9775C116.646 59.9129 116.782 59.8164 116.893 59.6945C117.004 59.5725 117.087 59.4281 117.137 59.271L120.019 50.1961L133.374 44.7853C134.086 44.5041 134.734 44.0822 135.279 43.5448C135.824 43.0074 136.256 42.3655 136.547 41.6576C136.839 40.9497 136.985 40.1903 136.976 39.4248C136.968 38.6592 136.805 37.9032 136.497 37.2021L127.59 16.6912C126.303 13.7263 122.791 12.2385 119.733 13.3758Z" fill="#FF9559"/>
<path d="M118.918 28.9061C116.936 24.9407 112.69 22.7201 109.062 23.7852C106.173 24.6297 104.414 27.2335 104.205 30.2986C101.765 28.2379 98.53 27.5147 95.775 28.8012C92.2718 30.4382 90.7898 34.9082 92.3623 39.1491C93.4013 41.9522 95.4871 44.036 97.8511 45.0231L111.401 48.8286C111.671 48.9134 111.963 48.9022 112.226 48.7969C112.489 48.6917 112.708 48.4988 112.845 48.2509L119.418 36.5549C120.314 34.3256 120.226 31.5292 118.918 28.9061Z" fill="white"/>
<path d="M49.8518 17.0733L32.8076 39.303C31.4036 41.1326 31.7426 43.6411 33.5722 44.893L46.2186 53.5508C48.0482 54.8027 50.6299 54.2952 51.978 52.4261L57.3291 45.0114L63.9013 44.3373C64.0924 44.3181 64.2688 44.2262 64.3942 44.0808C64.5196 43.9353 64.5845 43.7473 64.5754 43.5554L62.8305 37.3868L68.3482 29.7371C68.645 29.3333 68.8573 28.8739 68.9724 28.3862C69.0876 27.8986 69.1033 27.3927 69.0185 26.8989C68.9338 26.405 68.7503 25.9333 68.4791 25.512C68.2079 25.0906 67.8545 24.7283 67.4401 24.4466L55.3618 16.1777C53.615 14.9808 51.1509 15.3785 49.8518 17.0733Z" fill="#F95C3A"/>
<path d="M49.7988 16.3626L32.7546 38.5913C31.3506 40.421 31.6896 42.9246 33.5192 44.1822L46.1656 52.8401C47.9952 54.092 50.5769 53.5845 51.925 51.7154L57.2761 44.3007L63.6875 43.644C63.7948 43.6331 63.8985 43.5992 63.9915 43.5445C64.0845 43.4898 64.1646 43.4156 64.2263 43.3271C64.2879 43.2385 64.3297 43.1377 64.3487 43.0315C64.3677 42.9253 64.3636 42.8163 64.3365 42.7118L62.7746 36.678L68.2933 29.0283C68.59 28.6245 68.8023 28.1651 68.9175 27.6774C69.0327 27.1898 69.0484 26.6839 68.9636 26.1901C68.8788 25.6962 68.6954 25.2245 68.4242 24.8032C68.153 24.3818 67.7996 24.0195 67.3852 23.7378L55.3088 15.4661C53.562 14.2701 51.0978 14.6678 49.7988 16.3626Z" fill="#FF9559"/>
<path d="M54.7533 25.2555C52.2727 23.7446 49.148 23.994 47.5071 25.8458C46.2013 27.3181 46.1301 29.375 47.0815 31.1468C45.0121 30.8579 42.9677 31.5792 41.8883 33.2509C40.5161 35.378 41.2508 38.3718 43.5985 40.1754C45.1498 41.3676 47.0314 41.7961 48.6877 41.5236L57.5228 38.9169C57.7024 38.8694 57.8602 38.7614 57.9693 38.611C58.0785 38.4606 58.1323 38.2771 58.1217 38.0916L57.6942 29.3211C57.4139 27.7726 56.3922 26.2531 54.7533 25.2555Z" fill="white"/>
<path d="M86.2437 0.472936L65.9158 4.39889C64.2413 4.72244 63.1993 6.27472 63.5961 7.86551L66.3395 18.8566C66.7363 20.4465 68.4128 21.4316 70.0748 21.0599L76.673 19.5846L80.6355 22.4369C80.7505 22.5197 80.8929 22.5553 81.0333 22.5363C81.1738 22.5173 81.3016 22.4452 81.3905 22.3348L83.4521 18.0689L90.2554 16.5475C90.6175 16.4698 90.9602 16.3199 91.2631 16.1067C91.566 15.8936 91.8229 15.6217 92.0184 15.3071C92.2138 14.9926 92.3439 14.6418 92.4009 14.2759C92.4578 13.9099 92.4405 13.5362 92.3498 13.1772L89.7296 2.68098C89.5349 1.94073 89.0672 1.3016 88.4205 0.892008C87.7739 0.482413 86.9962 0.332695 86.2437 0.472936Z" fill="#F95C3A"/>
<path d="M86.5625 0.0531531L66.2356 3.98007C64.561 4.30362 63.5181 5.8559 63.9149 7.4467L66.6593 18.4369C67.056 20.0267 68.7325 21.0128 70.3946 20.6411L76.9918 19.1629L80.858 21.9459C80.9225 21.9925 80.9963 22.0247 81.0743 22.0403C81.1524 22.0559 81.2329 22.0545 81.3103 22.0362C81.3878 22.018 81.4604 21.9832 81.5233 21.9344C81.5861 21.8856 81.6377 21.8238 81.6746 21.7533L83.7719 17.6521L90.5752 16.1306C90.9373 16.053 91.2801 15.9032 91.583 15.6901C91.886 15.477 92.1428 15.205 92.3382 14.8904C92.5337 14.5758 92.6636 14.225 92.7204 13.859C92.7772 13.493 92.7596 13.1193 92.6686 12.7603L90.0494 2.26409C89.67 0.743591 88.1148 -0.245362 86.5625 0.0531531Z" fill="#FF9559"/>
<path d="M84.937 7.40047C84.3073 5.34745 82.4574 3.9531 80.6413 4.17169C79.1969 4.34503 78.1492 5.44761 77.8054 6.89396C76.8049 5.71627 75.3191 5.11346 73.9026 5.50827C72.0999 6.01093 71.0378 8.02639 71.4509 10.1757C71.7234 11.5951 72.5535 12.7564 73.6041 13.416L79.7669 16.3049C79.8896 16.367 80.0299 16.3848 80.1641 16.3553C80.2984 16.3258 80.4183 16.2509 80.5036 16.1431L84.5701 11.0847C85.1749 10.0977 85.3549 8.75534 84.937 7.40047Z" fill="white"/>
<defs>
<linearGradient id="paint0_linear_147_725" x1="-7.02639" y1="218.39" x2="287.128" y2="15.2187" gradientUnits="userSpaceOnUse">
<stop stop-color="#F5F4F8"/>
<stop offset="1" stop-color="#E1E1E7"/>
</linearGradient>
<linearGradient id="paint1_linear_147_725" x1="194.667" y1="64.3984" x2="99.7076" y2="217.069" gradientUnits="userSpaceOnUse">
<stop stop-color="#C93329"/>
<stop offset="1" stop-color="#9A1B13"/>
</linearGradient>
<linearGradient id="paint2_linear_147_725" x1="198.771" y1="61.9853" x2="104.137" y2="214.133" gradientUnits="userSpaceOnUse">
<stop stop-color="#FF9559"/>
<stop offset="1" stop-color="#F95C3A"/>
</linearGradient>
<linearGradient id="paint3_linear_147_725" x1="106127" y1="280283" x2="285554" y2="517469" gradientUnits="userSpaceOnUse">
<stop stop-color="#FF9559"/>
<stop offset="1" stop-color="#C93329"/>
</linearGradient>
<linearGradient id="paint4_linear_147_725" x1="208.575" y1="50.6746" x2="193.899" y2="50.6746" gradientUnits="userSpaceOnUse">
<stop stop-color="#FFC444"/>
<stop offset="1" stop-color="#F36F56"/>
</linearGradient>
<linearGradient id="paint5_linear_147_725" x1="221.67" y1="85.9109" x2="192.379" y2="85.9109" gradientUnits="userSpaceOnUse">
<stop stop-color="#AA80F9"/>
<stop offset="1" stop-color="#6165D7"/>
</linearGradient>
<linearGradient id="paint6_linear_147_725" x1="221.67" y1="85.9109" x2="192.379" y2="85.9109" gradientUnits="userSpaceOnUse">
<stop stop-color="#595866"/>
<stop offset="1" stop-color="#343439"/>
</linearGradient>
<linearGradient id="paint7_linear_147_725" x1="212.243" y1="117.509" x2="206.849" y2="139.755" gradientUnits="userSpaceOnUse">
<stop stop-color="#444B8C"/>
<stop offset="1" stop-color="#26264F"/>
</linearGradient>
<linearGradient id="paint8_linear_147_725" x1="-70531.4" y1="35996.4" x2="-62880.8" y2="35996.4" gradientUnits="userSpaceOnUse">
<stop stop-color="#595866"/>
<stop offset="1" stop-color="#343439"/>
</linearGradient>
<linearGradient id="paint9_linear_147_725" x1="8960.94" y1="7100.55" x2="9428.53" y2="4956.26" gradientUnits="userSpaceOnUse">
<stop stop-color="#FFC444"/>
<stop offset="1" stop-color="#F36F56"/>
</linearGradient>
<linearGradient id="paint10_linear_147_725" x1="-80135.1" y1="73099.8" x2="-66061.7" y2="82622.7" gradientUnits="userSpaceOnUse">
<stop stop-color="#595866"/>
<stop offset="1" stop-color="#343439"/>
</linearGradient>
<linearGradient id="paint11_linear_147_725" x1="89760.9" y1="48801.1" x2="101939" y2="38211.8" gradientUnits="userSpaceOnUse">
<stop stop-color="#98DD62"/>
<stop offset="1" stop-color="#57A41B"/>
</linearGradient>
<linearGradient id="paint12_linear_147_725" x1="13686" y1="-12797" x2="13844.2" y2="-12607.2" gradientUnits="userSpaceOnUse">
<stop stop-color="#AA80F9"/>
<stop offset="1" stop-color="#6165D7"/>
</linearGradient>
<linearGradient id="paint13_linear_147_725" x1="87015.2" y1="43242.9" x2="97799.6" y2="32932.4" gradientUnits="userSpaceOnUse">
<stop stop-color="#FFC444"/>
<stop offset="1" stop-color="#F36F56"/>
</linearGradient>
<linearGradient id="paint14_linear_147_725" x1="26838.5" y1="77801.5" x2="54754.7" y2="76138.1" gradientUnits="userSpaceOnUse">
<stop stop-color="#595866"/>
<stop offset="1" stop-color="#343439"/>
</linearGradient>
<linearGradient id="paint15_linear_147_725" x1="26844.3" y1="77899.5" x2="54760.6" y2="76236.1" gradientUnits="userSpaceOnUse">
<stop stop-color="#444B8C"/>
<stop offset="1" stop-color="#26264F"/>
</linearGradient>
<linearGradient id="paint16_linear_147_725" x1="30221.9" y1="222617" x2="47087" y2="216740" gradientUnits="userSpaceOnUse">
<stop stop-color="#595866"/>
<stop offset="1" stop-color="#343439"/>
</linearGradient>
<linearGradient id="paint17_linear_147_725" x1="94106.3" y1="249524" x2="137649" y2="213375" gradientUnits="userSpaceOnUse">
<stop stop-color="#98DD62"/>
<stop offset="1" stop-color="#74C733"/>
</linearGradient>
<linearGradient id="paint18_linear_147_725" x1="97349.3" y1="253430" x2="140891" y2="217283" gradientUnits="userSpaceOnUse">
<stop stop-color="#AA80F9"/>
<stop offset="1" stop-color="#6165D7"/>
</linearGradient>
</defs>
</svg>
