<svg width="209" height="214" viewBox="0 0 209 214" fill="none" xmlns="http://www.w3.org/2000/svg">
<path d="M200.122 65.2863C205.618 15.241 157.091 -2.14551 122.692 10.6681C88.0117 23.5859 79.9712 2.17231 31.2044 8.28834C-18.1746 14.4832 6.89605 91.9829 6.89605 91.9829C6.89605 91.9829 14.7499 159.374 24.0586 190.439C33.3168 221.334 121.936 210.157 143.494 209.235C164.928 208.318 183.553 210.088 202.201 176.165C220.815 142.303 194.645 115.166 200.122 65.2863Z" fill="url(#paint0_linear_147_1010)"/>
<path d="M57.5098 187.723C55.8652 186.946 52.9725 183.806 52.556 182.676C49.7846 175.161 43.6809 161.427 46.7543 153.537C47.2802 152.19 53.8324 152.901 55.1006 151.918C59.3886 151.358 60.9104 151.43 64.7247 148.895C75.9859 141.411 63.8574 116.595 87.2411 116.816C104.369 116.977 115.771 126.583 121.91 101.903C128.049 77.2223 161.428 39.4284 181.472 64.5135C192.976 78.9104 171.481 94.6326 174.109 112.21C176.606 128.912 166.671 138.784 148.591 142.474C130.511 146.163 136.528 155.443 136.546 170.553C136.568 188.704 110.356 183.439 98.4629 179.977C88.8879 177.189 62.6182 176.553 57.5098 187.723Z" fill="#E1E1E7"/>
<g style="mix-blend-mode:soft-light">
<g style="mix-blend-mode:soft-light">
<path d="M49.6372 168.799L49.603 168.557C64.7491 166.414 79.3396 161.974 92.9706 155.361C106.069 149.005 118.302 140.636 129.329 130.488C150.738 110.781 167.263 84.6822 177.11 55.0049L177.343 55.0793C167.481 84.7967 150.938 110.935 129.494 130.667C118.45 140.831 106.198 149.213 93.0777 155.58C79.4237 162.206 64.8086 166.654 49.6372 168.799Z" fill="#FCFDFE"/>
</g>
<g style="mix-blend-mode:soft-light">
<path d="M137.464 178.04C131.016 173.34 121.653 168.863 111.101 165.434C100.925 162.127 90.5346 160.134 82.5945 159.966L82.5997 159.72C90.5629 159.889 100.978 161.887 111.177 165.2C121.753 168.638 131.14 173.127 137.609 177.843L137.464 178.04Z" fill="#FCFDFE"/>
</g>
<g style="mix-blend-mode:soft-light">
<path d="M61.1789 167.034L61.0792 166.811C69.1949 163.174 75.1587 155.581 78.8056 144.233C81.4766 135.923 82.8653 125.832 82.9322 114.238H83.1777C83.11 125.856 81.7176 135.973 79.0384 144.307C75.37 155.722 69.3615 163.367 61.1789 167.034Z" fill="#FCFDFE"/>
</g>
<g style="mix-blend-mode:soft-light">
<path d="M132.446 127.738L132.334 127.52C140.553 123.317 154.915 119.556 176.67 125.506L176.606 125.742C154.927 119.81 140.626 123.555 132.446 127.738Z" fill="#FCFDFE"/>
</g>
<g style="mix-blend-mode:soft-light">
<path d="M156.818 98.2158L156.595 98.1236C159.645 90.6124 163.456 74.5831 154.76 51.6524L154.989 51.5654C157.922 59.2997 159.727 67.3456 160.207 74.8337C160.756 83.4493 159.616 91.3159 156.818 98.2158Z" fill="#FCFDFE"/>
</g>
</g>
<path d="M98.0501 199.896C88.9013 198.607 79.7642 197.117 70.6387 195.426C70.4899 195.555 67.4917 176.502 76.938 166.51C95.6164 147.154 83.0372 129.781 79.4461 119.487C73.7597 104.986 76.7506 89.2761 92.1592 89.0441C109.25 88.4655 112.348 61.3643 109.25 36.7113C106.856 24.6882 118.697 10.1001 130.512 6.76623C142.575 3.07236 154.611 10.6334 158.301 34.5985C163.886 62.3467 142.749 79.0795 134.923 92.9916C127.221 106.649 145.137 117.698 130.717 129.799C118.588 140.551 103.301 148.281 108.893 161.786C114.638 175.14 113.263 186.056 98.0501 199.896Z" fill="url(#paint1_linear_147_1010)"/>
<g style="mix-blend-mode:soft-light">
<g style="mix-blend-mode:soft-light">
<path d="M85.7522 201.02H85.5074C85.5074 200.851 94.2434 160.787 109.318 121.78C111.401 115.459 113.662 109.091 115.849 102.931C121.707 86.4313 127.765 69.3698 130.642 52.3789C133.858 33.3838 132.712 16.2747 127.137 0.0743681L127.37 0C132.957 16.2368 134.106 33.3824 130.883 52.4161C128.003 69.4256 121.943 86.4968 116.082 103.006C113.895 109.165 111.634 115.534 109.55 121.855C95.133 159.165 85.8384 199.893 85.7522 201.02Z" fill="#FCFDFE"/>
</g>
<g style="mix-blend-mode:soft-light">
<path d="M126.679 70.9888L126.497 70.8319C136.698 59.9742 149.005 44.5428 155.616 36.2508C160.55 30.0641 160.938 29.6171 161.125 29.6446L161.087 29.8767L161.106 29.7607L161.147 29.8685C160.9 30.0172 158.767 32.6893 155.811 36.3928C149.2 44.6878 136.889 60.1229 126.679 70.9888Z" fill="#FCFDFE"/>
</g>
<g style="mix-blend-mode:soft-light">
<path d="M129.873 56.1285C127.754 43.6347 122.373 35.4222 118.232 30.7355C113.646 25.5461 109.471 23.3315 109.083 23.3121C109.1 23.3119 109.117 23.3067 109.131 23.2972L108.994 23.1017C109.055 23.063 109.135 23.0615 109.384 23.1649C110.51 23.6334 114.717 26.156 119.136 31.4197C124.705 38.0511 128.501 46.5834 130.114 56.0936L129.873 56.1285Z" fill="#FCFDFE"/>
</g>
<g style="mix-blend-mode:soft-light">
<path d="M100.596 147.272L100.352 147.244C101.793 135.656 98.975 123.192 91.9772 110.198C88.3281 103.424 83.6756 96.7872 78.1477 90.4726C77.7668 90.0375 77.6106 89.8583 77.5675 89.7877L77.7802 89.6702C77.8137 89.7252 78.0324 89.9758 78.3351 90.3216C83.875 96.6496 88.5379 103.3 92.1944 110.091C99.2152 123.126 102.042 135.636 100.596 147.272Z" fill="#FCFDFE"/>
</g>
<g style="mix-blend-mode:soft-light">
<path d="M104.727 135.059L104.519 134.936C115.473 117.98 138.55 116.811 138.743 116.864L138.835 116.974L138.751 117.089L138.712 116.98L138.699 117.094C138.597 117.094 132.878 117.324 125.608 119.788C119.176 121.967 110.333 126.383 104.727 135.059Z" fill="#FCFDFE"/>
</g>
<g style="mix-blend-mode:soft-light">
<path d="M87.2792 194.487L87.0345 194.475C87.2279 189.426 85.3453 180.819 75.2764 168.497C74.7476 167.849 74.7476 167.848 74.7557 167.775L74.9982 167.808L74.877 167.792L74.9908 167.753C75.0161 167.8 75.2139 168.044 75.4668 168.352C85.5841 180.733 87.4741 189.398 87.2792 194.487Z" fill="#FCFDFE"/>
</g>
<g style="mix-blend-mode:soft-light">
<path d="M89.6043 184.979L89.3693 184.913C90.6761 180.591 94.5856 176.34 100.987 172.277C106.012 169.088 110.966 167.045 112.595 166.373C112.838 166.273 112.999 166.206 113.053 166.18L113.164 166.389C113.103 166.419 112.949 166.483 112.691 166.589C111.068 167.258 106.129 169.296 101.122 172.473C94.77 176.504 90.8948 180.711 89.6043 184.979Z" fill="#FCFDFE"/>
</g>
</g>
<path d="M118.08 37.8056L136.96 194.707C137.243 197.059 135.621 199.169 133.349 199.392L54.7114 208.025C49.8945 208.322 47.2569 205.863 46.9594 203.362L27.1378 36.5503C26.8402 34.0627 29.2055 31.8101 34.0432 31.8101L113.396 33.4811C115.694 33.5198 117.798 35.4653 118.08 37.8056Z" fill="#161516"/>
<path d="M121.621 37.5358L140.602 195.219C140.887 197.583 139.26 199.703 136.98 199.93L55.4546 208.048C52.8989 208.302 50.5566 206.453 50.2576 203.939L30.3236 36.2656C30.0261 33.7646 31.9035 31.7552 34.4889 31.7983L116.918 33.189C119.223 33.2284 121.336 35.1843 121.621 37.5358Z" fill="#595866"/>
<path d="M120.072 46.2338L137.667 192.441C137.933 194.65 136.41 196.627 134.275 196.834L57.6035 204.286C55.2278 204.517 53.0499 202.791 52.7688 200.451L34.3507 45.5571C34.074 43.2286 35.8167 41.3448 38.2185 41.3709L115.677 42.1956C117.832 42.2179 119.807 44.0355 120.072 46.2338Z" fill="#F5F4F8"/>
<path d="M78.9566 37.4273C79.057 38.2669 78.4545 38.9392 77.6103 38.9281C76.766 38.9169 75.9969 38.2268 75.8995 37.3857C75.8021 36.5446 76.4038 35.873 77.2495 35.8857C78.0952 35.8983 78.8561 36.5922 78.9566 37.4273Z" fill="white"/>
<g style="mix-blend-mode:soft-light" opacity="0.5">
<g style="mix-blend-mode:soft-light" opacity="0.5">
<path d="M106.82 144.376C91.1253 115.361 67.6753 106.675 60.6159 76.7754C56.8002 60.6115 59.3998 45.14 63.7785 32.2966L34.492 31.8021C31.908 31.7589 30.0291 33.7684 30.3266 36.2694L50.2606 203.943C50.5581 206.457 52.9019 208.306 55.4576 208.052L119.539 201.668C120.015 175.669 113.811 157.31 106.82 144.376Z" fill="white"/>
</g>
</g>
<path d="M122.682 161.382L61.0532 164.859C60.2115 164.907 59.3822 164.639 58.7285 164.107C58.0748 163.574 57.644 162.817 57.5209 161.983L57.4733 161.67C57.1631 159.631 58.6931 157.747 60.746 157.642L122.361 154.466C123.202 154.423 124.029 154.693 124.683 155.223C125.337 155.753 125.772 156.507 125.904 157.338V157.349C125.982 157.829 125.959 158.32 125.836 158.79C125.713 159.261 125.492 159.7 125.188 160.08C124.885 160.46 124.505 160.773 124.073 160.997C123.641 161.221 123.167 161.352 122.682 161.382Z" fill="#88879B"/>
<path d="M124.61 173.151L62.9595 177.148C62.1107 177.204 61.272 176.938 60.6103 176.404C59.9487 175.869 59.5127 175.105 59.3892 174.264L59.3401 173.943C59.0307 171.909 60.5444 170.026 62.5876 169.904L124.225 166.216C125.072 166.166 125.908 166.434 126.57 166.966C127.232 167.499 127.671 168.259 127.804 169.098V169.114C128.138 171.138 126.649 173.019 124.61 173.151Z" fill="#C6C5D2"/>
<path d="M126.545 184.96L64.8689 189.483C64.0137 189.546 63.1666 189.282 62.498 188.745C61.8294 188.209 61.3889 187.439 61.2652 186.59L61.2153 186.263C60.9059 184.233 62.4054 182.351 64.4382 182.212L126.1 177.996C126.954 177.94 127.799 178.205 128.468 178.739C129.137 179.274 129.581 180.04 129.714 180.885V180.908C130.046 182.931 128.574 184.808 126.545 184.96Z" fill="#C6C5D2"/>
<path d="M78.935 99.2263L82.0107 99.2107C82.0107 99.2107 89.3743 90.4286 94.3578 89.943L94.819 65.2007C75.7545 65.2609 58.9289 75.3839 51.2662 90.3453L78.935 99.2263Z" fill="#D0731D"/>
<path d="M115.713 110.192C114.151 118.322 106.292 124.713 96.6643 124.991C94.2946 125.061 91.5321 123.722 91.5321 123.722C91.5321 123.722 88.9972 123.854 88.5628 123.694L73.538 145.622C80.5223 148.596 88.4141 150.049 96.6703 149.603C120.674 148.303 139.546 131.274 141.642 110.773L115.713 110.192Z" fill="#4B8B19"/>
<path d="M68.8312 143.319L71.8376 143.417L83.9966 121.329C79.4594 118.164 76.5444 113.239 76.5444 107.652C76.5445 106.326 76.7109 105.004 77.0398 103.719L52.2711 94.9109L49.2587 94.9436C47.739 99.1271 46.9615 103.544 46.9611 107.994C46.964 123.035 55.7201 135.987 68.8312 143.319Z" fill="url(#paint2_linear_147_1010)"/>
<path d="M99.6084 90.0507C108.376 91.28 115.117 97.6831 115.918 105.594L158.308 106.752V106.701C158.308 106.671 164.698 105.734 164.698 105.728C164.698 105.455 106.791 48.093 106.791 48.093L100.368 49.0858C100.368 49.0858 99.862 76.3968 99.6084 90.0507Z" fill="#A8281F"/>
<path d="M81.9683 99.2263C85.0387 94.1648 90.7504 90.5907 97.3874 89.943L97.8486 65.2007C78.7841 65.2609 61.9585 75.3839 54.2958 90.3453L81.9683 99.2263Z" fill="url(#paint3_linear_147_1010)"/>
<path d="M118.746 110.192C117.184 118.322 109.325 124.713 99.6976 124.991C96.9388 125.08 94.1885 124.64 91.5953 123.694L76.5704 145.622C83.5548 148.596 91.4465 150.049 99.7028 149.603C123.706 148.303 142.579 131.274 144.674 110.773L118.746 110.192Z" fill="#74C733"/>
<path d="M71.8644 143.318L87.0299 121.326C82.4927 118.161 79.5777 113.236 79.5777 107.649C79.5777 106.323 79.7442 105.001 80.0731 103.716L52.2949 94.9404C50.7753 99.1239 49.9977 103.54 49.9973 107.991C49.9973 123.034 58.7564 135.987 71.8644 143.318Z" fill="url(#paint4_linear_147_1010)"/>
<path d="M106.001 89.0074C114.768 90.2375 121.51 96.6398 122.311 104.55L164.7 105.708C164.7 105.691 164.7 105.675 164.7 105.658C164.7 76.3514 139.922 51.2715 106.758 48.0425L106.001 89.0074Z" fill="url(#paint5_linear_147_1010)"/>
<path d="M97.7041 75.4255L44.1218 74.8916C42.9102 74.8789 41.9269 73.9144 41.9269 72.7349V52.358C41.9269 51.1801 42.9102 50.2482 44.1218 50.2757L90.7681 51.3913C91.322 51.4065 91.8484 51.6364 92.2359 52.0325C92.6234 52.4285 92.8417 52.9597 92.8448 53.5137V71.0244L97.7041 75.4255Z" fill="url(#paint6_linear_147_1010)"/>
<path d="M85.3182 58.7537L49.8342 58.0621V55.6191L85.3182 56.3598V58.7537Z" fill="white"/>
<path d="M85.3182 63.5408L49.8342 62.9474V60.5044L85.3182 61.1477V63.5408Z" fill="white"/>
<path d="M85.3182 68.3287L49.8342 67.8334V65.3904L85.3182 65.9348V68.3287Z" fill="white"/>
<path d="M183.244 175.053C177.384 186.616 169.284 187.844 166.974 187.961V187.97C166.974 187.97 167.15 187.976 166.974 187.97C166.799 187.964 166.974 187.97 166.974 187.97V187.961C165.177 187.865 159.277 187.01 154.018 180.206C152.778 178.594 151.694 176.869 150.78 175.053C143.973 161.621 148.933 154.703 148.933 154.703L166.974 154.66L174.748 154.679L185.127 154.703C185.127 154.703 190.051 161.621 183.244 175.053Z" fill="#74C733"/>
<path d="M167.08 157.302C177.19 157.302 185.386 156.264 185.386 154.984C185.386 153.704 177.19 152.666 167.08 152.666C156.969 152.666 148.773 153.704 148.773 154.984C148.773 156.264 156.969 157.302 167.08 157.302Z" fill="#203F0F"/>
<g style="mix-blend-mode:multiply" opacity="0.3">
<path d="M183.244 175.053C177.384 186.616 169.284 187.844 166.974 187.962V187.971C166.974 187.971 167.149 187.977 166.974 187.971C166.798 187.965 166.974 187.971 166.974 187.971V187.962C165.177 187.865 159.277 187.01 154.018 180.206C154.049 173.94 168.581 169.682 173.124 166.777C178.871 163.104 174.239 154.985 174.239 154.985C174.463 154.879 174.677 154.777 174.893 154.679L185.197 154.703C185.197 154.703 190.051 161.621 183.244 175.053Z" fill="#57A41B"/>
</g>
<path d="M139.227 134.619C144.499 134.619 148.773 129.151 148.773 122.406C148.773 115.661 144.499 110.193 139.227 110.193C133.955 110.193 129.681 115.661 129.681 122.406C129.681 129.151 133.955 134.619 139.227 134.619Z" fill="#343439"/>
<path d="M199.514 125.157C199.514 140.351 184.48 152.665 165.936 152.665C163.162 152.668 160.396 152.388 157.68 151.827C143.126 148.815 132.356 138.017 132.356 125.157C132.356 109.966 147.39 97.6492 165.934 97.6492C171.14 97.6492 176.076 98.6212 180.478 100.356C191.742 104.797 199.514 114.232 199.514 125.157Z" fill="#74C733"/>
<path d="M143.513 137.714L169.403 139.973C175.13 140.472 180.064 135.996 180.262 129.911L180.476 123.42C180.568 120.627 178.429 118.297 175.735 118.228L138.828 117.276C136.685 117.221 134.967 119.169 134.967 121.618V127.321C134.969 132.665 138.739 137.298 143.513 137.714Z" fill="#F4F7FA"/>
<path d="M142.894 134.002L170.596 136.04C174.687 136.341 178.183 133.109 178.319 128.788L178.409 125.92C178.496 123.15 176.381 120.829 173.723 120.748L140.698 119.738C138.533 119.672 136.796 121.618 136.793 124.075V126.62C136.779 130.457 139.484 133.75 142.894 134.002Z" fill="#343439"/>
<path d="M159.133 126.955C158.865 126.536 158.723 126.05 158.723 125.553C158.751 123.931 160.376 122.695 162.374 122.796C164.394 122.898 166.018 124.326 165.982 125.981C165.965 126.478 165.796 126.957 165.499 127.355L159.133 126.955Z" fill="#D8DEE8"/>
<path d="M142.086 125.882C141.839 125.481 141.706 125.02 141.7 124.549C141.709 123.006 143.162 121.826 144.966 121.917C146.79 122.009 148.27 123.363 148.256 124.936C148.247 125.403 148.101 125.858 147.836 126.243L142.086 125.882Z" fill="#D8DEE8"/>
<g style="mix-blend-mode:multiply" opacity="0.3">
<path d="M199.514 125.157C199.514 140.35 184.48 152.665 165.936 152.665C163.162 152.668 160.396 152.387 157.679 151.827C155.068 143.585 169.826 134.547 178.315 128.788C188.713 121.732 180.478 100.356 180.478 100.356C191.742 104.796 199.514 114.232 199.514 125.157Z" fill="#57A41B"/>
</g>
<path d="M194.932 139.408C200.204 139.408 204.477 133.94 204.477 127.195C204.477 120.45 200.204 114.983 194.932 114.983C189.659 114.983 185.385 120.45 185.385 127.195C185.385 133.94 189.659 139.408 194.932 139.408Z" fill="#343439"/>
<path d="M52.1826 128.352L53.9722 121.682C54.0072 121.551 54.0747 121.43 54.1685 121.332C54.2622 121.234 54.3791 121.161 54.5085 121.12L57.6325 120.127H57.6444L57.6689 120.119C57.6779 120.119 57.6875 120.119 57.6965 120.115H57.7173C57.7237 120.114 57.7302 120.114 57.7366 120.115C57.8673 120.092 58.0018 120.104 58.1256 120.152C58.2495 120.2 58.358 120.28 58.4395 120.385C58.3747 120.438 58.2963 120.473 58.2131 120.485C58.1298 120.496 58.045 120.485 57.9679 120.451L55.7313 127.647L52.4868 128.656C52.4451 128.669 52.4005 128.671 52.3579 128.661C52.3153 128.651 52.2761 128.629 52.2447 128.599C52.2133 128.568 52.1907 128.53 52.1794 128.487C52.1681 128.445 52.1684 128.401 52.1804 128.358L52.1826 128.352Z" fill="#161516"/>
<path d="M52.7167 128.35L54.478 121.892C54.5134 121.763 54.5805 121.644 54.6732 121.547C54.7659 121.45 54.8813 121.377 55.0091 121.336L58.2134 120.295C58.2482 120.284 58.2853 120.282 58.3208 120.291C58.3563 120.299 58.3889 120.317 58.4148 120.343C58.4408 120.369 58.4593 120.401 58.4682 120.437C58.4771 120.472 58.4762 120.509 58.4655 120.544L56.3501 127.365C56.324 127.449 56.2777 127.526 56.2152 127.589C56.1528 127.651 56.076 127.697 55.9916 127.723L53.0231 128.647C52.9813 128.66 52.9368 128.662 52.8941 128.652C52.8515 128.642 52.8124 128.62 52.781 128.59C52.7495 128.559 52.727 128.521 52.7156 128.479C52.7043 128.436 52.7047 128.392 52.7167 128.35V128.35Z" fill="#595866"/>
<path d="M61.4734 125.894C62.7988 127.062 60.3733 135.81 53.4879 138.418C48.0581 140.474 41.5803 138.195 38.4727 133.681C36.6809 131.078 35.0579 126.432 37.0476 124.172C37.1383 124.07 38.2622 122.834 39.8658 122.92C43.5782 123.124 43.8177 130.103 47.7993 130.956C48.735 131.156 49.0712 130.846 56.8871 127.439C60.6574 125.794 61.1565 125.615 61.4734 125.894Z" fill="#C93329"/>
<path d="M51.3375 129.375C51.3375 129.375 51.0051 128.08 51.8024 127.482C52.5998 126.884 52.9323 125.325 53.0669 125.887C53.2015 126.45 53.0669 127.117 53.0669 127.117C53.0669 127.117 55.9246 124.625 55.8933 125.489C55.8621 126.352 53.8003 129.243 52.4718 129.807C51.1434 130.372 51.3576 130.458 51.3375 129.375Z" fill="#E8BEA0"/>
<path d="M61.1157 125.987C61.1157 125.987 61.1603 124.149 62.1124 123.729C63.0645 123.308 64.1497 121.182 64.0835 122.267C64.0173 123.352 63.0422 123.862 63.0422 123.862C63.0422 123.862 64.6146 124.428 63.928 125.307C63.2415 126.187 62.4657 126.364 61.6683 126.763C61.6683 126.763 61.4526 127.432 60.9045 127.332C60.3563 127.233 60.8278 126.286 61.1157 125.987Z" fill="#E8BEA0"/>
<path d="M27.7084 148.808C22.4066 151.348 17.3733 150.593 13.8513 150.061C9.87198 149.462 6.04139 148.886 4.53518 145.912C3.04757 142.97 4.37675 138.741 6.72718 136.441C9.48893 133.739 12.244 135.084 14.1652 132.449C16.1333 129.749 13.8097 127.557 15.5785 124.543C17.7995 120.751 22.5702 122.358 24.8946 118.52C26.801 115.367 24.4647 112.793 26.3822 110.77C29.0413 107.967 36.7955 109.466 38.0399 112.769C38.5249 114.059 37.7892 115.023 37.2455 116.837C35.5162 122.607 39.0537 125.882 39.378 131.121C39.8116 138.196 34.2435 145.678 27.7084 148.808Z" fill="#343439"/>
<path d="M24.1136 209.03C24.1136 209.03 29.4199 209.7 29.6229 210.908C29.858 212.308 23.7223 211.078 23.7223 211.078C23.7223 211.078 22.7829 210.77 24.1136 209.03Z" fill="#161516"/>
<path d="M24.4521 206.162L24.3226 209.126C24.3226 209.126 24.9712 209.948 25.7143 209.353L26.3093 206.165L24.4521 206.162Z" fill="#D99C71"/>
<path d="M32.7581 210.465C32.7581 210.465 38.0644 211.134 38.2675 212.342C38.5025 213.742 32.3669 212.513 32.3669 212.513C32.3669 212.513 31.4274 212.203 32.7581 210.465Z" fill="#161516"/>
<path d="M33.0966 207.596L32.9672 210.557C32.9672 210.557 33.6158 211.38 34.3588 210.785L34.9539 207.596H33.0966Z" fill="#D99C71"/>
<path d="M40.2526 158.779C39.8611 164.759 38.9177 170.689 37.4344 176.495C36.7649 179.109 36.0955 181.288 34.5893 185.815C32.7885 191.222 30.2485 198.607 26.9385 207.526L24.0585 207.967C22.0711 200.725 22.6453 195.026 24.6826 190.503C25.8912 187.822 26.6023 187.797 27.846 184.803C29.1677 181.622 29.7055 178.416 29.3737 167.595C29.2793 164.53 29.1022 160.456 28.7452 155.639L40.2526 158.779Z" fill="url(#paint7_linear_147_1010)"/>
<path style="mix-blend-mode:multiply" opacity="0.3" d="M40.2527 158.779C39.8612 164.759 38.9178 170.689 37.4345 176.495C36.765 179.109 36.0956 181.288 34.5894 185.815C32.7886 191.222 30.2486 198.607 26.9386 207.526L24.0586 207.967C22.3605 201.207 23.6041 197.658 25.1483 195.653C26.1026 194.414 27.3009 193.598 28.1756 191.466C29.205 188.959 28.4731 187.822 29.0101 184.888C29.7309 180.93 31.4416 180.872 32.0463 177.777C32.7589 174.127 30.738 172.37 29.3738 167.595C28.6152 164.939 27.948 160.957 28.7453 155.639L40.2527 158.779Z" fill="url(#paint8_linear_147_1010)"/>
<path d="M33.603 158.099C36.0174 161.139 42.8009 170.496 42.9972 184.115C43.181 196.817 37.5273 205.864 35.2617 209.118L32.4293 208.86C32.0856 205.018 32.2436 201.148 32.8993 197.347C34.1341 190.219 36.0903 189.45 35.7957 185.386C35.4238 180.288 32.2039 179.47 27.1839 170.21C24.4795 165.22 21.2484 159.26 23.3481 157.053C23.7453 156.635 25.6941 154.922 33.603 158.099Z" fill="url(#paint9_linear_147_1010)"/>
<path d="M36.0583 120.795C39.4589 121.414 41.4962 123.746 42.0578 124.408C42.7562 125.226 44.8203 127.912 44.8597 134.775C44.8977 141.355 43.0188 142.117 42.4498 148.359C41.6093 157.566 45.1513 161.887 42.6819 163.962C40.5799 165.729 38.0234 162.591 30.9409 162.931C25.0946 163.211 23.9692 165.487 18.9433 164.917C18.1757 164.83 11.4636 164.002 10.4297 160.489C9.71046 158.051 12.3584 156.451 15.9882 150.549C19.4632 144.897 21.1725 139.638 22.0219 137.025C24.5828 129.142 23.5199 126.985 26.4148 124.106C26.7756 123.752 30.8256 119.844 36.0583 120.795Z" fill="#F95C3A"/>
<path d="M32.6227 114.542C32.6227 114.542 33.316 119.352 30.6755 121.935C30.6326 121.976 30.6017 122.027 30.5861 122.084C30.5705 122.141 30.5708 122.202 30.5869 122.259C30.6031 122.316 30.6345 122.367 30.6777 122.408C30.721 122.448 30.7745 122.476 30.8324 122.488C32.0582 122.745 34.9107 123.157 37.6754 122.231C37.73 122.212 37.7785 122.179 37.8159 122.135C37.8534 122.091 37.8783 122.038 37.8882 121.981C37.898 121.924 37.8925 121.866 37.8721 121.812C37.8517 121.757 37.8171 121.71 37.7721 121.674C37.1934 121.21 36.2205 120.322 35.7013 119.257C34.933 117.678 34.7954 114.983 34.7954 114.983L32.6227 114.542Z" fill="#D99C71"/>
<g style="mix-blend-mode:multiply" opacity="0.3">
<path style="mix-blend-mode:multiply" opacity="0.3" d="M15.9882 150.551C19.4633 144.899 21.1726 139.64 22.022 137.027C24.5829 129.144 23.52 126.988 26.4149 124.109C27.3479 123.22 28.4053 122.471 29.5538 121.887C29.0792 123.434 28.7943 125.255 29.0621 127.225C29.9755 133.944 36.463 136.28 35.6388 140.453C34.8846 144.268 29.1097 144.11 28.2796 148.202C27.425 152.415 33.0162 155.181 31.8811 158.143C30.7847 161.003 25.1638 159.5 19.5897 162.918C18.7686 163.423 17.9966 164.004 17.2839 164.653C15.0027 164.198 11.1929 163.066 10.4328 160.492C9.71052 158.053 12.3562 156.454 15.9882 150.551Z" fill="url(#paint10_linear_147_1010)"/>
</g>
<path d="M32.5415 116.26C32.5415 116.26 33.7316 117.897 35.6038 117.215C37.2781 116.605 36.2792 112.281 34.9507 111.786C34.5082 111.621 33.6944 111.694 33.1507 112.033C32.7684 112.272 31.7472 113.541 32.3325 114.962C31.9093 114.839 31.5374 114.951 31.44 115.161C31.3217 115.426 31.6802 115.787 31.7613 115.869C31.9739 116.078 32.2468 116.215 32.5415 116.26Z" fill="#E8BEA0"/>
<path d="M53.3036 129.464L51.4135 128.751C51.0416 129.426 48.5685 133.767 43.9368 134.426C39.5699 135.048 35.4693 132.086 33.5637 129.182C31.757 126.43 32.1245 124.03 30.4323 123.507C28.7401 122.984 26.6203 124.872 25.6177 126.168C23.2464 129.234 23.3297 133.808 24.7995 137.087C27.1796 142.419 33.5875 145.149 39.0471 144.594C47.5049 143.733 51.4232 135.218 52.0837 133.682C52.6613 132.331 53.0709 130.914 53.3036 129.464Z" fill="#FF9559"/>
<defs>
<linearGradient id="paint0_linear_147_1010" x1="-5.42581" y1="176.275" x2="220.447" y2="18.2113" gradientUnits="userSpaceOnUse">
<stop stop-color="#F5F4F8"/>
<stop offset="1" stop-color="#E1E1E7"/>
</linearGradient>
<linearGradient id="paint1_linear_147_1010" x1="130.119" y1="10.1074" x2="95.3565" y2="197.663" gradientUnits="userSpaceOnUse">
<stop stop-color="#FFC444"/>
<stop offset="1" stop-color="#F95C3A"/>
</linearGradient>
<linearGradient id="paint2_linear_147_1010" x1="41419" y1="80279.8" x2="76259.9" y2="114483" gradientUnits="userSpaceOnUse">
<stop stop-color="#311944"/>
<stop offset="1" stop-color="#893976"/>
</linearGradient>
<linearGradient id="paint3_linear_147_1010" x1="63833.4" y1="40994.3" x2="66999.4" y2="77629.1" gradientUnits="userSpaceOnUse">
<stop stop-color="#FFC444"/>
<stop offset="1" stop-color="#F36F56"/>
</linearGradient>
<linearGradient id="paint4_linear_147_1010" x1="51.4812" y1="94.9917" x2="101.352" y2="159.122" gradientUnits="userSpaceOnUse">
<stop stop-color="#AA80F9"/>
<stop offset="1" stop-color="#6165D7"/>
</linearGradient>
<linearGradient id="paint5_linear_147_1010" x1="160.797" y1="41.9257" x2="123.063" y2="94.5538" gradientUnits="userSpaceOnUse">
<stop offset="0.370105" stop-color="#F95C3A"/>
<stop offset="1" stop-color="#C93329"/>
</linearGradient>
<linearGradient id="paint6_linear_147_1010" x1="100167" y1="17302.9" x2="92158.6" y2="42070.3" gradientUnits="userSpaceOnUse">
<stop stop-color="#E1E1E7"/>
<stop offset="1" stop-color="#88879B"/>
</linearGradient>
<linearGradient id="paint7_linear_147_1010" x1="37897" y1="147750" x2="41979.2" y2="147750" gradientUnits="userSpaceOnUse">
<stop stop-color="#595866"/>
<stop offset="1" stop-color="#343439"/>
</linearGradient>
<linearGradient id="paint8_linear_147_1010" x1="36996.3" y1="147750" x2="40886.3" y2="147750" gradientUnits="userSpaceOnUse">
<stop stop-color="#595866"/>
<stop offset="1" stop-color="#151516"/>
</linearGradient>
<linearGradient id="paint9_linear_147_1010" x1="43456.7" y1="149984" x2="49012.5" y2="149984" gradientUnits="userSpaceOnUse">
<stop stop-color="#595866"/>
<stop offset="1" stop-color="#343439"/>
</linearGradient>
<linearGradient id="paint10_linear_147_1010" x1="-53474.5" y1="98588.7" x2="-65271.4" y2="98588.7" gradientUnits="userSpaceOnUse">
<stop stop-color="#FFC444"/>
<stop offset="1" stop-color="#F36F56"/>
</linearGradient>
</defs>
</svg>
