<svg width="159" height="161" viewBox="0 0 159 161" fill="none" xmlns="http://www.w3.org/2000/svg">
<path d="M39.6716 14.0926C34.3954 21.639 40.582 33.8719 32.7533 39.5489C25.1324 45.0737 15.7708 36.0178 8.58849 40.7742C-2.0655 47.8282 -0.119702 80.1087 15.4572 100.165C20.1441 106.197 24.0567 108.544 25.7894 115.365C29.5116 130.01 16.4289 138.726 18.919 145.97C24.5251 162.283 110.736 175.97 145.327 126.949C161.483 104.053 163.898 70.9921 149.466 45.8818C123.383 0.506146 51.5099 -2.83941 39.6716 14.0926Z" fill="url(#paint0_linear_147_877)"/>
<path d="M98.3382 127.754C97.2415 127.662 94.9365 126.494 94.4618 125.943C91.2995 122.27 84.9325 115.778 85.0072 110.656C85.0201 109.781 88.886 108.799 89.397 107.972C91.7095 106.747 92.5878 106.467 94.2141 104.224C99.0156 97.6035 86.8876 86.1058 100.193 81.2882C109.939 77.7589 118.437 80.7917 116.695 65.5097C114.953 50.2277 125.882 21.7566 142.556 31.7332C152.125 37.4587 143.264 50.9115 148.474 60.3152C153.425 69.2509 149.881 76.9438 140.409 82.8571C130.937 88.7705 136.314 92.7555 139.522 101.314C143.376 111.594 127.398 114.15 119.922 114.704C113.902 115.153 98.8707 120.344 98.3382 127.754Z" fill="#D8DEE8"/>
<g style="mix-blend-mode:soft-light">
<g style="mix-blend-mode:soft-light">
<path d="M89.891 118.734L89.7794 118.529C121.46 101.331 139.497 67.2171 138.026 27.2758L138.26 27.2671C138.956 46.198 135.106 64.5128 127.119 80.2324C118.726 96.7559 105.851 110.07 89.891 118.734Z" fill="#FCFDFE"/>
</g>
<g style="mix-blend-mode:soft-light">
<path d="M141.615 105.407C132.117 102.752 116.456 103.361 106.703 106.763L106.626 106.543C116.417 103.127 132.141 102.517 141.678 105.182L141.615 105.407Z" fill="#FCFDFE"/>
</g>
<g style="mix-blend-mode:soft-light">
<path d="M96.0712 115.287L95.9071 115.121C99.7304 111.353 101.5 105.799 101.168 98.6136C100.924 93.3444 99.5768 87.3371 97.1632 80.7597L97.3828 80.6792C99.8045 87.281 101.157 93.3123 101.402 98.6048C101.737 105.857 99.9441 111.471 96.0712 115.287Z" fill="#FCFDFE"/>
</g>
<g style="mix-blend-mode:soft-light">
<path d="M128.167 77.9544L127.992 77.7963C134.832 70.328 145.222 67.9475 152.732 67.2695L152.753 67.5029C145.286 68.1768 134.957 70.5381 128.167 77.9544Z" fill="#FCFDFE"/>
</g>
<g style="mix-blend-mode:soft-light">
<path d="M135.75 56.0466L135.517 56.0402C135.838 44.6371 128.848 34.9096 124.655 30.1264L124.83 29.9724C129.046 34.7813 136.074 44.5636 135.75 56.0466Z" fill="#FCFDFE"/>
</g>
</g>
<path d="M89.8705 126.766C88.9823 126.947 86.8923 126.557 86.3877 126.231C83.038 124.061 76.5028 120.404 75.3757 116.34C75.183 115.646 78.01 113.976 78.2232 113.206C79.7666 111.704 80.3956 111.281 81.1612 109.13C83.4211 102.788 71.1752 96.5079 80.5708 89.6237C87.454 84.5809 94.8717 85.0114 89.9546 73.3388C85.0376 61.6661 87.0762 36.6391 102.563 40.6679C111.452 42.979 107.567 55.6588 113.862 61.8843C119.845 67.8 118.826 74.6982 112.713 81.5615C106.599 88.4247 111.769 90.3303 116.285 96.3533C121.712 103.585 109.68 109.301 103.9 111.465C99.245 113.209 88.5712 120.787 89.8705 126.766Z" fill="url(#paint1_linear_147_877)"/>
<g style="mix-blend-mode:soft-light">
<g style="mix-blend-mode:soft-light">
<path d="M81.1022 121.593L80.9667 121.456C102.016 100.539 108.364 69.4114 97.9463 38.1887L98.1291 38.1304C103.066 52.9275 104.266 68.2906 101.598 82.5591C98.7942 97.5563 91.7071 111.056 81.1022 121.593Z" fill="#FCFDFE"/>
</g>
<g style="mix-blend-mode:soft-light">
<path d="M118.885 99.0956C110.768 99.1948 98.5316 103.297 91.6138 108.242L91.5017 108.086C98.4469 103.122 110.73 99.0023 118.883 98.9031L118.885 99.0956Z" fill="#FCFDFE"/>
</g>
<g style="mix-blend-mode:soft-light">
<path d="M85.1878 117.439L85.019 117.346C87.1674 113.484 87.279 108.687 85.3513 103.085C83.9381 98.9778 81.4813 94.5429 78.0516 89.8992L78.207 89.7825C81.6524 94.4385 84.1162 98.8914 85.5358 103.017C87.4799 108.678 87.3636 113.528 85.1878 117.439Z" fill="#FCFDFE"/>
</g>
<g style="mix-blend-mode:soft-light">
<path d="M101.901 80.5159L101.725 80.4313C105.4 72.945 113.058 68.6635 118.836 66.3904L118.906 66.5695C113.161 68.8304 105.546 73.0856 101.901 80.5159Z" fill="#FCFDFE"/>
</g>
<g style="mix-blend-mode:soft-light">
<path d="M102.815 61.4512L102.628 61.5002C100.24 52.4152 92.4629 46.3454 88.0399 43.5361L88.1433 43.3733C92.5902 46.1978 100.41 52.302 102.815 61.4512Z" fill="#FCFDFE"/>
</g>
</g>
<path d="M88.1097 29.5792L98.6937 137.271C98.8502 138.864 97.7441 140.308 96.2305 140.48L43.044 147.079C39.7382 147.332 37.9518 145.663 37.7719 143.941L25.6335 27.522C25.4501 25.7611 27.1232 24.2021 30.5009 24.2692L85.0007 26.5161C86.5529 26.5715 87.9497 27.9514 88.1097 29.5792Z" fill="url(#paint2_linear_147_877)"/>
<path d="M90.5018 29.4369L101.106 137.592C101.263 139.192 100.154 140.642 98.6371 140.815L43.5527 147.087C41.8008 147.287 40.2112 146.037 40.0314 144.308L27.862 27.3627C27.678 25.5936 29.0077 24.2003 30.8105 24.2703L87.3845 26.3626C88.9414 26.4175 90.3417 27.802 90.5018 29.4369Z" fill="white"/>
<path d="M89.345 35.4464L99.1937 135.727C99.3408 137.224 98.3019 138.576 96.88 138.734L45.0618 144.479C43.4325 144.659 41.958 143.491 41.7915 141.882L30.5828 33.9656C30.4117 32.3214 31.6444 31.0156 33.3158 31.064L86.4292 32.595C87.885 32.6394 89.1955 33.923 89.345 35.4464Z" fill="url(#paint3_linear_147_877)"/>
<path d="M61.4976 28.8161C61.556 29.4042 61.1361 29.8663 60.5574 29.8477C59.9787 29.829 59.4584 29.3371 59.3988 28.7473C59.3392 28.1574 59.762 27.697 60.3419 27.7151C60.9218 27.7332 61.4381 28.228 61.4976 28.8161Z" fill="#C6C5D2"/>
<g style="mix-blend-mode:soft-light">
<path d="M66.1788 124.128C80.5234 124.128 92.1521 112.509 92.1521 98.1771C92.1521 83.845 80.5234 72.2266 66.1788 72.2266C51.8341 72.2266 40.2054 83.845 40.2054 98.1771C40.2054 112.509 51.8341 124.128 66.1788 124.128Z" fill="white"/>
</g>
<path d="M102.091 56.6996C102.091 56.6996 103.582 54.4643 103.009 53.6615C102.435 52.8587 101.861 50.4525 102.205 48.9617C102.549 47.471 103.123 47.4716 103.123 47.4716C103.227 48.0593 103.227 48.6605 103.123 49.2482C102.948 50.2226 103.693 50.3422 103.693 50.3422C103.693 50.3422 106.852 44.2048 107.655 43.1727C108.459 42.1405 108.86 43.1727 108.114 44.5485C107.369 45.9243 106.91 47.4716 106.91 47.4716C106.91 47.4716 109.606 43.2514 110.121 42.7537C110.637 42.256 110.351 43.6599 110.351 43.6599C110.351 43.6599 111.154 42.9148 111.498 43.2876C111.842 43.6604 109.146 48.8474 109.146 48.8474C109.146 48.8474 111.785 45.8665 112.186 45.9814L112.588 46.0981C112.588 46.0981 110.506 49.1082 109.99 49.8533C109.474 50.5983 107.941 54.4095 106.278 55.1546C105.13 55.6686 104.442 59.2236 104.442 59.2236L102.091 56.6996Z" fill="#D99C71"/>
<path d="M101.276 55.231L104.75 56.6966C106.98 60.4787 108.641 64.5677 109.681 68.8326C111.078 74.5972 114.262 87.7367 106.742 95.6507C101.008 101.687 91.8668 101.73 88.3905 101.728C85.1757 101.728 82.3125 101.748 79.5806 100.203C73.6066 96.8258 71.165 87.6556 72.709 77.2933C78.9435 83.1804 86.4055 85.4092 90.929 82.7703C94.4865 80.6949 96.1129 75.6754 96.8067 73.5411C97.8385 70.3665 97.5197 68.8827 98.4179 64.4881C99.0658 61.3166 100.023 58.2161 101.276 55.231Z" fill="url(#paint4_linear_147_877)"/>
<g style="mix-blend-mode:multiply" opacity="0.3">
<path style="mix-blend-mode:multiply" opacity="0.3" d="M92.7698 95.8657C94.6648 93.3124 93.6708 90.3671 96.7256 87.3962C100.588 83.6404 105.182 85.4282 107.039 82.3148C108.557 79.7733 106.578 76.7661 105.061 72.0097C103.885 68.3205 102.819 63.0525 103.289 56.0813L104.749 56.6974C106.979 60.4795 108.64 64.5685 109.68 68.8334C111.077 74.598 114.261 87.7375 106.741 95.6515C101.007 101.687 91.8658 101.731 88.3894 101.729C85.1746 101.729 82.3114 101.749 79.5796 100.204C78.8206 99.7731 78.1165 99.252 77.4825 98.6523C87.1286 100.012 91.0681 98.1581 92.7698 95.8657Z" fill="url(#paint5_linear_147_877)"/>
</g>
<path d="M39.9741 123.962C39.9081 120.753 39.7364 103.056 48.312 90.3292C50.2783 87.4119 53.7558 82.2506 60.4336 78.8351C62.515 77.7726 64.719 76.9693 66.9962 76.4429L72.7093 77.2912C75.2529 79.6044 77.4386 82.2821 79.1948 85.2368C80.5794 87.5706 82.8704 91.4279 83.3995 96.41C84.0173 102.216 81.7059 104.504 79.8109 113.546C79.0003 117.409 78.5097 121.331 78.344 125.274L58.5789 126.971C58.4634 123.511 58.1542 120.06 57.6527 116.635C57.1351 113.099 56.4136 109.596 55.492 106.143C53.755 113.051 52.9498 120.159 53.0977 127.28C52.2977 127.595 47.7911 129.282 43.447 126.971C42.0816 126.236 40.8957 125.208 39.9741 123.962Z" fill="url(#paint6_linear_147_877)"/>
<path d="M67.342 66.053C72.6322 64.0027 75.2776 62.9776 76.7638 61.0539C80.0113 56.8495 79.4682 50.7197 77.7373 46.7271C75.3085 41.1259 69.981 38.442 66.6097 36.7418C62.2772 34.5596 61.6395 35.5381 59.8117 33.9341C54.7586 29.4998 59.4315 21.849 56.0392 13.7138C52.2965 4.73784 41.3862 1.52823 38.596 0.825158C23.7298 -2.92123 12.1724 7.24321 11.0062 8.30569C0.202707 18.1393 -1.24905 33.7609 3.0449 44.4218C4.27124 47.4692 7.4136 55.266 13.5523 56.5829C19.4639 57.8513 23.1365 52.0319 31.43 53.574C32.5886 53.7893 36.1018 54.441 39.3323 57.0625C42.9839 60.0224 42.8362 62.6999 46.7809 65.693C49.9817 68.1196 53.242 68.7562 53.8966 68.8752C58.013 69.6203 61.1793 68.4411 67.342 66.053Z" fill="url(#paint7_linear_147_877)"/>
<g style="mix-blend-mode:multiply" opacity="0.3">
<path style="mix-blend-mode:multiply" opacity="0.3" d="M8.69227 10.6562C2.81167 23.6902 2.73108 29.0469 4.86725 30.8346C7.85602 33.3353 14.4701 28.2528 19.2616 31.7909C23.5707 34.9737 20.8897 41.0568 24.8794 43.8767C29.9226 47.4416 36.685 39.4739 43.2033 42.2249C50.9608 45.4987 47.5603 59.3926 55.6687 64.6683C58.1243 66.2664 61.9015 67.2419 67.9906 65.8002L67.3394 66.0528C61.1768 68.4409 58.0105 69.6201 53.8941 68.8721C53.2394 68.7554 49.9814 68.1136 46.7784 65.6899C42.8313 62.6968 42.9825 60.0193 39.3298 57.0594C36.0969 54.4379 32.5861 53.7862 31.4275 53.5709C23.1351 52.0311 19.4613 57.8482 13.5498 56.5798C7.41104 55.2629 4.26985 47.4661 3.04234 44.4187C-0.921079 34.5746 0.0132771 20.4975 8.69227 10.6562Z" fill="url(#paint8_linear_147_877)"/>
</g>
<path d="M71.7672 67.8577C71.7672 67.8577 71.9278 71.9798 71.7672 74.7472C71.6504 76.7729 73.4023 77.927 73.4023 77.927C73.4023 77.927 74.3653 79.5753 69.1586 79.8524C63.9519 80.1296 58.8854 79.8524 58.8854 79.8524C58.8854 79.8524 63.9759 76.4684 65.1391 75.571C66.3024 74.6736 66.9261 67.951 66.1809 63.6941L71.7672 67.8577Z" fill="#D99C71"/>
<path d="M73.0986 54.5559C73.0986 54.5559 75.7481 60.9396 75.7341 64.7962C75.7201 68.6529 73.021 70.8642 70.9736 69.9143C68.9262 68.9645 65.8416 64.9508 65.8416 64.9508C65.8416 64.9508 65.427 66.0308 63.8561 64.9508C62.2852 63.8709 61.1196 57.8064 64.1732 59.5247C64.1732 59.5247 63.6903 57.8251 64.443 55.3594C65.1957 52.8937 72.2058 50.2354 73.0986 54.5559Z" fill="#E8BEA0"/>
<g style="mix-blend-mode:multiply" opacity="0.3">
<path style="mix-blend-mode:multiply" opacity="0.3" d="M51.0912 115.769C53.388 112.168 49.8865 109.046 51.3739 103.347C52.6434 98.4835 56.7773 94.6875 58.2968 95.3013C60.3991 96.1491 56.271 104.918 60.4161 108.993C63.1677 111.699 66.7545 109.573 70.447 111.958C72.8821 113.533 75.3295 117.045 75.5205 125.516L58.5806 126.97C58.4652 123.51 58.156 120.059 57.6545 116.634C57.1368 113.098 56.4154 109.595 55.4938 106.143C53.7568 113.05 52.9516 120.158 53.0995 127.279C52.2994 127.594 47.7929 129.281 43.4488 126.97C43.2064 126.841 42.9769 126.705 42.7579 126.565C42.8695 124.698 43.3489 122.562 44.7341 120.71C46.9853 117.7 49.4298 118.374 51.0912 115.769Z" fill="url(#paint9_linear_147_877)"/>
</g>
<g style="mix-blend-mode:multiply">
<path style="mix-blend-mode:multiply" d="M82.8166 21.5906L106.772 22.2038C107.624 22.2273 108.433 22.5835 109.026 23.1962C109.619 23.8088 109.947 24.6291 109.942 25.4811L109.833 36.8498C109.825 37.7058 109.479 38.5241 108.871 39.1272C108.263 39.7304 107.441 40.0697 106.584 40.0716H82.4948C82.4858 40.0716 82.4767 40.0716 82.4677 40.0715H72.8488C72.795 40.074 72.7419 40.0584 72.698 40.0273C72.654 39.9961 72.6218 39.9513 72.6063 39.8997C72.5908 39.8482 72.593 39.793 72.6125 39.7428C72.6319 39.6927 72.6676 39.6504 72.7139 39.6228L79.1011 35.5461L79.2982 24.8369C79.3326 22.9944 80.9117 21.5415 82.8166 21.5906Z" fill="url(#paint10_linear_147_877)"/>
</g>
<path style="mix-blend-mode:multiply" d="M142.934 29.288L135.441 23.8164L135.475 8.33193C135.479 6.64865 134.162 5.21626 132.527 5.13107L97.3226 3.30075C95.503 3.20623 94.0004 4.5762 93.9747 6.36275L93.6967 25.8801C93.671 27.6888 95.1438 29.1795 96.9781 29.2058L128.207 29.6854L132.452 29.7507L142.752 29.9088C143.07 29.9159 143.199 29.4812 142.934 29.288Z" fill="url(#paint11_linear_147_877)"/>
<path d="M109.177 15.9763C109.175 16.2426 109.12 16.5059 109.014 16.7505C108.909 16.9951 108.755 17.2159 108.562 17.3999C108.37 17.5839 108.142 17.7274 107.893 17.8217C107.643 17.916 107.377 17.9593 107.111 17.949C106.563 17.9302 106.045 17.699 105.665 17.3045C105.285 16.91 105.073 16.3832 105.075 15.8357C105.077 15.5682 105.133 15.3037 105.24 15.0583C105.346 14.8129 105.501 14.5915 105.696 14.4074C105.89 14.2233 106.119 14.0803 106.37 13.9869C106.621 13.8936 106.889 13.8518 107.156 13.8642C107.701 13.8871 108.216 14.1198 108.592 14.5136C108.969 14.9073 109.179 15.4315 109.177 15.9763Z" fill="white"/>
<path d="M116.115 16.217C116.115 16.4791 116.063 16.7386 115.96 16.98C115.858 17.2213 115.708 17.4396 115.519 17.6219C115.331 17.8041 115.107 17.9465 114.863 18.0407C114.618 18.1348 114.356 18.1787 114.094 18.1698C113.554 18.1483 113.044 17.918 112.671 17.5274C112.298 17.1369 112.092 16.6167 112.095 16.0769C112.095 15.8139 112.148 15.5536 112.252 15.3116C112.355 15.0697 112.506 14.851 112.696 14.6688C112.886 14.4866 113.11 14.3446 113.356 14.2513C113.603 14.158 113.865 14.1153 114.128 14.1258C114.666 14.1504 115.173 14.3818 115.543 14.7717C115.914 15.1615 116.119 15.6794 116.115 16.217Z" fill="white"/>
<path d="M122.917 16.4524C122.91 17.5557 122.026 18.4228 120.939 18.3878C119.853 18.3528 118.969 17.4256 118.976 16.3159C118.984 15.2061 119.875 14.3426 120.965 14.3835C122.055 14.4243 122.923 15.3503 122.917 16.4524Z" fill="white"/>
<path d="M120.833 66.6411C120.716 66.6008 120.396 67.4813 120.178 67.42C120.039 67.3815 120.023 66.9871 120.032 66.7893C120.061 66.1311 120.437 65.8312 120.271 65.4181C120.246 65.3563 120.2 65.2431 120.132 65.239C119.923 65.2326 119.681 66.3207 119.583 66.8412C119.642 66.4083 119.708 65.5716 119.532 65.2034C119.508 65.1532 119.437 65.005 119.371 65.0138C119.304 65.0226 119.28 65.1509 119.263 65.253C119.16 65.8411 119.253 66.8675 119.2 66.8815C119.137 66.8984 118.83 65.5144 118.644 65.5337C118.483 65.5506 118.438 66.6195 118.631 67.602C118.709 67.9999 118.792 68.4031 118.977 68.6587L118.44 69.248L119.365 69.692L119.758 68.8751C119.832 68.8485 119.904 68.8164 119.973 68.7789C120.913 68.2753 120.98 66.6924 120.833 66.6411Z" fill="#E8BEA0"/>
<path d="M118.214 68.748L120.173 69.2399C119.747 70.3701 118.952 72.974 119.706 76.0856C120.474 79.2433 122.715 82.0795 125.706 83.4535C128.145 84.5732 129.485 84.0498 129.981 85.0014C131.057 87.0669 129.397 96.3894 124.401 96.1035C119.644 95.8316 113.935 86.7355 113.323 82.8228C112.147 75.2979 117.395 69.6069 118.214 68.748Z" fill="url(#paint12_linear_147_877)"/>
<path style="mix-blend-mode:multiply" opacity="0.3" d="M117.692 87.4473C116.995 85.8906 118.276 84.7476 117.692 81.5509C117.103 78.3348 115.481 77.7117 115.151 75.1999C115.049 74.39 115.097 73.5683 115.292 72.7756C113.904 75.2927 112.693 78.7946 113.324 82.8228C113.937 86.7355 119.645 95.8339 124.402 96.1035C126.879 96.2453 126.248 92.0642 127.906 90.1831C120.662 90.3967 118.36 88.9386 117.692 87.4473Z" fill="url(#paint13_linear_147_877)"/>
<path d="M148.81 114.131C148.81 114.131 150.18 116.725 148.81 119.539C147.44 122.352 147.744 114.918 147.744 114.918L148.81 114.131Z" fill="#E8BEA0"/>
<path d="M147.288 115.408L149.42 114.918C149.42 114.918 155.508 101.1 147.288 85.6047L141.047 92.8525C141.047 92.8525 146.527 97.7401 147.288 115.408Z" fill="url(#paint14_linear_147_877)"/>
<path d="M138.615 149.973C138.837 150.177 138.849 150.653 138.86 150.965C138.864 151.104 138.866 151.173 138.848 151.221C138.713 151.571 138.02 151.565 136.931 151.61C135.209 151.68 134.691 151.785 134.573 151.521C134.462 151.274 134.79 150.903 134.826 150.862C135.024 150.641 135.256 150.57 135.702 150.454C136.526 150.238 137.08 150.126 137.248 150.092C138.295 149.877 138.47 149.838 138.615 149.973Z" fill="url(#paint15_linear_147_877)"/>
<path d="M137.406 148.256L137.338 150.214C137.392 150.306 137.987 150.557 138.434 150.291L138.772 148.351L137.406 148.256Z" fill="#D99C71"/>
<path d="M124.11 149.698C124.407 149.989 124.501 150.556 124.272 150.849C124.044 151.142 123.678 150.95 122.66 151.034C121.57 151.125 121.299 151.397 120.546 151.233C120.242 151.166 119.702 150.993 119.701 150.779C119.701 150.628 119.965 150.536 120.849 150.187C122.104 149.691 122.097 149.669 122.367 149.609C123.04 149.46 123.719 149.31 124.11 149.698Z" fill="url(#paint16_linear_147_877)"/>
<path d="M123.316 147.956L122.865 149.805C122.912 149.901 123.486 150.197 123.953 149.965L124.672 148.156L123.316 147.956Z" fill="#D99C71"/>
<path d="M126.059 107.843C126.335 114.693 126.199 121.553 125.65 128.386C125.107 135.146 124.162 141.867 122.818 148.515L124.944 148.967C126.629 147.222 128.726 144.504 129.609 140.773C130.157 138.458 129.871 137.299 130.147 134.472C130.585 129.972 131.831 127.56 133.055 123.884C134.154 120.581 135.405 115.753 135.873 109.364L126.059 107.843Z" fill="url(#paint17_linear_147_877)"/>
<path style="mix-blend-mode:multiply" opacity="0.3" d="M127.032 136.444C127.813 133.356 129.316 132.541 129.368 129.626C129.406 127.565 128.664 127.396 128.714 125.425C128.789 122.432 130.544 120.864 131.427 118.981C132.357 116.993 132.715 113.8 130.207 108.488L135.871 109.363C135.404 115.752 134.152 120.58 133.052 123.883C131.826 127.558 130.583 129.971 130.145 134.471C129.869 137.298 130.155 138.457 129.606 140.772C128.723 144.503 126.628 147.22 124.942 148.966L124.401 148.849C126.222 146.678 126.865 144.74 127.029 143.167C127.297 140.609 126.245 139.557 127.032 136.444Z" fill="url(#paint18_linear_147_877)"/>
<path d="M133.143 107.462C133.985 115.218 134.755 123.12 135.454 131.171C135.976 137.21 136.444 143.176 136.856 149.067L139.011 149.216C139.894 147.345 140.542 145.372 140.938 143.341C141.537 140.249 141.264 138.444 141.429 135.263C141.616 131.695 142.119 130.892 142.846 126.365C144.319 117.176 145.056 112.582 142.722 109.873C141.961 108.993 139.613 106.81 133.143 107.462Z" fill="url(#paint19_linear_147_877)"/>
<path d="M148.059 89.9657C148.994 87.4848 147.509 84.7507 144.913 84.2052C138.431 82.8348 131.718 83.0093 125.317 84.7145C125.157 84.757 125.013 84.8441 124.901 84.9655C124.79 85.087 124.715 85.2377 124.686 85.4001C124.367 87.1785 124.048 88.9573 123.73 90.7364C123.623 93.3255 123.661 95.9185 123.843 98.5034C124.063 101.647 124.279 101.694 124.784 106.13C125.607 113.365 125.262 115.254 126.717 116.123C127.664 116.688 128.006 116.006 132.835 115.529C136.073 115.208 137.726 115.062 139.366 115.615C141.599 116.373 142.344 117.637 143.267 117.225C144.151 116.83 144.264 115.306 144.37 112.649C144.536 108.551 144.526 105.765 144.542 104.769C144.612 100.194 145.773 96.7011 147.258 92.2277C147.523 91.429 147.792 90.674 148.059 89.9657Z" fill="url(#paint20_linear_147_877)"/>
<path d="M134.888 78.7952C134.926 79.6969 135.054 80.5926 135.271 81.4686C135.447 82.1769 135.559 82.3561 135.695 82.4996C135.899 82.7149 136.202 82.8888 137.872 83.2097C138.781 83.3847 138.897 83.3719 138.923 83.46C139.043 83.8888 136.675 85.498 134.128 85.2763C132.569 85.1403 131.115 84.3328 131.177 83.8655C131.238 83.3981 132.797 83.5627 133.213 82.695C133.505 82.0912 133.096 81.2778 132.637 80.6103C133.005 79.8192 134.518 79.5869 134.888 78.7952Z" fill="#E8BEA0"/>
<path d="M132.041 79.4026C131.65 78.9358 131.583 78.0927 131.975 77.5355C132.312 77.0559 132.878 76.9602 133.218 76.9024C134.2 76.7361 135.469 77.0821 135.951 77.9678C136.237 78.4929 135.74 79.6418 135.664 79.8472C135.577 80.0805 135.403 80.1675 135.247 80.3484C135.03 80.5992 134.692 80.9977 134.137 81.6629C134.07 81.4364 133.983 81.2162 133.878 81.0047C133.74 80.7301 133.568 80.474 133.366 80.2427C132.82 79.6424 132.412 79.8413 132.041 79.4026Z" fill="#343439"/>
<path d="M134.947 81.0854C134.947 81.0854 134.354 82.1852 133.056 82.1694C131.893 82.156 131.585 79.5695 132.297 78.9797C132.534 78.7825 133.024 78.6804 133.432 78.7714C133.672 78.8251 133.758 78.9196 134.154 78.9995C134.519 79.0736 134.618 79.0287 134.731 79.1162C134.873 79.2236 134.988 79.4984 134.801 80.2691C135.01 80.0357 135.268 79.9336 135.463 80.0124C135.53 80.0438 135.586 80.0928 135.626 80.1542C135.803 80.4401 135.552 80.8333 134.947 81.0854Z" fill="#E8BEA0"/>
<path d="M134.778 78.9561C134.724 79.0005 134.906 79.1994 134.934 79.4935C134.99 80.0641 134.447 80.7818 133.859 80.8716C133.508 80.9247 133.404 80.7193 132.823 80.689C132.54 80.6751 132.256 80.7066 131.983 80.7824C131.834 81.4195 132.041 82.0356 132.474 82.304C132.941 82.5922 133.509 82.3717 133.746 82.2801C133.905 82.2183 134.413 82.0222 134.658 81.5333C134.914 81.0245 134.621 80.7415 134.927 80.3903C135.081 80.2152 135.291 80.1289 135.482 79.7911C135.523 79.7187 135.559 79.6432 135.588 79.5653C135.27 79.2648 134.853 78.8914 134.778 78.9561Z" fill="#343439"/>
<path d="M132.412 80.9927C132.412 80.9927 132.669 81.1094 133.1 81.0627C133.121 81.0627 133.145 81.0627 133.148 81.0761C133.16 81.1164 132.892 81.3153 132.633 81.257C132.449 81.2156 132.299 81.0516 132.321 81.0067C132.33 80.9875 132.371 80.988 132.412 80.9927Z" fill="#F95C3A"/>
<path style="mix-blend-mode:multiply" opacity="0.3" d="M128.595 113.749C130.971 112.736 130.957 110.641 133.176 109.767C136.341 108.519 139.838 111.419 140.385 110.615C140.953 109.779 136.776 107.213 137.332 104.683C137.774 102.672 140.69 103.029 142.252 100.277C143.734 97.6668 142.298 95.2524 143.611 94.3457C144.081 94.0201 144.911 93.8918 146.484 94.5838C145.387 98.0075 144.599 101.026 144.542 104.769C144.526 105.766 144.536 108.551 144.37 112.649C144.264 115.306 144.151 116.83 143.267 117.225C142.346 117.637 141.599 116.37 139.366 115.615C137.726 115.06 136.073 115.206 132.835 115.529C128.006 116.006 127.664 116.688 126.718 116.123C126.101 115.755 125.808 115.201 125.612 114.139C126.58 114.243 127.607 114.169 128.595 113.749Z" fill="url(#paint21_linear_147_877)"/>
<defs>
<linearGradient id="paint0_linear_147_877" x1="-2.58176" y1="133.843" x2="167.633" y2="13.5265" gradientUnits="userSpaceOnUse">
<stop stop-color="#F5F4F8"/>
<stop offset="1" stop-color="#E1E1E7"/>
</linearGradient>
<linearGradient id="paint1_linear_147_877" x1="87.9925" y1="48.8475" x2="104.075" y2="131.173" gradientUnits="userSpaceOnUse">
<stop stop-color="#74C733"/>
<stop offset="1" stop-color="#57A41B"/>
</linearGradient>
<linearGradient id="paint2_linear_147_877" x1="24.4589" y1="85.4508" x2="99.7179" y2="86.9497" gradientUnits="userSpaceOnUse">
<stop stop-color="#B7C0CE"/>
<stop offset="1" stop-color="#EBEFF2"/>
</linearGradient>
<linearGradient id="paint3_linear_147_877" x1="73.5" y1="40.5" x2="55.5378" y2="158.006" gradientUnits="userSpaceOnUse">
<stop stop-color="#F5F4F8"/>
<stop offset="1" stop-color="#88879B"/>
</linearGradient>
<linearGradient id="paint4_linear_147_877" x1="111.556" y1="78.4795" x2="72.257" y2="78.4795" gradientUnits="userSpaceOnUse">
<stop stop-color="#F95C3A"/>
<stop offset="1" stop-color="#C93329"/>
</linearGradient>
<linearGradient id="paint5_linear_147_877" x1="235651" y1="84409.6" x2="258581" y2="84409.6" gradientUnits="userSpaceOnUse">
<stop stop-color="#FF9085"/>
<stop offset="1" stop-color="#FB6FBB"/>
</linearGradient>
<linearGradient id="paint6_linear_147_877" x1="322001" y1="116411" x2="354467" y2="116411" gradientUnits="userSpaceOnUse">
<stop stop-color="#F95C3A"/>
<stop offset="1" stop-color="#FF9559"/>
</linearGradient>
<linearGradient id="paint7_linear_147_877" x1="82.4821" y1="46.1469" x2="3.21839" y2="20.2591" gradientUnits="userSpaceOnUse">
<stop stop-color="#151516"/>
<stop offset="1" stop-color="#343439"/>
</linearGradient>
<linearGradient id="paint8_linear_147_877" x1="528103" y1="84330.2" x2="624121" y2="84330.2" gradientUnits="userSpaceOnUse">
<stop stop-color="#311944"/>
<stop offset="1" stop-color="#6B3976"/>
</linearGradient>
<linearGradient id="paint9_linear_147_877" x1="242300" y1="79464.2" x2="266729" y2="79464.2" gradientUnits="userSpaceOnUse">
<stop stop-color="#FF9085"/>
<stop offset="1" stop-color="#FB6FBB"/>
</linearGradient>
<linearGradient id="paint10_linear_147_877" x1="82324.6" y1="5756.79" x2="83025.3" y2="8150.7" gradientUnits="userSpaceOnUse">
<stop stop-color="#C6C5D2"/>
<stop offset="1" stop-color="#343439"/>
</linearGradient>
<linearGradient id="paint11_linear_147_877" x1="378938" y1="16515.7" x2="367060" y2="50616.3" gradientUnits="userSpaceOnUse">
<stop stop-color="#98DD62"/>
<stop offset="1" stop-color="#74C733"/>
</linearGradient>
<linearGradient id="paint12_linear_147_877" x1="11312.1" y1="61934.3" x2="8750.35" y2="75245.5" gradientUnits="userSpaceOnUse">
<stop stop-color="#FF9559"/>
<stop offset="1" stop-color="#C93329"/>
</linearGradient>
<linearGradient id="paint13_linear_147_877" x1="10831.5" y1="50401.8" x2="7244.35" y2="54719" gradientUnits="userSpaceOnUse">
<stop stop-color="#FFC444"/>
<stop offset="1" stop-color="#F36F56"/>
</linearGradient>
<linearGradient id="paint14_linear_147_877" x1="31702.6" y1="58979" x2="37147.9" y2="70762.4" gradientUnits="userSpaceOnUse">
<stop stop-color="#FF9559"/>
<stop offset="1" stop-color="#C93329"/>
</linearGradient>
<linearGradient id="paint15_linear_147_877" x1="134.607" y1="150.598" x2="138.861" y2="150.983" gradientUnits="userSpaceOnUse">
<stop stop-color="#444B8C"/>
<stop offset="1" stop-color="#26264F"/>
</linearGradient>
<linearGradient id="paint16_linear_147_877" x1="8194.89" y1="7368.44" x2="8552.73" y2="7445.19" gradientUnits="userSpaceOnUse">
<stop stop-color="#444B8C"/>
<stop offset="1" stop-color="#26264F"/>
</linearGradient>
<linearGradient id="paint17_linear_147_877" x1="120.382" y1="142.474" x2="131.106" y2="114.599" gradientUnits="userSpaceOnUse">
<stop stop-color="#343439"/>
<stop offset="1" stop-color="#595866"/>
</linearGradient>
<linearGradient id="paint18_linear_147_877" x1="11459" y1="118336" x2="1189.33" y2="111776" gradientUnits="userSpaceOnUse">
<stop stop-color="#311944"/>
<stop offset="1" stop-color="#893976"/>
</linearGradient>
<linearGradient id="paint19_linear_147_877" x1="-13744.9" y1="121581" x2="-3012.35" y2="116158" gradientUnits="userSpaceOnUse">
<stop stop-color="#343439"/>
<stop offset="1" stop-color="#595866"/>
</linearGradient>
<linearGradient id="paint20_linear_147_877" x1="69811.2" y1="68236.3" x2="73311.6" y2="83767.4" gradientUnits="userSpaceOnUse">
<stop stop-color="#FF9559"/>
<stop offset="1" stop-color="#F95C3A"/>
</linearGradient>
<linearGradient id="paint21_linear_147_877" x1="-6326.63" y1="56744.8" x2="-13488.6" y2="41871.8" gradientUnits="userSpaceOnUse">
<stop stop-color="#FFC444"/>
<stop offset="1" stop-color="#F36F56"/>
</linearGradient>
</defs>
</svg>
