<svg width="199" height="196" viewBox="0 0 199 196" fill="none" xmlns="http://www.w3.org/2000/svg">
<path d="M102.521 3.1256C80.9895 11.6869 78.9276 33.5722 59.5405 35.4498C42.6483 37.0861 36.2275 21.2449 24.3739 24.0833C6.31826 28.407 -5.03332 71.4526 2.21684 106.847C9.70415 143.394 41.1637 191.979 93.2842 195.294C151.798 199.017 196.074 143.116 198.777 94.0629C199.069 88.7574 200.796 44.3065 166.812 18.048C165.116 16.7329 131.628 -8.44755 102.521 3.1256Z" fill="url(#paint0_linear_147_1087)"/>
<path d="M64.1346 185.408C68.6547 185.376 76.2633 185.323 83.2424 180.4C95.9261 171.448 98.2848 152.209 95.2926 138.637C92.7239 126.982 84.4031 117.428 67.7617 98.3347C52.0885 80.3502 45.9143 76.9833 46.4855 69.0122C47.2986 57.6491 60.6775 52.9934 59.6428 39.5942C59.5188 37.9863 59.092 32.4639 55.1159 29.2522C48.3096 23.7536 35.8779 28.8856 29.4104 33.4735C23.1725 37.8995 15.1628 47.011 16.2856 56.6368C17.0987 63.6098 22.0159 64.9284 21.358 70.9243C20.6966 76.9548 15.5199 77.4427 10.5783 86.2262C8.60446 89.7348 4.64194 96.7789 6.03844 104.268C7.84421 113.952 16.9753 115.614 16.5085 123.082C16.1697 128.478 11.2911 129.374 9.64997 135.249C7.48509 142.983 13.3008 150.854 18.2275 157.338C24.0297 164.979 39.6819 185.577 64.1346 185.408Z" fill="url(#paint1_linear_147_1087)"/>
<g style="mix-blend-mode:screen" opacity="0.16">
<path d="M51.1765 31.6381C54.3951 35.9191 38.0653 44.8713 35.8435 63.0604C33.4577 82.6304 48.8612 100.955 55.9806 109.423C68.127 123.872 75.2782 124.016 81.5933 137.866C84.0936 143.348 89.3022 154.769 84.3938 166.615C83.9377 167.716 78.6702 179.911 67.0198 182.663C53.8069 185.784 42.4235 174.383 32.6202 164.559C26.6947 158.624 14.8587 146.766 18.4858 139.218C20.7021 134.604 28.1874 132.663 33.6433 133.187C41.4315 133.932 46.1536 139.806 47.2235 138.762C48.187 137.822 45.2822 132.154 40.4158 127.061C30.6816 116.872 23.0507 119.395 16.2125 110.647C15.3831 109.586 8.93724 101.088 11.6638 92.2697C13.2358 87.1831 17.8976 81.8573 22.325 82.1737C27.3282 82.5301 29.8651 89.9483 31.2643 89.3107C32.6026 88.7009 31.0963 81.5476 28.5757 74.6959C24.8706 64.6277 22.0621 63.5991 21.3811 57.7732C20.3423 48.8853 25.7671 41.7463 26.5612 40.7313C34.0079 31.2234 48.4262 27.9785 51.1765 31.6381Z" fill="white"/>
</g>
<path d="M133.469 170.449C134.049 173.654 149.2 179.461 161.168 176.739C163.567 176.193 167.894 175.208 170.744 171.765C174.222 167.564 171.551 164.468 174.873 159.737C177.922 155.397 180.846 157.037 184.773 151.777C186.245 149.805 189.234 145.802 187.271 141.664C186.132 139.262 184.299 138.872 184.102 137.165C183.749 134.11 189.523 134.504 192.194 130.111C193.64 127.733 193.36 125.164 192.804 120.026C192.295 115.351 192.008 112.712 189.778 110.833C186.506 108.076 182.719 110.039 180.662 107.927C177.333 104.512 185.908 98.0122 182.404 90.6794C180.168 86.0041 174.191 83.4292 173.115 82.9868C161.522 78.2213 145.086 85.0656 143.394 95.4238C142.06 103.59 150.382 110.925 146.03 117.485C144.519 119.764 142.642 120.196 141.433 123.526C139.875 127.819 141.145 132.217 141.84 134.532C144.483 143.302 149.965 146.06 148.769 150.172C148.015 152.765 145.737 152.013 143.823 155.787C142.072 159.235 143.484 160.83 142.129 163.749C139.695 169.001 133.073 168.274 133.469 170.449Z" fill="url(#paint2_linear_147_1087)"/>
<g style="mix-blend-mode:multiply" opacity="0.16">
<path d="M162.711 84.3296C158.296 83.1486 153.035 86.4599 150.414 89.7144C146.663 94.3707 146.058 101.716 148.788 107.043C153.031 115.328 163.378 114.907 163.898 120.774C164.169 123.869 161.594 127.414 158.773 128.13C153.813 129.383 149.597 121.49 146.398 122.907C144.11 123.917 143.247 129.289 144.823 133.562C147.972 142.099 159.886 143.619 159.3 147.33C159.164 148.205 156.732 149.712 151.871 152.725C148.2 155.002 147.638 155.115 147.007 156.171C145.1 159.367 148.012 162.075 146.47 165.403C144.692 169.244 139.079 169.393 139.22 170.497C139.366 171.655 145.713 172.9 151.01 171.518C163.567 168.246 168.921 150.562 170.81 144.327C178.416 119.198 173.969 87.3401 162.711 84.3296Z" fill="black"/>
</g>
<path d="M143.027 174.614C143.027 177.613 141.314 180.205 139.202 180.392L58.9294 187.855C56.4366 188.075 51.9571 185.451 51.9571 182.174V57.3625C51.9571 51.0752 56.3533 50.565 58.8468 50.6619L139.202 54.8033C141.314 54.8853 143.027 57.3923 143.027 60.392V174.614Z" fill="#161516"/>
<path d="M146.114 174.605C146.114 177.632 144.402 180.247 142.289 180.432L59.5745 187.826C57.0817 188.049 55.0442 185.541 55.0442 182.233V56.2938C55.0442 52.9858 57.0817 50.375 59.5745 50.4726L142.289 53.7122C144.402 53.7948 146.114 56.3249 146.114 59.3517V174.605Z" fill="#595866"/>
<path d="M57.1583 56.3617V182.054C57.1583 183.821 58.2425 185.16 59.5746 185.044L125.189 179.352L142.289 177.869C143.422 177.771 144.337 176.375 144.337 174.752V59.2882C144.337 57.662 143.422 56.3157 142.289 56.2743L124.57 55.6266L59.5746 53.2503C58.2418 53.2015 57.1583 54.5939 57.1583 56.3617Z" fill="#343439"/>
<path d="M143.208 168.458C143.208 169.061 142.822 169.583 142.347 169.62L59.5066 176.114C58.9483 176.158 58.4902 175.66 58.4902 175.004V56.3479C58.4902 55.692 58.9456 55.1743 59.5066 55.196L142.345 58.0716C142.82 58.0886 143.207 58.5934 143.207 59.1971L143.208 168.458Z" fill="url(#paint3_linear_147_1087)"/>
<path d="M111.464 177.994L93.5762 179.501C92.9772 179.552 92.4921 179.131 92.4921 178.563V176.85C92.4921 176.281 92.9786 175.78 93.5762 175.732L111.464 174.29C112.042 174.244 112.51 174.658 112.51 175.216V176.896C112.51 177.453 112.042 177.945 111.464 177.994Z" fill="#88879B"/>
<path d="M101.598 53.6288C101.571 54.0394 101.067 54.3389 100.475 54.299C99.8827 54.259 99.4253 53.8924 99.4531 53.4859C99.4809 53.0793 99.9837 52.7757 100.576 52.8164C101.168 52.8571 101.626 53.2189 101.598 53.6288Z" fill="url(#paint4_linear_147_1087)"/>
<path d="M84.7072 108.988C86.8077 104.909 90.714 102.032 95.2518 101.519L95.5668 81.5686C82.5288 81.5828 71.0091 89.7227 65.7599 101.79L84.7072 108.988Z" fill="#C6C5D2"/>
<path d="M109.843 117.862C108.776 124.412 103.406 129.56 96.8332 129.783C94.9319 129.85 93.0398 129.492 91.2947 128.734L81.0143 146.419C85.9075 148.878 91.3686 149.986 96.8332 149.627C113.231 148.576 126.101 134.861 127.528 118.354L109.843 117.862Z" fill="url(#paint5_linear_147_1087)"/>
<path d="M77.7926 144.557L88.1698 126.819C85.0665 124.263 83.0717 120.288 83.0717 115.781C83.0715 114.714 83.1851 113.651 83.4105 112.608L64.3886 105.498C63.3415 108.911 62.8107 112.462 62.8139 116.033C62.8139 128.179 68.816 138.639 77.7926 144.557Z" fill="#F95C3A"/>
<path d="M98.8445 101.612C104.834 102.614 109.437 107.778 109.984 114.159L138.89 115.127C138.89 115.114 138.89 115.1 138.89 115.087C138.89 91.4998 122.003 71.2617 99.3649 68.5886L98.8445 101.612Z" fill="#98DD62"/>
<path d="M153.796 13.77L91.7148 10.4268C86.6011 10.1511 82.4319 13.9157 82.4319 18.8357V52.8504C82.4319 57.7704 86.599 61.8623 91.7148 61.9883L112.011 62.4884L121.482 73.6814C121.758 74.0063 122.147 74.2134 122.57 74.2599C122.993 74.3064 123.418 74.1889 123.757 73.9314L132.866 63.002L153.796 63.5176C158.529 63.6342 162.346 59.919 162.346 55.2206V22.7385C162.346 18.0395 158.529 14.0248 153.796 13.77Z" fill="#C93329"/>
<path d="M155.031 12.7815L92.9495 9.43831C87.8357 9.16253 83.6666 12.9272 83.6666 17.8478V51.8626C83.6666 56.7832 87.8337 60.8744 92.9495 61.0005L113.246 61.5005L122.487 72.4205C122.641 72.6033 122.834 72.7505 123.051 72.852C123.268 72.9536 123.504 73.0071 123.743 73.0089C123.983 73.0107 124.22 72.9608 124.438 72.8625C124.657 72.7642 124.851 72.6199 125.009 72.4395L134.101 62.0148L155.031 62.5305C159.765 62.647 163.582 58.9318 163.582 54.2334V21.75C163.582 17.051 159.765 13.0363 155.031 12.7815Z" fill="url(#paint6_linear_147_1087)"/>
<path d="M144.957 33.006C144.613 26.569 140.238 21.1585 134.789 20.4707C130.452 19.9287 126.599 22.3754 124.547 26.3393C122.489 22.1809 118.597 19.3453 114.18 19.4659C108.564 19.619 104.002 24.7178 103.642 31.2796C103.405 35.6161 104.978 39.5996 107.562 42.2862L123.414 55.1983C124.099 55.7559 124.991 55.781 125.675 55.2661L141.204 43.4876C143.681 41.0354 145.183 37.2579 144.957 33.006Z" fill="white"/>
<path d="M172.999 75.2953C166.67 77.5584 163.366 71.1952 156.937 72.5802C150.914 73.8778 151.086 80.0499 144.266 80.9511C141.614 81.3014 139.78 80.6055 137.253 82.082C135.06 83.3633 135.049 84.7015 132.503 85.928C130.184 87.0446 129.458 86.2891 127.3 87.5115C126.604 87.9052 124.26 89.2325 123.68 91.5838C123.131 93.8076 124.434 95.8431 125.035 96.7863C128.57 102.312 141.738 111.213 151.732 106.741C158.44 103.738 157.492 97.493 165.305 94.7474C170.406 92.9572 172.122 95.154 176.843 92.9376C181.9 90.5599 187.036 84.6948 185.892 79.1379C185.225 75.8977 182.392 72.6087 179.331 72.3505C176.788 72.1398 176.089 74.1895 172.999 75.2953Z" fill="#343439"/>
<path d="M122.318 106.141C121.211 106.058 121.259 109.029 118.133 111.557C115.338 113.817 113.277 113.079 112.103 115.065C110.944 117.024 111.493 120.203 113.211 121.589C115.724 123.617 121.3 121.589 123.674 117.896C126.708 113.175 123.983 106.266 122.318 106.141Z" fill="url(#paint7_linear_147_1087)"/>
<path d="M122.318 106.141C121.211 106.058 121.259 109.029 118.133 111.557C115.338 113.817 113.277 113.079 112.103 115.065C110.944 117.024 111.493 120.203 113.211 121.589C115.724 123.617 121.3 121.589 123.674 117.896C126.708 113.175 123.983 106.266 122.318 106.141Z" fill="url(#paint8_linear_147_1087)"/>
<path d="M132.081 128.361C127.91 129.619 127.256 137.704 126.854 142.679C126.401 148.281 125.897 154.521 129.479 160.111C133.986 167.143 143.319 170.586 153.234 169.598C153.131 168.957 153.028 168.317 152.926 167.678C142.752 163.795 139.974 159.43 139.269 156.219C137.778 149.392 145.079 145.007 143.193 137.603C141.772 132.024 135.773 127.247 132.081 128.361Z" fill="#161516"/>
<path d="M146.59 133.736C144.326 130.398 142.118 127.023 139.908 123.652C139.474 122.99 139.222 122.221 139.1 121.416C138.176 122.153 137.339 122.995 136.606 123.923C133.927 133.852 132.485 144.074 132.312 154.357C132.177 162.051 133.917 185.317 134.757 191.164C135.065 191.227 135.176 190.427 135.491 190.487C135.875 190.56 135.972 191.257 136.347 191.322C137.464 179.514 138.745 168.855 139.392 163.379C139.611 161.52 140.258 155.945 143.243 151.453C143.291 151.381 147.708 145.341 149.232 142.928C149.739 142.125 150.374 141.083 151.096 139.689C149.384 137.892 148.013 135.834 146.59 133.736Z" fill="url(#paint9_linear_147_1087)"/>
<path d="M136.429 184.921C136.255 184.521 135.302 185.525 134.414 186.585L134.757 191.164C134.441 190.961 134.044 190.744 133.596 190.641C133.054 190.517 132.125 190.708 132.053 190.968C131.611 192.559 135.576 192.906 136.012 192.406C136.139 192.259 136.235 192.086 136.293 191.899C136.35 191.713 136.369 191.516 136.347 191.322C135.945 189.031 135.998 187.478 136.189 186.406C136.323 185.653 136.524 185.141 136.429 184.921Z" fill="#D99C71"/>
<path d="M134.756 191.164C135.064 191.227 135.175 190.427 135.49 190.486C135.875 190.559 135.971 191.257 136.347 191.322C136.753 187.006 137.185 182.844 137.598 179.032C136.262 178.876 134.905 178.836 133.567 178.82C133.992 184.238 134.439 188.95 134.756 191.164Z" fill="#E8BEA0"/>
<path style="mix-blend-mode:multiply" opacity="0.25" d="M146.59 133.736C144.326 130.399 142.118 127.023 139.908 123.652C139.474 122.99 139.222 122.221 139.1 121.416C138.176 122.153 137.339 122.995 136.606 123.923C134.743 130.826 133.479 137.876 132.827 144.996C135.138 144.86 137.342 146.221 137.991 147.845C139.335 151.203 135.099 153.832 135.141 160.873C135.165 164.73 136.545 165.699 135.916 169.239C135.754 170.153 135.295 172.161 135.498 174.919C135.587 176.131 135.685 175.868 135.759 176.961C135.97 180.078 135.227 182.947 135.548 184.894C135.625 185.37 135.776 185.831 135.995 186.26C136.193 186.637 136.444 186.985 136.74 187.291C137.753 177.127 138.821 168.223 139.393 163.377C139.613 161.519 140.26 155.944 143.244 151.452C143.293 151.379 147.71 145.34 149.234 142.927C149.74 142.123 150.375 141.081 151.097 139.688C149.384 137.892 148.013 135.834 146.59 133.736Z" fill="url(#paint10_linear_147_1087)"/>
<path d="M123.17 104.556C121.747 107.166 121.909 109.764 122.065 110.901C122.477 113.913 123.94 115.035 125.203 117.463C129.336 125.411 125.875 137.137 125.266 139.203C124.562 141.592 123.717 143.546 124.644 144.483C125.961 145.818 128.857 143.06 133.863 143.502C137.61 143.833 138.391 145.592 141.555 145.425C144.448 145.272 146.704 143.646 148.115 142.37C158.185 138.521 160.44 136.499 160.218 135.357C160.15 135.025 159.887 134.815 156.259 132.986C152.46 131.067 151.811 130.822 150.83 130.045C148.783 128.423 147.806 126.478 147.446 125.761C145.549 121.985 146.202 118.246 146.418 115.906C146.767 112.138 146.481 106.662 143.505 99.4495C141.408 98.7435 134.861 96.8347 128.632 99.8513C127.079 100.599 124.668 101.809 123.17 104.556Z" fill="#F95C3A"/>
<path d="M123.08 103.803C124.673 104.67 122.562 114.042 119.567 118.71C118.686 120.083 115.766 122.206 113.401 121.597C111.582 121.129 110.598 117.184 110.981 114.651C111.33 112.348 113.924 110.666 117.225 107.706C120.469 104.797 122.144 103.294 123.08 103.803Z" fill="#C93329"/>
<path d="M194.208 110.213L115.413 118.724C113.124 118.972 111.255 121.048 111.255 123.36V136.384C111.255 138.696 113.124 140.306 115.413 139.982L194.208 128.827C195.953 128.581 197.359 126.76 197.359 124.762V113.494C197.359 111.495 195.953 110.026 194.208 110.213Z" fill="#343439"/>
<path d="M156.339 139.323L151.372 133.163L163.351 131.502L158.36 139.217C158.252 139.383 158.107 139.521 157.936 139.619C157.765 139.718 157.573 139.775 157.376 139.785C157.179 139.796 156.982 139.759 156.802 139.679C156.622 139.598 156.463 139.476 156.339 139.323Z" fill="#343439"/>
<path d="M194.977 110.675L116.183 119.186C113.893 119.433 112.024 121.509 112.024 123.821V136.845C112.024 139.157 113.893 140.767 116.183 140.443L194.977 129.289C196.722 129.042 198.128 127.221 198.128 125.223V113.956C198.128 111.956 196.722 110.486 194.977 110.675Z" fill="url(#paint11_linear_147_1087)"/>
<path d="M157.108 139.784L152.141 133.625L164.12 131.963L159.129 139.678C159.022 139.844 158.877 139.982 158.706 140.081C158.535 140.18 158.343 140.237 158.146 140.247C157.948 140.257 157.751 140.221 157.571 140.14C157.391 140.06 157.232 139.938 157.108 139.784Z" fill="#88879B"/>
<path d="M128.94 129.46L121.599 130.391C120.336 130.551 119.309 131.722 119.309 133.006V134.876L131.161 133.294V131.46C131.161 130.2 130.168 129.304 128.94 129.46Z" fill="white"/>
<path d="M128.109 125.611C128.109 127.2 126.85 128.645 125.291 128.84C123.732 129.035 122.445 127.896 122.445 126.292C122.445 124.689 123.721 123.243 125.291 123.06C126.861 122.876 128.109 124.02 128.109 125.611Z" fill="white"/>
<path d="M134.796 131.16C135.126 131.148 135.454 131.105 135.776 131.032C136.454 130.896 137.152 130.606 137.667 130.17C138.276 129.654 138.699 128.954 138.874 128.176L138.83 128.166C138.403 128.68 137.785 129.02 136.915 129.131C135.289 129.339 133.903 128.327 133.903 126.381C133.903 124.42 135.42 122.586 137.535 122.342C139.987 122.056 141.139 123.874 141.139 126.194C141.139 128.255 140.513 129.847 139.475 130.977C138.565 131.955 137.314 132.597 135.82 132.858C135.482 132.926 135.14 132.972 134.796 132.994V131.16ZM136.161 125.965C136.161 126.827 136.605 127.51 137.52 127.395C137.776 127.367 138.021 127.278 138.236 127.137C138.451 126.996 138.629 126.805 138.756 126.582C138.83 126.435 138.874 126.276 138.874 125.985C138.874 124.928 138.491 123.932 137.476 124.053C136.709 124.145 136.146 124.921 136.161 125.965Z" fill="white"/>
<path d="M148.479 123.113L144.875 123.547L144.672 125.088C144.87 125.039 145.072 125.004 145.276 124.984C146.166 124.875 147.067 124.976 147.723 125.391C148.421 125.801 148.847 126.562 148.847 127.707C148.847 129.531 147.367 131.341 144.859 131.677C143.72 131.829 142.766 131.683 142.243 131.463L142.635 129.675C143.055 129.834 143.908 129.996 144.758 129.885C145.664 129.767 146.624 129.187 146.624 128.144C146.624 127.127 145.865 126.606 143.995 126.84C143.565 126.89 143.139 126.974 142.722 127.091L143.344 121.827L148.478 121.226L148.479 123.113Z" fill="white"/>
<path d="M169.573 121.478C169.484 119.637 168.353 118.271 166.939 118.313C165.818 118.347 164.822 119.221 164.293 120.45C163.762 119.345 162.759 118.701 161.623 118.929C160.179 119.219 159.008 120.881 158.916 122.777C158.855 124.03 159.259 125.105 159.921 125.765L164.001 128.795C164.178 128.927 164.408 128.896 164.584 128.718L168.6 124.662C169.246 123.849 169.632 122.697 169.573 121.478Z" fill="white"/>
<path d="M178.475 117.712V119.088L175.014 127.49L172.914 127.77L176.401 119.784V119.755L172.522 120.221V118.412L178.475 117.712Z" fill="white"/>
<path d="M185.109 118.705L181.932 119.087L181.754 120.533C181.929 120.487 182.107 120.456 182.287 120.439C183.071 120.342 183.865 120.444 184.444 120.84C185.059 121.231 185.435 121.949 185.435 123.024C185.435 124.737 184.13 126.426 181.92 126.721C180.916 126.857 180.075 126.711 179.616 126.501L179.962 124.826C180.332 124.978 181.083 125.136 181.832 125.038C182.63 124.934 183.476 124.397 183.476 123.417C183.476 122.469 182.807 121.968 181.159 122.175C180.78 122.218 180.405 122.294 180.038 122.402L180.586 117.465L185.111 116.935L185.109 118.705Z" fill="white"/>
<path d="M186.498 123.552C186.498 122.451 187.059 121.617 187.942 121.069V121.027C187.158 120.673 186.773 119.973 186.773 119.168C186.773 117.615 188.004 116.44 189.612 116.255C191.482 116.036 192.255 117.176 192.255 118.281C192.255 119.063 191.888 119.878 191.103 120.423V120.465C191.875 120.705 192.559 121.374 192.559 122.547C192.559 124.197 191.348 125.461 189.49 125.711C187.445 125.982 186.498 124.798 186.498 123.552ZM190.659 122.943C190.659 122.143 190.142 121.732 189.402 121.601C189.109 121.723 188.859 121.93 188.685 122.196C188.511 122.462 188.42 122.774 188.425 123.092C188.413 123.755 188.859 124.315 189.563 124.223C190.228 124.136 190.657 123.59 190.657 122.945L190.659 122.943ZM188.549 118.877C188.549 119.496 189.044 119.83 189.686 119.975C189.926 119.861 190.129 119.682 190.273 119.459C190.416 119.235 190.495 118.976 190.499 118.71C190.499 118.149 190.216 117.622 189.526 117.705C188.883 117.787 188.549 118.305 188.549 118.882V118.877Z" fill="white"/>
<path d="M152.471 132.336L152.254 133C152.254 133 151.657 134.077 151.45 134.776C151.243 135.476 151.382 136.003 152.045 136.335C152.708 136.667 153.197 135.898 153.628 135.236C153.889 134.833 153.82 134.07 153.71 133.46C153.632 133.032 153.822 132.13 153.822 132.13L152.471 132.336Z" fill="#E8BEA0"/>
<path d="M137.685 100.081C138.987 98.2471 143.169 99.3286 143.716 99.477C147.742 100.561 150.13 103.538 153.575 107.954C156.234 111.361 157.582 113.06 158.285 115.78C159.388 120.04 158.414 123.738 157.927 125.588C157.281 128.071 156.194 130.418 154.717 132.516C154.164 132.626 153.6 132.684 153.036 132.689C152.512 132.694 151.989 132.653 151.472 132.568C150.199 130.517 149.31 128.251 148.85 125.882C148.457 123.819 149.1 122.575 148.482 120.326C148.04 118.718 147.33 117.59 146.307 116.129C141.923 109.875 139.182 108.059 137.757 103.526C137.147 101.588 137.258 100.682 137.685 100.081Z" fill="#C93329"/>
<path d="M152.926 167.679C150.441 166.731 148.4 165.754 146.721 164.772C146.243 166.312 146.018 167.919 146.053 169.53C148.438 169.818 150.846 169.841 153.236 169.598C153.132 168.958 153.029 168.318 152.926 167.679Z" fill="#E8BEA0"/>
<path d="M152.703 168.065L152.926 167.679C152.926 167.679 153.325 167.44 153.514 167.935C153.703 168.429 154.774 171.014 154.831 172.187C154.55 172.888 153.755 172.294 153.591 171.817C153.427 171.34 152.858 169.572 152.858 169.572L152.703 168.065Z" fill="#E8BEA0"/>
<path d="M131.599 94.2195C131.599 94.771 131.618 97.7226 132.93 98.2071C133.216 98.3134 133.447 98.2457 134.718 98.2789C135.443 98.2979 136.033 98.3365 136.412 98.3656C136.328 99.0255 136.174 99.6745 135.952 100.301C134.319 104.894 129.037 108.084 127.247 106.935C126.315 106.337 126.243 104.542 126.213 103.796C126.18 102.939 126.324 102.084 126.636 101.284C127.291 100.807 127.961 100.331 128.647 99.8536C129.094 99.5419 129.54 99.2363 129.983 98.9368C129.953 98.3717 129.923 97.8071 129.893 97.2429L131.599 94.2195Z" fill="#D99C71"/>
<path d="M132.171 95.3085C132.171 95.3085 132.177 97.7377 130.238 98.5277C128.501 99.2351 126.223 95.1581 126.909 93.8355C127.138 93.3937 127.824 92.8753 128.488 92.7554C128.954 92.6714 130.891 92.6599 131.44 94.1817C131.604 93.7006 131.929 93.3889 132.264 93.3849C132.382 93.3906 132.497 93.4286 132.595 93.4946C133.039 93.8117 132.913 94.5537 132.171 95.3085Z" fill="#E8BEA0"/>
<path d="M124.529 108.64L130.27 108.929C130.49 108.941 130.753 108.668 130.699 108.483L128.017 99.805C127.993 99.7323 127.945 99.6699 127.881 99.628C127.817 99.586 127.741 99.567 127.664 99.5739L122.159 99.6945C121.979 99.7047 121.881 100.058 121.93 100.233L124.211 108.393C124.233 108.461 124.275 108.521 124.332 108.566C124.389 108.61 124.457 108.636 124.529 108.64Z" fill="#161516"/>
<path d="M124.633 108.455L130.405 108.726C130.627 108.736 130.779 108.578 130.725 108.393L128.147 99.5644C128.122 99.4914 128.074 99.4288 128.01 99.3868C127.945 99.3448 127.869 99.326 127.792 99.3334L122.279 99.6593C122.237 99.6619 122.196 99.6739 122.159 99.6945C122.122 99.715 122.09 99.7436 122.066 99.7781C122.042 99.8126 122.026 99.8521 122.019 99.8937C122.012 99.9353 122.014 99.9779 122.026 100.018L124.313 108.208C124.335 108.276 124.378 108.337 124.435 108.381C124.492 108.425 124.561 108.451 124.633 108.455Z" fill="url(#paint12_linear_147_1087)"/>
<path style="mix-blend-mode:multiply" opacity="0.3" d="M127.547 103.192C127.376 103.994 126.654 103.821 126.065 104.793C125.319 106.027 126.034 107.116 125.348 107.571C125.139 107.707 124.786 107.792 124.149 107.625L124.313 108.211C124.335 108.28 124.377 108.341 124.434 108.385C124.491 108.429 124.56 108.455 124.632 108.459L130.405 108.73C130.626 108.74 130.779 108.581 130.725 108.396L128.146 99.5681C128.122 99.4951 128.074 99.4324 128.01 99.3904C127.945 99.3485 127.869 99.3296 127.792 99.337L126.963 99.3858C126.853 99.7218 126.799 100.074 126.804 100.427C126.828 101.755 127.747 102.251 127.547 103.192Z" fill="#343439"/>
<path d="M122.518 103.982L122.23 103.087C122.19 102.965 122.194 102.832 122.241 102.713C122.289 102.593 122.376 102.493 122.489 102.431C122.811 102.254 123.274 102.097 123.626 102.367C124.225 102.829 123.21 105.229 122.979 105.044C122.748 104.859 122.518 103.982 122.518 103.982Z" fill="#E8BEA0"/>
<defs>
<linearGradient id="paint0_linear_147_1087" x1="-5.68417" y1="161.523" x2="209.815" y2="11.1272" gradientUnits="userSpaceOnUse">
<stop stop-color="#F5F4F8"/>
<stop offset="1" stop-color="#E1E1E7"/>
</linearGradient>
<linearGradient id="paint1_linear_147_1087" x1="3.53971" y1="89.2691" x2="107.772" y2="124.55" gradientUnits="userSpaceOnUse">
<stop stop-color="#98DD62"/>
<stop offset="0.761321" stop-color="#57A41B"/>
</linearGradient>
<linearGradient id="paint2_linear_147_1087" x1="119499" y1="205045" x2="12680.3" y2="304382" gradientUnits="userSpaceOnUse">
<stop stop-color="#57A41B"/>
<stop offset="1" stop-color="#74C733"/>
</linearGradient>
<linearGradient id="paint3_linear_147_1087" x1="136.805" y1="165.684" x2="61.2887" y2="63.6258" gradientUnits="userSpaceOnUse">
<stop offset="0.49" stop-color="#EBEFF2"/>
<stop offset="1" stop-color="white"/>
</linearGradient>
<linearGradient id="paint4_linear_147_1087" x1="99.1185" y1="50.9507" x2="102.765" y2="57.6641" gradientUnits="userSpaceOnUse">
<stop stop-color="#FF9085"/>
<stop offset="1" stop-color="#FB6FBB"/>
</linearGradient>
<linearGradient id="paint5_linear_147_1087" x1="90646.5" y1="73475.4" x2="100721" y2="103210" gradientUnits="userSpaceOnUse">
<stop stop-color="#E38DDD"/>
<stop offset="1" stop-color="#9571F6"/>
</linearGradient>
<linearGradient id="paint6_linear_147_1087" x1="155718" y1="28239.8" x2="183306" y2="83986.7" gradientUnits="userSpaceOnUse">
<stop stop-color="#FF9559"/>
<stop offset="1" stop-color="#F95C3A"/>
</linearGradient>
<linearGradient id="paint7_linear_147_1087" x1="28225" y1="33904.8" x2="30935.2" y2="33904.8" gradientUnits="userSpaceOnUse">
<stop stop-color="#FFC444"/>
<stop offset="1" stop-color="#F36F56"/>
</linearGradient>
<linearGradient id="paint8_linear_147_1087" x1="28225" y1="33904.8" x2="30935.2" y2="33904.8" gradientUnits="userSpaceOnUse">
<stop stop-color="#FFC444"/>
<stop offset="1" stop-color="#F36F56"/>
</linearGradient>
<linearGradient id="paint9_linear_147_1087" x1="131.167" y1="142.266" x2="142.38" y2="164.309" gradientUnits="userSpaceOnUse">
<stop stop-color="#595866"/>
<stop offset="1" stop-color="#343439"/>
</linearGradient>
<linearGradient id="paint10_linear_147_1087" x1="44703.8" y1="160450" x2="57511.4" y2="172489" gradientUnits="userSpaceOnUse">
<stop stop-color="#40447E"/>
<stop offset="1" stop-color="#3C3B6B"/>
</linearGradient>
<linearGradient id="paint11_linear_147_1087" x1="228624" y1="68568.3" x2="239254" y2="37490.5" gradientUnits="userSpaceOnUse">
<stop stop-color="#88879B"/>
<stop offset="1" stop-color="#151516"/>
</linearGradient>
<linearGradient id="paint12_linear_147_1087" x1="39748.3" y1="-5962.53" x2="38391.2" y2="-6318.55" gradientUnits="userSpaceOnUse">
<stop stop-color="#595866"/>
<stop offset="1" stop-color="#343439"/>
</linearGradient>
</defs>
</svg>
